<?xml version="1.0" encoding="iso-8859-1"?>
<!-- Generator: Adobe Illustrator 19.0.0, SVG Export Plug-In . SVG Version: 6.00 Build 0)  -->
<svg version="1.1" id="&#x5716;&#x5C64;_1" xmlns="http://www.w3.org/2000/svg" xmlns:xlink="http://www.w3.org/1999/xlink" x="0px"
	 y="0px" viewBox="0 0 505.794 589.151" style="enable-background:new 0 0 505.794 589.151;" xml:space="preserve">
<g>
	<path d="M72.92,56.623c20.003,41.485,43.809,80.381,72.624,116.149c4.468,5.546,9.102,10.959,13.799,16.601
		c0.563-0.706,0.98-1.191,1.356-1.705c14.337-19.569,28.546-39.235,43.039-58.689c16.407-22.025,33.263-43.707,51.231-64.496
		c8.064-9.329,16.31-18.495,25.6-26.65c2.958-2.597,5.994-5.115,9.512-6.928c1.404-0.723,2.925-1.301,4.459-1.669
		c2.377-0.57,4.31,0.497,5.007,2.812c0.453,1.507,0.758,3.153,0.665,4.71c-0.204,3.45-0.673,6.885-1.083,10.321
		c-1.012,8.464-2.25,16.907-3.03,25.392c-0.97,10.543-1.669,21.115-2.295,31.686c-0.386,6.514-0.44,13.048-0.596,19.574
		c-0.094,3.93-0.15,7.862-0.131,11.792c0.075,15.394,0.568,30.773,1.86,46.116c1.78,21.136,4.762,42.087,9.924,62.688
		c4.075,16.261,9.488,32.033,16.946,47.091c10.05,20.292,24.251,37.014,42.507,50.38c15.46,11.32,32.154,20.434,49.749,27.895
		c10.603,4.496,21.349,8.67,32.128,12.731c3.455,1.302,7.182,2.053,10.853,2.566c4.064,0.568,6.831,2.77,9.091,5.881
		c1.993,2.743,1.467,5.126-1.459,6.87c-2.616,1.559-5.525,2.378-8.492,2.802c-5.404,0.772-10.823,1.515-16.261,1.943
		c-8.63,0.679-17.276,1.24-25.926,1.566c-6.857,0.259-13.735,0.263-20.594,0.07c-8.387-0.236-16.776-0.647-25.144-1.253
		c-11.032-0.799-22.005-2.187-32.921-3.986c-16.314-2.69-32.41-6.342-48.249-11.099c-36.539-10.973-70.597-27.065-101.656-49.33
		c-14.173-10.16-27.392-21.441-39.556-33.937c-20.57-21.131-37.474-44.863-50.34-71.426C85.642,212.67,78.499,191.321,74,169.075
		c-3.084-15.249-4.881-30.645-5.491-46.181c-0.557-14.199-0.163-28.383,1.257-42.52c0.739-7.353,1.836-14.67,2.783-22.002
		C72.625,57.782,72.794,57.205,72.92,56.623z M392.942,380.559c-46.579-30.884-82.431-71.033-106.162-121.659
		c-23.717-50.596-31.601-103.824-25.392-159.547c-0.841,0.509-1.405,0.822-1.941,1.179c-17.132,11.424-33.037,24.333-47.406,39.108
		c-10.44,10.735-19.882,22.262-27.798,34.996c-8.906,14.326-15.655,29.515-18.346,46.307c-1.848,11.534-1.477,22.965,1.616,34.264
		c3.491,12.754,9.909,23.946,18.281,34.078c10.415,12.604,22.948,22.785,36.531,31.745c14.725,9.714,30.364,17.724,46.528,24.728
		c25.539,11.066,51.943,19.545,78.883,26.461c14.343,3.682,28.836,6.477,43.531,8.256
		C391.821,380.542,392.384,380.533,392.942,380.559z"/>
	<path d="M90.776,301.311c0.533,1.056,1.043,2.125,1.602,3.168c5.047,9.421,10.635,18.485,17.719,26.543
		c4.285,4.874,9.016,9.248,14.448,12.849c6.845,4.537,14.307,7.417,22.473,8.266c14.624,1.52,26.406,8.586,36.694,18.594
		c1.08,1.051,1.982,2.357,2.705,3.687c1.301,2.394,0.634,3.835-2.01,4.339c-1.822,0.347-3.704,0.535-5.558,0.525
		c-6.861-0.036-13.722-0.21-20.583-0.275c-2.06-0.02-4.128,0.073-6.182,0.243c-2.823,0.234-5.219,1.49-7.321,3.352
		c-0.747,0.662-1.473,1.366-2.298,1.919c-1.266,0.849-2.47,0.664-3.287-0.619c-0.633-0.994-1.079-2.136-1.444-3.266
		c-0.839-2.596-1.522-5.243-2.37-7.836c-1.611-4.923-3.989-9.48-7.275-13.471c-12.073-14.663-24.18-29.299-36.384-43.853
		c-3.549-4.232-7.649-8.005-11.165-12.261c-4.419-5.347-8.864-10.628-14.227-15.073c-0.863-0.715-1.609-1.606-2.276-2.515
		c-4.088-5.575-9.192-10.173-14.19-14.876c-4.584-4.313-8.802-8.927-11.531-14.696c-2.664-5.632-4.009-11.555-3.788-17.801
		c0.036-1.028,0.017-2.116,1.054-3.178c0.445,0.798,0.903,1.423,1.164,2.121c0.886,2.369,1.791,4.736,2.533,7.152
		c4.106,13.381,11.863,24.317,22.197,33.59c8.701,7.807,18.091,14.71,27.637,21.418c0.102,0.072,0.245,0.086,0.5,0.17
		c0-0.265,0.049-0.501-0.007-0.708c-0.767-2.824-1.639-5.624-2.306-8.471c-1.023-4.365-3.132-8.067-6.518-10.978
		c-5.057-4.349-9.995-8.813-14.402-13.836c-5.388-6.141-10.201-12.666-13.364-20.268c-2.486-5.974-3.535-12.133-2.145-18.557
		c0.233-1.075,0.33-2.255,1.391-2.985c1.079,0.284,1.184,1.24,1.412,2.025c0.705,2.429,1.321,4.884,1.996,7.322
		c2.366,8.539,6.029,16.495,10.769,23.97c2.122,3.347,4.787,6.205,7.643,8.935c7.565,7.231,14.833,14.753,21.869,22.505
		c5.706,6.286,12.255,11.663,18.906,16.907c11.21,8.839,23.09,16.738,34.867,24.778c11.557,7.89,23.385,15.385,34.564,23.824
		c10.029,7.571,19.448,15.802,27.401,25.588c10.45,12.86,17.826,27.276,21.703,43.422c0.465,1.936,0.725,3.929,0.953,5.91
		c0.112,0.977,0.04,2.006-0.136,2.978c-0.4,2.202-1.347,2.671-3.406,1.686c-2.568-1.229-4.611-3.186-6.547-5.194
		c-7.113-7.379-13.252-15.48-17.872-24.676c-1.947-3.874-3.721-7.816-4.991-11.971c-3.285-10.745-9.477-19.603-17.699-27.119
		c-13.484-12.327-28.264-22.928-44.047-32.052c-10.978-6.346-21.572-13.247-32.052-20.35c-5.13-3.477-10.235-6.991-15.354-10.484
		c-0.375-0.256-0.77-0.481-1.156-0.721C90.98,301.109,90.878,301.21,90.776,301.311z"/>
	<path style="fill:#FFFFFF;" d="M392.942,380.559c-0.558-0.026-1.121-0.017-1.674-0.084c-14.695-1.778-29.188-4.573-43.531-8.256
		c-26.939-6.916-53.344-15.396-78.883-26.461c-16.165-7.004-31.803-15.014-46.528-24.728c-13.582-8.96-26.115-19.14-36.531-31.745
		c-8.372-10.132-14.79-21.324-18.281-34.078c-3.093-11.299-3.465-22.73-1.616-34.264c2.691-16.792,9.44-31.982,18.346-46.307
		c7.916-12.734,17.359-24.261,27.798-34.996c14.369-14.775,30.274-27.684,47.406-39.108c0.535-0.357,1.099-0.67,1.941-1.179
		c-6.209,55.723,1.675,108.951,25.392,159.547C310.511,309.526,346.363,349.675,392.942,380.559z"/>
</g>
<g>
	<g id="XMLID_144_">
		<path id="XMLID_150_" d="M79.152,540.439v-40.192c0-0.475,0.385-0.86,0.86-0.86h3.671c0.475,0,0.86,0.385,0.86,0.86v40.192
			c0,0.475-0.385,0.86-0.86,0.86h-3.671C79.537,541.299,79.152,540.914,79.152,540.439z"/>
		<path id="XMLID_156_" d="M216.579,499.387h3.671c0.475,0,0.86,0.385,0.86,0.86v30.61c0,3.979,1.317,5.97,3.952,5.97
			c1.164,0,2.114-0.5,2.849-1.5c0.736-1.001,1.103-2.409,1.103-4.225v-30.855c0-0.475,0.385-0.86,0.86-0.86h3.673
			c0.475,0,0.86,0.385,0.86,0.86v30.267c0,3.677-0.93,6.485-2.788,8.425c-1.859,1.941-4.045,2.912-6.557,2.912
			c-2.676,0-4.902-1.011-6.678-3.033c-1.778-2.023-2.665-4.647-2.665-7.874v-30.697
			C215.719,499.772,216.104,499.387,216.579,499.387z"/>
		<path id="XMLID_160_" d="M317.844,540.439v-40.192c0-0.475,0.385-0.86,0.86-0.86h3.671c0.475,0,0.86,0.385,0.86,0.86v40.192
			c0,0.475-0.385,0.86-0.86,0.86h-3.671C318.229,541.299,317.844,540.914,317.844,540.439z"/>
		<path id="XMLID_162_" d="M368.263,541.851c-3.31,0-6.005-1.915-8.089-5.745c-2.083-3.831-3.124-9.084-3.124-15.763
			c0-6.312,0.986-11.474,2.957-15.487c1.971-4.013,4.722-6.02,8.257-6.02c3.431,0,6.162,2.001,8.194,6.005s3.049,9.17,3.049,15.502
			c0,6.74-1.073,12.01-3.217,15.808C374.145,539.951,371.469,541.851,368.263,541.851z M368.201,503.861
			c-1.778,0-3.141,1.463-4.091,4.388c-0.949,2.925-1.425,6.956-1.425,12.094c0,5.321,0.491,9.398,1.471,12.232
			c0.98,2.834,2.369,4.251,4.167,4.251c1.715,0,3.069-1.448,4.058-4.343c0.991-2.894,1.486-6.942,1.486-12.139
			c0-5.281-0.5-9.348-1.501-12.202C371.367,505.288,369.978,503.861,368.201,503.861z"/>
		<path id="XMLID_165_" d="M416.813,513.079l5.205-12.87c0.131-0.325,0.447-0.538,0.797-0.538h3.185c0.475,0,0.86,0.385,0.86,0.86
			v40.192c0,0.475-0.385,0.86-0.86,0.86h-3.539c-0.479,0-0.865-0.391-0.86-0.87l0.327-29.43l-0.154-0.123l-5.269,13.788h-0.98
			l-5.27-13.788l-0.153,0.123l0.327,29.43c0.005,0.479-0.381,0.87-0.86,0.87h-3.539c-0.475,0-0.86-0.385-0.86-0.86v-40.192
			c0-0.475,0.385-0.86,0.86-0.86h3.185c0.351,0,0.666,0.213,0.797,0.538l5.204,12.87
			C415.508,513.796,416.523,513.796,416.813,513.079z"/>
		<path id="XMLID_167_" d="M135.008,535.982h-5.259c-0.475,0-0.86-0.385-0.86-0.86v-34.574c0-0.475-0.385-0.86-0.86-0.86h-3.863
			c-0.475,0-0.86,0.385-0.86,0.86v40.158c0,0.475,0.385,0.86,0.86,0.86h10.843c0.475,0,0.86-0.385,0.86-0.86v-3.863
			C135.868,536.368,135.483,535.982,135.008,535.982z"/>
		<path id="XMLID_145_" d="M182.746,535.982h-5.259c-0.475,0-0.86-0.385-0.86-0.86v-34.574c0-0.475-0.385-0.86-0.86-0.86h-3.863
			c-0.475,0-0.86,0.385-0.86,0.86v40.158c0,0.475,0.385,0.86,0.86,0.86h10.843c0.475,0,0.86-0.385,0.86-0.86v-3.863
			C183.606,536.368,183.221,535.982,182.746,535.982z"/>
		<path id="XMLID_154_" d="M275.166,518.796c-1.971-3.647-3.187-6.158-3.647-7.537c-0.459-1.378-0.688-2.489-0.688-3.47
			c0-2.654,1.53-3.913,4.246-3.913h3.079c0.475,0,0.86-0.385,0.86-0.86v-2.154c0-0.336-0.186-0.654-0.494-0.788
			c-1.322-0.577-2.933-1.237-4.182-1.237c-2.492,0-4.625,0.894-6.229,2.68c-1.603,1.789-2.448,4.091-2.448,6.909
			c0,1.45,0.274,3.126,0.867,5.025c0.592,1.899,1.862,4.692,3.834,8.38c1.971,3.686,3.176,6.214,3.625,7.582
			c0.45,1.369,0.672,2.533,0.672,3.493c0,1.115-0.399,2.283-1.197,3.073c-0.796,0.791-1.757,1.401-2.88,1.401h-3.272
			c-0.475,0-0.86,0.385-0.86,0.86l0,1.537c0,0.282,0.131,0.557,0.365,0.715c1.34,0.906,3.006,1.361,4.688,1.361
			c2.552,0,4.492-0.894,6.095-2.681c1.603-1.787,2.335-4.11,2.335-6.97c0-1.471-0.36-3.16-0.942-5.07
			C278.413,525.22,277.136,522.442,275.166,518.796z"/>
	</g>
	<g id="XMLID_5_">
		<path id="XMLID_38_" d="M140.148,575.543v0.224h-5.112c-0.033-1.272,1.262-2.053,2.388-2.857c1.161-0.804,2.3-1.629,2.3-2.823
			c0-1.196-0.904-1.82-2.109-1.82c-1.585,0-2.222,1.005-2.222,2.399h-0.222c0.011-1.663,0.825-2.623,2.444-2.623
			c1.294,0,2.332,0.682,2.332,2.043c-0.011,2.522-4.499,3.493-4.688,5.457H140.148z"/>
		<path id="XMLID_40_" d="M157.135,575.9c-2.188,0-2.868-2.02-2.868-3.929s0.68-3.929,2.868-3.929s2.868,2.02,2.868,3.929
			S159.323,575.9,157.135,575.9z M157.135,568.266c-2.076,0-2.645,2.009-2.645,3.705c0,1.697,0.568,3.705,2.645,3.705
			c2.076,0,2.646-2.008,2.646-3.705C159.781,570.276,159.211,568.266,157.135,568.266z"/>
		<path id="XMLID_43_" d="M176.968,568.467h-0.022c-0.458,0.637-1.262,1.127-2.02,1.34v-0.224c0.915-0.29,1.395-0.693,2.02-1.407
			h0.245v7.59h-0.224V568.467z"/>
		<path id="XMLID_45_" d="M198.665,569.962c-0.301-1.373-1.373-1.696-2.132-1.696c-2.266,0-2.679,2.556-2.634,4.297h0.022
			c0.213-1.072,1.273-1.909,2.478-1.909c1.317,0,2.623,1.061,2.623,2.623c0,1.519-1.228,2.623-2.623,2.623
			c-1.039,0-1.831-0.603-2.21-1.194c-0.436-0.669-0.503-1.54-0.503-2.522c0-1.887,0.637-4.141,2.857-4.141
			c1.306,0,2.199,0.848,2.345,1.919H198.665z M196.399,570.878c-1.328,0-2.399,1.071-2.399,2.399s1.071,2.399,2.399,2.399
			s2.399-1.072,2.399-2.399S197.727,570.878,196.399,570.878z"/>
		<path id="XMLID_48_" d="M229.97,567.797h0.224v7.969h-0.224V567.797z"/>
		<path id="XMLID_52_" d="M251.933,567.797h0.368v7.969h-0.224v-7.69h-0.022l-3.382,7.69h-0.245l-3.382-7.69h-0.022v7.69H244.8
			v-7.969h0.368l3.371,7.679h0.022L251.933,567.797z"/>
		<path id="XMLID_72_" d="M283.417,567.797h0.335l5.446,7.69h0.023v-7.69h0.222v7.969h-0.334l-5.447-7.69h-0.022v7.69h-0.224
			V567.797z"/>
		<path id="XMLID_74_" d="M304.055,567.797h0.224v7.969h-0.224V567.797z"/>
		<path id="XMLID_76_" d="M322.491,572.262v-0.224h3.314v3.739h-0.222v-1.986h-0.023c-0.413,1.339-1.618,2.165-3.18,2.165
			c-2.455,0-3.739-1.885-3.739-4.174c0-2.332,1.395-4.174,3.739-4.174c1.797,0,3.036,1.05,3.303,2.679h-0.222
			c-0.269-1.484-1.429-2.455-3.081-2.455c-2.233,0-3.516,1.774-3.516,3.951s1.194,3.951,3.548,3.951
			c1.764,0,3.171-1.294,3.171-3.058v-0.413H322.491z"/>
		<path id="XMLID_88_" d="M340.573,571.726v4.041h-0.224v-7.969h0.224v3.705h5.581v-3.705h0.222v7.969h-0.222v-4.041H340.573z"/>
		<path id="XMLID_90_" d="M360.195,568.021v-0.224h5.96v0.224h-2.868v7.746h-0.224v-7.746H360.195z"/>
	</g>
</g>
</svg>
