<?xml version="1.0" encoding="iso-8859-1"?>
<!-- Generator: Adobe Illustrator 19.0.0, SVG Export Plug-In . SVG Version: 6.00 Build 0)  -->
<svg version="1.2" baseProfile="tiny" id="&#x5716;&#x5C64;_1"
	 xmlns="http://www.w3.org/2000/svg" xmlns:xlink="http://www.w3.org/1999/xlink" x="0px" y="0px" viewBox="0 0 521.041 282.337"
	 xml:space="preserve">
<path id="XMLID_7_" fill="#E8E8E8" d="M36.781,217.57l-9.245-26.878c-1.3-3.778-1.957-7.666-1.957-11.57V49.308h11.202V217.57z"/>
<g id="XMLID_6_">
	<path id="XMLID_243_" fill="#EFEFEF" d="M81.526,54.689c1.226,0,2.43,0.179,3.614,0.536c1.183,0.357,2.235,0.916,3.154,1.673
		c0.919,0.758,1.664,1.724,2.234,2.898s0.855,2.588,0.855,4.24c0,1.362-0.217,2.63-0.651,3.805c-0.435,1.175-1.018,2.298-1.75,3.371
		c-0.732,1.073-1.58,2.124-2.541,3.154c-0.962,1.03-1.971,2.082-3.026,3.154L70.8,90.393c0.358-0.034,0.771-0.06,1.239-0.077
		s0.992-0.026,1.571-0.026H92.1c0.17,0,0.255,0.085,0.255,0.255v0.307H69.983v-0.204c0-0.103,0.025-0.188,0.077-0.255
		c0.051-0.068,0.093-0.119,0.127-0.153l12.872-13.076c1.056-1.073,2.052-2.12,2.988-3.141c0.936-1.021,1.753-2.06,2.452-3.116
		c0.698-1.056,1.251-2.146,1.66-3.269c0.409-1.124,0.613-2.324,0.613-3.601c0-1.549-0.264-2.882-0.792-3.997
		c-0.528-1.115-1.226-2.03-2.094-2.745c-0.869-0.715-1.856-1.243-2.963-1.583c-1.107-0.34-2.239-0.511-3.396-0.511
		c-1.328,0-2.55,0.204-3.665,0.613s-2.099,0.983-2.95,1.724c-0.852,0.741-1.554,1.622-2.107,2.644s-0.932,2.154-1.136,3.396
		c-0.051,0.273-0.188,0.409-0.409,0.409h-0.255c0.187-1.43,0.575-2.72,1.162-3.869s1.341-2.124,2.26-2.924
		c0.919-0.8,1.979-1.417,3.18-1.852C78.807,54.906,80.113,54.689,81.526,54.689z"/>
	<path id="XMLID_245_" fill="#EFEFEF" d="M123.256,72.975c0,3.133-0.336,5.845-1.009,8.134c-0.673,2.29-1.583,4.185-2.732,5.683
		c-1.149,1.498-2.495,2.609-4.035,3.333c-1.542,0.724-3.171,1.085-4.891,1.085s-3.35-0.361-4.891-1.085
		c-1.541-0.723-2.886-1.834-4.035-3.333s-2.06-3.393-2.732-5.683c-0.673-2.29-1.009-5.001-1.009-8.134
		c0-3.132,0.336-5.844,1.009-8.134c0.672-2.29,1.583-4.188,2.732-5.695s2.494-2.626,4.035-3.358s3.171-1.098,4.891-1.098
		s3.35,0.366,4.891,1.098c1.541,0.732,2.886,1.852,4.035,3.358c1.149,1.507,2.06,3.405,2.732,5.695
		C122.92,67.131,123.256,69.842,123.256,72.975z M122.592,72.975c0-3.064-0.319-5.712-0.958-7.942
		c-0.639-2.23-1.503-4.074-2.592-5.529c-1.09-1.456-2.362-2.537-3.818-3.244c-1.456-0.706-3-1.06-4.635-1.06
		c-1.634,0-3.184,0.354-4.648,1.06c-1.464,0.707-2.746,1.788-3.844,3.244s-1.966,3.299-2.605,5.529
		c-0.638,2.23-0.958,4.878-0.958,7.942c0,3.065,0.319,5.712,0.958,7.943c0.639,2.23,1.507,4.069,2.605,5.516
		c1.098,1.448,2.379,2.52,3.844,3.218c1.464,0.698,3.014,1.047,4.648,1.047c1.635,0,3.18-0.349,4.635-1.047
		c1.456-0.698,2.729-1.771,3.818-3.218c1.089-1.447,1.954-3.286,2.592-5.516C122.273,78.687,122.592,76.04,122.592,72.975z"/>
	<path id="XMLID_248_" fill="#EFEFEF" d="M140.929,54.689c1.226,0,2.417,0.17,3.575,0.511s2.188,0.868,3.09,1.583
		c0.902,0.715,1.626,1.639,2.171,2.771c0.545,1.133,0.817,2.49,0.817,4.074c0,1.209-0.23,2.32-0.689,3.333
		c-0.46,1.013-1.069,1.894-1.826,2.643c-0.758,0.75-1.63,1.366-2.618,1.852c-0.988,0.485-2.001,0.805-3.04,0.958
		c1.481,0.119,2.797,0.426,3.946,0.919c1.149,0.494,2.111,1.133,2.886,1.916c0.774,0.784,1.362,1.698,1.762,2.746
		c0.4,1.047,0.6,2.184,0.6,3.41c0,1.311-0.277,2.563-0.83,3.754c-0.554,1.192-1.324,2.239-2.311,3.142
		c-0.988,0.902-2.163,1.622-3.524,2.158c-1.363,0.537-2.852,0.805-4.47,0.805c-1.43,0-2.686-0.145-3.767-0.434
		c-1.082-0.29-2.018-0.668-2.81-1.137c-0.792-0.468-1.456-1.013-1.992-1.634c-0.536-0.622-0.983-1.264-1.341-1.928
		c-0.357-0.664-0.643-1.328-0.855-1.992s-0.387-1.285-0.523-1.864l0.102-0.051c0.068-0.034,0.136-0.051,0.205-0.051
		c0.136,0,0.234,0.055,0.293,0.166s0.115,0.268,0.166,0.472c0.051,0.239,0.149,0.6,0.294,1.085c0.144,0.485,0.37,1.021,0.677,1.609
		c0.306,0.587,0.702,1.192,1.188,1.813s1.111,1.188,1.877,1.698s1.677,0.928,2.733,1.251c1.055,0.324,2.307,0.485,3.754,0.485
		c1.753,0,3.286-0.294,4.597-0.881s2.405-1.336,3.282-2.247s1.537-1.916,1.979-3.014c0.442-1.098,0.664-2.167,0.664-3.205
		c0-1.226-0.213-2.367-0.639-3.422c-0.426-1.056-1.098-1.975-2.018-2.758c-0.919-0.783-2.094-1.4-3.524-1.852
		s-3.15-0.685-5.159-0.702V72.26c1.566-0.051,2.988-0.294,4.265-0.728c1.277-0.434,2.363-1.03,3.256-1.788
		c0.894-0.757,1.583-1.651,2.069-2.682c0.485-1.03,0.728-2.175,0.728-3.435c0-1.481-0.251-2.754-0.753-3.818
		c-0.502-1.063-1.175-1.937-2.018-2.618c-0.843-0.681-1.809-1.183-2.898-1.507c-1.09-0.323-2.213-0.485-3.371-0.485
		c-1.328,0-2.554,0.204-3.678,0.613s-2.111,0.983-2.962,1.724c-0.852,0.741-1.558,1.622-2.12,2.644
		c-0.562,1.021-0.945,2.154-1.149,3.396c-0.051,0.273-0.17,0.409-0.357,0.409h-0.255c0.187-1.43,0.574-2.72,1.162-3.869
		s1.341-2.124,2.26-2.924c0.919-0.8,1.979-1.417,3.18-1.852S139.515,54.689,140.929,54.689z"/>
	<path id="XMLID_250_" fill="#EFEFEF" d="M179.441,55.353c0,0.085-0.035,0.158-0.103,0.217c-0.068,0.06-0.153,0.089-0.255,0.089
		h-14.455l-2.579,14.174c1.293-0.34,2.52-0.587,3.677-0.741s2.248-0.23,3.269-0.23c1.856,0,3.486,0.26,4.891,0.779
		c1.404,0.52,2.579,1.243,3.524,2.17c0.945,0.928,1.656,2.043,2.133,3.346c0.477,1.303,0.715,2.737,0.715,4.303
		c0,1.874-0.323,3.542-0.97,5.006c-0.647,1.464-1.516,2.699-2.605,3.703c-1.09,1.005-2.354,1.771-3.792,2.298
		c-1.439,0.528-2.95,0.792-4.533,0.792c-0.919,0-1.805-0.077-2.656-0.23c-0.852-0.153-1.647-0.353-2.388-0.6
		c-0.741-0.247-1.417-0.527-2.031-0.843c-0.613-0.315-1.149-0.643-1.609-0.983l0.153-0.204c0.068-0.102,0.17-0.153,0.307-0.153
		c0.119,0,0.383,0.124,0.792,0.37c0.409,0.247,0.958,0.524,1.647,0.83c0.689,0.307,1.515,0.583,2.477,0.83
		c0.962,0.247,2.064,0.371,3.308,0.371c1.515,0,2.954-0.243,4.316-0.728c1.362-0.485,2.554-1.2,3.576-2.146
		c1.021-0.945,1.834-2.12,2.439-3.524c0.604-1.404,0.906-3.018,0.906-4.839c0-1.447-0.208-2.784-0.625-4.01
		c-0.417-1.226-1.06-2.286-1.928-3.18c-0.868-0.894-1.971-1.592-3.307-2.094c-1.337-0.502-2.916-0.753-4.738-0.753
		c-1.021,0-2.124,0.081-3.307,0.243c-1.184,0.162-2.456,0.413-3.818,0.753l-0.459-0.204l2.707-15.068h15.324V55.353z"/>
</g>
<g id="XMLID_5_">
	<path id="XMLID_32_" fill="#E2E2E2" d="M250.706,70.379c2.99,8.327,8.327,15.043,16.792,18.31
		c-1.656,1.472-3.911,4.417-4.969,6.349c-8.097-3.727-13.157-9.845-16.7-17.988c-2.622,7.085-7.499,13.479-16.562,17.988
		c-1.058-1.84-3.082-4.232-5.061-5.705c10.075-4.555,14.308-11.456,16.148-18.954h-15.228v-6.947h16.332
		c0.322-4.049,0.276-8.097,0.322-11.916h7.361c-0.046,3.818-0.092,7.867-0.46,11.916h17.666v6.947H250.706z"/>
	<path id="XMLID_229_" fill="#E2E2E2" d="M322.376,69.275v7.315h-42.877v-7.315H322.376z"/>
	<path id="XMLID_231_" fill="#E2E2E2" d="M337.045,56.624h11.962c7.084,0,12.743,1.886,12.743,8.465
		c0,3.037-1.702,6.349-4.463,7.407v0.184c3.45,0.92,6.073,3.496,6.073,8.051c0,6.993-5.935,10.121-13.388,10.121h-12.928V56.624z
		 M348.685,70.195c3.496,0,5.061-1.518,5.061-3.865c0-2.438-1.61-3.45-5.061-3.45h-3.404v7.315H348.685z M349.374,84.549
		c3.957,0,5.981-1.426,5.981-4.371c0-2.806-1.979-3.91-5.981-3.91h-4.094v8.281H349.374z"/>
	<path id="XMLID_235_" fill="#E2E2E2" d="M376.421,83.537c0-5.521,4.324-8.511,14.537-9.615c-0.184-2.116-1.288-3.358-3.956-3.358
		c-2.07,0-4.232,0.828-6.854,2.3l-2.853-5.382c3.45-2.07,7.177-3.451,11.271-3.451c6.763,0,10.581,3.772,10.581,11.961v14.86h-6.671
		l-0.598-2.622h-0.185c-2.162,1.932-4.601,3.266-7.499,3.266C379.365,91.496,376.421,87.907,376.421,83.537z M390.958,83.077V78.89
		c-5.106,0.69-6.763,2.162-6.763,4.002c0,1.518,1.104,2.254,2.807,2.254C388.658,85.147,389.763,84.365,390.958,83.077z"/>
	<path id="XMLID_238_" fill="#E2E2E2" d="M414.646,64.675h6.67l0.553,3.266h0.184c2.162-2.116,4.831-3.911,8.373-3.911
		c5.705,0,8.144,4.095,8.144,10.627v16.194h-8.189V75.67c0-3.588-0.966-4.646-3.036-4.646c-1.841,0-2.944,0.828-4.555,2.346v17.482
		h-8.143V64.675z"/>
	<path id="XMLID_240_" fill="#E2E2E2" d="M452.779,77.786c0-8.603,5.383-13.756,10.812-13.756c2.898,0,4.601,1.058,6.303,2.714
		l-0.322-3.91v-8.741h8.235v36.758h-6.671l-0.598-2.53h-0.185c-1.84,1.84-4.37,3.174-6.854,3.174
		C456.966,91.496,452.779,86.297,452.779,77.786z M469.571,82.571V72.266c-1.242-1.15-2.668-1.564-4.048-1.564
		c-2.255,0-4.325,2.116-4.325,6.947c0,5.015,1.656,7.131,4.463,7.131C467.226,84.779,468.468,84.273,469.571,82.571z"/>
</g>
<g id="XMLID_3_">
	<rect id="XMLID_227_" x="67.26" y="121.499" fill="none" width="432.802" height="118.501"/>
	<path id="XMLID_33_" fill="#E2E2E2" d="M79.313,126.14c-0.468,0.81-1.063,1.62-1.674,2.376v10.227h-0.829v-9.255
		c-0.774,0.864-1.603,1.657-2.395,2.287c-0.108-0.144-0.414-0.541-0.576-0.702c1.729-1.279,3.529-3.259,4.681-5.222L79.313,126.14z
		 M78.845,122.665c-1.008,1.477-2.683,3.115-4.249,4.177c-0.09-0.162-0.342-0.468-0.504-0.612c1.458-0.99,3.133-2.539,3.961-3.889
		L78.845,122.665z M85.399,122.593c-0.126,0.216-0.252,0.45-0.396,0.648c1.603,2.214,3.529,3.637,5.582,4.807
		c-0.216,0.162-0.468,0.433-0.576,0.685c-1.963-1.225-3.781-2.665-5.402-4.826c-1.368,1.927-3.277,3.691-5.222,4.826
		c-0.144-0.198-0.36-0.45-0.558-0.63c2.323-1.26,4.627-3.511,5.888-5.798L85.399,122.593z M82.122,133.504
		c-0.612,1.476-1.548,3.025-2.449,4.051c-0.18-0.144-0.54-0.36-0.738-0.468c0.955-0.973,1.837-2.413,2.377-3.799L82.122,133.504z
		 M85.165,132.136v5.366c0,0.612-0.162,0.864-0.594,1.008c-0.45,0.162-1.26,0.162-2.61,0.162c-0.036-0.252-0.162-0.576-0.306-0.829
		c1.134,0.036,2.035,0.036,2.287,0.018c0.288-0.018,0.36-0.108,0.36-0.342v-5.384h-4.969v-0.81h4.969v-2.647h-2.899v-0.792h6.986
		v0.792h-3.223v2.647h5.023v0.81H85.165z M87.758,133.234c1.044,1.17,2.161,2.755,2.647,3.817l-0.738,0.432
		c-0.486-1.063-1.566-2.701-2.593-3.889L87.758,133.234z"/>
	<path id="XMLID_40_" fill="#E2E2E2" d="M97.493,133.846c-0.234,1.549-0.594,3.241-0.99,4.375c-0.18-0.09-0.541-0.234-0.756-0.306
		c0.432-1.134,0.738-2.737,0.954-4.195L97.493,133.846z M101.238,129.075c0.504,1.207,1.026,2.791,1.242,3.728l-0.792,0.234
		c-0.054-0.324-0.162-0.72-0.288-1.152c-4.375,0.648-4.88,0.756-5.204,0.936c-0.054-0.198-0.18-0.648-0.288-0.882
		c0.324-0.054,0.774-0.541,1.296-1.188c0.324-0.36,1.044-1.243,1.818-2.377c-2.287,0.27-2.701,0.342-2.953,0.45
		c-0.018-0.18-0.162-0.612-0.27-0.846c0.27-0.072,0.612-0.45,1.008-1.008c0.396-0.54,1.783-2.665,2.611-4.664l0.846,0.378
		c-0.918,1.836-2.034,3.691-3.133,5.113l2.431-0.234c0.504-0.774,0.99-1.584,1.422-2.395l0.792,0.45
		c-1.314,2.197-2.827,4.394-4.339,6.05l3.763-0.504c-0.216-0.666-0.468-1.333-0.72-1.909L101.238,129.075z M99.419,133.684
		c0.216,1.225,0.432,2.827,0.504,3.871l-0.774,0.145c-0.054-1.063-0.252-2.665-0.468-3.907L99.419,133.684z M101.255,133.27
		c0.396,1.063,0.864,2.413,1.026,3.313l-0.738,0.216c-0.18-0.882-0.594-2.269-0.99-3.331L101.255,133.27z M111.447,123.313
		c0,0-0.018,0.306-0.036,0.432c-0.18,3.907-0.378,5.312-0.81,5.78c-0.252,0.288-0.504,0.378-0.973,0.414
		c-0.396,0.018-1.206,0.018-1.999-0.054c-0.018-0.234-0.108-0.576-0.234-0.811c0.846,0.09,1.656,0.09,1.926,0.09
		c0.288,0,0.45-0.018,0.594-0.162c0.288-0.342,0.486-1.584,0.648-4.879h-3.439c-0.36,2.719-1.188,5.095-3.709,6.374
		c-0.126-0.18-0.378-0.468-0.559-0.594c2.323-1.134,3.097-3.331,3.403-5.78h-3.241v-0.811H111.447z M103.452,131.614h7.437v6.968
		h-0.864v-0.738h-5.726v0.829h-0.846V131.614z M104.298,132.406v4.646h5.726v-4.646H104.298z"/>
	<path id="XMLID_48_" fill="#E2E2E2" d="M121.938,134.548h3.727v0.792h-3.727v3.295h-0.828v-3.295h-3.673v-0.792h3.673v-1.674
		h-3.007v-6.086h3.007v-1.566h-3.403v-0.81h3.403v-2.089h0.828v2.089h3.367v0.81h-3.367v1.566h3.061v6.086h-3.061V134.548z
		 M118.858,129.471h2.305v-1.963h-2.305V129.471z M118.858,132.154h2.305v-1.98h-2.305V132.154z M124.224,127.508h-2.323v1.963
		h2.323V127.508z M124.224,130.173h-2.323v1.98h2.323V130.173z M133.839,130.335h-3.781v8.3h-0.864v-8.3h-3.745v-0.829h3.745v-5.095
		h-3.331v-0.828h7.67v0.828h-3.475v5.095h3.781V130.335z"/>
	<path id="XMLID_55_" fill="#E2E2E2" d="M153.582,131.793c-0.414-0.684-1.621-2.196-2.431-3.169v10.011h-0.846v-9.813
		c-0.846,2.449-2.125,4.934-3.331,6.338c-0.126-0.234-0.378-0.558-0.541-0.756c1.405-1.548,2.935-4.573,3.673-7.274h-3.241v-0.828
		h3.439v-3.961h0.846v3.961h2.683v0.828h-2.683v0.432c0.558,0.594,2.593,2.899,3.061,3.475L153.582,131.793z M159.307,127.13
		c0.828,3.079,2.287,6.23,3.799,7.796c-0.198,0.162-0.504,0.468-0.684,0.684c-1.297-1.513-2.557-4.159-3.421-6.896v9.921h-0.864
		v-9.831c-0.99,2.809-2.502,5.564-4.033,7.094c-0.144-0.252-0.396-0.558-0.576-0.756c1.729-1.692,3.511-4.916,4.357-8.012h-3.133
		v-0.828h3.385v-3.961h0.864v3.961h3.565v0.828H159.307z"/>
	<path id="XMLID_58_" fill="#E2E2E2" d="M184.455,131.308h-7.581v6.032c0,0.738-0.216,1.008-0.792,1.17
		c-0.558,0.144-1.657,0.162-3.439,0.162c-0.072-0.27-0.234-0.612-0.396-0.9c1.566,0.054,2.881,0.036,3.277,0.018
		c0.36-0.018,0.468-0.108,0.468-0.45v-6.032h-7.616v-0.846h7.616v-2.683c1.692-0.774,3.745-2.07,5.132-3.259h-10.93v-0.846h11.848
		l0.216-0.054l0.63,0.468c-1.566,1.53-3.997,3.151-6.014,4.159v2.215h7.581V131.308z"/>
	<path id="XMLID_60_" fill="#E2E2E2" d="M205.028,131.074v0.756h-11.758v0.54h-0.864v-6.085c-0.612,0.756-1.278,1.422-1.944,1.98
		c-0.144-0.144-0.468-0.432-0.684-0.576c1.674-1.296,3.241-3.295,4.195-5.366l0.829,0.234c-0.342,0.738-0.756,1.44-1.188,2.106
		h5.042c-0.198-0.576-0.667-1.458-1.098-2.143l0.81-0.198c0.45,0.648,0.954,1.549,1.134,2.107l-0.738,0.234h5.69v0.738h-5.366v1.314
		h4.681v0.702h-4.681v1.404h4.699v0.702h-4.699v1.549H205.028z M204.722,137.52c0,0.522-0.108,0.774-0.54,0.918
		c-0.433,0.144-1.207,0.144-2.485,0.144c-0.036-0.234-0.162-0.54-0.288-0.774c1.116,0.036,1.891,0.036,2.143,0
		c0.27-0.018,0.324-0.09,0.324-0.288v-3.853h-3.385v2.772h-5.042v-2.772h-3.331v5.041h-0.828v-5.815h4.987v2.791h3.385v-2.791h5.06
		V137.52z M198.24,125.402h-4.97v1.314h4.97V125.402z M198.24,127.418h-4.97v1.404h4.97V127.418z M193.271,131.074h4.97v-1.549
		h-4.97V131.074z"/>
	<path id="XMLID_66_" fill="#E2E2E2" d="M224.645,132.568c-0.306-0.558-1.134-1.854-1.747-2.773v8.823h-0.828v-9.435
		c-0.684,2.287-1.656,4.609-2.629,5.941c-0.126-0.216-0.36-0.54-0.54-0.72c1.207-1.584,2.449-4.645,3.043-7.31h-2.719v-0.828h2.845
		v-3.925h0.828v3.925h2.323v0.828h-2.323v1.621c0.504,0.666,1.945,2.665,2.269,3.151L224.645,132.568z M228.444,130.713
		c-0.288,0.54-0.63,1.08-1.008,1.584h7.544c0,0-0.018,0.27-0.036,0.414c-0.306,3.691-0.594,5.06-1.081,5.564
		c-0.234,0.252-0.504,0.342-0.936,0.36c-0.324,0.018-1.008,0-1.693-0.036c-0.018-0.216-0.09-0.558-0.198-0.774
		c0.702,0.072,1.368,0.072,1.62,0.072c0.252,0.018,0.396-0.018,0.541-0.18c0.36-0.342,0.63-1.548,0.882-4.663h-1.783
		c-0.702,2.232-2.088,4.483-3.601,5.653c-0.126-0.198-0.342-0.432-0.558-0.594c1.404-0.973,2.719-2.989,3.421-5.06h-1.944
		c-0.955,1.854-2.665,3.853-4.231,4.934c-0.144-0.198-0.378-0.433-0.558-0.594c1.44-0.882,3.043-2.647,3.997-4.339h-1.999
		c-0.63,0.72-1.296,1.368-1.98,1.891c-0.108-0.126-0.414-0.432-0.612-0.576c1.296-0.9,2.521-2.215,3.349-3.655h-2.485v-0.774h10.263
		v0.774H228.444z M234.062,128.823h-7.616v-5.798h7.616V128.823z M233.215,123.745h-5.942v1.819h5.942V123.745z M233.215,126.266
		h-5.942v1.836h5.942V126.266z"/>
	<path id="XMLID_72_" fill="#E2E2E2" d="M255.013,126.41c-2.161,3.259-6.374,7.166-10.083,9.327c0.216,0.18,0.486,0.378,0.792,0.576
		c1.134,0.72,2.611,0.846,4.609,0.846c2.269,0,4.897-0.126,6.644-0.288c-0.108,0.234-0.252,0.72-0.271,0.972
		c-1.368,0.09-4.681,0.18-6.374,0.18c-2.179,0-3.691-0.18-4.862-0.954c-0.684-0.45-1.26-1.044-1.638-1.044
		c-0.594,0-1.458,0.954-2.395,2.179l-0.666-0.774c1.134-1.242,2.197-2.232,3.079-2.232c0.09,0,0.198,0.018,0.306,0.054
		c3.439-1.926,7.328-5.491,9.417-8.354h-11.865v-0.846h12.496l0.18-0.072L255.013,126.41z M249.36,125.708
		c-0.342-0.774-1.152-2.053-1.855-3.007l0.738-0.36c0.72,0.937,1.566,2.179,1.927,2.953L249.36,125.708z"/>
	<path id="XMLID_75_" fill="#E2E2E2" d="M270.366,126.14h1.296v0.774h-1.296v3.007h-4.52c-0.198,0.63-0.432,1.278-0.774,1.926h5.456
		v5.618h-5.33v1.225h-0.828v-5.618c-0.522,0.81-1.188,1.584-2.017,2.358c-0.126-0.216-0.378-0.504-0.576-0.666
		c1.729-1.548,2.683-3.241,3.223-4.843h-1.962v-0.756h2.196c0.18-0.774,0.306-1.531,0.36-2.251h-3.349v-0.774h3.403
		c0.036-0.486,0.036-0.955,0.036-1.387v-0.792h-2.557v-0.756h7.238V126.14z M265.198,132.658v3.998h4.52v-3.998H265.198z
		 M269.555,126.914h-3.151c-0.054,0.72-0.162,1.477-0.36,2.251h3.511V126.914z M266.495,124.753c0,0.45,0,0.9-0.036,1.387h3.097
		v-2.179h-3.061V124.753z M278.522,123.583c-0.864,1.71-1.962,3.781-2.971,5.474c2.196,1.71,2.791,3.115,2.791,4.447
		c0.018,0.99-0.234,1.8-0.882,2.179c-0.306,0.198-0.72,0.324-1.206,0.378c-0.522,0.054-1.207,0.054-1.783,0.018
		c-0.018-0.252-0.108-0.63-0.288-0.882c0.684,0.072,1.333,0.09,1.783,0.036c0.342-0.018,0.666-0.09,0.936-0.234
		c0.45-0.27,0.612-0.846,0.594-1.548c0-1.207-0.684-2.593-2.917-4.267c0.99-1.693,1.999-3.637,2.719-5.15h-4.141V138.6h-0.846
		v-15.395h5.438l0.162-0.054L278.522,123.583z"/>
	<path id="XMLID_81_" fill="#E2E2E2" d="M296.915,132.892c-0.072,0.486-0.144,0.918-0.252,1.333h4.771v0.702h-4.97
		c-0.666,1.8-1.944,3.007-4.555,3.709c-0.09-0.18-0.324-0.504-0.486-0.63c2.359-0.594,3.547-1.62,4.159-3.079h-4.051v-0.702h4.286
		c0.126-0.415,0.198-0.846,0.27-1.333h-3.637v-6.986h2.719v-1.224h-3.457v-0.72h2.953c-0.27-0.432-0.612-0.882-0.918-1.278
		l0.648-0.288c0.396,0.468,0.864,1.098,1.152,1.566h2.125c0.396-0.522,0.828-1.17,1.098-1.621l0.72,0.306
		c-0.288,0.45-0.648,0.9-0.972,1.314h2.881v0.72h-3.385v1.224h2.719v6.986H296.915z M293.188,132.226h6.788v-2.755h-0.072
		c-0.144,0.018-0.45,0.018-0.648,0.018h-0.846c-0.306,0-0.648-0.036-0.811-0.198c-0.198-0.144-0.252-0.36-0.252-1.17v-1.548h-1.512
		c0,1.188-0.342,2.521-2.107,3.457c-0.072-0.144-0.288-0.414-0.432-0.522c1.584-0.828,1.873-1.926,1.873-2.935h-1.98V132.226z
		 M294.214,130.425h4.843v0.63h-4.843V130.425z M295.834,125.906h1.512v-1.224h-1.512V125.906z M297.13,135.179
		c1.279,0.774,2.899,1.909,3.745,2.575l-0.522,0.594c-0.864-0.72-2.485-1.891-3.745-2.647L297.13,135.179z M298.013,126.572v1.747
		c0,0.27,0.018,0.504,0.108,0.54c0.072,0.036,0.18,0.054,0.36,0.054h0.684h0.468h0.252c0.036-0.018,0.072-0.036,0.09-0.072v-2.269
		H298.013z M307.538,123.727c-0.648,1.603-1.548,3.655-2.358,5.384c1.729,1.747,2.196,3.151,2.196,4.429
		c0,0.918-0.216,1.765-0.756,2.125c-0.288,0.18-0.648,0.306-1.063,0.342c-0.486,0.054-1.116,0.036-1.639,0.018
		c-0.036-0.252-0.126-0.594-0.288-0.846c0.612,0.054,1.225,0.054,1.621,0.036c0.306-0.018,0.576-0.072,0.792-0.198
		c0.396-0.252,0.522-0.882,0.504-1.53c0-1.207-0.504-2.521-2.269-4.286c0.774-1.638,1.584-3.583,2.125-5.005h-3.439v14.495h-0.846
		v-15.323h4.681l0.126-0.054L307.538,123.727z"/>
	<path id="XMLID_89_" fill="#E2E2E2" d="M316.246,128.066v10.587h-0.846v-10.587h-2.359v-0.828h2.359v-4.897h0.846v4.897h2.07v0.828
		H316.246z M329.336,134.351h-2.81v3.241c0,0.54-0.107,0.774-0.558,0.918c-0.433,0.144-1.242,0.144-2.557,0.144
		c-0.055-0.234-0.162-0.522-0.288-0.756c1.116,0.018,1.998,0.018,2.25,0c0.288-0.018,0.343-0.09,0.343-0.306v-3.241h-7.761v-0.756
		h7.761v-1.08h0.81v1.08h2.81V134.351z M323.43,125.114h-4.952v-0.756h4.952v-2.017h0.828v2.017h4.88v0.756h-4.88v1.134h4.142v5.222
		c0,0.45-0.09,0.612-0.433,0.738c-0.342,0.126-0.918,0.126-1.836,0.126c-0.054-0.198-0.181-0.45-0.307-0.648
		c0.757,0.018,1.351,0.018,1.531,0c0.197,0,0.252-0.054,0.252-0.234v-0.774h-3.35v1.387h-0.828v-1.387h-3.205v1.692h-0.792v-6.122
		h3.997V125.114z M320.405,134.548c0.918,0.648,2.143,1.603,2.755,2.161l-0.559,0.63c-0.63-0.612-1.819-1.584-2.755-2.269
		L320.405,134.548z M320.225,126.95v1.26h3.205v-1.26H320.225z M323.43,130.029v-1.17h-3.205v1.17H323.43z M324.258,126.95v1.26
		h3.35v-1.26H324.258z M327.607,130.029v-1.17h-3.35v1.17H327.607z M325.681,122.377c0.918,0.432,2.16,1.008,2.809,1.35l-0.396,0.63
		c-0.648-0.36-1.891-0.99-2.827-1.44L325.681,122.377z"/>
	<path id="XMLID_99_" fill="#E2E2E2" d="M350.792,128.643h-2.106v5.294h-0.864V133h-5.853c-0.666,2.233-2.286,4.231-6.121,5.726
		c-0.108-0.216-0.379-0.54-0.576-0.684c3.528-1.333,5.095-3.079,5.797-5.042h-4.789v-0.828h5.006c0.216-0.918,0.27-1.873,0.27-2.845
		v-0.685h-6.752v-0.846h6.752v-3.511h-5.096v-0.847h12.227v4.357h2.106V128.643z M347.821,128.643h-5.42v0.703
		c0,0.954-0.054,1.908-0.234,2.827h5.654V128.643z M342.401,127.796h5.42v-3.511h-5.42V127.796z"/>
	<path id="XMLID_103_" fill="#E2E2E2" d="M374.388,124.609v1.279h4.052v5.383h-12.982v-5.383h3.943v-1.279h-5.113v-0.774h5.113
		v-1.458h0.847v1.458h3.295v-1.458h0.846v1.458h5.239v0.774H374.388z M366.304,128.229h3.097v-1.621h-3.097V128.229z
		 M366.304,130.551h3.097v-1.639h-3.097V130.551z M366.556,132.424h10.821v6.14h-0.9v-0.594h-9.039v0.648h-0.882V132.424z
		 M367.438,133.162v1.584h9.039v-1.584H367.438z M376.477,137.231v-1.801h-9.039v1.801H376.477z M373.542,124.609h-3.295v1.279
		h3.295V124.609z M373.542,128.229v-1.621h-3.295v1.621H373.542z M370.247,128.913v1.639h3.295v-1.639H370.247z M374.388,126.608
		v1.621h3.188v-1.621H374.388z M377.575,128.913h-3.188v1.639h3.188V128.913z"/>
	<path id="XMLID_115_" fill="#E2E2E2" d="M389.813,130.713c0,0.54-0.108,0.756-0.505,0.9c-0.378,0.126-1.044,0.144-2.143,0.144
		c-0.054-0.234-0.18-0.541-0.288-0.774c0.864,0.036,1.603,0.018,1.818,0.018c0.217-0.018,0.288-0.072,0.288-0.288v-2.413
		l-3.24,0.522l-0.126-0.81c0.918-0.126,2.07-0.306,3.366-0.504v-2.323h-3.114v-0.774h3.114v-2.089h0.829v2.089h2.772v0.774h-2.772
		v2.197l2.971-0.468l0.036,0.756l-3.007,0.504V130.713z M388.084,132.424h11.127v6.194h-0.864v-0.738h-9.417v0.811h-0.846V132.424z
		 M388.93,133.216v3.853h9.417v-3.853H388.93z M401.479,126.536v0.774h-2.574v4.645h-0.847v-4.645h-3.439
		c-0.09,1.638-0.521,3.277-2.106,4.591c-0.126-0.198-0.414-0.468-0.63-0.576c1.782-1.44,1.98-3.331,1.98-5.06v-2.449
		c2.179-0.306,4.754-0.774,6.122-1.296l0.72,0.63c-1.566,0.541-3.925,0.973-6.05,1.261v1.873v0.252H401.479z"/>
	<path id="XMLID_120_" fill="#E2E2E2" d="M412.006,135.017c-1.765,0.612-3.565,1.225-4.97,1.692l-0.216-0.828
		c0.666-0.198,1.477-0.45,2.358-0.738v-5.383h-2.017v-0.811h2.017v-4.411h-2.16v-0.811h5.06v0.811h-2.106v4.411h1.962v0.811h-1.962
		v5.131l1.926-0.63L412.006,135.017z M417.3,137.538c0,0.504-0.108,0.756-0.45,0.882c-0.378,0.145-1.026,0.162-2.017,0.162
		c-0.036-0.234-0.145-0.558-0.271-0.792c0.828,0.036,1.477,0.036,1.692,0.018c0.217-0.018,0.271-0.072,0.271-0.27v-2.773h-2.989
		c-0.144,1.333-0.45,2.755-1.152,3.889c-0.126-0.18-0.45-0.45-0.63-0.54c0.99-1.584,1.099-3.709,1.099-5.312v-3.763h4.447V137.538z
		 M418.416,122.629c-0.145,0.216-0.288,0.396-0.433,0.612c1.278,1.44,3.655,2.935,5.492,3.655c-0.181,0.162-0.433,0.45-0.576,0.648
		c-1.747-0.756-3.979-2.232-5.384-3.727c-1.423,1.621-3.385,3.061-5.113,3.853c-0.126-0.216-0.396-0.504-0.576-0.666
		c2.16-0.864,4.627-2.791,5.869-4.7L418.416,122.629z M416.525,134.044v-1.818h-2.899v0.576c0,0.396,0,0.792-0.035,1.242H416.525z
		 M413.626,129.795v1.71h2.899v-1.71H413.626z M420.595,127.634h-6.536v-0.756h6.536V127.634z M419.496,135.701h-0.72v-6.428h0.72
		V135.701z M421.387,128.607h0.756v8.895c0,0.54-0.126,0.756-0.468,0.882c-0.36,0.144-0.99,0.162-1.999,0.162
		c-0.035-0.216-0.162-0.522-0.27-0.756c0.811,0.018,1.494,0.018,1.71,0c0.217-0.018,0.271-0.072,0.271-0.27V128.607z"/>
	<path id="XMLID_129_" fill="#E2E2E2" d="M441.778,123.439c-0.541,1.44-1.279,3.223-1.927,4.664c1.422,1.548,1.8,2.845,1.8,4.015
		c0,0.846-0.197,1.603-0.666,1.927c-0.216,0.144-0.54,0.252-0.864,0.288c-0.396,0.036-0.846,0.036-1.242,0
		c-0.018-0.216-0.108-0.54-0.252-0.774c0.468,0.018,0.882,0.036,1.188,0.018c0.252-0.018,0.45-0.072,0.612-0.18
		c0.306-0.198,0.414-0.774,0.414-1.332c0-1.063-0.396-2.341-1.837-3.854c0.63-1.422,1.261-3.043,1.711-4.285h-2.971v14.729h-0.811
		v-15.539h4.141l0.145-0.036L441.778,123.439z M448.17,132.892c1.063,1.71,2.845,3.349,4.501,4.141
		c-0.18,0.162-0.468,0.468-0.594,0.684c-1.747-0.936-3.619-2.863-4.699-4.789v5.708h-0.829v-5.672
		c-1.188,1.963-3.259,3.854-5.077,4.826c-0.144-0.198-0.396-0.504-0.594-0.684c1.729-0.811,3.654-2.485,4.825-4.213h-3.061v-6.068
		h3.906v-1.674h-4.717v-0.774h4.717v-2.017h0.829v2.017h4.843v0.774h-4.843v1.674h4.015v6.068H448.17z M443.452,129.489h3.097
		v-1.944h-3.097V129.489z M443.452,132.172h3.097v-1.98h-3.097V132.172z M447.378,127.544v1.944h3.187v-1.944H447.378z
		 M450.564,130.191h-3.187v1.98h3.187V130.191z"/>
	<path id="XMLID_136_" fill="#E2E2E2" d="M457.994,137.394c0.937-1.134,1.621-2.989,2.017-4.357l0.757,0.27
		c-0.433,1.422-1.081,3.331-1.999,4.501L457.994,137.394z M472.093,131.001h-12.406v-7.851h12.406V131.001z M460.533,126.68h4.987
		v-2.719h-4.987V126.68z M460.533,130.209h4.987v-2.755h-4.987V130.209z M468.329,137.447c0.955,0,1.099-0.324,1.188-2.485
		c0.234,0.162,0.576,0.288,0.828,0.342c-0.144,2.395-0.45,2.953-1.98,2.953h-3.997c-1.692,0-2.16-0.27-2.16-1.405v-3.943h0.864
		v3.943c0,0.486,0.197,0.594,1.296,0.594H468.329z M467.699,134.836c-0.828-0.792-2.484-1.944-3.889-2.683l0.576-0.54
		c1.404,0.72,3.061,1.8,3.906,2.611L467.699,134.836z M471.246,123.961h-4.897v2.719h4.897V123.961z M471.246,127.455h-4.897v2.755
		h4.897V127.455z M471.21,132.784c1.081,1.386,2.215,3.259,2.665,4.465l-0.828,0.378c-0.433-1.225-1.53-3.133-2.61-4.52
		L471.21,132.784z"/>
	<path id="XMLID_146_" fill="#E2E2E2" d="M484.6,122.647c-0.521,1.333-1.17,2.629-1.908,3.835v12.154h-0.847v-10.839
		c-0.72,1.026-1.494,1.963-2.269,2.737c-0.107-0.18-0.396-0.612-0.54-0.81c1.891-1.765,3.673-4.501,4.771-7.328L484.6,122.647z
		 M495.871,129.093c-0.918,1.548-1.962,3.295-2.953,4.339l-0.684-0.324c0.756-0.828,1.62-2.143,2.322-3.385h-4.303v7.778
		c0,0.612-0.162,0.882-0.648,1.008c-0.486,0.162-1.387,0.162-2.881,0.162c-0.054-0.234-0.216-0.576-0.342-0.846
		c1.26,0.054,2.305,0.054,2.61,0.018c0.307-0.018,0.396-0.09,0.396-0.36v-7.76h-5.186v-0.828h7.418
		c-1.116-0.955-3.187-2.251-4.861-3.133l0.504-0.594c0.738,0.36,1.549,0.829,2.323,1.297c1.26-0.63,2.628-1.567,3.601-2.449h-7.994
		v-0.81h8.822l0.162-0.054l0.612,0.433c-1.152,1.224-2.917,2.466-4.501,3.295c0.81,0.522,1.548,1.026,2.052,1.458l-0.449,0.559
		h3.169l0.18-0.054L495.871,129.093z"/>
	<path id="XMLID_149_" fill="#E2E2E2" d="M88.982,165.394c0,0.684-0.216,0.954-0.684,1.098c-0.504,0.144-1.44,0.162-3.079,0.162
		c-0.036-0.234-0.198-0.576-0.324-0.811c1.296,0.036,2.449,0.018,2.755,0c0.36-0.018,0.468-0.126,0.468-0.45v-7.526H77.135
		c-0.072,2.845-0.504,6.356-2.341,8.913c-0.144-0.162-0.486-0.468-0.684-0.558c1.98-2.773,2.179-6.59,2.179-9.453v-5.564h12.694
		V165.394z M77.153,152.033v1.981h4.843v-1.981H77.153z M77.153,157.093h4.843v-2.323h-4.843v1.999V157.093z M79.529,164.043v1.026
		h-0.81v-5.618h7.544v4.591H79.529z M79.529,160.19v3.115h5.906v-3.115H79.529z M88.118,152.033h-5.293v1.981h5.293V152.033z
		 M88.118,157.093v-2.323h-5.293v2.323H88.118z"/>
	<path id="XMLID_157_" fill="#E2E2E2" d="M100.877,156.661c-0.324,2.503-0.882,4.573-1.656,6.23c1.782,1.999,4.447,2.449,7.76,2.467
		c0.522,0,4.483,0,5.204-0.018c-0.144,0.216-0.306,0.594-0.36,0.81h-4.861c-3.511,0-6.212-0.486-8.121-2.521
		c-0.684,1.224-1.476,2.161-2.376,2.881c-0.126-0.18-0.45-0.486-0.667-0.612c0.955-0.702,1.783-1.692,2.467-2.953
		c-0.666-0.882-1.206-2.017-1.638-3.439l0.702-0.306c0.324,1.206,0.774,2.161,1.314,2.953c0.594-1.35,1.044-2.953,1.314-4.825
		h-2.953c0.81-1.296,1.891-3.313,2.719-4.988h-3.493v-0.792h4.79c-0.792,1.566-1.836,3.547-2.665,4.987h1.836l0.162-0.036
		L100.877,156.661z M105.847,152.753h-3.691v-0.756h3.691v-1.549h0.828v1.549h3.889v2.395h1.386v0.738h-1.386v2.449h-3.889v1.656
		h4.321v0.738h-4.321v1.801h5.06v0.756h-5.06v2.143h-0.828v-2.143h-4.771v-0.756h4.771v-1.801h-3.961v-0.738h3.961v-1.656h-3.835
		v-0.756h3.835v-1.692h-4.952v-0.738h4.952V152.753z M106.675,152.753v1.639h3.079v-1.639H106.675z M109.754,155.13h-3.079v1.692
		h3.079V155.13z"/>
	<path id="XMLID_162_" fill="#E2E2E2" d="M117.31,158.317c0.432-1.207,0.738-3.169,0.864-4.556l0.666,0.108
		c-0.072,1.35-0.36,3.385-0.828,4.681L117.31,158.317z M119.687,150.359h0.828v16.259h-0.828V150.359z M121.721,153.204
		c0.432,1.152,0.811,2.611,0.918,3.439l-0.72,0.306c-0.126-0.9-0.468-2.395-0.864-3.529L121.721,153.204z M133.767,165.357v0.792
		h-11.596v-0.792h7.256c0.45-0.828,0.972-2.035,1.26-2.863l0.846,0.27c-0.36,0.846-0.828,1.836-1.242,2.593H133.767z
		 M133.587,156.985H122.91v-0.774h10.677V156.985z M133.029,154.86h-9.453v-3.583h0.811v2.845h3.493v-3.781h0.81v3.781h3.511v-2.845
		h0.828V154.86z M132.506,162.26h-8.552v-3.979h8.552V162.26z M131.678,159.02h-6.932v2.502h6.932V159.02z M125.863,165.069
		c-0.126-0.612-0.504-1.584-0.864-2.323l0.684-0.216c0.396,0.738,0.774,1.674,0.9,2.25L125.863,165.069z"/>
	<path id="XMLID_172_" fill="#E2E2E2" d="M153.582,159.793c-0.414-0.684-1.621-2.196-2.431-3.169v10.011h-0.846v-9.813
		c-0.846,2.449-2.125,4.934-3.331,6.338c-0.126-0.234-0.378-0.558-0.541-0.756c1.405-1.548,2.935-4.573,3.673-7.274h-3.241v-0.828
		h3.439v-3.961h0.846v3.961h2.683v0.828h-2.683v0.432c0.558,0.594,2.593,2.899,3.061,3.475L153.582,159.793z M159.307,155.13
		c0.828,3.079,2.287,6.23,3.799,7.796c-0.198,0.162-0.504,0.468-0.684,0.684c-1.297-1.513-2.557-4.159-3.421-6.896v9.921h-0.864
		v-9.831c-0.99,2.809-2.502,5.564-4.033,7.094c-0.144-0.252-0.396-0.558-0.576-0.756c1.729-1.692,3.511-4.916,4.357-8.012h-3.133
		v-0.828h3.385v-3.961h0.864v3.961h3.565v0.828H159.307z"/>
	<path id="XMLID_175_" fill="#E2E2E2" d="M171.67,153.87h2.071v0.828h-2.071v1.008c0.486,0.594,1.729,2.376,2.035,2.827
		l-0.558,0.667c-0.252-0.522-0.954-1.621-1.477-2.449v9.867h-0.828v-9.723c-0.594,2.052-1.404,4.069-2.215,5.275
		c-0.108-0.234-0.342-0.594-0.522-0.792c1.044-1.44,2.143-4.25,2.647-6.68h-2.323v-0.828h2.413v-3.529h0.828V153.87z
		 M178.675,156.193c0.018,0.234,0.054,0.558,0.108,0.738c-3.655,0.991-4.123,1.152-4.429,1.351
		c-0.036-0.252-0.198-0.648-0.306-0.864c0.216-0.072,0.522-0.18,0.522-0.756v-6.194h0.846v2.431h3.241v0.792h-3.241v3.313
		L178.675,156.193z M179.287,157.957c-0.234,0.486-0.468,1.044-0.702,1.495h4.664v7.166h-0.864v-0.684h-6.626v0.756h-0.864v-7.238
		h2.845c0.234-0.54,0.486-1.26,0.612-1.747L179.287,157.957z M182.384,160.208h-6.626v2.07h6.626V160.208z M182.384,165.177v-2.161
		h-6.626v2.161H182.384z M183.122,157.201c0.504,0,0.594-0.27,0.648-1.98c0.198,0.162,0.522,0.288,0.774,0.36
		c-0.108,1.908-0.36,2.395-1.351,2.395h-2.323c-1.152,0-1.458-0.252-1.458-1.333v-6.158h0.847v2.413h3.907v0.792h-3.907v2.971
		c0,0.45,0.108,0.54,0.684,0.54H183.122z"/>
	<path id="XMLID_182_" fill="#E2E2E2" d="M195.521,162.513l0.054,0.792c-1.891,0.522-3.871,1.044-5.383,1.44l-0.234-0.846
		c0.774-0.18,1.747-0.432,2.809-0.684c0.45-2.017,0.954-5.384,1.206-7.67l0.829,0.18c-0.324,2.232-0.829,5.257-1.278,7.292
		L195.521,162.513z M195.359,154.68h-5.348v-0.81h5.348V154.68z M191.524,162.495c-0.108-1.837-0.504-4.609-0.936-6.716l0.72-0.126
		c0.432,2.143,0.864,4.862,0.972,6.716L191.524,162.495z M192.604,153.6c-0.162-0.721-0.54-1.855-0.81-2.701l0.774-0.252
		c0.306,0.846,0.702,1.927,0.864,2.647L192.604,153.6z M200.563,165.357c0,0.63-0.144,0.9-0.576,1.044
		c-0.432,0.162-1.225,0.162-2.539,0.162c-0.018-0.216-0.126-0.576-0.252-0.811c1.026,0.036,1.944,0.018,2.197,0
		c0.288,0,0.378-0.09,0.378-0.396v-5.6c-1.17,1.08-2.395,2.179-3.385,3.043l-0.468-0.63c0.972-0.774,2.449-2.053,3.853-3.331v-6.77
		h-3.601v-0.81h4.394V165.357z M197.16,154.338c0.522,1.134,1.152,2.647,1.404,3.493l-0.666,0.288
		c-0.27-0.882-0.864-2.431-1.404-3.583L197.16,154.338z M205.586,165.412c0,0.666-0.18,0.936-0.594,1.08
		c-0.432,0.144-1.243,0.162-2.557,0.144c-0.036-0.216-0.144-0.576-0.27-0.828c1.062,0.036,1.98,0.036,2.25,0.018
		c0.27-0.018,0.36-0.108,0.36-0.396v-5.924c-1.134,1.081-2.269,2.161-3.223,3.025l-0.486-0.648c0.918-0.774,2.359-2.053,3.709-3.331
		v-6.482h-3.619v-0.81h4.43V165.412z M201.985,154.284c0.576,1.098,1.224,2.575,1.494,3.403l-0.666,0.324
		c-0.306-0.9-0.936-2.395-1.477-3.529L201.985,154.284z"/>
	<path id="XMLID_191_" fill="#E2E2E2" d="M235.178,164.997v0.846h-15.935v-0.846h7.49v-6.14h-5.816v-0.846h5.816v-5.528h-6.572
		v-0.846h14.063v0.846h-6.608v5.528h6.032v0.846h-6.032v6.14H235.178z"/>
	<path id="XMLID_193_" fill="#E2E2E2" d="M242.751,159.038h4.483v7.634h-0.846v-4.357h-2.809c-0.18,2.088-0.667,3.601-2.161,4.501
		c-0.108-0.198-0.36-0.504-0.559-0.612c1.314-0.774,1.747-2.089,1.891-3.889h-2.088v-0.792h5.726v-1.729h-4.483v-7.886h0.846
		V159.038z M252.475,157.993h-7.616v-7.058h7.616V157.993z M251.628,151.619h-5.924v1.422h5.924V151.619z M251.628,153.708h-5.924
		v1.458h5.924V153.708z M251.628,155.833h-5.924v1.458h5.924V155.833z M255.932,161.54v5.15h-0.864v-4.339h-4.087v4.303h-0.828
		v-7.616h4.52v-7.166h0.846v7.922h-4.538v1.747H255.932z"/>
	<path id="XMLID_200_" fill="#E2E2E2" d="M276.667,165.501c0.81,0,0.918-0.486,0.99-3.349c0.234,0.18,0.576,0.342,0.828,0.396
		c-0.108,2.989-0.378,3.781-1.782,3.781h-2.845c-1.368,0-1.747-0.324-1.747-1.548v-6.986h-3.799c-0.36,3.961-1.242,7.22-5.312,8.823
		c-0.108-0.198-0.36-0.504-0.558-0.648c3.889-1.477,4.663-4.556,4.969-8.175h-4.861v-0.828h15.701v0.828h-5.276v6.986
		c0,0.576,0.162,0.72,0.937,0.72H276.667z M276.793,152.682h-12.712v-0.846h12.712V152.682z"/>
	<path id="XMLID_203_" fill="#E2E2E2" d="M307.412,161.36v0.81h-8.103c-0.918,2.485-2.898,3.871-7.472,4.573
		c-0.072-0.216-0.27-0.558-0.414-0.702c4.213-0.612,6.086-1.782,6.986-3.871h-6.662v-0.81h6.932c0.234-0.756,0.36-1.603,0.45-2.575
		h-5.816v-6.968h0.864v6.158h11.613v3.385H307.412z M304.711,156.427h-8.588v-5.023h8.588V156.427z M303.865,152.195h-6.914v3.439
		h6.914V152.195z M299.976,158.786c-0.09,0.954-0.216,1.818-0.414,2.575h5.365v-2.575H299.976z M300.011,162.873
		c2.323,0.954,5.402,2.341,7.041,3.205l-0.468,0.756c-1.584-0.864-4.682-2.341-7.022-3.331L300.011,162.873z"/>
	<path id="XMLID_209_" fill="#E2E2E2" d="M315.867,157.687c-0.63-0.486-1.836-1.17-2.845-1.603l0.468-0.648
		c0.99,0.378,2.232,1.044,2.845,1.512L315.867,157.687z M313.527,165.682c0.774-1.405,1.891-3.799,2.646-5.78l0.72,0.522
		c-0.738,1.873-1.747,4.159-2.575,5.78L313.527,165.682z M314.427,150.575c1.008,0.415,2.269,1.117,2.899,1.621l-0.504,0.72
		c-0.63-0.504-1.873-1.26-2.881-1.71L314.427,150.575z M317.722,151.277h4.286v4.933h-3.188c-0.126,1.063-0.27,2.215-0.414,3.151
		h3.403c0,0-0.019,0.324-0.036,0.432c-0.378,4.16-0.738,5.69-1.315,6.266c-0.288,0.27-0.558,0.36-1.026,0.396
		c-0.378,0-1.117,0-1.855-0.054c-0.018-0.234-0.108-0.559-0.234-0.792c0.81,0.09,1.548,0.09,1.836,0.09s0.45-0.018,0.612-0.18
		c0.45-0.414,0.792-1.854,1.116-5.384h-3.439c0.234-1.224,0.504-3.223,0.648-4.699h3.062v-3.403h-3.458V151.277z M328.472,166.276
		c-0.09-0.468-0.217-1.026-0.36-1.639c-4.88,0.72-5.456,0.846-5.779,1.026c-0.019-0.198-0.162-0.594-0.253-0.828
		c0.307-0.108,0.667-1.297,1.045-2.773c0.36-1.405,1.494-6.662,1.836-11.2l0.829,0.126c-0.396,4.447-1.314,9.687-2.449,13.54
		l4.609-0.648c-0.432-1.674-1.008-3.637-1.566-5.257l0.756-0.198c0.9,2.485,1.837,5.744,2.179,7.58L328.472,166.276z"/>
	<path id="XMLID_215_" fill="#E2E2E2" d="M339.935,155.94c-0.145,0.27-0.307,0.558-0.468,0.846c1.512,0.99,3.223,2.341,4.087,3.313
		l-0.576,0.558c-0.198-0.234-0.433-0.468-0.702-0.738v6.608h-0.811v-0.792h-4.268v0.882h-0.792v-6.428
		c-0.432,0.342-0.9,0.63-1.351,0.9c-0.144-0.18-0.359-0.415-0.558-0.559c1.98-1.026,3.799-2.881,4.735-4.843L339.935,155.94z
		 M337.576,156.391c-0.505,0.738-1.278,1.548-1.963,2.071c-0.126-0.108-0.396-0.342-0.576-0.45c0.702-0.486,1.387-1.134,1.818-1.818
		L337.576,156.391z M335.848,155.634h-0.774v-2.521h3.619v-2.791h0.81v1.099h3.331v0.702h-3.331v0.99h4.088v2.521h-0.774v-1.818
		h-6.968V155.634z M342.005,155.49h-5.312v-0.666h5.312V155.49z M341.465,160.172h-4.268v1.224h4.268V160.172z M337.197,163.215
		h4.268v-1.188h-4.268V163.215z M341.465,165.051v-1.207h-4.268v1.207H341.465z M341.825,159.505
		c-0.828-0.72-1.801-1.494-2.737-2.143c-0.521,0.756-1.152,1.513-1.872,2.143H341.825z M343.031,158.281
		c-0.486-0.504-1.44-1.242-2.215-1.657l0.486-0.414c0.792,0.432,1.747,1.117,2.215,1.603L343.031,158.281z M350.287,151.637
		c-0.396,4.213-1.313,7.598-2.61,10.209c0.847,1.747,1.927,3.169,3.277,4.124c-0.198,0.144-0.486,0.45-0.648,0.666
		c-1.242-0.972-2.251-2.305-3.079-3.907c-0.9,1.657-1.98,2.971-3.169,3.943c-0.126-0.198-0.396-0.504-0.612-0.648
		c1.242-0.954,2.377-2.395,3.331-4.249c-1.116-2.611-1.854-5.834-2.322-9.417h-0.648v-0.828h5.798l0.144-0.036L350.287,151.637z
		 M345.21,152.357c0.414,3.151,1.044,6.068,2.035,8.462c1.025-2.287,1.782-5.149,2.16-8.462H345.21z"/>
</g>
<g id="XMLID_19_">
</g>
<g id="XMLID_252_">
</g>
<g id="XMLID_253_">
</g>
<g id="XMLID_254_">
</g>
<g id="XMLID_255_">
</g>
<g id="XMLID_256_">
</g>
<g id="XMLID_257_">
</g>
<g id="XMLID_258_">
</g>
<g id="XMLID_259_">
</g>
<g id="XMLID_260_">
</g>
<g id="XMLID_261_">
</g>
<g id="XMLID_262_">
</g>
<g id="XMLID_263_">
</g>
<g id="XMLID_264_">
</g>
<g id="XMLID_265_">
</g>
</svg>
