<?xml version="1.0" encoding="iso-8859-1"?>
<!-- Generator: Adobe Illustrator 19.0.0, SVG Export Plug-In . SVG Version: 6.00 Build 0)  -->
<svg version="1.2" baseProfile="tiny" id="&#x5716;&#x5C64;_1"
	 xmlns="http://www.w3.org/2000/svg" xmlns:xlink="http://www.w3.org/1999/xlink" x="0px" y="0px" viewBox="0 0 521.041 282.337"
	 xml:space="preserve">
<path id="XMLID_7_" fill="#E8E8E8" d="M36.781,217.57l-9.245-26.878c-1.3-3.778-1.957-7.666-1.957-11.57V49.308h11.202V217.57z"/>
<g id="XMLID_6_">
	<path id="XMLID_207_" fill="#EFEFEF" d="M81.526,54.689c1.226,0,2.43,0.179,3.614,0.536c1.183,0.357,2.235,0.916,3.154,1.673
		c0.919,0.758,1.664,1.724,2.234,2.898s0.855,2.588,0.855,4.24c0,1.362-0.217,2.63-0.651,3.805c-0.435,1.175-1.018,2.298-1.75,3.371
		c-0.732,1.073-1.58,2.124-2.541,3.154c-0.962,1.03-1.971,2.082-3.026,3.154L70.8,90.393c0.358-0.034,0.771-0.06,1.239-0.077
		s0.992-0.026,1.571-0.026H92.1c0.17,0,0.255,0.085,0.255,0.255v0.307H69.983v-0.204c0-0.103,0.025-0.188,0.077-0.255
		c0.051-0.068,0.093-0.119,0.127-0.153l12.872-13.076c1.056-1.073,2.052-2.12,2.988-3.141c0.936-1.021,1.753-2.06,2.452-3.116
		c0.698-1.056,1.251-2.146,1.66-3.269c0.409-1.124,0.613-2.324,0.613-3.601c0-1.549-0.264-2.882-0.792-3.997
		c-0.528-1.115-1.226-2.03-2.094-2.745c-0.869-0.715-1.856-1.243-2.963-1.583c-1.107-0.34-2.239-0.511-3.396-0.511
		c-1.328,0-2.55,0.204-3.665,0.613s-2.099,0.983-2.95,1.724c-0.852,0.741-1.554,1.622-2.107,2.644s-0.932,2.154-1.136,3.396
		c-0.051,0.273-0.188,0.409-0.409,0.409h-0.255c0.187-1.43,0.575-2.72,1.162-3.869s1.341-2.124,2.26-2.924
		c0.919-0.8,1.979-1.417,3.18-1.852C78.807,54.906,80.113,54.689,81.526,54.689z"/>
	<path id="XMLID_209_" fill="#EFEFEF" d="M104.153,90.341h8.683V57.243c0-0.238,0.008-0.481,0.025-0.728
		c0.017-0.247,0.042-0.489,0.077-0.728l-9.245,8.351c-0.085,0.085-0.17,0.128-0.255,0.128c-0.102,0-0.188-0.042-0.255-0.128
		l-0.153-0.204l10.063-9.041h0.357v35.448h8.479v0.511h-17.775V90.341z"/>
	<path id="XMLID_211_" fill="#EFEFEF" d="M152.881,72.975c0,3.133-0.336,5.845-1.009,8.134c-0.673,2.29-1.583,4.185-2.732,5.683
		c-1.149,1.498-2.495,2.609-4.035,3.333c-1.542,0.724-3.171,1.085-4.891,1.085s-3.35-0.361-4.891-1.085
		c-1.541-0.723-2.886-1.834-4.035-3.333s-2.06-3.393-2.732-5.683c-0.673-2.29-1.009-5.001-1.009-8.134
		c0-3.132,0.336-5.844,1.009-8.134c0.672-2.29,1.583-4.188,2.732-5.695s2.494-2.626,4.035-3.358s3.171-1.098,4.891-1.098
		s3.35,0.366,4.891,1.098c1.541,0.732,2.886,1.852,4.035,3.358c1.149,1.507,2.06,3.405,2.732,5.695
		C152.544,67.131,152.881,69.842,152.881,72.975z M152.217,72.975c0-3.064-0.319-5.712-0.958-7.942
		c-0.639-2.23-1.503-4.074-2.592-5.529c-1.09-1.456-2.362-2.537-3.818-3.244c-1.456-0.706-3-1.06-4.635-1.06
		c-1.634,0-3.184,0.354-4.648,1.06c-1.464,0.707-2.746,1.788-3.844,3.244s-1.966,3.299-2.605,5.529
		c-0.638,2.23-0.958,4.878-0.958,7.942c0,3.065,0.319,5.712,0.958,7.943c0.639,2.23,1.507,4.069,2.605,5.516
		c1.098,1.448,2.379,2.52,3.844,3.218c1.464,0.698,3.014,1.047,4.648,1.047c1.635,0,3.18-0.349,4.635-1.047
		c1.456-0.698,2.729-1.771,3.818-3.218c1.089-1.447,1.954-3.286,2.592-5.516C151.897,78.687,152.217,76.04,152.217,72.975z"/>
	<path id="XMLID_214_" fill="#EFEFEF" d="M179.441,55.353c0,0.085-0.035,0.158-0.103,0.217c-0.068,0.06-0.153,0.089-0.255,0.089
		h-14.455l-2.579,14.174c1.293-0.34,2.52-0.587,3.677-0.741s2.248-0.23,3.269-0.23c1.856,0,3.486,0.26,4.891,0.779
		c1.404,0.52,2.579,1.243,3.524,2.17c0.945,0.928,1.656,2.043,2.133,3.346c0.477,1.303,0.715,2.737,0.715,4.303
		c0,1.874-0.323,3.542-0.97,5.006c-0.647,1.464-1.516,2.699-2.605,3.703c-1.09,1.005-2.354,1.771-3.792,2.298
		c-1.439,0.528-2.95,0.792-4.533,0.792c-0.919,0-1.805-0.077-2.656-0.23c-0.852-0.153-1.647-0.353-2.388-0.6
		c-0.741-0.247-1.417-0.527-2.031-0.843c-0.613-0.315-1.149-0.643-1.609-0.983l0.153-0.204c0.068-0.102,0.17-0.153,0.307-0.153
		c0.119,0,0.383,0.124,0.792,0.37c0.409,0.247,0.958,0.524,1.647,0.83c0.689,0.307,1.515,0.583,2.477,0.83
		c0.962,0.247,2.064,0.371,3.308,0.371c1.515,0,2.954-0.243,4.316-0.728c1.362-0.485,2.554-1.2,3.576-2.146
		c1.021-0.945,1.834-2.12,2.439-3.524c0.604-1.404,0.906-3.018,0.906-4.839c0-1.447-0.208-2.784-0.625-4.01
		c-0.417-1.226-1.06-2.286-1.928-3.18c-0.868-0.894-1.971-1.592-3.307-2.094c-1.337-0.502-2.916-0.753-4.738-0.753
		c-1.021,0-2.124,0.081-3.307,0.243c-1.184,0.162-2.456,0.413-3.818,0.753l-0.459-0.204l2.707-15.068h15.324V55.353z"/>
</g>
<g id="XMLID_5_">
	<path id="XMLID_32_" fill="#E2E2E2" d="M250.706,70.379c2.99,8.327,8.327,15.043,16.792,18.31
		c-1.656,1.472-3.911,4.417-4.969,6.349c-8.097-3.727-13.157-9.845-16.7-17.988c-2.622,7.085-7.499,13.479-16.562,17.988
		c-1.058-1.84-3.082-4.232-5.061-5.705c10.075-4.555,14.308-11.456,16.148-18.954h-15.228v-6.947h16.332
		c0.322-4.049,0.276-8.097,0.322-11.916h7.361c-0.046,3.818-0.092,7.867-0.46,11.916h17.666v6.947H250.706z"/>
	<path id="XMLID_192_" fill="#E2E2E2" d="M321.548,84.089v7.729h-41.221v-7.729H321.548z M317.729,57.728v7.407h-33.583v-7.407
		H317.729z"/>
	<path id="XMLID_195_" fill="#E2E2E2" d="M337.045,56.624h11.962c7.084,0,12.743,1.886,12.743,8.465
		c0,3.037-1.702,6.349-4.463,7.407v0.184c3.45,0.92,6.073,3.496,6.073,8.051c0,6.993-5.935,10.121-13.388,10.121h-12.928V56.624z
		 M348.685,70.195c3.496,0,5.061-1.518,5.061-3.865c0-2.438-1.61-3.45-5.061-3.45h-3.404v7.315H348.685z M349.374,84.549
		c3.957,0,5.981-1.426,5.981-4.371c0-2.806-1.979-3.91-5.981-3.91h-4.094v8.281H349.374z"/>
	<path id="XMLID_199_" fill="#E2E2E2" d="M376.421,83.537c0-5.521,4.324-8.511,14.537-9.615c-0.184-2.116-1.288-3.358-3.956-3.358
		c-2.07,0-4.232,0.828-6.854,2.3l-2.853-5.382c3.45-2.07,7.177-3.451,11.271-3.451c6.763,0,10.581,3.772,10.581,11.961v14.86h-6.671
		l-0.598-2.622h-0.185c-2.162,1.932-4.601,3.266-7.499,3.266C379.365,91.496,376.421,87.907,376.421,83.537z M390.958,83.077V78.89
		c-5.106,0.69-6.763,2.162-6.763,4.002c0,1.518,1.104,2.254,2.807,2.254C388.658,85.147,389.763,84.365,390.958,83.077z"/>
	<path id="XMLID_202_" fill="#E2E2E2" d="M414.646,64.675h6.67l0.553,3.266h0.184c2.162-2.116,4.831-3.911,8.373-3.911
		c5.705,0,8.144,4.095,8.144,10.627v16.194h-8.189V75.67c0-3.588-0.966-4.646-3.036-4.646c-1.841,0-2.944,0.828-4.555,2.346v17.482
		h-8.143V64.675z"/>
	<path id="XMLID_204_" fill="#E2E2E2" d="M452.779,77.786c0-8.603,5.383-13.756,10.812-13.756c2.898,0,4.601,1.058,6.303,2.714
		l-0.322-3.91v-8.741h8.235v36.758h-6.671l-0.598-2.53h-0.185c-1.84,1.84-4.37,3.174-6.854,3.174
		C456.966,91.496,452.779,86.297,452.779,77.786z M469.571,82.571V72.266c-1.242-1.15-2.668-1.564-4.048-1.564
		c-2.255,0-4.325,2.116-4.325,6.947c0,5.015,1.656,7.131,4.463,7.131C467.226,84.779,468.468,84.273,469.571,82.571z"/>
</g>
<g id="XMLID_3_">
	<rect id="XMLID_190_" x="67.26" y="121.499" fill="none" width="432.802" height="118.501"/>
	<path id="XMLID_33_" fill="#E2E2E2" d="M79.313,126.14c-0.468,0.81-1.063,1.62-1.674,2.376v10.227h-0.829v-9.255
		c-0.774,0.864-1.603,1.657-2.395,2.287c-0.108-0.144-0.414-0.541-0.576-0.702c1.729-1.279,3.529-3.259,4.681-5.222L79.313,126.14z
		 M78.845,122.665c-1.008,1.477-2.683,3.115-4.249,4.177c-0.09-0.162-0.342-0.468-0.504-0.612c1.458-0.99,3.133-2.539,3.961-3.889
		L78.845,122.665z M85.399,122.593c-0.126,0.216-0.252,0.45-0.396,0.648c1.603,2.214,3.529,3.637,5.582,4.807
		c-0.216,0.162-0.468,0.433-0.576,0.685c-1.963-1.225-3.781-2.665-5.402-4.826c-1.368,1.927-3.277,3.691-5.222,4.826
		c-0.144-0.198-0.36-0.45-0.558-0.63c2.323-1.26,4.627-3.511,5.888-5.798L85.399,122.593z M82.122,133.504
		c-0.612,1.476-1.548,3.025-2.449,4.051c-0.18-0.144-0.54-0.36-0.738-0.468c0.955-0.973,1.837-2.413,2.377-3.799L82.122,133.504z
		 M85.165,132.136v5.366c0,0.612-0.162,0.864-0.594,1.008c-0.45,0.162-1.26,0.162-2.61,0.162c-0.036-0.252-0.162-0.576-0.306-0.829
		c1.134,0.036,2.035,0.036,2.287,0.018c0.288-0.018,0.36-0.108,0.36-0.342v-5.384h-4.969v-0.81h4.969v-2.647h-2.899v-0.792h6.986
		v0.792h-3.223v2.647h5.023v0.81H85.165z M87.758,133.234c1.044,1.17,2.161,2.755,2.647,3.817l-0.738,0.432
		c-0.486-1.063-1.566-2.701-2.593-3.889L87.758,133.234z"/>
	<path id="XMLID_40_" fill="#E2E2E2" d="M99.905,131.091c-0.36,1.549-0.918,3.367-1.548,4.664c0.396,0.18,0.828,0.594,1.656,1.081
		c1.278,0.774,2.899,0.918,5.042,0.918c2.467,0,5.24-0.162,7.256-0.324c-0.126,0.234-0.252,0.648-0.27,0.918
		c-1.261,0.072-4.826,0.18-7.004,0.18c-2.358,0-3.961-0.198-5.312-1.008c-0.72-0.432-1.404-1.063-1.836-1.063
		c-0.378,0-0.99,1.063-1.548,2.269l-0.63-0.702c0.648-1.044,1.224-1.926,1.8-2.232c0.576-1.099,1.099-2.719,1.405-4.087h-2.413
		c0.522-1.08,1.188-2.683,1.692-4.105h-2.233v-0.811h3.385c-0.504,1.314-1.134,2.917-1.657,4.141h1.584l0.162-0.036L99.905,131.091z
		 M97.763,125.6c-0.18-0.756-0.576-1.981-0.864-2.881l0.774-0.216c0.288,0.918,0.702,2.088,0.918,2.845L97.763,125.6z
		 M101.688,127.004c-0.306,0.324-0.612,0.612-0.918,0.846c-0.162-0.144-0.504-0.414-0.72-0.576c1.566-1.17,3.007-3.007,3.871-4.934
		l0.846,0.216c-0.198,0.432-0.432,0.864-0.648,1.278h3.979l0.144-0.036l0.558,0.36c-0.396,0.774-1.008,1.62-1.566,2.305h3.493v4.411
		h-3.673v3.925c0,0.414,0.108,0.504,0.828,0.504h2.611c0.576,0,0.685-0.216,0.738-1.783c0.198,0.126,0.522,0.252,0.756,0.324
		c-0.108,1.783-0.378,2.215-1.422,2.215h-2.719c-1.26,0-1.603-0.234-1.603-1.26v-3.925h-0.198c-0.738,2.341-2.143,4.393-5.023,5.6
		c-0.126-0.18-0.378-0.486-0.558-0.63c2.683-1.026,4.033-2.881,4.735-4.969h-3.511V127.004z M103.632,124.591
		c-0.432,0.667-0.918,1.314-1.44,1.873h4.087c0.45-0.522,0.954-1.243,1.314-1.873H103.632z M105.433,130.119
		c0.252-0.954,0.396-1.944,0.504-2.917h-3.421v2.917H105.433z M109.898,127.202h-3.115c-0.108,0.991-0.27,1.963-0.504,2.917h3.619
		V127.202z M108.566,131.416c0.648,0.504,1.422,1.296,1.765,1.818l-0.612,0.45c-0.342-0.558-1.081-1.332-1.747-1.873
		L108.566,131.416z"/>
	<path id="XMLID_48_" fill="#E2E2E2" d="M117.49,138.293c0.882-0.846,1.836-2.179,2.449-3.403l0.774,0.234
		c-0.648,1.207-1.566,2.611-2.449,3.529L117.49,138.293z M125.592,124.195c-1.098,5.167-3.907,8.229-7.256,9.813
		c-0.126-0.198-0.414-0.504-0.612-0.648c2.161-0.955,4.051-2.521,5.384-4.79c-0.612-0.756-1.675-1.783-2.647-2.575
		c-0.702,1.116-1.53,2.161-2.449,2.971c-0.072-0.18-0.324-0.486-0.45-0.63c1.729-1.566,3.133-4.015,3.817-6.122l0.81,0.234
		c-0.18,0.504-0.396,1.044-0.648,1.566h3.367l0.18-0.054L125.592,124.195z M121.613,129.651c-1.278,0.378-2.502,0.72-3.601,1.026
		l-0.288-0.702c1.008-0.216,2.377-0.576,3.799-0.936L121.613,129.651z M121.181,124.771c-0.126,0.216-0.252,0.432-0.36,0.648
		c0.936,0.72,1.999,1.692,2.665,2.449c0.468-0.918,0.846-1.945,1.116-3.097H121.181z M123.81,135.215
		c0.216,1.044,0.396,2.376,0.414,3.151l-0.828,0.126c-0.018-0.81-0.162-2.161-0.396-3.205L123.81,135.215z M132.975,134.152
		c-0.684-1.638-2.214-4.231-3.745-6.338c-0.522,2.197-1.764,4.501-4.627,6.428c-0.144-0.18-0.45-0.433-0.666-0.576
		c2.953-1.945,4.141-4.339,4.573-6.5h-3.043v-0.829h3.187c0.108-0.756,0.126-1.458,0.126-2.07v-1.729h0.829v1.729
		c0,0.63-0.018,1.333-0.108,2.07h4.051v0.829h-3.835c1.603,2.143,3.295,4.843,4.033,6.572L132.975,134.152z M127.519,135.089
		c0.504,1.026,1.008,2.376,1.207,3.205l-0.829,0.198c-0.198-0.846-0.666-2.197-1.17-3.241L127.519,135.089z M132.398,125.726
		c-0.414-0.685-1.296-1.747-2.07-2.467l0.63-0.414c0.792,0.72,1.71,1.729,2.107,2.431L132.398,125.726z M131.21,134.783
		c0.954,1.08,2.052,2.575,2.521,3.511l-0.792,0.396c-0.468-0.955-1.531-2.467-2.485-3.565L131.21,134.783z"/>
	<path id="XMLID_58_" fill="#E2E2E2" d="M152.249,132.568c-0.306-0.558-1.134-1.854-1.747-2.773v8.823h-0.828v-9.435
		c-0.684,2.287-1.656,4.609-2.629,5.941c-0.126-0.216-0.36-0.54-0.54-0.72c1.207-1.584,2.449-4.645,3.043-7.31h-2.719v-0.828h2.845
		v-3.925h0.828v3.925h2.323v0.828h-2.323v1.621c0.504,0.666,1.945,2.665,2.269,3.151L152.249,132.568z M156.048,130.713
		c-0.288,0.54-0.63,1.08-1.008,1.584h7.544c0,0-0.018,0.27-0.036,0.414c-0.306,3.691-0.594,5.06-1.081,5.564
		c-0.234,0.252-0.504,0.342-0.936,0.36c-0.324,0.018-1.008,0-1.693-0.036c-0.018-0.216-0.09-0.558-0.198-0.774
		c0.702,0.072,1.368,0.072,1.62,0.072c0.252,0.018,0.396-0.018,0.541-0.18c0.36-0.342,0.63-1.548,0.882-4.663h-1.783
		c-0.702,2.232-2.088,4.483-3.601,5.653c-0.126-0.198-0.342-0.432-0.558-0.594c1.404-0.973,2.719-2.989,3.421-5.06h-1.944
		c-0.955,1.854-2.665,3.853-4.231,4.934c-0.144-0.198-0.378-0.433-0.558-0.594c1.44-0.882,3.043-2.647,3.997-4.339h-1.999
		c-0.63,0.72-1.296,1.368-1.98,1.891c-0.108-0.126-0.414-0.432-0.612-0.576c1.296-0.9,2.521-2.215,3.349-3.655h-2.485v-0.774h10.263
		v0.774H156.048z M161.666,128.823h-7.616v-5.798h7.616V128.823z M160.82,123.745h-5.942v1.819h5.942V123.745z M160.82,126.266
		h-5.942v1.836h5.942V126.266z"/>
	<path id="XMLID_64_" fill="#E2E2E2" d="M174.875,135.845c-1.603,1.044-4.033,2.089-6.014,2.773
		c-0.108-0.198-0.378-0.522-0.576-0.702c1.98-0.594,4.483-1.674,5.744-2.593L174.875,135.845z M184.346,134.819h-15.898v-0.811
		h3.439v-8.553h-2.971v-0.81h2.971v-2.269h0.864v2.269h7.292v-2.269h0.864v2.269h3.043v0.81h-3.043v8.553h3.439V134.819z
		 M172.751,125.456v2.197h7.292v-2.197H172.751z M172.751,130.839h7.292v-2.395h-7.292V130.839z M172.751,134.008h7.292v-2.376
		h-7.292V134.008z M178.495,135.395c2.179,0.756,4.447,1.782,5.87,2.557l-0.702,0.63c-1.351-0.81-3.529-1.8-5.726-2.61
		L178.495,135.395z"/>
	<path id="XMLID_71_" fill="#E2E2E2" d="M189.58,130.317c0.648-1.081,0.936-3.007,0.972-4.574l0.702,0.108
		c-0.036,1.566-0.342,3.601-1.026,4.753L189.58,130.317z M192.226,122.341h0.829v16.277h-0.829V122.341z M194.657,128.841
		c-0.162-0.882-0.648-2.305-1.17-3.403l0.612-0.216c0.54,1.063,1.044,2.467,1.224,3.313L194.657,128.841z M206.145,137.231v0.81
		h-11.884v-0.81h7.796c0.432-2.431,0.973-6.302,1.296-9.291h-5.023c-0.45,2.287-0.972,4.627-1.35,6.176l-0.864-0.072
		c0.648-2.413,1.512-6.644,2.052-9.687h-3.187v-0.828h10.93v0.828h-6.896c-0.144,0.864-0.324,1.801-0.522,2.773h5.816
		c-0.378,3.133-0.955,7.49-1.387,10.101H206.145z M198.51,132.55c1.134,0.594,2.449,1.477,3.079,2.125l-0.468,0.63
		c-0.648-0.648-1.945-1.584-3.061-2.161L198.51,132.55z M201.859,131.83c-0.667-0.558-1.927-1.296-3.007-1.765l0.415-0.594
		c1.062,0.414,2.358,1.116,2.989,1.656L201.859,131.83z"/>
	<path id="XMLID_78_" fill="#E2E2E2" d="M223.708,122.683c-0.414,1.332-0.955,2.665-1.549,3.925v12.046h-0.828V128.21
		c-0.558,0.99-1.17,1.909-1.782,2.683c-0.108-0.18-0.378-0.612-0.541-0.811c1.603-1.89,3.007-4.753,3.889-7.616L223.708,122.683z
		 M229.29,133.882c-0.45,1.639-1.819,3.385-5.546,4.771c-0.126-0.198-0.36-0.504-0.54-0.666c3.457-1.17,4.753-2.701,5.222-4.105
		h-5.167v-0.792h5.365c0.054-0.415,0.072-0.792,0.072-1.152v-1.621h-2.863c-0.45,0.702-0.955,1.35-1.477,1.854
		c-0.162-0.126-0.486-0.36-0.702-0.468c1.098-0.99,2.053-2.485,2.611-4.033l0.792,0.216c-0.216,0.558-0.468,1.098-0.756,1.638h7.958
		v0.792h-4.717v1.621c0,0.378-0.018,0.738-0.072,1.152h5.689v0.792H229.29z M235.322,126.59v0.792h-11.919v-0.792h7.616
		c0.144-0.811,0.288-1.783,0.396-2.539h-6.266v-0.774h6.464l0.162-0.054l0.594,0.09c-0.126,1.026-0.306,2.233-0.486,3.277H235.322z
		 M230.568,134.314c1.548,1.152,3.565,2.773,4.627,3.727l-0.612,0.576c-1.008-0.972-3.025-2.629-4.609-3.835L230.568,134.314z"/>
	<path id="XMLID_83_" fill="#E2E2E2" d="M256.562,130.947v0.829h-7.364v6.77h-0.9v-6.77h-7.346v-0.829H256.562z M245.668,134.081
		c-0.99,1.35-2.557,2.61-3.925,3.457c-0.162-0.144-0.504-0.432-0.72-0.576c1.44-0.756,2.899-1.927,3.799-3.133L245.668,134.081z
		 M242.175,127.922h-0.864v-3.637h7.346c-0.216-0.576-0.522-1.314-0.828-1.873l0.846-0.18c0.324,0.63,0.702,1.44,0.918,2.053h6.734
		v3.637h-0.864v-2.809h-13.288V127.922z M243.796,128.391v-0.81h9.867v0.81H243.796z M252.438,133.667
		c1.44,0.99,3.241,2.395,4.124,3.349l-0.703,0.558c-0.864-0.936-2.628-2.413-4.087-3.439L252.438,133.667z"/>
	<path id="XMLID_89_" fill="#E2E2E2" d="M267.431,122.593c-0.54,1.314-1.188,2.629-1.927,3.835v12.208h-0.828v-10.911
		c-0.72,1.026-1.477,1.962-2.269,2.755c-0.108-0.198-0.396-0.594-0.558-0.792c1.891-1.782,3.673-4.52,4.789-7.346L267.431,122.593z
		 M271.68,126.752c-0.433,1.404-0.955,2.736-1.621,3.997h7.634v7.706h-0.864v-1.044h-6.464v1.206h-0.847v-6.914
		c-0.792,1.296-1.764,2.485-2.935,3.457c-0.144-0.18-0.414-0.504-0.576-0.648c2.358-1.927,3.853-4.736,4.79-7.76h-4.087v-0.847
		h4.321c0.324-1.188,0.576-2.358,0.756-3.547l0.882,0.162c-0.198,1.134-0.45,2.25-0.756,3.385h6.68v0.847H271.68z M270.366,131.578
		v5.023h6.464v-5.023H270.366z"/>
	<path id="XMLID_93_" fill="#E2E2E2" d="M296.411,131.02c-1.369,1.207-2.989,2.106-4.538,2.683
		c-0.108-0.216-0.306-0.522-0.486-0.666c1.639-0.54,3.385-1.531,4.79-2.845c-0.486-0.648-1.314-1.495-2.106-2.161
		c-0.612,0.576-1.314,1.116-2.089,1.603c-0.144-0.18-0.378-0.415-0.558-0.504c1.765-1.044,3.097-2.431,3.799-3.583l0.846,0.144
		c-0.216,0.324-0.45,0.63-0.702,0.954h3.349l0.18-0.054l0.522,0.288c-0.667,1.62-1.711,3.007-2.989,4.123h6.428v0.738h-6.446V131.02
		z M295.06,130.731c-1.225,0.144-2.359,0.27-3.367,0.36l-0.126-0.702c0.937-0.072,2.106-0.198,3.475-0.306L295.06,130.731z
		 M295.654,124.465h-4.015v-0.774h4.015v-1.333h0.846v1.333h2.449v0.774H296.5v1.026h-0.846V124.465z M296.626,135.179
		c-1.008,1.224-2.665,2.376-4.105,3.115c-0.126-0.162-0.45-0.486-0.648-0.63c1.458-0.648,3.025-1.657,3.925-2.755L296.626,135.179z
		 M299.994,134.098v4.538h-0.864v-4.538h-5.816v-0.738h12.55v0.738H299.994z M294.538,127.581c0.756,0.594,1.621,1.422,2.179,2.07
		c0.648-0.702,1.188-1.494,1.621-2.322h-3.565L294.538,127.581z M306.188,126.734c-0.72,1.242-1.837,2.575-2.845,3.511
		c1.333,1.063,2.863,1.909,4.375,2.413c-0.162,0.18-0.414,0.468-0.558,0.703c-2.809-1.044-5.69-3.331-7.22-5.87l0.702-0.288
		c0.54,0.918,1.278,1.783,2.161,2.575c0.774-0.72,1.603-1.746,2.179-2.646h-4.465v-0.72h4.969l0.162-0.036L306.188,126.734z
		 M302.892,124.465h-2.772v-0.792h2.772v-1.314h0.829v1.314h3.655v0.792h-3.655v1.026h-0.829V124.465z M303.019,134.836
		c1.476,0.847,3.349,2.107,4.303,2.935l-0.648,0.576c-0.918-0.828-2.772-2.125-4.285-2.989L303.019,134.836z"/>
	<path id="XMLID_103_" fill="#E2E2E2" d="M314.715,125.636v4.826c0,2.305-0.162,5.527-1.152,7.76
		c-0.126-0.144-0.45-0.378-0.648-0.468c0.936-2.125,1.026-5.113,1.026-7.292v-5.528h3.205v-2.611h0.81v1.026h3.673v0.666h-3.673
		v0.918h3.691l0.144-0.054l0.522,0.18c-0.234,0.648-0.486,1.422-0.685,1.909l-0.684-0.162c0.126-0.306,0.27-0.738,0.415-1.17h-3.529
		v0.972l2.557-0.252l0.09,0.594l-2.646,0.27v0.306c0,0.468,0.054,0.558,0.378,0.558h2.143c0.27,0,0.702,0,0.973-0.036
		c0.018,0.18,0.036,0.433,0.054,0.594c-0.197,0.054-0.594,0.054-0.99,0.054h-2.233c-0.846,0-1.026-0.288-1.026-1.17v-0.252
		l-1.855,0.18l-0.09-0.594l1.945-0.198v-1.026H314.715z M321.72,129.939h-6.537v-0.63h6.537V129.939z M321.647,137.538
		c0,0.378-0.072,0.558-0.36,0.702c-0.306,0.126-0.792,0.126-1.584,0.126c-0.018-0.198-0.126-0.45-0.234-0.648
		c0.612,0.018,1.081,0.018,1.261,0.018c0.162-0.018,0.198-0.072,0.198-0.198v-3.439h-5.005v4.321h-0.72v-4.951h6.446V137.538z
		 M315.958,132.784v-2.161h4.934v2.161H315.958z M318.694,136.169v2.125h-0.667v-2.125h-1.656v-0.612h0.972
		c-0.198-0.396-0.468-0.81-0.756-1.17l0.522-0.252c0.342,0.414,0.738,0.973,0.954,1.422h0.576c0.36-0.45,0.774-1.044,0.99-1.422
		l0.576,0.288c-0.27,0.396-0.558,0.774-0.846,1.134h1.044v0.612H318.694z M316.642,132.19h3.547v-0.973h-3.547V132.19z
		 M325.896,128.229c0.469,4.268,1.44,7.94,3.403,9.777c-0.198,0.144-0.469,0.45-0.612,0.685c-1.656-1.693-2.61-4.483-3.205-7.869
		c-0.306,2.647-1.152,5.51-3.241,7.851c-0.126-0.162-0.414-0.45-0.647-0.594c2.719-2.881,3.187-6.788,3.259-9.849h-2.899v-0.81
		h2.917v-0.684v-4.303h0.828v4.303v0.684h3.565v0.81H325.896z M328.543,125.924c-0.359-0.738-1.188-1.854-1.998-2.628l0.648-0.324
		c0.81,0.738,1.674,1.818,2.053,2.557L328.543,125.924z"/>
	<path id="XMLID_112_" fill="#E2E2E2" d="M341.969,126.626c-1.17,3.187-4.123,5.276-6.878,6.23c-0.09-0.216-0.324-0.522-0.504-0.684
		c1.314-0.378,2.683-1.098,3.854-2.017c-0.595-0.63-1.531-1.369-2.359-1.873l0.559-0.486c0.846,0.522,1.782,1.225,2.395,1.819
		c0.756-0.703,1.387-1.531,1.837-2.449h-5.042v-0.756h5.456l0.18-0.036L341.969,126.626z M339.179,124.556h-4.195v-0.774h4.195
		v-1.422h0.846v1.422h2.395v0.774h-2.395v1.386h-0.846V124.556z M342.995,134.386c2.413,1.009,5.366,2.467,6.933,3.547l-0.559,0.648
		c-1.494-1.026-4.357-2.502-6.733-3.547c-0.811,1.333-2.684,2.647-6.969,3.673c-0.09-0.216-0.324-0.54-0.504-0.738
		c4.52-0.991,6.212-2.305,6.824-3.583h-5.492v-0.774h5.744c0.072-0.324,0.09-0.612,0.09-0.918v-1.242h-3.223v-0.774h7.292v0.774
		h-3.187v1.242c0,0.306-0.019,0.594-0.072,0.918h6.086v0.774H342.995z M345.462,124.556h-2.341v-0.774h2.341v-1.422h0.847v1.422
		h4.249v0.774h-4.249v1.386h-0.847V124.556z M350.18,128.157c-0.828,0.72-1.909,1.512-2.809,2.088
		c1.098,0.792,2.358,1.387,3.763,1.747c-0.198,0.162-0.432,0.486-0.559,0.702c-3.421-1.044-6.085-3.421-7.399-6.626l0.702-0.198
		c0.306,0.72,0.702,1.404,1.152,2.052c0.864-0.612,1.872-1.458,2.503-2.088l0.684,0.414c-0.828,0.774-1.891,1.584-2.772,2.197
		c0.414,0.486,0.864,0.954,1.368,1.368c0.9-0.576,2.017-1.477,2.646-2.106L350.18,128.157z"/>
	<path id="XMLID_118_" fill="#E2E2E2" d="M369.94,136.385c-1.44,0.9-3.691,1.8-5.491,2.305c-0.145-0.162-0.433-0.468-0.612-0.648
		c1.818-0.486,4.105-1.368,5.258-2.125L369.94,136.385z M379.97,128.769h-15.953v-0.774h15.953V128.769z M368.356,124.609h-3.493
		v-0.738h3.493v-1.549h0.846v1.549h5.618v-1.549h0.864v1.549h3.528v0.738h-3.528v2.287h-7.328V124.609z M366.105,135.629v-5.798
		h11.955v5.798H366.105z M366.951,132.37h4.574v-1.836h-4.574V132.37z M366.951,134.909h4.574v-1.854h-4.574V134.909z
		 M369.202,124.609v1.567h5.618v-1.567H369.202z M377.196,130.533h-4.825v1.836h4.825V130.533z M377.196,133.054h-4.825v1.854h4.825
		V133.054z M374.712,135.917c1.98,0.63,4.087,1.458,5.42,2.088l-0.738,0.648c-1.225-0.648-3.259-1.477-5.258-2.161L374.712,135.917z
		"/>
	<path id="XMLID_129_" fill="#E2E2E2" d="M388.857,125.87h2.071v0.828h-2.071v1.008c0.486,0.594,1.729,2.376,2.035,2.827
		l-0.559,0.667c-0.252-0.522-0.954-1.621-1.477-2.449v9.867h-0.828v-9.723c-0.594,2.052-1.404,4.069-2.215,5.275
		c-0.107-0.234-0.342-0.594-0.521-0.792c1.044-1.44,2.143-4.25,2.646-6.68h-2.322v-0.828h2.412v-3.529h0.828V125.87z
		 M395.862,128.193c0.018,0.234,0.054,0.558,0.107,0.738c-3.655,0.991-4.123,1.152-4.429,1.351
		c-0.036-0.252-0.198-0.648-0.307-0.864c0.216-0.072,0.522-0.18,0.522-0.756v-6.194h0.846v2.431h3.241v0.792h-3.241v3.313
		L395.862,128.193z M396.474,129.957c-0.233,0.486-0.468,1.044-0.702,1.495h4.664v7.166h-0.864v-0.684h-6.626v0.756h-0.864v-7.238
		h2.845c0.234-0.54,0.486-1.26,0.612-1.747L396.474,129.957z M399.571,132.208h-6.626v2.07h6.626V132.208z M399.571,137.177v-2.161
		h-6.626v2.161H399.571z M400.31,129.201c0.504,0,0.594-0.27,0.647-1.98c0.198,0.162,0.522,0.288,0.774,0.36
		c-0.107,1.908-0.36,2.395-1.351,2.395h-2.322c-1.152,0-1.458-0.252-1.458-1.333v-6.158h0.846v2.413h3.907v0.792h-3.907v2.971
		c0,0.45,0.108,0.54,0.685,0.54H400.31z"/>
	<path id="XMLID_136_" fill="#E2E2E2" d="M410.476,133.72c-0.288,1.836-1.099,3.709-3.133,4.987
		c-0.126-0.216-0.378-0.504-0.559-0.648c1.837-1.063,2.575-2.719,2.845-4.339h-2.791v-0.792h2.899
		c0.054-0.594,0.072-1.207,0.072-1.729v-1.117h-2.575v-0.792h2.575v-2.611h-2.845v-0.81h3.654c0.54-0.991,1.188-2.485,1.513-3.511
		l0.864,0.27c-0.432,1.026-1.008,2.305-1.53,3.241h1.801v0.81h-2.611v2.611h2.485v0.792h-2.485v1.117
		c0,0.54-0.018,1.134-0.072,1.729h2.558v0.792H410.476z M408.495,125.51c-0.162-0.738-0.595-1.891-0.954-2.791l0.756-0.216
		c0.378,0.882,0.828,2.017,1.026,2.755L408.495,125.51z M417.678,137.213c0,0.648-0.162,0.918-0.576,1.063
		c-0.45,0.144-1.242,0.162-2.557,0.144c-0.036-0.216-0.162-0.558-0.288-0.81c1.063,0.036,1.998,0.036,2.25,0.018
		c0.288-0.018,0.396-0.09,0.396-0.396v-5.06c-1.152,1.062-2.322,2.125-3.295,2.971l-0.468-0.666
		c0.936-0.774,2.395-1.999,3.763-3.223v-7.184h-3.457v-0.81h4.231V137.213z M414.563,126.338c0.522,1.134,1.135,2.647,1.404,3.493
		l-0.666,0.288c-0.288-0.882-0.864-2.431-1.422-3.583L414.563,126.338z M422.737,137.285c0,0.648-0.162,0.918-0.595,1.081
		c-0.432,0.144-1.26,0.144-2.629,0.144c-0.035-0.234-0.161-0.594-0.27-0.828c1.08,0.036,2.034,0.036,2.305,0.018
		c0.306-0.018,0.396-0.108,0.396-0.415v-5.671c-1.152,1.062-2.305,2.161-3.26,3.043l-0.485-0.648
		c0.936-0.792,2.376-2.07,3.745-3.349v-6.59h-3.548v-0.81h4.34V137.285z M419.19,126.284c0.558,1.134,1.188,2.611,1.476,3.421
		l-0.684,0.306c-0.288-0.9-0.9-2.413-1.44-3.529L419.19,126.284z"/>
	<path id="XMLID_143_" fill="#E2E2E2" d="M438.573,130.065c0,2.503-0.217,6.068-1.621,8.535c-0.162-0.144-0.521-0.378-0.72-0.468
		c1.368-2.395,1.494-5.689,1.494-8.066v-4.663h5.888v-3.061h0.847v1.243h6.481v0.702h-6.481v1.116h6.752l0.18-0.054l0.595,0.198
		c-0.324,0.756-0.721,1.603-1.045,2.125l-0.738-0.27c0.198-0.342,0.45-0.828,0.648-1.296h-6.32v0.937l4.862-0.271l0.035,0.612
		l-4.897,0.288v0.27c0,0.541,0.127,0.684,0.738,0.684h4.592c0.468,0,1.332,0,1.692-0.09c0.019,0.27,0.054,0.522,0.108,0.684
		c-0.307,0.072-1.026,0.09-1.711,0.09h-4.771c-1.152,0-1.458-0.378-1.458-1.369v-0.162l-3.854,0.216l-0.054-0.684l3.907-0.198
		v-1.008h-5.149V130.065z M452.365,137.501v0.702h-14.368v-0.702h1.62v-2.539h11.146v2.539H452.365z M440.319,130.173h9.759v3.835
		h-9.759V130.173z M440.428,137.501h2.629v-1.873h-2.629V137.501z M441.13,131.776h3.601v-0.973h-3.601V131.776z M441.13,133.378
		h3.601v-1.009h-3.601V133.378z M443.849,135.629v1.873h2.629v-1.873H443.849z M449.25,130.803h-3.709v0.973h3.709V130.803z
		 M449.25,132.37h-3.709v1.009h3.709V132.37z M447.252,135.629v1.873h2.664v-1.873H447.252z"/>
	<path id="XMLID_154_" fill="#E2E2E2" d="M460.047,130.299c-0.054,2.646-0.396,5.96-1.71,8.373
		c-0.127-0.144-0.486-0.396-0.667-0.486c1.44-2.647,1.566-6.302,1.566-8.985v-5.545h7.131c-0.126-0.414-0.307-0.882-0.486-1.26
		l0.811-0.162c0.216,0.432,0.468,0.99,0.611,1.422h6.555v0.738h-5.204v1.333h4.394v2.898h-12.981v0.576v0.433h13.396l0.145-0.054
		l0.576,0.198c-0.433,0.756-0.9,1.603-1.314,2.161l-0.702-0.234c0.288-0.378,0.594-0.882,0.864-1.404h-7.112
		c0.702,0.378,1.548,0.864,2.017,1.206l-0.45,0.559c-0.54-0.36-1.53-0.99-2.251-1.369l0.36-0.396H460.047z M471.318,134.44
		c-0.864,0.972-2.143,1.765-3.637,2.413c1.818,0.504,3.835,0.864,5.924,1.026c-0.181,0.18-0.396,0.522-0.486,0.774
		c-2.305-0.252-4.573-0.702-6.572-1.387c-1.98,0.685-4.231,1.135-6.302,1.405c-0.072-0.216-0.271-0.522-0.414-0.72
		c1.872-0.18,3.871-0.54,5.672-1.063c-1.009-0.414-1.927-0.882-2.719-1.458c-0.721,0.414-1.531,0.792-2.413,1.152
		c-0.09-0.18-0.342-0.414-0.54-0.522c0.864-0.324,1.656-0.684,2.358-1.063c-0.414-0.342-0.792-0.684-1.099-1.08l0.721-0.324
		c0.306,0.342,0.666,0.684,1.08,0.99c0.738-0.45,1.351-0.918,1.801-1.368c-0.973-0.054-1.242-0.271-1.242-1.063v-1.296h0.756v1.296
		c0,0.36,0.145,0.414,0.973,0.414h3.114c0.541,0,0.648-0.108,0.703-1.026c0.197,0.108,0.449,0.198,0.684,0.252
		c-0.072,1.135-0.342,1.423-1.278,1.423h-2.683c-0.271,0.306-0.595,0.594-0.937,0.882h5.815l0.162-0.036L471.318,134.44z
		 M460.065,124.394v1.333h3.475v-1.333H460.065z M460.065,127.958h3.475v-1.566h-3.475V127.958z M460.551,132.874
		c0.612-0.558,1.261-1.512,1.692-2.143l0.631,0.36c-0.469,0.667-1.08,1.603-1.675,2.215L460.551,132.874z M463.882,134.765
		c-0.126,0.09-0.252,0.18-0.396,0.252c0.9,0.594,1.962,1.081,3.133,1.495c1.314-0.468,2.448-1.044,3.276-1.747H463.882z
		 M467.861,124.394h-3.511v1.333h3.511V124.394z M464.351,127.958h3.511v-1.566h-3.511V127.958z M468.653,126.392v1.566h3.583
		v-1.566H468.653z M470.13,130.677c0.774,0.648,1.765,1.549,2.287,2.107l-0.576,0.45c-0.505-0.558-1.495-1.512-2.269-2.196
		L470.13,130.677z"/>
	<path id="XMLID_165_" fill="#E2E2E2" d="M495.439,124.286h-13.433v4.195c0,2.845-0.233,6.95-1.926,9.831
		c-0.162-0.144-0.505-0.378-0.721-0.468c1.639-2.772,1.801-6.608,1.801-9.362v-5.006h14.278V124.286z M486.202,134.081
		c-0.954,1.278-2.215,2.755-3.24,3.745c-0.181-0.126-0.522-0.378-0.757-0.486c1.116-0.972,2.323-2.323,3.188-3.547L486.202,134.081z
		 M489.281,132.676v4.862c0,0.558-0.144,0.81-0.576,0.954c-0.468,0.144-1.314,0.144-2.772,0.144
		c-0.055-0.234-0.198-0.54-0.307-0.774c1.207,0.036,2.161,0.036,2.431,0.018c0.307-0.018,0.379-0.108,0.379-0.324v-4.879h-4.538
		V126.5h3.728c0.288-0.594,0.576-1.368,0.756-1.909l0.954,0.198c-0.27,0.558-0.54,1.17-0.81,1.71h5.384v6.176H489.281z
		 M484.744,129.219h8.282v-1.962h-8.282V129.219z M484.744,131.938h8.282v-1.999h-8.282V131.938z M491.874,133.864
		c1.152,1.116,2.629,2.665,3.385,3.565l-0.72,0.504c-0.738-0.955-2.197-2.557-3.35-3.709L491.874,133.864z"/>
	<path id="XMLID_172_" fill="#E2E2E2" d="M90.225,161.36v0.81h-8.103c-0.918,2.485-2.899,3.871-7.472,4.573
		c-0.072-0.216-0.27-0.558-0.414-0.702c4.213-0.612,6.086-1.782,6.986-3.871H74.56v-0.81h6.932c0.234-0.756,0.36-1.603,0.45-2.575
		h-5.816v-6.968h0.864v6.158h11.613v3.385H90.225z M87.524,156.427h-8.589v-5.023h8.589V156.427z M86.678,152.195h-6.914v3.439
		h6.914V152.195z M82.789,158.786c-0.09,0.954-0.216,1.818-0.414,2.575h5.365v-2.575H82.789z M82.825,162.873
		c2.322,0.954,5.401,2.341,7.04,3.205l-0.468,0.756c-1.584-0.864-4.682-2.341-7.022-3.331L82.825,162.873z"/>
	<path id="XMLID_178_" fill="#E2E2E2" d="M109.016,165.105c1.368,0,1.638-0.685,1.764-3.673c0.234,0.144,0.63,0.27,0.9,0.324
		c-0.216,3.439-0.72,4.231-2.701,4.231h-8.859c-2.287,0-3.421-0.774-3.421-2.107c0-1.207,0.468-2.575,10.587-11.109H96.718v-0.864
		h11.739l0.216-0.072l0.612,0.414c-0.054,0.072-0.126,0.09-0.216,0.144c-10.839,9.128-11.451,10.479-11.451,11.433
		c0,0.882,0.99,1.279,2.358,1.279H109.016z"/>
	<path id="XMLID_180_" fill="#E2E2E2" d="M124.314,155.958c-0.63-0.504-1.8-1.351-2.809-1.999c-0.63,1.008-1.729,1.657-3.529,2.106
		c-0.09-0.162-0.306-0.504-0.468-0.648c3.205-0.738,3.925-2.089,4.105-5.078h0.792c-0.072,1.225-0.234,2.179-0.559,2.989
		c1.026,0.63,2.323,1.513,3.007,2.053L124.314,155.958z M133.263,165.412v0.792h-15.269v-0.792h7.167v-2.575h-4.897v-0.774h4.897
		v-2.233h-5.51v-0.756h11.956v0.756h-5.6v2.233h4.663v0.774h-4.663v2.575H133.263z M132.165,159.452v-2.269h-13.09v2.269h-0.828
		v-3.043h14.764v3.043H132.165z M119.471,153.654c-0.252-0.522-0.774-1.404-1.188-2.088l0.576-0.234
		c0.432,0.63,0.955,1.477,1.207,1.999L119.471,153.654z M125.25,151.601c-0.54,0.702-1.17,1.405-1.657,1.891l-0.576-0.288
		c0.504-0.522,1.152-1.386,1.513-1.944L125.25,151.601z M132.687,156.084c-0.81-0.612-2.358-1.53-3.691-2.179
		c-0.63,0.973-1.692,1.639-3.385,2.089c-0.054-0.18-0.306-0.504-0.468-0.666c3.042-0.738,3.763-2.143,3.961-4.988h0.828
		c-0.09,1.188-0.252,2.125-0.594,2.935c1.333,0.63,3.007,1.548,3.89,2.179L132.687,156.084z M127.051,153.636
		c-0.288-0.522-0.828-1.422-1.296-2.088l0.612-0.288c0.468,0.63,1.026,1.494,1.296,2.017L127.051,153.636z M128.509,163.071
		c0.955,0.468,2.179,1.17,2.809,1.656l-0.558,0.54c-0.63-0.486-1.837-1.224-2.809-1.71L128.509,163.071z M133.101,151.583
		c-0.558,0.702-1.26,1.44-1.8,1.908l-0.576-0.288c0.54-0.54,1.242-1.422,1.639-1.962L133.101,151.583z"/>
</g>
<g id="XMLID_19_">
</g>
<g id="XMLID_216_">
</g>
<g id="XMLID_217_">
</g>
<g id="XMLID_218_">
</g>
<g id="XMLID_219_">
</g>
<g id="XMLID_220_">
</g>
<g id="XMLID_221_">
</g>
<g id="XMLID_222_">
</g>
<g id="XMLID_223_">
</g>
<g id="XMLID_224_">
</g>
<g id="XMLID_225_">
</g>
<g id="XMLID_226_">
</g>
<g id="XMLID_227_">
</g>
<g id="XMLID_228_">
</g>
<g id="XMLID_229_">
</g>
</svg>
