<?xml version="1.0" encoding="iso-8859-1"?>
<!-- Generator: Adobe Illustrator 19.0.0, SVG Export Plug-In . SVG Version: 6.00 Build 0)  -->
<svg version="1.2" baseProfile="tiny" id="&#x5716;&#x5C64;_1"
	 xmlns="http://www.w3.org/2000/svg" xmlns:xlink="http://www.w3.org/1999/xlink" x="0px" y="0px" viewBox="445 0 1529.923 80"
	 xml:space="preserve">
<line id="XMLID_55_" fill="none" stroke="#E2E2E2" stroke-width="2" stroke-miterlimit="10" x1="469.371" y1="66" x2="1954.371" y2="66"/>
<g id="XMLID_21_">
</g>
<g id="XMLID_1165_">
</g>
<g id="XMLID_1166_">
</g>
<g id="XMLID_1167_">
</g>
<g id="XMLID_1168_">
</g>
<g id="XMLID_1169_">
</g>
<g id="XMLID_1170_">
</g>
<g id="XMLID_1171_">
</g>
<g id="XMLID_1172_">
</g>
<g id="XMLID_1173_">
</g>
<g id="XMLID_1174_">
</g>
<g id="XMLID_1175_">
</g>
<g id="XMLID_1176_">
</g>
<g id="XMLID_1177_">
</g>
<g id="XMLID_1178_">
</g>
<g id="XMLID_62_">
	<path fill="#E0E0E0" d="M488.198,40.47v4.056l0.408-0.48c2.736,1.32,6.505,3.457,8.353,4.896l-1.632,2.04
		c-1.536-1.296-4.536-3.168-7.128-4.608v12.073h-2.376V40.47h-8.905v-2.28h21.194v2.28H488.198z"/>
	<path fill="#E0E0E0" d="M527.006,51.895h-9.601v6.553h-2.352v-6.553h-9.409v-2.232h9.409v-3.408h-7.921v-2.208h7.921v-7.608h2.352
		v7.608h8.281v2.208h-8.281v3.408h9.601V51.895z M510.325,43.183c-0.408-1.417-1.512-3.672-2.592-5.353l2.041-0.792
		c1.104,1.632,2.304,3.792,2.736,5.232L510.325,43.183z M525.014,37.71c-0.96,1.92-2.16,4.008-3.096,5.376l-2.016-0.744
		c0.936-1.416,2.112-3.696,2.736-5.4L525.014,37.71z"/>
	<path fill="#E0E0E0" d="M541.79,50.863c-2.4,1.224-4.993,2.52-7.009,3.48l-0.864-2.232c0.864-0.336,1.944-0.792,3.121-1.296v-7.152
		h-2.641V41.55h2.641v-4.849h2.064v4.849h2.424v2.112h-2.424v6.24c0.72-0.336,1.464-0.672,2.208-1.008L541.79,50.863z
		 M546.446,48.031c-0.264,0.504-0.552,0.984-0.888,1.44h10.033c0,0-0.024,0.552-0.048,0.84c-0.384,4.8-0.744,6.672-1.392,7.393
		c-0.408,0.456-0.864,0.6-1.44,0.672c-0.552,0.048-1.44,0.072-2.4,0.024c-0.024-0.528-0.216-1.32-0.504-1.8
		c0.816,0.096,1.56,0.096,1.872,0.096c0.36,0,0.552-0.024,0.744-0.264c0.36-0.408,0.672-1.776,0.96-5.161h-1.44
		c-0.96,2.784-2.833,5.785-4.825,7.297c-0.36-0.408-1.056-0.936-1.608-1.248c1.872-1.248,3.552-3.625,4.56-6.049h-1.896
		c-1.296,2.376-3.576,4.92-5.712,6.265c-0.336-0.456-0.96-1.008-1.488-1.344c1.896-1.008,3.864-2.928,5.185-4.92h-2.016
		c-0.912,1.008-1.92,1.873-2.952,2.568c-0.312-0.36-1.08-1.08-1.512-1.392c1.8-1.032,3.432-2.592,4.536-4.417h-3.072v-1.896h15.001
		v1.896H546.446z M554.462,44.982h-11.089V37.11h11.089V44.982z M552.398,38.718h-7.009v1.56h7.009V38.718z M552.398,41.791h-7.009
		v1.584h7.009V41.791z"/>
</g>
</svg>
