<?xml version="1.0" encoding="iso-8859-1"?>
<!-- Generator: Adobe Illustrator 19.0.0, SVG Export Plug-In . SVG Version: 6.00 Build 0)  -->
<svg version="1.2" baseProfile="tiny" id="&#x5716;&#x5C64;_1"
	 xmlns="http://www.w3.org/2000/svg" xmlns:xlink="http://www.w3.org/1999/xlink" x="0px" y="0px" viewBox="0 0 521.974 88.598"
	 xml:space="preserve">
<line id="XMLID_55_" fill="none" stroke="#E2E2E2" stroke-width="2" stroke-miterlimit="10" x1="24.371" y1="66" x2="498.371" y2="66"/>
<g id="XMLID_62_">
	<path id="XMLID_109_" fill="#E0E0E0" d="M42.716,38.47v4.056l0.407-0.48c2.736,1.32,6.505,3.457,8.354,4.896l-1.633,2.04
		c-1.536-1.296-4.536-3.168-7.128-4.608v12.073h-2.377V38.47h-8.904v-2.28h21.193v2.28H42.716z"/>
	<path id="XMLID_111_" fill="#E0E0E0" d="M81.525,49.895h-9.602v6.553h-2.352v-6.553h-9.409v-2.232h9.409v-3.408h-7.921v-2.208
		h7.921v-7.608h2.352v7.608h8.281v2.208h-8.281v3.408h9.602V49.895z M64.843,41.183c-0.408-1.417-1.513-3.672-2.593-5.353
		l2.041-0.792c1.104,1.632,2.304,3.792,2.735,5.232L64.843,41.183z M79.532,35.71c-0.96,1.92-2.16,4.008-3.097,5.376l-2.016-0.744
		c0.936-1.416,2.111-3.696,2.735-5.4L79.532,35.71z"/>
	<path id="XMLID_115_" fill="#E0E0E0" d="M96.308,48.863c-2.4,1.224-4.993,2.52-7.009,3.48l-0.864-2.232
		c0.864-0.336,1.944-0.792,3.12-1.296v-7.152h-2.641V39.55h2.641v-4.849h2.064v4.849h2.424v2.112h-2.424v6.24
		c0.72-0.336,1.464-0.672,2.208-1.008L96.308,48.863z M100.964,46.031c-0.265,0.504-0.553,0.984-0.889,1.44h10.033
		c0,0-0.024,0.552-0.048,0.84c-0.384,4.8-0.744,6.672-1.393,7.393c-0.408,0.456-0.864,0.6-1.439,0.672
		c-0.553,0.048-1.44,0.072-2.4,0.024c-0.024-0.528-0.216-1.32-0.504-1.8c0.815,0.096,1.56,0.096,1.872,0.096
		c0.359,0,0.552-0.024,0.744-0.264c0.359-0.408,0.672-1.776,0.96-5.161h-1.44c-0.96,2.784-2.832,5.785-4.824,7.297
		c-0.36-0.408-1.057-0.936-1.608-1.248c1.872-1.248,3.553-3.625,4.561-6.049h-1.896c-1.296,2.376-3.576,4.92-5.712,6.265
		c-0.336-0.456-0.96-1.008-1.488-1.344c1.896-1.008,3.864-2.928,5.185-4.92h-2.017c-0.912,1.008-1.92,1.873-2.952,2.568
		c-0.312-0.36-1.08-1.08-1.512-1.392c1.8-1.032,3.432-2.592,4.536-4.417h-3.072v-1.896h15.001v1.896H100.964z M108.981,42.982
		H97.892V35.11h11.089V42.982z M106.916,36.718h-7.009v1.56h7.009V36.718z M106.916,39.791h-7.009v1.584h7.009V39.791z"/>
</g>
<g id="XMLID_59_">
</g>
<g id="XMLID_61_">
</g>
<g id="XMLID_121_">
</g>
<g id="XMLID_122_">
</g>
<g id="XMLID_123_">
</g>
<g id="XMLID_124_">
</g>
<g id="XMLID_125_">
</g>
<g id="XMLID_126_">
</g>
<g id="XMLID_127_">
</g>
<g id="XMLID_128_">
</g>
<g id="XMLID_129_">
</g>
<g id="XMLID_130_">
</g>
<g id="XMLID_131_">
</g>
<g id="XMLID_132_">
</g>
<g id="XMLID_133_">
</g>
<g id="XMLID_134_">
</g>
</svg>
