<?xml version="1.0" encoding="iso-8859-1"?>
<!-- Generator: Adobe Illustrator 19.0.0, SVG Export Plug-In . SVG Version: 6.00 Build 0)  -->
<svg version="1.2" baseProfile="tiny" id="&#x5716;&#x5C64;_1"
	 xmlns="http://www.w3.org/2000/svg" xmlns:xlink="http://www.w3.org/1999/xlink" x="0px" y="0px" viewBox="0 0 521.041 282.337"
	 xml:space="preserve">
<path id="XMLID_7_" fill="#E8E8E8" d="M36.781,217.57l-9.245-26.878c-1.3-3.778-1.957-7.666-1.957-11.57V49.308h11.202V217.57z"/>
<g id="XMLID_6_">
	<path id="XMLID_246_" fill="#EFEFEF" d="M81.526,54.689c1.226,0,2.43,0.179,3.614,0.536c1.183,0.357,2.235,0.916,3.154,1.673
		c0.919,0.758,1.664,1.724,2.234,2.898s0.855,2.588,0.855,4.24c0,1.362-0.217,2.63-0.651,3.805c-0.435,1.175-1.018,2.298-1.75,3.371
		c-0.732,1.073-1.58,2.124-2.541,3.154c-0.962,1.03-1.971,2.082-3.026,3.154L70.8,90.393c0.358-0.034,0.771-0.06,1.239-0.077
		s0.992-0.026,1.571-0.026H92.1c0.17,0,0.255,0.085,0.255,0.255v0.307H69.983v-0.204c0-0.103,0.025-0.188,0.077-0.255
		c0.051-0.068,0.093-0.119,0.127-0.153l12.872-13.076c1.056-1.073,2.052-2.12,2.988-3.141c0.936-1.021,1.753-2.06,2.452-3.116
		c0.698-1.056,1.251-2.146,1.66-3.269c0.409-1.124,0.613-2.324,0.613-3.601c0-1.549-0.264-2.882-0.792-3.997
		c-0.528-1.115-1.226-2.03-2.094-2.745c-0.869-0.715-1.856-1.243-2.963-1.583c-1.107-0.34-2.239-0.511-3.396-0.511
		c-1.328,0-2.55,0.204-3.665,0.613s-2.099,0.983-2.95,1.724c-0.852,0.741-1.554,1.622-2.107,2.644s-0.932,2.154-1.136,3.396
		c-0.051,0.273-0.188,0.409-0.409,0.409h-0.255c0.187-1.43,0.575-2.72,1.162-3.869s1.341-2.124,2.26-2.924
		c0.919-0.8,1.979-1.417,3.18-1.852C78.807,54.906,80.113,54.689,81.526,54.689z"/>
	<path id="XMLID_248_" fill="#EFEFEF" d="M104.153,90.341h8.683V57.243c0-0.238,0.008-0.481,0.025-0.728
		c0.017-0.247,0.042-0.489,0.077-0.728l-9.245,8.351c-0.085,0.085-0.17,0.128-0.255,0.128c-0.102,0-0.188-0.042-0.255-0.128
		l-0.153-0.204l10.063-9.041h0.357v35.448h8.479v0.511h-17.775V90.341z"/>
	<path id="XMLID_250_" fill="#EFEFEF" d="M140.775,54.689c1.226,0,2.43,0.179,3.614,0.536c1.183,0.357,2.235,0.916,3.154,1.673
		c0.919,0.758,1.664,1.724,2.234,2.898s0.855,2.588,0.855,4.24c0,1.362-0.217,2.63-0.651,3.805c-0.435,1.175-1.018,2.298-1.75,3.371
		c-0.732,1.073-1.58,2.124-2.541,3.154c-0.962,1.03-1.971,2.082-3.026,3.154l-12.617,12.872c0.358-0.034,0.771-0.06,1.239-0.077
		s0.992-0.026,1.571-0.026h18.49c0.17,0,0.255,0.085,0.255,0.255v0.307h-22.372v-0.204c0-0.103,0.025-0.188,0.077-0.255
		c0.051-0.068,0.093-0.119,0.127-0.153l12.872-13.076c1.056-1.073,2.052-2.12,2.988-3.141c0.936-1.021,1.753-2.06,2.452-3.116
		c0.698-1.056,1.251-2.146,1.66-3.269c0.409-1.124,0.613-2.324,0.613-3.601c0-1.549-0.264-2.882-0.792-3.997
		c-0.528-1.115-1.226-2.03-2.094-2.745c-0.869-0.715-1.856-1.243-2.963-1.583c-1.107-0.34-2.239-0.511-3.396-0.511
		c-1.328,0-2.55,0.204-3.665,0.613s-2.099,0.983-2.95,1.724c-0.852,0.741-1.554,1.622-2.107,2.644s-0.932,2.154-1.136,3.396
		c-0.051,0.273-0.188,0.409-0.409,0.409h-0.255c0.187-1.43,0.575-2.72,1.162-3.869s1.341-2.124,2.26-2.924
		c0.919-0.8,1.979-1.417,3.18-1.852C138.056,54.906,139.362,54.689,140.775,54.689z"/>
	<path id="XMLID_252_" fill="#EFEFEF" d="M179.441,55.353c0,0.085-0.035,0.158-0.103,0.217c-0.068,0.06-0.153,0.089-0.255,0.089
		h-14.455l-2.579,14.174c1.293-0.34,2.52-0.587,3.677-0.741s2.248-0.23,3.269-0.23c1.856,0,3.486,0.26,4.891,0.779
		c1.404,0.52,2.579,1.243,3.524,2.17c0.945,0.928,1.656,2.043,2.133,3.346c0.477,1.303,0.715,2.737,0.715,4.303
		c0,1.874-0.323,3.542-0.97,5.006c-0.647,1.464-1.516,2.699-2.605,3.703c-1.09,1.005-2.354,1.771-3.792,2.298
		c-1.439,0.528-2.95,0.792-4.533,0.792c-0.919,0-1.805-0.077-2.656-0.23c-0.852-0.153-1.647-0.353-2.388-0.6
		c-0.741-0.247-1.417-0.527-2.031-0.843c-0.613-0.315-1.149-0.643-1.609-0.983l0.153-0.204c0.068-0.102,0.17-0.153,0.307-0.153
		c0.119,0,0.383,0.124,0.792,0.37c0.409,0.247,0.958,0.524,1.647,0.83c0.689,0.307,1.515,0.583,2.477,0.83
		c0.962,0.247,2.064,0.371,3.308,0.371c1.515,0,2.954-0.243,4.316-0.728c1.362-0.485,2.554-1.2,3.576-2.146
		c1.021-0.945,1.834-2.12,2.439-3.524c0.604-1.404,0.906-3.018,0.906-4.839c0-1.447-0.208-2.784-0.625-4.01
		c-0.417-1.226-1.06-2.286-1.928-3.18c-0.868-0.894-1.971-1.592-3.307-2.094c-1.337-0.502-2.916-0.753-4.738-0.753
		c-1.021,0-2.124,0.081-3.307,0.243c-1.184,0.162-2.456,0.413-3.818,0.753l-0.459-0.204l2.707-15.068h15.324V55.353z"/>
</g>
<g id="XMLID_5_">
	<path id="XMLID_32_" fill="#E2E2E2" d="M250.706,70.379c2.99,8.327,8.327,15.043,16.792,18.31
		c-1.656,1.472-3.911,4.417-4.969,6.349c-8.097-3.727-13.157-9.845-16.7-17.988c-2.622,7.085-7.499,13.479-16.562,17.988
		c-1.058-1.84-3.082-4.232-5.061-5.705c10.075-4.555,14.308-11.456,16.148-18.954h-15.228v-6.947h16.332
		c0.322-4.049,0.276-8.097,0.322-11.916h7.361c-0.046,3.818-0.092,7.867-0.46,11.916h17.666v6.947H250.706z"/>
	<path id="XMLID_230_" fill="#E2E2E2" d="M320.904,85.929v6.854h-40.209v-6.854H320.904z M318.511,55.888v6.854h-35.24v-6.854
		H318.511z M314.785,70.563v6.809h-28.201v-6.809H314.785z"/>
	<path id="XMLID_234_" fill="#E2E2E2" d="M337.045,56.624h11.962c7.084,0,12.743,1.886,12.743,8.465
		c0,3.037-1.702,6.349-4.463,7.407v0.184c3.45,0.92,6.073,3.496,6.073,8.051c0,6.993-5.935,10.121-13.388,10.121h-12.928V56.624z
		 M348.685,70.195c3.496,0,5.061-1.518,5.061-3.865c0-2.438-1.61-3.45-5.061-3.45h-3.404v7.315H348.685z M349.374,84.549
		c3.957,0,5.981-1.426,5.981-4.371c0-2.806-1.979-3.91-5.981-3.91h-4.094v8.281H349.374z"/>
	<path id="XMLID_238_" fill="#E2E2E2" d="M376.421,83.537c0-5.521,4.324-8.511,14.537-9.615c-0.184-2.116-1.288-3.358-3.956-3.358
		c-2.07,0-4.232,0.828-6.854,2.3l-2.853-5.382c3.45-2.07,7.177-3.451,11.271-3.451c6.763,0,10.581,3.772,10.581,11.961v14.86h-6.671
		l-0.598-2.622h-0.185c-2.162,1.932-4.601,3.266-7.499,3.266C379.365,91.496,376.421,87.907,376.421,83.537z M390.958,83.077V78.89
		c-5.106,0.69-6.763,2.162-6.763,4.002c0,1.518,1.104,2.254,2.807,2.254C388.658,85.147,389.763,84.365,390.958,83.077z"/>
	<path id="XMLID_241_" fill="#E2E2E2" d="M414.646,64.675h6.67l0.553,3.266h0.184c2.162-2.116,4.831-3.911,8.373-3.911
		c5.705,0,8.144,4.095,8.144,10.627v16.194h-8.189V75.67c0-3.588-0.966-4.646-3.036-4.646c-1.841,0-2.944,0.828-4.555,2.346v17.482
		h-8.143V64.675z"/>
	<path id="XMLID_243_" fill="#E2E2E2" d="M452.779,77.786c0-8.603,5.383-13.756,10.812-13.756c2.898,0,4.601,1.058,6.303,2.714
		l-0.322-3.91v-8.741h8.235v36.758h-6.671l-0.598-2.53h-0.185c-1.84,1.84-4.37,3.174-6.854,3.174
		C456.966,91.496,452.779,86.297,452.779,77.786z M469.571,82.571V72.266c-1.242-1.15-2.668-1.564-4.048-1.564
		c-2.255,0-4.325,2.116-4.325,6.947c0,5.015,1.656,7.131,4.463,7.131C467.226,84.779,468.468,84.273,469.571,82.571z"/>
</g>
<g id="XMLID_3_">
	<rect id="XMLID_228_" x="67.26" y="121.499" fill="none" width="432.802" height="118.501"/>
	<path id="XMLID_33_" fill="#E2E2E2" d="M79.799,123.439c-0.54,1.44-1.278,3.223-1.926,4.664c1.422,1.548,1.8,2.845,1.8,4.015
		c0,0.846-0.198,1.603-0.666,1.927c-0.216,0.144-0.54,0.252-0.864,0.288c-0.396,0.036-0.846,0.036-1.242,0
		c-0.018-0.216-0.108-0.54-0.252-0.774c0.468,0.018,0.882,0.036,1.188,0.018c0.252-0.018,0.45-0.072,0.612-0.18
		c0.306-0.198,0.414-0.774,0.414-1.332c0-1.063-0.396-2.341-1.836-3.854c0.63-1.422,1.26-3.043,1.71-4.285h-2.971v14.729h-0.81
		v-15.539h4.141l0.144-0.036L79.799,123.439z M86.191,132.892c1.063,1.71,2.845,3.349,4.501,4.141
		c-0.18,0.162-0.468,0.468-0.594,0.684c-1.747-0.936-3.619-2.863-4.699-4.789v5.708h-0.829v-5.672
		c-1.188,1.963-3.259,3.854-5.077,4.826c-0.144-0.198-0.396-0.504-0.594-0.684c1.729-0.811,3.655-2.485,4.825-4.213h-3.061v-6.068
		h3.907v-1.674h-4.717v-0.774h4.717v-2.017h0.829v2.017h4.843v0.774h-4.843v1.674h4.015v6.068H86.191z M81.474,129.489h3.097v-1.944
		h-3.097V129.489z M81.474,132.172h3.097v-1.98h-3.097V132.172z M85.399,127.544v1.944h3.187v-1.944H85.399z M88.586,130.191h-3.187
		v1.98h3.187V130.191z"/>
	<path id="XMLID_40_" fill="#E2E2E2" d="M101.508,128.661v9.417h-0.846v-9.417h-2.827v2.251c0,2.269-0.18,5.33-1.386,7.364
		c-0.126-0.18-0.468-0.45-0.648-0.559c1.117-1.926,1.207-4.663,1.207-6.788v-6.77c1.944-0.36,4.177-0.955,5.348-1.585l0.756,0.594
		c-1.333,0.667-3.385,1.188-5.276,1.584v3.079h5.474v0.828H101.508z M107.972,128.553c0,0.504-0.018,1.008-0.036,1.53
		c0.684,3.817,1.854,5.996,4.303,7.887c-0.216,0.162-0.45,0.432-0.576,0.666c-2.088-1.674-3.259-3.565-4.015-6.392
		c-0.45,2.161-1.53,4.483-4.033,6.464c-0.108-0.216-0.396-0.504-0.594-0.63c3.854-2.971,4.124-6.824,4.124-9.507v-1.152h0.828
		V128.553z M105.811,126.212c-0.486,1.422-1.063,2.701-1.765,3.691c-0.162-0.108-0.54-0.342-0.756-0.432
		c1.296-1.729,2.125-4.357,2.593-7.148l0.846,0.144c-0.18,1.008-0.414,1.999-0.684,2.917h5.42l0.162-0.036l0.541,0.198
		c-0.27,1.477-0.702,3.277-1.134,4.375l-0.72-0.216c0.36-0.882,0.684-2.287,0.882-3.493H105.811z"/>
	<path id="XMLID_44_" fill="#E2E2E2" d="M133.533,137.339v0.81h-15.88v-0.81h3.475v-9.723h8.858v9.723H133.533z M119.093,128.066
		h-0.846v-3.511h14.746v3.511h-0.864v-2.683h-13.036V128.066z M121.974,128.409v2.377h7.148v-2.377H121.974z M129.122,131.56h-7.148
		v2.449h7.148V131.56z M121.974,137.339h7.148v-2.557h-7.148V137.339z M125.449,122.287c0.432,0.612,0.846,1.458,1.026,1.999
		l-0.846,0.27c-0.162-0.541-0.594-1.405-0.99-2.053L125.449,122.287z"/>
	<path id="XMLID_51_" fill="#E2E2E2" d="M151.709,126.14c-0.468,0.81-1.063,1.62-1.674,2.376v10.227h-0.829v-9.255
		c-0.774,0.864-1.603,1.657-2.395,2.287c-0.108-0.144-0.414-0.541-0.576-0.702c1.729-1.279,3.529-3.259,4.681-5.222L151.709,126.14z
		 M151.241,122.665c-1.008,1.477-2.683,3.115-4.249,4.177c-0.09-0.162-0.342-0.468-0.504-0.612c1.458-0.99,3.133-2.539,3.961-3.889
		L151.241,122.665z M157.795,122.593c-0.126,0.216-0.252,0.45-0.396,0.648c1.603,2.214,3.529,3.637,5.582,4.807
		c-0.216,0.162-0.468,0.433-0.576,0.685c-1.963-1.225-3.781-2.665-5.402-4.826c-1.368,1.927-3.277,3.691-5.222,4.826
		c-0.144-0.198-0.36-0.45-0.558-0.63c2.323-1.26,4.627-3.511,5.888-5.798L157.795,122.593z M154.518,133.504
		c-0.612,1.476-1.548,3.025-2.449,4.051c-0.18-0.144-0.54-0.36-0.738-0.468c0.955-0.973,1.837-2.413,2.377-3.799L154.518,133.504z
		 M157.561,132.136v5.366c0,0.612-0.162,0.864-0.594,1.008c-0.45,0.162-1.26,0.162-2.61,0.162c-0.036-0.252-0.162-0.576-0.306-0.829
		c1.134,0.036,2.035,0.036,2.287,0.018c0.288-0.018,0.36-0.108,0.36-0.342v-5.384h-4.969v-0.81h4.969v-2.647h-2.899v-0.792h6.986
		v0.792h-3.223v2.647h5.023v0.81H157.561z M160.153,133.234c1.044,1.17,2.161,2.755,2.647,3.817l-0.738,0.432
		c-0.486-1.063-1.566-2.701-2.593-3.889L160.153,133.234z"/>
	<path id="XMLID_58_" fill="#E2E2E2" d="M169.888,133.846c-0.234,1.549-0.594,3.241-0.99,4.375c-0.18-0.09-0.541-0.234-0.756-0.306
		c0.432-1.134,0.738-2.737,0.954-4.195L169.888,133.846z M173.633,129.075c0.504,1.207,1.026,2.791,1.242,3.728l-0.792,0.234
		c-0.054-0.324-0.162-0.72-0.288-1.152c-4.375,0.648-4.88,0.756-5.204,0.936c-0.054-0.198-0.18-0.648-0.288-0.882
		c0.324-0.054,0.774-0.541,1.296-1.188c0.324-0.36,1.044-1.243,1.818-2.377c-2.287,0.27-2.701,0.342-2.953,0.45
		c-0.018-0.18-0.162-0.612-0.27-0.846c0.27-0.072,0.612-0.45,1.008-1.008c0.396-0.54,1.783-2.665,2.611-4.664l0.846,0.378
		c-0.918,1.836-2.034,3.691-3.133,5.113l2.431-0.234c0.504-0.774,0.99-1.584,1.422-2.395l0.792,0.45
		c-1.314,2.197-2.827,4.394-4.339,6.05l3.763-0.504c-0.216-0.666-0.468-1.333-0.72-1.909L173.633,129.075z M171.814,133.684
		c0.216,1.225,0.432,2.827,0.504,3.871l-0.774,0.145c-0.054-1.063-0.252-2.665-0.468-3.907L171.814,133.684z M173.651,133.27
		c0.396,1.063,0.864,2.413,1.026,3.313l-0.738,0.216c-0.18-0.882-0.594-2.269-0.99-3.331L173.651,133.27z M183.842,123.313
		c0,0-0.018,0.306-0.036,0.432c-0.18,3.907-0.378,5.312-0.81,5.78c-0.252,0.288-0.504,0.378-0.973,0.414
		c-0.396,0.018-1.206,0.018-1.999-0.054c-0.018-0.234-0.108-0.576-0.234-0.811c0.846,0.09,1.656,0.09,1.926,0.09
		c0.288,0,0.45-0.018,0.594-0.162c0.288-0.342,0.486-1.584,0.648-4.879h-3.439c-0.36,2.719-1.188,5.095-3.709,6.374
		c-0.126-0.18-0.378-0.468-0.559-0.594c2.323-1.134,3.097-3.331,3.403-5.78h-3.241v-0.811H183.842z M175.848,131.614h7.437v6.968
		h-0.864v-0.738h-5.726v0.829h-0.846V131.614z M176.694,132.406v4.646h5.726v-4.646H176.694z"/>
	<path id="XMLID_66_" fill="#E2E2E2" d="M194.333,134.548h3.727v0.792h-3.727v3.295h-0.828v-3.295h-3.673v-0.792h3.673v-1.674
		h-3.007v-6.086h3.007v-1.566h-3.403v-0.81h3.403v-2.089h0.828v2.089h3.367v0.81h-3.367v1.566h3.061v6.086h-3.061V134.548z
		 M191.254,129.471h2.305v-1.963h-2.305V129.471z M191.254,132.154h2.305v-1.98h-2.305V132.154z M196.62,127.508h-2.323v1.963h2.323
		V127.508z M196.62,130.173h-2.323v1.98h2.323V130.173z M206.234,130.335h-3.781v8.3h-0.864v-8.3h-3.745v-0.829h3.745v-5.095h-3.331
		v-0.828h7.67v0.828h-3.475v5.095h3.781V130.335z"/>
	<path id="XMLID_73_" fill="#E2E2E2" d="M228.3,130.894c1.71,2.34,4.609,4.663,7.166,5.726c-0.216,0.18-0.468,0.504-0.63,0.756
		c-2.521-1.207-5.419-3.601-7.22-6.086v7.364h-0.882v-7.418c-1.729,2.611-4.609,5.024-7.13,6.266c-0.162-0.216-0.414-0.54-0.63-0.72
		c2.539-1.098,5.383-3.439,7.04-5.888h-6.662v-0.846h7.382v-3.619h-4.286c-0.522,0.918-1.062,1.729-1.638,2.395
		c-0.18-0.126-0.594-0.324-0.811-0.432c1.296-1.386,2.395-3.457,3.061-5.6l0.864,0.198c-0.288,0.9-0.648,1.764-1.044,2.593h3.854
		v-3.205h0.882v3.205h6.032v0.846h-6.032v3.619h7.418v0.846H228.3z"/>
	<path id="XMLID_75_" fill="#E2E2E2" d="M246.191,134.008l0.072,0.828c-1.98,0.45-4.015,0.864-5.528,1.188l-0.18-0.846
		c0.684-0.126,1.53-0.306,2.467-0.504v-4.969h-2.071v-0.81h2.071v-4.375h-2.323v-0.81h5.509v0.81h-2.376v4.375h1.891v0.81h-1.891
		v4.79L246.191,134.008z M252.313,137.051h2.845v-2.359h0.829v3.961h-0.829v-0.846h-7.598v-3.115h0.81v2.359h3.115v-3.169h-4.952
		v-0.774h4.952v-2.106h-2.305c-0.414,0.72-0.955,1.404-1.495,1.891c-0.144-0.126-0.486-0.378-0.684-0.504
		c0.81-0.702,1.495-1.674,1.909-2.701c-0.667,0.216-1.351,0.432-2.035,0.594c-0.09-0.216-0.288-0.522-0.432-0.702
		c1.818-0.396,3.763-1.116,5.401-2.161c-0.576-0.756-1.53-1.765-2.413-2.593c-0.666,0.522-1.458,1.008-2.323,1.458
		c-0.144-0.198-0.396-0.468-0.594-0.576c2.035-0.918,3.511-2.233,4.303-3.367l0.882,0.162c-0.288,0.396-0.612,0.792-0.972,1.188
		h4.699l0.144-0.036l0.541,0.27c-1.296,2.665-3.925,4.483-6.734,5.582l0.468,0.108c-0.072,0.198-0.162,0.396-0.252,0.612h6.302
		v0.774h-3.583v2.106h4.627v0.774h-4.627V137.051z M250.17,127.544l-3.493,0.342l-0.018-0.648l3.493-0.324L250.17,127.544z
		 M249.972,124.412c0.918,0.792,1.909,1.8,2.503,2.575c0.99-0.72,1.854-1.584,2.449-2.575H249.972z"/>
	<path id="XMLID_80_" fill="#E2E2E2" d="M270.816,135.485h7.562v0.774h-7.562v2.376h-0.882v-2.376h-7.652v-0.774h7.652v-1.513
		h-5.438v-5.203h11.794v5.203h-5.474V135.485z M278.486,126.842v0.756h-16.187v-0.756h5.023c-0.234-0.54-0.612-1.225-0.955-1.71
		l0.774-0.252c0.468,0.576,0.882,1.387,1.134,1.963h4.177c0.396-0.612,0.882-1.458,1.152-2.035l0.864,0.27
		c-0.324,0.594-0.72,1.225-1.08,1.765H278.486z M277.28,124.718h-13.756v-0.756h6.806c-0.27-0.522-0.63-1.17-0.937-1.639
		l0.792-0.252c0.414,0.558,0.846,1.333,1.08,1.891h6.014V124.718z M265.342,131.02h10.083v-1.548h-10.083V131.02z M265.342,133.252
		h10.083v-1.548h-10.083V133.252z"/>
	<path id="XMLID_86_" fill="#E2E2E2" d="M296.987,123.439c-0.541,1.44-1.279,3.223-1.927,4.664c1.422,1.548,1.8,2.845,1.8,4.015
		c0,0.846-0.198,1.603-0.666,1.927c-0.216,0.144-0.54,0.252-0.864,0.288c-0.396,0.036-0.846,0.036-1.242,0
		c-0.018-0.216-0.108-0.54-0.252-0.774c0.468,0.018,0.882,0.036,1.188,0.018c0.252-0.018,0.45-0.072,0.612-0.18
		c0.306-0.198,0.414-0.774,0.414-1.332c0-1.063-0.396-2.341-1.836-3.854c0.63-1.422,1.26-3.043,1.71-4.285h-2.971v14.729h-0.811
		v-15.539h4.141l0.144-0.036L296.987,123.439z M303.378,132.892c1.063,1.71,2.845,3.349,4.501,4.141
		c-0.18,0.162-0.468,0.468-0.594,0.684c-1.747-0.936-3.619-2.863-4.699-4.789v5.708h-0.829v-5.672
		c-1.188,1.963-3.259,3.854-5.077,4.826c-0.144-0.198-0.396-0.504-0.594-0.684c1.729-0.811,3.655-2.485,4.825-4.213h-3.061v-6.068
		h3.907v-1.674h-4.717v-0.774h4.717v-2.017h0.829v2.017h4.843v0.774h-4.843v1.674h4.015v6.068H303.378z M298.661,129.489h3.097
		v-1.944h-3.097V129.489z M298.661,132.172h3.097v-1.98h-3.097V132.172z M302.586,127.544v1.944h3.187v-1.944H302.586z
		 M305.773,130.191h-3.187v1.98h3.187V130.191z"/>
	<path id="XMLID_93_" fill="#E2E2E2" d="M316.93,124.501c-0.306,2.791-1.116,4.861-3.601,6.068
		c-0.108-0.198-0.378-0.522-0.576-0.648c2.341-1.044,3.079-2.971,3.331-5.42h-2.809v-0.81h7.617v0.432
		c-0.145,3.799-0.271,5.113-0.648,5.545c-0.234,0.27-0.504,0.378-0.954,0.396c-0.414,0.036-1.207,0.018-1.999-0.036
		c-0.018-0.234-0.108-0.558-0.252-0.774c0.864,0.072,1.675,0.072,1.927,0.072c0.306,0.018,0.468,0,0.576-0.162
		c0.252-0.288,0.378-1.477,0.504-4.664H316.93z M314.751,137.195v1.26h-0.81v-7.184h6.608v5.924H314.751z M314.751,132.082v4.304
		h4.97v-4.304H314.751z M328.867,126.464c0,0-0.018,0.396-0.018,0.504c-0.162,7.814-0.324,10.317-0.883,11.055
		c-0.306,0.378-0.63,0.504-1.134,0.541c-0.522,0.036-1.44,0.018-2.323-0.036c-0.035-0.27-0.126-0.612-0.27-0.846
		c1.026,0.09,1.963,0.09,2.322,0.09c0.307,0,0.486-0.036,0.648-0.27c0.45-0.54,0.648-3.061,0.792-10.209h-3.043
		c-0.233,4.646-1.026,8.913-4.015,11.433c-0.144-0.18-0.486-0.45-0.72-0.576c2.899-2.305,3.674-6.428,3.89-10.857h-2.773v-0.828
		h2.81c0.054-1.351,0.054-2.719,0.054-4.069h0.847c0,1.368-0.019,2.719-0.055,4.069H328.867z"/>
	<path id="XMLID_98_" fill="#E2E2E2" d="M335.019,137.267c0.955-1.08,1.693-2.827,2.089-4.141l0.738,0.252
		c-0.468,1.386-1.134,3.187-2.089,4.303L335.019,137.267z M348.938,131.848h-12.226v-8.697h12.226V131.848z M348.037,123.925
		h-10.461v7.13h10.461V123.925z M346.164,130.479c-0.828-0.738-2.358-1.909-3.69-2.791c-0.595,1.26-1.603,2.197-3.313,2.827
		c-0.09-0.18-0.324-0.45-0.45-0.576c1.854-0.63,2.809-1.692,3.313-3.151h-3.205v-0.738h3.385c0.126-0.54,0.216-1.116,0.271-1.729
		h0.773c-0.054,0.612-0.144,1.188-0.252,1.729h3.745v0.738h-3.925l-0.09,0.27c1.368,0.882,3.079,2.089,3.961,2.863L346.164,130.479z
		 M345.426,137.501c0.937,0,1.081-0.306,1.171-2.359c0.198,0.18,0.558,0.288,0.81,0.36c-0.126,2.287-0.432,2.809-1.944,2.809h-4.069
		c-1.692,0-2.143-0.27-2.143-1.404v-3.889h0.864v3.871c0,0.486,0.217,0.612,1.278,0.612H345.426z M342.312,132.352
		c1.008,0.846,2.143,2.017,2.646,2.845l-0.721,0.45c-0.504-0.811-1.602-2.035-2.61-2.899L342.312,132.352z M347.856,132.712
		c1.135,1.296,2.287,3.079,2.719,4.285l-0.81,0.378c-0.396-1.188-1.513-3.007-2.665-4.303L347.856,132.712z"/>
	<path id="XMLID_106_" fill="#E2E2E2" d="M371.507,125.762c-1.836,1.657-4.735,3.079-7.076,3.799
		c-0.126-0.198-0.36-0.522-0.54-0.702c2.431-0.648,5.365-2.071,7.076-3.619h-6.608v-0.792h7.148v-2.107h0.864v2.107h7.274v0.792
		h-7.274v0.234c2.557,0.991,5.744,2.413,7.437,3.367l-0.433,0.702c-1.584-0.918-4.519-2.287-7.004-3.295v3.349h-0.864V125.762z
		 M379.934,134.314h-7.58v3.187c0,0.576-0.145,0.81-0.631,0.972c-0.504,0.144-1.314,0.144-2.826,0.144
		c-0.072-0.234-0.252-0.558-0.414-0.792c1.296,0.036,2.341,0.036,2.629,0c0.323-0.018,0.396-0.09,0.396-0.324v-3.187h-7.472v-0.81
		h7.472v-1.026c1.225-0.378,2.539-1.026,3.511-1.657h-7.832v-0.792h8.877l0.198-0.054l0.576,0.468
		c-1.152,0.954-2.881,1.854-4.483,2.467v0.594h7.58V134.314z"/>
	<path id="XMLID_109_" fill="#E2E2E2" d="M387.651,130.299c-0.054,2.646-0.396,5.96-1.71,8.373
		c-0.127-0.144-0.486-0.396-0.667-0.486c1.44-2.647,1.566-6.302,1.566-8.985v-5.545h7.131c-0.126-0.414-0.307-0.882-0.486-1.26
		l0.811-0.162c0.216,0.432,0.468,0.99,0.611,1.422h6.555v0.738h-5.204v1.333h4.394v2.898H387.67v0.576v0.433h13.396l0.145-0.054
		l0.576,0.198c-0.433,0.756-0.9,1.603-1.314,2.161l-0.702-0.234c0.288-0.378,0.594-0.882,0.864-1.404h-7.112
		c0.702,0.378,1.548,0.864,2.017,1.206l-0.45,0.559c-0.54-0.36-1.53-0.99-2.251-1.369l0.36-0.396H387.651z M398.923,134.44
		c-0.864,0.972-2.143,1.765-3.637,2.413c1.818,0.504,3.835,0.864,5.924,1.026c-0.181,0.18-0.396,0.522-0.486,0.774
		c-2.305-0.252-4.573-0.702-6.572-1.387c-1.98,0.685-4.231,1.135-6.302,1.405c-0.072-0.216-0.271-0.522-0.414-0.72
		c1.872-0.18,3.871-0.54,5.672-1.063c-1.009-0.414-1.927-0.882-2.719-1.458c-0.721,0.414-1.531,0.792-2.413,1.152
		c-0.09-0.18-0.342-0.414-0.54-0.522c0.864-0.324,1.656-0.684,2.358-1.063c-0.414-0.342-0.792-0.684-1.099-1.08l0.721-0.324
		c0.306,0.342,0.666,0.684,1.08,0.99c0.738-0.45,1.351-0.918,1.801-1.368c-0.973-0.054-1.242-0.271-1.242-1.063v-1.296h0.756v1.296
		c0,0.36,0.145,0.414,0.973,0.414h3.114c0.541,0,0.648-0.108,0.703-1.026c0.197,0.108,0.449,0.198,0.684,0.252
		c-0.072,1.135-0.342,1.423-1.278,1.423h-2.683c-0.271,0.306-0.595,0.594-0.937,0.882h5.815l0.162-0.036L398.923,134.44z
		 M387.67,124.394v1.333h3.475v-1.333H387.67z M387.67,127.958h3.475v-1.566h-3.475V127.958z M388.155,132.874
		c0.612-0.558,1.261-1.512,1.692-2.143l0.631,0.36c-0.469,0.667-1.08,1.603-1.675,2.215L388.155,132.874z M391.486,134.765
		c-0.126,0.09-0.252,0.18-0.396,0.252c0.9,0.594,1.962,1.081,3.133,1.495c1.314-0.468,2.448-1.044,3.276-1.747H391.486z
		 M395.466,124.394h-3.511v1.333h3.511V124.394z M391.955,127.958h3.511v-1.566h-3.511V127.958z M396.258,126.392v1.566h3.583
		v-1.566H396.258z M397.734,130.677c0.774,0.648,1.765,1.549,2.287,2.107l-0.576,0.45c-0.505-0.558-1.495-1.512-2.269-2.196
		L397.734,130.677z"/>
	<path id="XMLID_120_" fill="#E2E2E2" d="M423.007,128.769v0.828h-9.723c-1.368,3.295-3.187,6.05-5.51,8.03
		c-0.144-0.18-0.521-0.486-0.738-0.612c2.251-1.782,4.016-4.375,5.294-7.418h-4.97v-0.828h5.33c0.342-0.882,0.63-1.783,0.9-2.719
		l0.864,0.198c-0.253,0.864-0.522,1.71-0.847,2.521H423.007z M408.513,127.617h-0.846v-3.151h7.616
		c-0.217-0.54-0.612-1.368-1.009-2.017l0.847-0.216c0.414,0.612,0.864,1.477,1.08,2.017l-0.612,0.216h7.148v3.151h-0.864v-2.341
		h-13.36V127.617z M418.794,133.45c1.242,1.495,2.791,3.529,3.511,4.717l-0.72,0.504c-0.234-0.432-0.576-0.937-0.973-1.513
		c-7.634,0.811-8.354,0.882-8.805,1.081c-0.054-0.198-0.198-0.612-0.306-0.864c0.324-0.054,0.72-0.522,1.188-1.17
		c0.504-0.648,2.16-3.097,3.223-5.419l0.882,0.324c-1.134,2.197-2.484,4.375-3.799,6.032l7.112-0.702
		c-0.63-0.882-1.351-1.818-1.999-2.611L418.794,133.45z"/>
	<path id="XMLID_124_" fill="#E2E2E2" d="M441.292,126.14c-0.469,0.81-1.063,1.62-1.675,2.376v10.227h-0.828v-9.255
		c-0.774,0.864-1.603,1.657-2.395,2.287c-0.108-0.144-0.414-0.541-0.576-0.702c1.729-1.279,3.528-3.259,4.681-5.222L441.292,126.14z
		 M440.823,122.665c-1.008,1.477-2.683,3.115-4.249,4.177c-0.09-0.162-0.342-0.468-0.504-0.612c1.458-0.99,3.133-2.539,3.961-3.889
		L440.823,122.665z M447.378,122.593c-0.126,0.216-0.253,0.45-0.396,0.648c1.603,2.214,3.529,3.637,5.582,4.807
		c-0.217,0.162-0.469,0.433-0.576,0.685c-1.963-1.225-3.781-2.665-5.402-4.826c-1.368,1.927-3.276,3.691-5.222,4.826
		c-0.144-0.198-0.359-0.45-0.558-0.63c2.322-1.26,4.627-3.511,5.888-5.798L447.378,122.593z M444.101,133.504
		c-0.612,1.476-1.549,3.025-2.449,4.051c-0.18-0.144-0.54-0.36-0.737-0.468c0.954-0.973,1.836-2.413,2.376-3.799L444.101,133.504z
		 M447.144,132.136v5.366c0,0.612-0.162,0.864-0.595,1.008c-0.449,0.162-1.26,0.162-2.61,0.162
		c-0.036-0.252-0.162-0.576-0.306-0.829c1.134,0.036,2.034,0.036,2.286,0.018c0.288-0.018,0.36-0.108,0.36-0.342v-5.384h-4.97v-0.81
		h4.97v-2.647h-2.899v-0.792h6.986v0.792h-3.223v2.647h5.023v0.81H447.144z M449.736,133.234c1.044,1.17,2.16,2.755,2.646,3.817
		l-0.738,0.432c-0.486-1.063-1.566-2.701-2.593-3.889L449.736,133.234z"/>
	<path id="XMLID_131_" fill="#E2E2E2" d="M461.884,131.091c-0.36,1.549-0.919,3.367-1.549,4.664c0.396,0.18,0.828,0.594,1.656,1.081
		c1.278,0.774,2.899,0.918,5.042,0.918c2.467,0,5.239-0.162,7.256-0.324c-0.126,0.234-0.252,0.648-0.27,0.918
		c-1.261,0.072-4.826,0.18-7.005,0.18c-2.358,0-3.961-0.198-5.312-1.008c-0.72-0.432-1.404-1.063-1.836-1.063
		c-0.378,0-0.99,1.063-1.549,2.269l-0.63-0.702c0.648-1.044,1.225-1.926,1.801-2.232c0.576-1.099,1.098-2.719,1.404-4.087h-2.413
		c0.522-1.08,1.188-2.683,1.692-4.105h-2.232v-0.811h3.385c-0.504,1.314-1.134,2.917-1.656,4.141h1.584l0.162-0.036L461.884,131.091
		z M459.741,125.6c-0.181-0.756-0.576-1.981-0.864-2.881l0.773-0.216c0.288,0.918,0.703,2.088,0.919,2.845L459.741,125.6z
		 M463.666,127.004c-0.306,0.324-0.612,0.612-0.918,0.846c-0.162-0.144-0.505-0.414-0.721-0.576c1.566-1.17,3.007-3.007,3.871-4.934
		l0.847,0.216c-0.198,0.432-0.433,0.864-0.648,1.278h3.979l0.144-0.036l0.559,0.36c-0.396,0.774-1.009,1.62-1.566,2.305h3.493v4.411
		h-3.674v3.925c0,0.414,0.108,0.504,0.829,0.504h2.61c0.576,0,0.685-0.216,0.738-1.783c0.198,0.126,0.522,0.252,0.756,0.324
		c-0.107,1.783-0.378,2.215-1.422,2.215h-2.719c-1.261,0-1.603-0.234-1.603-1.26v-3.925h-0.198c-0.738,2.341-2.143,4.393-5.023,5.6
		c-0.126-0.18-0.378-0.486-0.559-0.63c2.683-1.026,4.033-2.881,4.735-4.969h-3.511V127.004z M465.61,124.591
		c-0.432,0.667-0.918,1.314-1.44,1.873h4.088c0.45-0.522,0.954-1.243,1.314-1.873H465.61z M467.411,130.119
		c0.252-0.954,0.396-1.944,0.504-2.917h-3.421v2.917H467.411z M471.877,127.202h-3.115c-0.108,0.991-0.271,1.963-0.504,2.917h3.619
		V127.202z M470.544,131.416c0.648,0.504,1.423,1.296,1.765,1.818l-0.612,0.45c-0.342-0.558-1.08-1.332-1.746-1.873L470.544,131.416
		z"/>
	<path id="XMLID_139_" fill="#E2E2E2" d="M479.469,138.293c0.882-0.846,1.836-2.179,2.448-3.403l0.774,0.234
		c-0.648,1.207-1.566,2.611-2.449,3.529L479.469,138.293z M487.571,124.195c-1.099,5.167-3.907,8.229-7.257,9.813
		c-0.126-0.198-0.414-0.504-0.612-0.648c2.161-0.955,4.052-2.521,5.384-4.79c-0.612-0.756-1.675-1.783-2.646-2.575
		c-0.702,1.116-1.53,2.161-2.449,2.971c-0.071-0.18-0.324-0.486-0.45-0.63c1.729-1.566,3.134-4.015,3.817-6.122l0.811,0.234
		c-0.181,0.504-0.396,1.044-0.648,1.566h3.367l0.18-0.054L487.571,124.195z M483.592,129.651c-1.278,0.378-2.503,0.72-3.602,1.026
		l-0.288-0.702c1.009-0.216,2.377-0.576,3.8-0.936L483.592,129.651z M483.159,124.771c-0.126,0.216-0.252,0.432-0.359,0.648
		c0.936,0.72,1.998,1.692,2.664,2.449c0.469-0.918,0.847-1.945,1.116-3.097H483.159z M485.788,135.215
		c0.216,1.044,0.396,2.376,0.414,3.151l-0.828,0.126c-0.018-0.81-0.162-2.161-0.396-3.205L485.788,135.215z M494.953,134.152
		c-0.685-1.638-2.215-4.231-3.745-6.338c-0.522,2.197-1.765,4.501-4.628,6.428c-0.144-0.18-0.449-0.433-0.666-0.576
		c2.953-1.945,4.142-4.339,4.573-6.5h-3.043v-0.829h3.188c0.108-0.756,0.126-1.458,0.126-2.07v-1.729h0.828v1.729
		c0,0.63-0.018,1.333-0.108,2.07h4.052v0.829h-3.835c1.603,2.143,3.295,4.843,4.033,6.572L494.953,134.152z M489.497,135.089
		c0.505,1.026,1.009,2.376,1.207,3.205l-0.828,0.198c-0.198-0.846-0.667-2.197-1.171-3.241L489.497,135.089z M494.377,125.726
		c-0.414-0.685-1.297-1.747-2.07-2.467l0.63-0.414c0.792,0.72,1.71,1.729,2.106,2.431L494.377,125.726z M493.188,134.783
		c0.954,1.08,2.053,2.575,2.521,3.511l-0.792,0.396c-0.468-0.955-1.53-2.467-2.484-3.565L493.188,134.783z"/>
	<path id="XMLID_149_" fill="#E2E2E2" d="M90.225,161.36v0.81h-8.103c-0.918,2.485-2.899,3.871-7.472,4.573
		c-0.072-0.216-0.27-0.558-0.414-0.702c4.213-0.612,6.086-1.782,6.986-3.871H74.56v-0.81h6.932c0.234-0.756,0.36-1.603,0.45-2.575
		h-5.816v-6.968h0.864v6.158h11.613v3.385H90.225z M87.524,156.427h-8.589v-5.023h8.589V156.427z M86.678,152.195h-6.914v3.439
		h6.914V152.195z M82.789,158.786c-0.09,0.954-0.216,1.818-0.414,2.575h5.365v-2.575H82.789z M82.825,162.873
		c2.322,0.954,5.401,2.341,7.04,3.205l-0.468,0.756c-1.584-0.864-4.682-2.341-7.022-3.331L82.825,162.873z"/>
	<path id="XMLID_155_" fill="#E2E2E2" d="M109.016,165.105c1.368,0,1.638-0.685,1.764-3.673c0.234,0.144,0.63,0.27,0.9,0.324
		c-0.216,3.439-0.72,4.231-2.701,4.231h-8.859c-2.287,0-3.421-0.774-3.421-2.107c0-1.207,0.468-2.575,10.587-11.109H96.718v-0.864
		h11.739l0.216-0.072l0.612,0.414c-0.054,0.072-0.126,0.09-0.216,0.144c-10.839,9.128-11.451,10.479-11.451,11.433
		c0,0.882,0.99,1.279,2.358,1.279H109.016z"/>
	<path id="XMLID_157_" fill="#E2E2E2" d="M124.314,155.958c-0.63-0.504-1.8-1.351-2.809-1.999c-0.63,1.008-1.729,1.657-3.529,2.106
		c-0.09-0.162-0.306-0.504-0.468-0.648c3.205-0.738,3.925-2.089,4.105-5.078h0.792c-0.072,1.225-0.234,2.179-0.559,2.989
		c1.026,0.63,2.323,1.513,3.007,2.053L124.314,155.958z M133.263,165.412v0.792h-15.269v-0.792h7.167v-2.575h-4.897v-0.774h4.897
		v-2.233h-5.51v-0.756h11.956v0.756h-5.6v2.233h4.663v0.774h-4.663v2.575H133.263z M132.165,159.452v-2.269h-13.09v2.269h-0.828
		v-3.043h14.764v3.043H132.165z M119.471,153.654c-0.252-0.522-0.774-1.404-1.188-2.088l0.576-0.234
		c0.432,0.63,0.955,1.477,1.207,1.999L119.471,153.654z M125.25,151.601c-0.54,0.702-1.17,1.405-1.657,1.891l-0.576-0.288
		c0.504-0.522,1.152-1.386,1.513-1.944L125.25,151.601z M132.687,156.084c-0.81-0.612-2.358-1.53-3.691-2.179
		c-0.63,0.973-1.692,1.639-3.385,2.089c-0.054-0.18-0.306-0.504-0.468-0.666c3.042-0.738,3.763-2.143,3.961-4.988h0.828
		c-0.09,1.188-0.252,2.125-0.594,2.935c1.333,0.63,3.007,1.548,3.89,2.179L132.687,156.084z M127.051,153.636
		c-0.288-0.522-0.828-1.422-1.296-2.088l0.612-0.288c0.468,0.63,1.026,1.494,1.296,2.017L127.051,153.636z M128.509,163.071
		c0.955,0.468,2.179,1.17,2.809,1.656l-0.558,0.54c-0.63-0.486-1.837-1.224-2.809-1.71L128.509,163.071z M133.101,151.583
		c-0.558,0.702-1.26,1.44-1.8,1.908l-0.576-0.288c0.54-0.54,1.242-1.422,1.639-1.962L133.101,151.583z"/>
	<path id="XMLID_167_" fill="#E2E2E2" d="M149.944,158.047c-0.738-0.559-2.179-1.405-3.295-1.945l0.486-0.648
		c1.116,0.522,2.539,1.332,3.277,1.873L149.944,158.047z M147.226,165.826c0.99-1.405,2.413-3.854,3.421-5.87l0.63,0.576
		c-0.954,1.873-2.269,4.25-3.313,5.87L147.226,165.826z M148.072,150.575c1.099,0.594,2.539,1.477,3.259,2.071l-0.54,0.702
		c-0.702-0.63-2.106-1.566-3.241-2.179L148.072,150.575z M162.944,164.565v0.864h-11.127v-0.864h4.826v-11.559h-4.033v-0.864h9.237
		v0.864h-4.286v11.559H162.944z"/>
	<path id="XMLID_172_" fill="#E2E2E2" d="M184.49,165.339v0.81h-16.223v-0.81h1.962v-4.879h12.442v4.879H184.49z M176.154,155.922
		h-7.058v-0.774h7.058v-1.296c1.387-0.486,2.971-1.261,4.087-2.017h-8.769v-0.792h9.777l0.162-0.054l0.594,0.432
		c-1.278,1.08-3.223,2.125-4.969,2.809v0.918h6.392v0.774h-6.392v2.575c0,0.594-0.144,0.828-0.648,0.972
		c-0.522,0.144-1.44,0.144-2.971,0.144c-0.072-0.252-0.234-0.54-0.396-0.792c1.404,0.036,2.431,0.036,2.755,0
		c0.324-0.018,0.378-0.09,0.378-0.342V155.922z M171.058,165.339h3.025v-4.087h-3.025V165.339z M174.912,161.252v4.087h3.007v-4.087
		H174.912z M178.747,161.252v4.087h3.079v-4.087H178.747z"/>
	<path id="XMLID_178_" fill="#E2E2E2" d="M194.333,162.548h3.727v0.792h-3.727v3.295h-0.828v-3.295h-3.673v-0.792h3.673v-1.674
		h-3.007v-6.086h3.007v-1.566h-3.403v-0.81h3.403v-2.089h0.828v2.089h3.367v0.81h-3.367v1.566h3.061v6.086h-3.061V162.548z
		 M191.254,157.471h2.305v-1.963h-2.305V157.471z M191.254,160.154h2.305v-1.98h-2.305V160.154z M196.62,155.508h-2.323v1.963h2.323
		V155.508z M196.62,158.173h-2.323v1.98h2.323V158.173z M206.234,158.335h-3.781v8.3h-0.864v-8.3h-3.745v-0.829h3.745v-5.095h-3.331
		v-0.828h7.67v0.828h-3.475v5.095h3.781V158.335z"/>
	<path id="XMLID_185_" fill="#E2E2E2" d="M225.977,159.793c-0.414-0.684-1.621-2.196-2.431-3.169v10.011H222.7v-9.813
		c-0.846,2.449-2.125,4.934-3.331,6.338c-0.126-0.234-0.378-0.558-0.541-0.756c1.405-1.548,2.935-4.573,3.673-7.274h-3.241v-0.828
		h3.439v-3.961h0.846v3.961h2.683v0.828h-2.683v0.432c0.558,0.594,2.593,2.899,3.061,3.475L225.977,159.793z M231.703,155.13
		c0.828,3.079,2.287,6.23,3.799,7.796c-0.198,0.162-0.504,0.468-0.684,0.684c-1.297-1.513-2.557-4.159-3.421-6.896v9.921h-0.864
		v-9.831c-0.99,2.809-2.502,5.564-4.033,7.094c-0.144-0.252-0.396-0.558-0.576-0.756c1.729-1.692,3.511-4.916,4.357-8.012h-3.133
		v-0.828h3.385v-3.961h0.864v3.961h3.565v0.828H231.703z"/>
	<path id="XMLID_188_" fill="#E2E2E2" d="M255.68,160.1c-0.342,4.142-0.63,5.636-1.188,6.176c-0.288,0.288-0.576,0.378-1.063,0.396
		c-0.432,0.036-1.314,0.018-2.197-0.054c-0.036-0.234-0.108-0.558-0.27-0.792c0.955,0.108,1.855,0.108,2.179,0.108
		c0.324,0,0.504-0.018,0.648-0.18c0.414-0.396,0.72-1.782,1.008-5.293h-2.575c-0.955,2.575-2.485,4.807-4.231,6.284
		c-0.144-0.144-0.504-0.432-0.72-0.558c1.729-1.35,3.169-3.403,4.033-5.726h-2.899c-1.333,2.395-3.385,4.465-5.474,5.852
		c-0.126-0.162-0.468-0.468-0.684-0.612c2.053-1.225,3.943-3.115,5.186-5.24h-3.043c-0.937,0.972-1.98,1.818-3.007,2.467
		c-0.144-0.162-0.486-0.468-0.702-0.612c1.836-1.081,3.637-2.683,4.807-4.465h-2.232v-6.644h11.361v6.644h-8.138
		c-0.378,0.612-0.847,1.242-1.351,1.818h10.605L255.68,160.1z M244.102,154.14h9.651v-2.161h-9.651V154.14z M244.102,157.093h9.651
		v-2.214h-9.651V157.093z"/>
	<path id="XMLID_192_" fill="#E2E2E2" d="M264.694,158.407c-0.504-0.648-1.584-1.548-2.503-2.143l0.522-0.576
		c0.918,0.576,1.999,1.44,2.502,2.053L264.694,158.407z M262.443,165.826c0.666-1.333,1.602-3.619,2.232-5.51l0.648,0.522
		c-0.594,1.747-1.44,3.961-2.179,5.546L262.443,165.826z M263.199,150.701c0.882,0.576,1.873,1.44,2.323,2.052l-0.522,0.63
		c-0.486-0.63-1.44-1.512-2.305-2.125L263.199,150.701z M272.94,163.701l0.036,0.738c-2.539,0.468-5.239,0.955-7.112,1.278
		l-0.198-0.792c1.081-0.144,2.557-0.396,4.159-0.684c0.396-0.882,0.846-2.143,1.081-3.025l0.792,0.27
		c-0.324,0.846-0.702,1.818-1.08,2.611L272.94,163.701z M268.943,153.474h-2.863V152.7h2.863v-1.98h0.811v1.98h2.971v0.774h-2.971
		v1.675h2.449v0.756h-5.852v-0.756h2.593V153.474z M272.094,160.676h-5.42v-3.493h5.42V160.676z M267.593,164.259
		c-0.036-0.703-0.306-1.855-0.648-2.719l0.703-0.162c0.342,0.864,0.648,1.98,0.684,2.665L267.593,164.259z M271.302,157.939h-3.853
		v1.999h3.853V157.939z M278.558,155.382h-1.531v9.435c0,0.63-0.18,0.882-0.594,1.026c-0.414,0.145-1.152,0.162-2.502,0.162
		c-0.054-0.234-0.18-0.558-0.306-0.792c1.063,0.036,1.944,0.018,2.197,0.018c0.288-0.018,0.396-0.108,0.396-0.396v-9.453h-3.331
		v-0.828h3.331v-4.069h0.81v4.069h1.531V155.382z M274.363,161.396c-0.18-1.044-0.738-2.791-1.351-4.087l0.685-0.252
		c0.63,1.314,1.206,3.024,1.404,4.051L274.363,161.396z"/>
	<path id="XMLID_203_" fill="#E2E2E2" d="M296.411,159.02c-1.369,1.207-2.989,2.106-4.538,2.683
		c-0.108-0.216-0.306-0.522-0.486-0.666c1.639-0.54,3.385-1.531,4.79-2.845c-0.486-0.648-1.314-1.495-2.106-2.161
		c-0.612,0.576-1.314,1.116-2.089,1.603c-0.144-0.18-0.378-0.415-0.558-0.504c1.765-1.044,3.097-2.431,3.799-3.583l0.846,0.144
		c-0.216,0.324-0.45,0.63-0.702,0.954h3.349l0.18-0.054l0.522,0.288c-0.667,1.62-1.711,3.007-2.989,4.123h6.428v0.738h-6.446V159.02
		z M295.06,158.731c-1.225,0.144-2.359,0.27-3.367,0.36l-0.126-0.702c0.937-0.072,2.106-0.198,3.475-0.306L295.06,158.731z
		 M295.654,152.465h-4.015v-0.774h4.015v-1.333h0.846v1.333h2.449v0.774H296.5v1.026h-0.846V152.465z M296.626,163.179
		c-1.008,1.224-2.665,2.376-4.105,3.115c-0.126-0.162-0.45-0.486-0.648-0.63c1.458-0.648,3.025-1.657,3.925-2.755L296.626,163.179z
		 M299.994,162.098v4.538h-0.864v-4.538h-5.816v-0.738h12.55v0.738H299.994z M294.538,155.581c0.756,0.594,1.621,1.422,2.179,2.07
		c0.648-0.702,1.188-1.494,1.621-2.322h-3.565L294.538,155.581z M306.188,154.734c-0.72,1.242-1.837,2.575-2.845,3.511
		c1.333,1.063,2.863,1.909,4.375,2.413c-0.162,0.18-0.414,0.468-0.558,0.703c-2.809-1.044-5.69-3.331-7.22-5.87l0.702-0.288
		c0.54,0.918,1.278,1.783,2.161,2.575c0.774-0.72,1.603-1.746,2.179-2.646h-4.465v-0.72h4.969l0.162-0.036L306.188,154.734z
		 M302.892,152.465h-2.772v-0.792h2.772v-1.314h0.829v1.314h3.655v0.792h-3.655v1.026h-0.829V152.465z M303.019,162.836
		c1.476,0.847,3.349,2.107,4.303,2.935l-0.648,0.576c-0.918-0.828-2.772-2.125-4.285-2.989L303.019,162.836z"/>
	<path id="XMLID_213_" fill="#E2E2E2" d="M314.715,153.636v4.826c0,2.305-0.162,5.527-1.152,7.76
		c-0.126-0.144-0.45-0.378-0.648-0.468c0.936-2.125,1.026-5.113,1.026-7.292v-5.528h3.205v-2.611h0.81v1.026h3.673v0.666h-3.673
		v0.918h3.691l0.144-0.054l0.522,0.18c-0.234,0.648-0.486,1.422-0.685,1.909l-0.684-0.162c0.126-0.306,0.27-0.738,0.415-1.17h-3.529
		v0.972l2.557-0.252l0.09,0.594l-2.646,0.27v0.306c0,0.468,0.054,0.558,0.378,0.558h2.143c0.27,0,0.702,0,0.973-0.036
		c0.018,0.18,0.036,0.433,0.054,0.594c-0.197,0.054-0.594,0.054-0.99,0.054h-2.233c-0.846,0-1.026-0.288-1.026-1.17v-0.252
		l-1.855,0.18l-0.09-0.594l1.945-0.198v-1.026H314.715z M321.72,157.939h-6.537v-0.63h6.537V157.939z M321.647,165.538
		c0,0.378-0.072,0.558-0.36,0.702c-0.306,0.126-0.792,0.126-1.584,0.126c-0.018-0.198-0.126-0.45-0.234-0.648
		c0.612,0.018,1.081,0.018,1.261,0.018c0.162-0.018,0.198-0.072,0.198-0.198v-3.439h-5.005v4.321h-0.72v-4.951h6.446V165.538z
		 M315.958,160.784v-2.161h4.934v2.161H315.958z M318.694,164.169v2.125h-0.667v-2.125h-1.656v-0.612h0.972
		c-0.198-0.396-0.468-0.81-0.756-1.17l0.522-0.252c0.342,0.414,0.738,0.973,0.954,1.422h0.576c0.36-0.45,0.774-1.044,0.99-1.422
		l0.576,0.288c-0.27,0.396-0.558,0.774-0.846,1.134h1.044v0.612H318.694z M316.642,160.19h3.547v-0.973h-3.547V160.19z
		 M325.896,156.229c0.469,4.268,1.44,7.94,3.403,9.777c-0.198,0.144-0.469,0.45-0.612,0.685c-1.656-1.693-2.61-4.483-3.205-7.869
		c-0.306,2.647-1.152,5.51-3.241,7.851c-0.126-0.162-0.414-0.45-0.647-0.594c2.719-2.881,3.187-6.788,3.259-9.849h-2.899v-0.81
		h2.917v-0.684v-4.303h0.828v4.303v0.684h3.565v0.81H325.896z M328.543,153.924c-0.359-0.738-1.188-1.854-1.998-2.628l0.648-0.324
		c0.81,0.738,1.674,1.818,2.053,2.557L328.543,153.924z"/>
	<path id="XMLID_222_" fill="#E2E2E2" d="M341.969,154.626c-1.17,3.187-4.123,5.276-6.878,6.23c-0.09-0.216-0.324-0.522-0.504-0.684
		c1.314-0.378,2.683-1.098,3.854-2.017c-0.595-0.63-1.531-1.369-2.359-1.873l0.559-0.486c0.846,0.522,1.782,1.225,2.395,1.819
		c0.756-0.703,1.387-1.531,1.837-2.449h-5.042v-0.756h5.456l0.18-0.036L341.969,154.626z M339.179,152.556h-4.195v-0.774h4.195
		v-1.422h0.846v1.422h2.395v0.774h-2.395v1.386h-0.846V152.556z M342.995,162.386c2.413,1.009,5.366,2.467,6.933,3.547l-0.559,0.648
		c-1.494-1.026-4.357-2.502-6.733-3.547c-0.811,1.333-2.684,2.647-6.969,3.673c-0.09-0.216-0.324-0.54-0.504-0.738
		c4.52-0.991,6.212-2.305,6.824-3.583h-5.492v-0.774h5.744c0.072-0.324,0.09-0.612,0.09-0.918v-1.242h-3.223v-0.774h7.292v0.774
		h-3.187v1.242c0,0.306-0.019,0.594-0.072,0.918h6.086v0.774H342.995z M345.462,152.556h-2.341v-0.774h2.341v-1.422h0.847v1.422
		h4.249v0.774h-4.249v1.386h-0.847V152.556z M350.18,156.157c-0.828,0.72-1.909,1.512-2.809,2.088
		c1.098,0.792,2.358,1.387,3.763,1.747c-0.198,0.162-0.432,0.486-0.559,0.702c-3.421-1.044-6.085-3.421-7.399-6.626l0.702-0.198
		c0.306,0.72,0.702,1.404,1.152,2.052c0.864-0.612,1.872-1.458,2.503-2.088l0.684,0.414c-0.828,0.774-1.891,1.584-2.772,2.197
		c0.414,0.486,0.864,0.954,1.368,1.368c0.9-0.576,2.017-1.477,2.646-2.106L350.18,156.157z"/>
</g>
<g id="XMLID_19_">
</g>
<g id="XMLID_254_">
</g>
<g id="XMLID_255_">
</g>
<g id="XMLID_256_">
</g>
<g id="XMLID_257_">
</g>
<g id="XMLID_258_">
</g>
<g id="XMLID_259_">
</g>
<g id="XMLID_260_">
</g>
<g id="XMLID_261_">
</g>
<g id="XMLID_262_">
</g>
<g id="XMLID_263_">
</g>
<g id="XMLID_264_">
</g>
<g id="XMLID_265_">
</g>
<g id="XMLID_266_">
</g>
<g id="XMLID_267_">
</g>
</svg>
