<?xml version="1.0" encoding="utf-8"?>
<!-- Generator: Adobe Illustrator 19.0.0, SVG Export Plug-In . SVG Version: 6.00 Build 0)  -->
<svg version="1.1" id="圖層_1" xmlns="http://www.w3.org/2000/svg" xmlns:xlink="http://www.w3.org/1999/xlink" x="0px" y="0px"
	 viewBox="0 0 595.3 841.9" style="enable-background:new 0 0 595.3 841.9;" xml:space="preserve">
<g id="XMLID_1_">
	<g id="XMLID_82_">
		<path id="XMLID_32_" d="M365.4,194.3c2.2,0,3.9,1.4,4.1,4c0.4,4,0.4,8.1-0.1,12.1c-1.3,11.8-3.2,23.6-4.2,35.4
			c-1.3,16.6-2,33.2-2.7,49.8c-0.8,19.5,0,39.1,1.3,58.5c1.8,26,5.3,51.8,11.8,77.1c5.6,21.9,13.4,43,25.3,62.4
			c12,19.7,28.4,35,47.4,47.6c20.7,13.8,43.1,24.1,66.4,32.8c2.6,1,5.3,2,7.9,3.2c6.5,2.9,13.3,4.4,20.2,5.7
			c4.6,0.8,7.4,4.1,9.2,8.2c0.9,1.9,0,4.1-2.5,5.2c-3.4,1.5-7,3-10.7,3.4c-12.1,1.4-24.3,2.5-36.4,3.3c-7.1,0.4-14.2,0.6-21.4,0.6
			c-10.3,0-20.6-0.4-30.9-1.1c-29.8-1.9-59-6.8-87.7-14.9c-44.2-12.4-85.2-31.6-122.1-59c-37.7-28-68.1-62.4-89.9-104.2
			c-12.5-24.1-21.5-49.4-27-75.9c-3.5-16.7-5.5-33.6-6.2-50.7c-0.6-14.4-0.4-28.8,1-43.1c1-10,2.4-19.9,3.6-29.8
			c0-0.2,0.1-0.4,0.4-1c12.5,26.4,26.4,51.6,42,75.9c15.7,24.3,32.9,47.3,52.1,69.3c0.7-1,1.3-1.8,1.9-2.5
			c23.4-31.4,46.5-63,70.2-94.2c14.8-19.5,30.3-38.5,47.3-56.1c6.1-6.3,13-12.1,19.7-17.8c2.2-1.8,5.1-3,7.9-3.8
			C364.2,194.4,364.8,194.3,365.4,194.3 M327.7,271.2c-0.5,0.3-1,0.4-1.4,0.7c-20.7,13.8-39.8,29.5-56.7,47.7
			c-14.9,16.1-27.8,33.7-36.8,53.9c-6.8,15.4-10.9,31.4-10.3,48.5c0.5,14.8,4.8,28.4,12.2,41c10.1,17.3,24.3,30.8,40.3,42.6
			c18.2,13.5,38.1,24.2,58.9,33.1c41.4,17.8,84.2,31.2,128.9,37.9c2.7,0.4,5.5,0.7,8.2,1.1c-50.7-33.8-89.8-77.6-115.6-132.8
			C329.5,389.8,320.9,331.7,327.7,271.2 M365.4,193.3c-0.7,0-1.4,0.1-2.1,0.3c-2.6,0.8-5.8,2-8.3,4c-6.7,5.6-13.6,11.4-19.8,17.8
			c-15.3,15.8-30.4,33.7-47.4,56.2c-16.6,21.9-33.3,44.4-49.4,66.2c-6.9,9.4-13.9,18.7-20.8,28l-1.2,1.6
			c-18.5-21.1-35.2-43.4-51.2-68.2c-15.3-23.7-29.1-48.5-42-75.8l-0.9-2l-0.9,2c-0.1,0.2-0.2,0.4-0.2,0.5c-0.1,0.2-0.2,0.5-0.3,0.7
			c-0.4,3-0.7,5.9-1.1,8.9c-0.9,6.9-1.8,14-2.5,21c-1.3,13.3-1.7,27.5-1,43.2c0.7,17.3,2.8,34.4,6.2,50.9
			c5.5,26.7,14.6,52.4,27.1,76.2c21.2,40.7,51.5,75.8,90.2,104.6c35.5,26.4,76.7,46.3,122.4,59.2c28.3,7.9,57.9,13,88,14.9
			c11.1,0.7,21.2,1.1,30.9,1.1c7.3,0,14.6-0.2,21.4-0.6c11.1-0.7,23-1.7,36.5-3.3c3.7-0.4,7.3-2,10.8-3.5l0.1-0.1
			c1.5-0.6,2.6-1.7,3.1-3c0.4-1.1,0.4-2.4-0.1-3.5c-2.2-5-5.6-8-9.9-8.8c-6.1-1.1-13.3-2.6-20-5.6c-2.8-1.3-5.7-2.4-7.9-3.2
			c-26.7-10-47.7-20.3-66.2-32.7c-20.7-13.8-36.1-29.3-47.1-47.3c-10.7-17.6-18.9-37.9-25.2-62.2c-6-23.3-9.8-48.4-11.8-76.9
			c-1.6-23-2-41.5-1.3-58.4c0.7-16,1.4-33.1,2.7-49.8c0.5-7.1,1.5-14.2,2.4-21.1c0.6-4.7,1.2-9.5,1.8-14.3c0.5-4.2,0.5-8.4,0.1-12.3
			C370.2,195.2,368.2,193.3,365.4,193.3L365.4,193.3z M466.9,576.2c-1.4-0.2-2.7-0.3-4.1-0.5c-41.8-6.2-83.9-18.6-128.6-37.8
			c-22.5-9.6-41.7-20.4-58.7-33c-18.3-13.6-31-27-40-42.3c-7.5-12.8-11.5-26.5-12.1-40.6c-0.6-15.6,2.8-31.3,10.2-48
			c8.1-18.2,20.1-35.8,36.6-53.6c15.9-17.1,34.3-32.6,56.2-47.3c-3.2,29.9-2.6,59.3,1.8,87.3c4.6,29.2,13.4,57.9,26.1,85.2
			c12.8,27.3,29.1,52.4,48.6,74.6C421.3,540.8,442.8,559.7,466.9,576.2L466.9,576.2z"/>
	</g>
	<g id="XMLID_81_">
		<path id="XMLID_14_" d="M100.1,406.5c0.4,1,1,1.9,1.3,3c2.2,8.6,4.8,17.2,8.9,25.1c3.9,7.5,8.7,14.2,14.9,19.9
			c6,5.5,11.7,11.3,17.1,17.4c11,12.5,23.8,23.1,37.4,32.6c18.9,13.2,38,26,56.9,39.1c13.2,9.1,25.5,19.3,35.8,31.7
			c12.2,14.6,20.7,31,24.9,49.5c0.6,2.5,0.8,5.2,0.8,7.8c0,2.3-0.7,3.5-2,3.5c-0.7,0-1.6-0.3-2.7-1.1c-2.4-1.6-4.7-3.5-6.7-5.6
			c-11.5-12-20.2-25.6-25.3-41.5c-3.7-11.7-11-21-20.1-29c-15.3-13.6-32.2-25-49.7-35.6c-15.2-9.2-29.9-19.3-44.8-29
			c-1.6-1.1-3.2-2.2-5.4-3.7c0.3,1,0.3,1.2,0.4,1.5c6.5,12.6,13.8,24.5,23.7,34.8c10.6,11.1,23.2,18.4,38.8,20
			c12.1,1.2,22.3,6.7,31.6,14c2.9,2.3,5.5,4.9,8.1,7.6c1.4,1.5,3,3.4,2.1,5.6c-0.9,2.2-3.5,2-5.4,2c-3.4,0.1-6.8,0.1-10.1,0.1
			c-3,0-6,0-9,0c-3.8,0-7.5-0.1-11.3-0.1c0,0-0.1,0-0.1,0c-4.2,0-7.6,1.7-10.6,4.5c-1.4,1.3-2.5,1.9-3.4,1.9c-1.3,0-2.3-1.2-3.1-3.6
			c-1.5-4.3-2.6-8.8-4.2-13c-2.5-6.6-7-12-11.5-17.4c-12.2-14.6-24.4-29.2-36.6-43.8c-5.5-6.5-11.2-12.9-16.9-19.4
			c-0.4-0.5-0.9-1-1.3-1.4c-9.5-9.6-19-19.2-28.5-28.7c-7.1-7.1-12.1-15.4-13.4-25.5c-0.4-2.8-0.2-5.8-0.2-8.7
			c0-0.6,0.3-1.2,0.5-1.8c0.2,0,0.4-0.1,0.6-0.1c0.5,1,1,1.9,1.4,2.9c1.7,4.6,3.2,9.2,5,13.7c3.7,9.6,9.5,17.8,16.6,25
			c10.8,10.9,23.2,19.8,35.9,28.9c-1.3-4.9-2.4-9.5-3.9-14c-1.6-4.7-5.3-7.8-9-11c-10-8.6-18.9-18.3-25.2-30.1
			c-4-7.5-6.2-15.3-4.6-23.9c0.3-1.4,0.8-2.8,1.3-4.2C99.5,406.5,99.8,406.5,100.1,406.5 M100.7,405.5l-0.7,0l-0.4,0l-0.4,0l-0.7,0
			l-0.2,0.7c-0.1,0.4-0.3,0.9-0.4,1.3c-0.3,1-0.7,2-0.9,3c-1.5,7.9,0,15.7,4.7,24.5c5.6,10.6,13.7,20.3,25.4,30.4l0.2,0.2
			c3.6,3.1,7,6,8.5,10.4c1,3,1.8,6.1,2.7,9.4c0.2,0.6,0.3,1.2,0.5,1.8c-12.1-8.6-23.5-16.9-33.5-27.1c-7.7-7.8-13-15.9-16.4-24.7
			c-1-2.6-2-5.3-2.9-8c-0.7-1.9-1.4-3.8-2.1-5.7c-0.3-0.8-0.6-1.5-1-2.1c-0.2-0.3-0.3-0.6-0.5-0.9l-0.3-0.7l-0.8,0.2l-0.6,0.1
			l-0.6,0.1L80,419c0,0.2-0.1,0.3-0.2,0.5c-0.2,0.5-0.4,1-0.4,1.6c0,0.7,0,1.4,0,2.1c0,2.2,0,4.5,0.3,6.7
			c1.3,9.6,5.8,18.2,13.7,26.1c6.9,6.9,13.9,14,20.6,20.8c2.6,2.6,5.2,5.3,7.9,7.9c0.5,0.5,0.9,0.9,1.3,1.4c1.7,2,3.5,3.9,5.2,5.9
			c3.9,4.4,7.9,8.9,11.7,13.5c8.4,9.9,16.8,20,25,29.8c3.9,4.7,7.8,9.3,11.7,14c4.3,5.2,8.8,10.6,11.3,17.1c1,2.6,1.8,5.2,2.6,7.8
			c0.5,1.7,1.1,3.5,1.6,5.2c0.6,1.9,1.7,4.3,4,4.3c1.2,0,2.5-0.7,4.1-2.2c3.1-2.8,6.3-4.2,9.9-4.2l0.1,0c1.3,0,2.7,0,4,0
			c2.4,0,4.9,0.1,7.3,0.1c1.3,0,2.6,0,3.9,0c1.7,0,3.4,0,5.1,0c4.1,0,7.2,0,10.2-0.1c0.2,0,0.4,0,0.6,0c1.9,0,4.6-0.1,5.7-2.6
			c1.3-3-1.1-5.5-2.3-6.7c-2.5-2.6-5.2-5.3-8.2-7.7c-11.1-8.6-21.3-13.1-32.1-14.2c-14.4-1.4-26.9-7.8-38.2-19.7
			c-8.2-8.6-15.2-18.7-22.6-32.9c0.9,0.6,1.7,1.2,2.6,1.8c4.5,2.9,9,5.9,13.4,8.8c10.2,6.8,20.8,13.7,31.4,20.2
			c21,12.8,36.2,23.7,49.5,35.5c10,8.9,16.5,18.3,19.8,28.6c4.9,15.4,13.2,29.1,25.5,41.9c2,2.1,4.3,4,6.8,5.7
			c1.2,0.8,2.3,1.2,3.2,1.2c0.7,0,1.4-0.3,1.9-0.8c0.8-0.8,1.1-2,1.1-3.8c0-3.1-0.3-5.7-0.8-8c-4.2-18.1-12.6-34.9-25.1-49.9
			c-9.3-11.1-20.7-21.3-36-31.9c-8.8-6.1-17.7-12.2-26.4-18.1c-10-6.8-20.4-13.9-30.5-21c-15.1-10.6-27.3-21.2-37.2-32.4
			c-5.5-6.2-11.2-12.1-17.2-17.5c-5.9-5.4-10.7-11.8-14.7-19.6c-4.3-8.3-6.9-17.3-8.9-24.9c-0.2-0.8-0.6-1.5-0.9-2.2
			c-0.1-0.3-0.3-0.6-0.4-0.9L100.7,405.5L100.7,405.5z"/>
	</g>
</g>
</svg>
