<?xml version="1.0" encoding="iso-8859-1"?>
<!-- Generator: Adobe Illustrator 19.0.0, SVG Export Plug-In . SVG Version: 6.00 Build 0)  -->
<svg version="1.2" baseProfile="tiny" id="&#x5716;&#x5C64;_1"
	 xmlns="http://www.w3.org/2000/svg" xmlns:xlink="http://www.w3.org/1999/xlink" x="0px" y="0px" viewBox="0 0 521.041 282.337"
	 xml:space="preserve">
<path id="XMLID_7_" fill="#E8E8E8" d="M36.781,217.57l-9.245-26.878c-1.3-3.778-1.957-7.666-1.957-11.57V49.308h11.202V217.57z"/>
<g id="XMLID_6_">
	<path id="XMLID_313_" fill="#EFEFEF" d="M74.529,90.341h8.683V57.243c0-0.238,0.008-0.481,0.025-0.728
		c0.017-0.247,0.042-0.489,0.077-0.728l-9.245,8.351c-0.085,0.085-0.17,0.128-0.255,0.128c-0.102,0-0.188-0.042-0.255-0.128
		l-0.153-0.204l10.063-9.041h0.357v35.448h8.479v0.511H74.529V90.341z"/>
	<path id="XMLID_315_" fill="#EFEFEF" d="M110.589,91.261c-1.651,0-3.163-0.222-4.533-0.664s-2.554-1.073-3.55-1.89
		c-0.996-0.817-1.771-1.817-2.324-3c-0.553-1.183-0.83-2.516-0.83-3.997c0-1.498,0.242-2.805,0.728-3.92s1.137-2.06,1.954-2.835
		c0.817-0.775,1.758-1.383,2.822-1.826c1.064-0.442,2.175-0.757,3.333-0.945c-1.192-0.221-2.256-0.596-3.192-1.124
		c-0.937-0.527-1.724-1.166-2.362-1.915c-0.639-0.749-1.124-1.596-1.456-2.542c-0.332-0.945-0.498-1.954-0.498-3.026
		c0-1.226,0.226-2.379,0.677-3.46c0.451-1.081,1.098-2.021,1.941-2.822c0.843-0.8,1.877-1.435,3.103-1.903
		c1.226-0.468,2.622-0.702,4.188-0.702c1.549,0,2.941,0.234,4.176,0.702c1.234,0.468,2.273,1.103,3.116,1.903
		s1.49,1.741,1.941,2.822c0.451,1.082,0.677,2.235,0.677,3.46c0,1.073-0.17,2.082-0.511,3.026c-0.341,0.945-0.83,1.792-1.468,2.542
		c-0.639,0.749-1.422,1.388-2.35,1.915c-0.928,0.528-1.988,0.903-3.18,1.124c1.158,0.188,2.269,0.502,3.333,0.945
		c1.063,0.443,2.004,1.051,2.822,1.826s1.469,1.72,1.954,2.835c0.485,1.115,0.728,2.422,0.728,3.92c0,1.481-0.277,2.814-0.83,3.997
		c-0.553,1.184-1.328,2.184-2.324,3c-0.996,0.817-2.18,1.448-3.55,1.89S112.24,91.261,110.589,91.261z M110.589,90.75
		c1.549,0,2.971-0.213,4.265-0.639c1.294-0.425,2.414-1.03,3.358-1.813s1.681-1.732,2.209-2.848s0.792-2.362,0.792-3.742
		c0-1.243-0.166-2.333-0.498-3.269c-0.332-0.936-0.779-1.75-1.341-2.439s-1.205-1.26-1.928-1.711
		c-0.724-0.451-1.478-0.813-2.26-1.085c-0.783-0.272-1.575-0.464-2.375-0.575c-0.801-0.11-1.541-0.166-2.222-0.166
		c-0.698,0-1.443,0.056-2.234,0.166c-0.792,0.111-1.58,0.303-2.362,0.575c-0.784,0.272-1.537,0.634-2.26,1.085
		c-0.724,0.451-1.367,1.021-1.928,1.711c-0.562,0.689-1.009,1.503-1.341,2.439c-0.332,0.937-0.498,2.026-0.498,3.269
		c0,1.379,0.264,2.626,0.792,3.742s1.264,2.064,2.209,2.848c0.945,0.783,2.064,1.388,3.358,1.813
		C107.618,90.537,109.04,90.75,110.589,90.75z M110.589,71.953c1.549,0,2.907-0.234,4.074-0.702
		c1.166-0.468,2.136-1.089,2.911-1.865c0.775-0.774,1.354-1.664,1.737-2.668c0.383-1.004,0.575-2.052,0.575-3.142
		c0-1.191-0.213-2.302-0.639-3.333s-1.039-1.916-1.839-2.656s-1.775-1.324-2.924-1.75c-1.149-0.425-2.448-0.638-3.895-0.638
		s-2.745,0.213-3.895,0.638c-1.149,0.426-2.124,1.009-2.924,1.75s-1.414,1.626-1.839,2.656c-0.426,1.03-0.638,2.141-0.638,3.333
		c0,1.09,0.191,2.137,0.575,3.142c0.383,1.005,0.961,1.894,1.736,2.668c0.774,0.775,1.741,1.396,2.899,1.865
		C107.661,71.719,109.022,71.953,110.589,71.953z"/>
	<path id="XMLID_319_" fill="#EFEFEF" d="M152.881,72.975c0,3.133-0.336,5.845-1.009,8.134c-0.673,2.29-1.583,4.185-2.732,5.683
		c-1.149,1.498-2.495,2.609-4.035,3.333c-1.542,0.724-3.171,1.085-4.891,1.085s-3.35-0.361-4.891-1.085
		c-1.541-0.723-2.886-1.834-4.035-3.333s-2.06-3.393-2.732-5.683c-0.673-2.29-1.009-5.001-1.009-8.134
		c0-3.132,0.336-5.844,1.009-8.134c0.672-2.29,1.583-4.188,2.732-5.695s2.494-2.626,4.035-3.358s3.171-1.098,4.891-1.098
		s3.35,0.366,4.891,1.098c1.541,0.732,2.886,1.852,4.035,3.358c1.149,1.507,2.06,3.405,2.732,5.695
		C152.544,67.131,152.881,69.842,152.881,72.975z M152.217,72.975c0-3.064-0.319-5.712-0.958-7.942
		c-0.639-2.23-1.503-4.074-2.592-5.529c-1.09-1.456-2.362-2.537-3.818-3.244c-1.456-0.706-3-1.06-4.635-1.06
		c-1.634,0-3.184,0.354-4.648,1.06c-1.464,0.707-2.746,1.788-3.844,3.244s-1.966,3.299-2.605,5.529
		c-0.638,2.23-0.958,4.878-0.958,7.942c0,3.065,0.319,5.712,0.958,7.943c0.639,2.23,1.507,4.069,2.605,5.516
		c1.098,1.448,2.379,2.52,3.844,3.218c1.464,0.698,3.014,1.047,4.648,1.047c1.635,0,3.18-0.349,4.635-1.047
		c1.456-0.698,2.729-1.771,3.818-3.218c1.089-1.447,1.954-3.286,2.592-5.516C151.897,78.687,152.217,76.04,152.217,72.975z"/>
	<path id="XMLID_322_" fill="#EFEFEF" d="M182.506,72.975c0,3.133-0.336,5.845-1.009,8.134c-0.673,2.29-1.583,4.185-2.732,5.683
		c-1.149,1.498-2.495,2.609-4.035,3.333c-1.542,0.724-3.171,1.085-4.891,1.085s-3.35-0.361-4.891-1.085
		c-1.541-0.723-2.886-1.834-4.035-3.333s-2.06-3.393-2.732-5.683c-0.673-2.29-1.009-5.001-1.009-8.134
		c0-3.132,0.336-5.844,1.009-8.134c0.672-2.29,1.583-4.188,2.732-5.695s2.494-2.626,4.035-3.358s3.171-1.098,4.891-1.098
		s3.35,0.366,4.891,1.098c1.541,0.732,2.886,1.852,4.035,3.358c1.149,1.507,2.06,3.405,2.732,5.695
		C182.169,67.131,182.506,69.842,182.506,72.975z M181.842,72.975c0-3.064-0.319-5.712-0.958-7.942
		c-0.639-2.23-1.503-4.074-2.592-5.529c-1.09-1.456-2.362-2.537-3.818-3.244c-1.456-0.706-3-1.06-4.635-1.06
		c-1.634,0-3.184,0.354-4.648,1.06c-1.464,0.707-2.746,1.788-3.844,3.244s-1.966,3.299-2.605,5.529
		c-0.638,2.23-0.958,4.878-0.958,7.942c0,3.065,0.319,5.712,0.958,7.943c0.639,2.23,1.507,4.069,2.605,5.516
		c1.098,1.448,2.379,2.52,3.844,3.218c1.464,0.698,3.014,1.047,4.648,1.047c1.635,0,3.18-0.349,4.635-1.047
		c1.456-0.698,2.729-1.771,3.818-3.218c1.089-1.447,1.954-3.286,2.592-5.516C181.522,78.687,181.842,76.04,181.842,72.975z"/>
</g>
<g id="XMLID_5_">
	<path id="XMLID_32_" fill="#E2E2E2" d="M226.645,56.624h8.235v34.228h-8.235V56.624z"/>
	<path id="XMLID_297_" fill="#E2E2E2" d="M251.301,82.341V54.093h8.143v28.569c0,1.702,0.828,2.208,1.472,2.208
		c0.276,0,0.46,0,0.92-0.092l0.966,6.027c-0.874,0.368-2.254,0.69-4.048,0.69C253.141,91.496,251.301,87.815,251.301,82.341z"/>
	<path id="XMLID_299_" fill="#E2E2E2" d="M275.772,82.341V54.093h8.143v28.569c0,1.702,0.828,2.208,1.472,2.208
		c0.276,0,0.46,0,0.92-0.092l0.966,6.027c-0.874,0.368-2.254,0.69-4.048,0.69C277.612,91.496,275.772,87.815,275.772,82.341z"/>
	<path id="XMLID_301_" fill="#E2E2E2" d="M299.967,80.869V64.675h8.189v15.182c0,3.634,0.966,4.646,3.037,4.646
		c1.84,0,2.99-0.736,4.371-2.668v-17.16h8.189v26.177h-6.671l-0.598-3.588h-0.184c-2.162,2.576-4.601,4.232-8.189,4.232
		C302.405,91.496,299.967,87.401,299.967,80.869z"/>
	<path id="XMLID_303_" fill="#E2E2E2" d="M337.272,87.815l3.635-5.107c2.393,1.84,4.555,2.76,6.625,2.76
		c2.162,0,3.082-0.782,3.082-2.07c0-1.564-2.53-2.3-5.198-3.358c-3.129-1.242-6.81-3.358-6.81-7.683
		c0-4.969,4.049-8.327,10.122-8.327c4.14,0,7.084,1.656,9.385,3.358l-3.681,4.877c-1.84-1.289-3.681-2.208-5.429-2.208
		c-1.84,0-2.76,0.644-2.76,1.886c0,1.564,2.392,2.162,5.106,3.128c3.267,1.242,6.9,3.128,6.9,7.867
		c0,4.831-3.772,8.557-10.903,8.557C343.943,91.496,339.896,90.023,337.272,87.815z"/>
	<path id="XMLID_305_" fill="#E2E2E2" d="M371.589,56.854c0-2.484,1.932-4.232,4.692-4.232c2.714,0,4.646,1.749,4.646,4.232
		c0,2.438-1.933,4.187-4.646,4.187C373.521,61.04,371.589,59.292,371.589,56.854z M372.187,64.675h8.143v26.177h-8.143V64.675z"/>
	<path id="XMLID_308_" fill="#E2E2E2" d="M394.681,77.786c0-8.695,6.164-13.756,12.835-13.756c6.625,0,12.79,5.061,12.79,13.756
		c0,8.649-6.165,13.709-12.79,13.709C400.845,91.496,394.681,86.435,394.681,77.786z M411.933,77.786
		c0-4.371-1.381-7.131-4.417-7.131c-3.082,0-4.462,2.76-4.462,7.131c0,4.324,1.38,7.085,4.462,7.085
		C410.552,84.871,411.933,82.11,411.933,77.786z"/>
	<path id="XMLID_311_" fill="#E2E2E2" d="M435.299,56.624h8.879l5.429,14.768c0.689,1.979,1.242,4.141,1.886,6.257h0.23
		c0.689-2.116,1.242-4.278,1.886-6.257l5.245-14.768h8.925v34.228h-7.499V79.12c0-3.404,0.645-8.511,1.059-11.869h-0.185
		l-2.853,8.189L453.7,87.953h-4.508l-4.646-12.513l-2.761-8.189h-0.184c0.414,3.358,1.058,8.465,1.058,11.869v11.731h-7.36V56.624z"
		/>
</g>
<g id="XMLID_3_">
	<rect id="XMLID_295_" x="67.26" y="121.499" fill="none" width="432.802" height="118.501"/>
	<path id="XMLID_33_" fill="#E2E2E2" d="M78.773,124.339h-4.195v-0.774h4.195v-1.225h0.846v1.225h2.413v0.774H79.62v1.333h-0.846
		V124.339z M89.415,137.609c0,0.504-0.108,0.738-0.504,0.882c-0.414,0.144-1.152,0.144-2.449,0.144
		c-0.036-0.234-0.162-0.522-0.288-0.738c1.044,0.018,1.837,0.018,2.071,0c0.252-0.018,0.324-0.072,0.324-0.288v-4.303h-5.78v2.269
		l2.881-0.126c-0.324-0.468-0.72-0.954-1.099-1.351l0.667-0.288c0.918,0.937,1.854,2.251,2.197,3.187l-0.703,0.306
		c-0.126-0.324-0.342-0.72-0.576-1.134c-3.079,0.162-6.266,0.324-8.408,0.414l-0.054-0.81c1.116-0.036,2.629-0.09,4.268-0.162
		v-2.305h-5.636v5.366h-0.847v-5.366H74.74v-0.756h0.738v-0.738h0.847v0.738h5.636v-1.333h-5.294v-5.275h11.542v5.275h-5.419v1.333
		h6.626V137.609z M77.495,128.229h4.466v-1.603h-4.466V128.229z M81.96,130.515v-1.603h-4.466v1.603H81.96z M90.17,123.565v0.774
		h-4.267v1.351h-0.846v-1.351h-2.323v-0.774h2.323v-1.225h0.846v1.225H90.17z M87.344,126.626h-4.555v1.603h4.555V126.626z
		 M87.344,128.913h-4.555v1.603h4.555V128.913z"/>
	<path id="XMLID_41_" fill="#E2E2E2" d="M104.064,136.799c-2.899,0.468-5.924,0.954-8.03,1.278l-0.162-0.828
		c0.99-0.126,2.269-0.324,3.673-0.541V133.9h-3.223v-0.756h3.223v-1.909h0.811v1.909h3.403v0.756h-3.403v2.683l3.691-0.558
		L104.064,136.799z M98.573,124.124h-2.521v-0.756h7.724v0.756h-2.431v1.836h2.449v5.06h-7.418v-5.06h2.197V124.124z
		 M103.056,130.299v-1.387l-0.108,0.018c-0.126,0.018-0.396,0.018-0.576,0.018h-0.756c-0.306,0-0.63-0.036-0.774-0.198
		c-0.18-0.126-0.216-0.342-0.216-0.973v-1.098h-1.333c-0.054,1.584-0.378,2.449-1.584,2.971c-0.072-0.162-0.27-0.396-0.396-0.486
		c1.026-0.414,1.296-1.117,1.35-2.485h-1.566v3.619H103.056z M100.625,124.124h-1.314v1.836h1.314V124.124z M103.056,126.68h-1.801
		v1.314c0,0.198,0.018,0.342,0.09,0.378c0.054,0.036,0.162,0.036,0.324,0.036h0.648h0.396h0.252c0.036,0,0.054-0.036,0.072-0.054
		l0.018,0.018V126.68z M111.086,137.664c0.144,0,0.27-0.018,0.36-0.09c0.072-0.072,0.126-0.234,0.162-0.504
		c0.036-0.324,0.072-1.008,0.072-1.927c0.18,0.144,0.378,0.252,0.594,0.324c-0.018,0.792-0.054,1.747-0.108,2.053
		c-0.09,0.36-0.18,0.558-0.342,0.684s-0.414,0.198-0.648,0.198h-0.667c-0.27,0-0.558-0.072-0.738-0.252
		c-0.216-0.18-0.27-0.432-0.27-1.62v-8.517h-3.331c-0.198,3.241-0.432,6.662-0.666,8.984c0.99-0.198,2.088-0.432,3.187-0.666
		l0.054,0.756c-1.854,0.414-3.727,0.828-5.221,1.134l-0.252-0.792c0.396-0.072,0.864-0.162,1.369-0.252
		c0.36-3.277,0.756-8.895,0.936-12.982h-1.242v-0.81h7.778v0.81h-5.726c-0.036,0.937-0.108,1.963-0.162,3.025h4.051v9.507
		c0,0.486,0.018,0.792,0.09,0.864c0.072,0.054,0.162,0.072,0.27,0.072H111.086z M107.917,134.404
		c-0.252-1.152-0.918-2.989-1.494-4.357l0.666-0.216c0.594,1.369,1.26,3.187,1.548,4.357L107.917,134.404z"/>
	<path id="XMLID_49_" fill="#E2E2E2" d="M129.554,133.81c-0.576,1.026-1.333,1.855-2.323,2.539c2.287,0.558,4.339,1.134,5.87,1.71
		l-0.792,0.612c-1.531-0.594-3.583-1.225-5.978-1.801c-1.962,1.026-4.627,1.566-8.21,1.801c-0.09-0.252-0.216-0.541-0.342-0.756
		c3.115-0.18,5.509-0.576,7.328-1.333c-1.531-0.342-3.133-0.684-4.79-0.99c0.522-0.486,1.116-1.116,1.71-1.783h-4.285v-0.738h4.916
		c0.612-0.756,1.206-1.531,1.621-2.233l0.846,0.252c-0.396,0.648-0.918,1.333-1.44,1.981h5.257c0.198-0.415,0.36-0.846,0.504-1.296
		l0.828,0.216c-0.108,0.378-0.234,0.738-0.378,1.081h3.637v0.738H129.554z M119.057,132.118h-0.828v-2.214h7.346
		c-0.252-0.432-0.559-0.9-0.847-1.296l0.703-0.306c0.378,0.504,0.81,1.152,1.08,1.603h6.482v2.214h-0.846v-1.494h-13.09V132.118z
		 M131.75,128.283h-12.298v-5.149h12.298V128.283z M130.886,123.835h-10.587v1.512h10.587V123.835z M130.886,126.05h-10.587v1.531
		h10.587V126.05z M123.054,133.81c-0.432,0.504-0.864,0.973-1.26,1.369c1.477,0.27,2.935,0.576,4.321,0.9
		c1.044-0.594,1.818-1.333,2.431-2.269H123.054z"/>
	<path id="XMLID_56_" fill="#E2E2E2" d="M161.378,131.74v6.86h-0.882v-0.792h-11.379v0.846h-0.864v-6.914h5.438
		c0.234-0.792,0.486-1.801,0.63-2.665h-5.006v-5.726h10.965v5.726h-5.042c-0.216,0.864-0.468,1.873-0.72,2.665H161.378z
		 M160.496,136.979v-4.411h-11.379v4.411H160.496z M150.161,128.265h9.236v-4.087h-9.236V128.265z"/>
	<path id="XMLID_60_" fill="#E2E2E2" d="M176.802,137.195c1.044,0.216,2.179,0.306,3.439,0.306c0.486,0,3.655,0,4.339-0.018
		c-0.162,0.216-0.324,0.612-0.36,0.864h-4.015c-3.979,0-6.824-0.684-8.48-4.105c-0.63,1.872-1.548,3.349-2.845,4.483
		c-0.144-0.144-0.486-0.45-0.703-0.594c2.053-1.62,3.061-4.213,3.511-7.562l0.846,0.09c-0.126,0.864-0.252,1.675-0.45,2.431
		c0.792,2.16,2.125,3.295,3.854,3.871v-8.229h-4.862v-0.828h10.803v0.828h-5.077v3.421h5.618v0.828h-5.618V137.195z M169.87,128.013
		h-0.864v-3.565h7.238c-0.216-0.559-0.612-1.333-0.99-1.945l0.829-0.234c0.414,0.648,0.9,1.512,1.08,2.052l-0.36,0.126h6.968v3.565
		h-0.882v-2.737H169.87V128.013z"/>
	<path id="XMLID_63_" fill="#E2E2E2" d="M199.446,124.862v1.62h4.808v2.449h1.603v0.72h-1.603v2.395h-4.808v1.764h4.988v4.862
		h-0.882v-0.792h-8.715v0.828h-0.864v-4.897h4.627v-1.764h-4.717v-0.72h4.717v-1.675h-6.086v-0.72h6.086v-1.729h-4.609v-0.72h4.609
		v-1.62h-6.536v4.573c0,2.719-0.216,6.608-1.657,9.291c-0.162-0.144-0.504-0.396-0.702-0.468c1.386-2.611,1.53-6.212,1.53-8.823
		v-5.366h7.652c-0.216-0.54-0.558-1.207-0.864-1.71l0.738-0.288c0.396,0.648,0.828,1.422,1.026,1.999h6.14v0.792H199.446z
		 M203.552,134.531h-8.715v2.61h8.715V134.531z M199.446,127.202v1.729h3.979v-1.729H199.446z M203.426,129.651h-3.979v1.675h3.979
		V129.651z"/>
	<path id="XMLID_68_" fill="#E2E2E2" d="M235.178,136.997v0.846h-15.935v-0.846h7.49v-6.14h-5.816v-0.846h5.816v-5.528h-6.572
		v-0.846h14.063v0.846h-6.608v5.528h6.032v0.846h-6.032v6.14H235.178z"/>
	<path id="XMLID_70_" fill="#E2E2E2" d="M255.877,131.632c-1.044,0.954-2.431,1.999-3.601,2.754
		c1.296,1.297,2.917,2.269,4.771,2.809c-0.198,0.198-0.432,0.522-0.576,0.756c-3.655-1.225-6.356-3.979-7.742-7.688h-0.144
		c-0.792,0.882-1.854,1.729-3.025,2.485v4.519l4.681-1.458c0.018,0.234,0.072,0.558,0.126,0.738
		c-4.969,1.638-5.509,1.836-5.852,2.088c-0.072-0.234-0.27-0.63-0.396-0.828c0.216-0.09,0.576-0.342,0.576-1.026v-3.475
		c-1.17,0.684-2.377,1.26-3.493,1.674c-0.144-0.216-0.396-0.54-0.576-0.72c2.341-0.756,5.131-2.322,6.86-3.997h-6.41v-0.792h7.256
		v-1.963h-5.654v-0.756h5.654v-1.855h-6.572v-0.792h6.572v-1.765h0.846v1.765h6.77v0.792h-6.77v1.855h5.906v0.756h-5.906v1.963h7.31
		v0.792h-6.896c0.522,1.351,1.26,2.575,2.197,3.619c1.134-0.792,2.521-1.891,3.367-2.719L255.877,131.632z"/>
	<path id="XMLID_72_" fill="#E2E2E2" d="M276.667,137.501c0.81,0,0.918-0.486,0.99-3.349c0.234,0.18,0.576,0.342,0.828,0.396
		c-0.108,2.989-0.378,3.781-1.782,3.781h-2.845c-1.368,0-1.747-0.324-1.747-1.548v-6.986h-3.799c-0.36,3.961-1.242,7.22-5.312,8.823
		c-0.108-0.198-0.36-0.504-0.558-0.648c3.889-1.477,4.663-4.556,4.969-8.175h-4.861v-0.828h15.701v0.828h-5.276v6.986
		c0,0.576,0.162,0.72,0.937,0.72H276.667z M276.793,124.682h-12.712v-0.846h12.712V124.682z"/>
	<path id="XMLID_75_" fill="#E2E2E2" d="M297.959,134.296c-1.333,1.53-3.853,3.007-5.906,3.709
		c-0.126-0.234-0.396-0.558-0.594-0.702c2.053-0.63,4.519-1.944,5.78-3.367L297.959,134.296z M294.682,126.788
		c-0.703-0.522-2.071-1.188-3.205-1.548l0.432-0.63c1.134,0.342,2.502,0.955,3.223,1.495L294.682,126.788z M300.065,132.586h7.472
		v0.792h-7.472v5.275h-0.864v-5.275h-7.562v-0.792h7.562v-1.639h0.864V132.586z M291.891,130.731c0.9-0.774,2.197-2.053,3.277-3.277
		l0.522,0.576c-0.972,1.116-2.143,2.322-3.169,3.331L291.891,130.731z M295.636,124.465c-0.666-0.522-1.999-1.17-3.097-1.548
		l0.432-0.594c1.099,0.36,2.413,0.973,3.133,1.495L295.636,124.465z M301.29,123.925c-0.504,3.763-2.197,5.762-5.222,7.04
		c-0.108-0.162-0.432-0.504-0.648-0.648c1.729-0.612,2.989-1.513,3.817-2.827c-0.72-0.72-1.927-1.584-2.953-2.178l0.432-0.541
		c1.008,0.558,2.143,1.369,2.899,2.053c0.378-0.828,0.648-1.783,0.811-2.899h-3.151v-0.792h7.4c0,0,0,0.324-0.018,0.432
		c-0.036,0.828-0.09,1.548-0.126,2.161c1.081,0.864,2.359,2.017,3.043,2.737l-0.63,0.558c-0.54-0.63-1.548-1.566-2.484-2.377
		c-0.18,2.233-0.36,3.151-0.703,3.547c-0.252,0.27-0.522,0.378-0.954,0.378c-0.36,0.036-1.044,0.018-1.729-0.018
		c-0.018-0.234-0.09-0.54-0.234-0.774c0.738,0.072,1.422,0.09,1.674,0.09s0.414-0.036,0.54-0.198
		c0.324-0.36,0.559-1.818,0.756-5.744H301.29z M301.92,133.864c1.963,0.937,4.375,2.359,5.618,3.331l-0.576,0.666
		c-1.206-0.972-3.619-2.449-5.563-3.403L301.92,133.864z"/>
	<path id="XMLID_83_" fill="#E2E2E2" d="M318.082,134.854h-3.601v1.422h-0.81v-12.711h4.411V134.854z M314.481,124.394v4.339h2.791
		v-4.339H314.481z M317.272,134.063v-4.538h-2.791v4.538H317.272z M329.317,135.989h-5.06v2.647h-0.846v-2.647h-5.096v-0.774h5.096
		v-1.477h-3.709v-5.456h3.709v-1.458h-4.124v-0.756h4.124v-1.494h0.846v1.494h4.268v0.756h-4.268v1.458h3.871v5.456h-3.871v1.477
		h5.06V135.989z M319.792,125.564h-0.81v-2.449h9.831v2.449h-0.828v-1.692h-8.193V125.564z M320.495,130.641h2.917v-1.638h-2.917
		V130.641z M323.412,133.018v-1.674h-2.917v1.674H323.412z M324.258,129.003v1.638h3.062v-1.638H324.258z M327.319,131.344h-3.062
		v1.674h3.062V131.344z"/>
	<path id="XMLID_93_" fill="#E2E2E2" d="M349.226,133.955c-0.667,0.864-1.566,1.638-2.575,2.305
		c0.811,1.008,1.801,1.584,2.809,1.566c0.559-0.018,0.702-0.486,0.793-1.945c0.18,0.162,0.485,0.306,0.72,0.378
		c-0.162,1.854-0.54,2.376-1.549,2.395c-1.313,0-2.521-0.72-3.475-1.963c-1.351,0.792-2.845,1.423-4.285,1.891
		c-0.108-0.162-0.342-0.54-0.504-0.72c1.494-0.432,3.024-1.026,4.357-1.782c-0.505-0.792-0.919-1.747-1.225-2.827h-4.628v1.549
		c1.152-0.108,2.359-0.234,3.548-0.342v0.666l-3.548,0.378v2.125c0,0.54-0.144,0.792-0.594,0.882
		c-0.433,0.144-1.225,0.144-2.611,0.144c-0.035-0.198-0.18-0.504-0.306-0.738c1.099,0.036,2.034,0.036,2.305,0.018
		c0.288,0,0.342-0.072,0.342-0.306v-2.035c-1.477,0.144-2.845,0.27-3.942,0.378l-0.108-0.756c1.099-0.09,2.503-0.198,4.051-0.342
		v-1.621h-3.961v-0.738h3.961v-1.549c-1.188,0.144-2.431,0.234-3.547,0.306c-0.054-0.198-0.162-0.468-0.252-0.666
		c2.521-0.144,5.618-0.486,7.274-0.9l0.576,0.612c-0.864,0.198-1.98,0.396-3.188,0.54v1.657h4.43
		c-0.198-0.882-0.324-1.819-0.378-2.809h0.846c0.036,1.008,0.181,1.945,0.379,2.809h5.815v0.738h-5.618
		c0.288,0.918,0.648,1.729,1.081,2.395c0.882-0.576,1.656-1.243,2.232-1.98L349.226,133.955z M350.737,129.399h-15.898v-0.756h7.49
		v-1.44h-5.779V126.5h5.779v-1.404h-6.752v-0.738h4.016c-0.271-0.522-0.721-1.207-1.152-1.71l0.738-0.306
		c0.54,0.594,1.116,1.386,1.368,1.945l-0.162,0.072h4.627c0.414-0.558,0.919-1.477,1.207-2.053l0.864,0.306
		c-0.36,0.612-0.793,1.243-1.152,1.747h4.087v0.738h-6.824v1.404h5.834v0.702h-5.834v1.44h7.544V129.399z M349.117,132.046
		c-0.612-0.541-1.801-1.225-2.827-1.621l0.486-0.576c1.009,0.396,2.232,1.044,2.845,1.566L349.117,132.046z"/>
	<path id="XMLID_97_" fill="#E2E2E2" d="M368.842,126.194h-4.753v-0.756h4.753V126.194z M368.32,137.591h-2.917v0.882h-0.721v-5.978
		h3.638V137.591z M364.701,127.725h3.709v0.756h-3.709V127.725z M364.701,130.119h3.709v0.738h-3.709V130.119z M365.403,133.252
		v3.583h2.179v-3.583H365.403z M366.52,125.078c-0.126-0.63-0.504-1.639-0.9-2.376l0.685-0.234c0.414,0.756,0.81,1.71,0.918,2.341
		L366.52,125.078z M375.378,131.056c-0.378,0.612-0.846,1.206-1.332,1.8v4.538c0,0.558-0.126,0.81-0.522,0.972
		c-0.396,0.144-1.116,0.162-2.251,0.162c-0.035-0.234-0.161-0.576-0.27-0.811c0.918,0.036,1.71,0.018,1.944,0
		c0.252,0,0.324-0.072,0.324-0.324v-3.709c-1.225,1.225-2.629,2.305-3.997,3.133c-0.072-0.18-0.307-0.558-0.433-0.738
		c1.531-0.846,3.134-2.071,4.43-3.439v-0.271c-1.53,0.198-2.989,0.36-4.213,0.486l-0.126-0.81l0.864-0.072v-7.616h1.35
		c0.234-0.63,0.45-1.44,0.576-2.035l0.847,0.216c-0.216,0.594-0.433,1.26-0.648,1.818h2.125v7.364
		c0.234-0.306,0.45-0.612,0.648-0.936L375.378,131.056z M370.57,125.114v1.891h2.701v-1.891H370.57z M373.271,127.725h-2.701v1.926
		h2.701V127.725z M373.271,131.65v-1.297h-2.701v1.549L373.271,131.65z M380.149,127.292h-1.134v9.993
		c0,0.648-0.162,0.9-0.576,1.044c-0.433,0.162-1.207,0.18-2.341,0.18c-0.055-0.234-0.181-0.612-0.324-0.864
		c0.972,0.036,1.836,0.018,2.089,0.018c0.27-0.018,0.342-0.09,0.342-0.378v-9.993h-3.637v-0.828h3.637v-3.979h0.811v3.979h1.134
		V127.292z M376.494,133.342c-0.18-1.063-0.773-2.827-1.386-4.159l0.72-0.198c0.63,1.333,1.242,3.061,1.459,4.105L376.494,133.342z"
		/>
	<path id="XMLID_110_" fill="#E2E2E2" d="M401.354,130.947v0.829h-7.364v6.77h-0.9v-6.77h-7.346v-0.829H401.354z M390.46,134.081
		c-0.99,1.35-2.557,2.61-3.925,3.457c-0.162-0.144-0.504-0.432-0.721-0.576c1.44-0.756,2.899-1.927,3.8-3.133L390.46,134.081z
		 M386.967,127.922h-0.864v-3.637h7.347c-0.216-0.576-0.522-1.314-0.828-1.873l0.846-0.18c0.324,0.63,0.702,1.44,0.919,2.053h6.733
		v3.637h-0.864v-2.809h-13.288V127.922z M388.588,128.391v-0.81h9.867v0.81H388.588z M397.23,133.667
		c1.44,0.99,3.241,2.395,4.123,3.349l-0.702,0.558c-0.864-0.936-2.629-2.413-4.087-3.439L397.23,133.667z"/>
	<path id="XMLID_116_" fill="#E2E2E2" d="M418.308,137.573c0,0.504-0.107,0.738-0.432,0.9c-0.36,0.144-0.973,0.144-1.927,0.144
		c-0.036-0.216-0.162-0.558-0.271-0.792c0.757,0.018,1.404,0.018,1.585,0c0.216,0,0.27-0.054,0.27-0.271v-3.475
		c-1.188,0.81-2.376,1.62-3.366,2.269l-0.486-0.72l0.504-0.306h-3.043v3.331h-0.847v-3.331h-3.276v-0.81h3.276v-1.819h-2.538v-5.689
		h2.538v-1.801h-3.097v-0.792h3.097v-2.071h0.847v2.071h2.989v0.792h-2.989v1.801h2.467v5.689h-2.467v1.819h3.187v0.72
		c0.919-0.541,2.053-1.261,3.205-1.999v-4.699h-2.809v-0.774h3.583V137.573z M408.549,129.471h4.249v-1.711h-4.249V129.471z
		 M408.549,131.956h4.249v-1.746h-4.249V131.956z M419.586,122.575c-0.107,0.162-0.198,0.342-0.306,0.486
		c0.937,1.44,2.7,2.989,4.159,3.835c-0.198,0.18-0.396,0.522-0.504,0.738c-1.459-0.954-3.134-2.449-4.142-3.889
		c-1.188,1.567-2.791,2.953-4.321,3.961c-0.126-0.18-0.396-0.54-0.594-0.702c1.908-1.099,3.799-2.827,4.897-4.7L419.586,122.575z
		 M415.319,129.867c0.647,0.702,1.368,1.621,1.71,2.197l-0.648,0.396c-0.324-0.612-1.044-1.566-1.656-2.25L415.319,129.867z
		 M422.593,137.555c0,0.504-0.107,0.756-0.45,0.918c-0.359,0.144-0.972,0.144-1.944,0.144c-0.036-0.216-0.162-0.576-0.27-0.81
		c0.756,0.018,1.422,0.018,1.602,0c0.217,0,0.271-0.054,0.271-0.252v-3.565c-0.954,0.702-1.908,1.458-2.719,2.053l-0.486-0.684
		c0.828-0.54,1.999-1.387,3.205-2.269v-4.556h-2.881v-0.774h3.673V137.555z M419.622,129.885c0.595,0.666,1.225,1.566,1.53,2.179
		l-0.666,0.36c-0.288-0.612-0.9-1.566-1.477-2.25L419.622,129.885z"/>
	<path id="XMLID_124_" fill="#E2E2E2" d="M441.778,123.439c-0.541,1.44-1.279,3.223-1.927,4.664c1.422,1.548,1.8,2.845,1.8,4.015
		c0,0.846-0.197,1.603-0.666,1.927c-0.216,0.144-0.54,0.252-0.864,0.288c-0.396,0.036-0.846,0.036-1.242,0
		c-0.018-0.216-0.108-0.54-0.252-0.774c0.468,0.018,0.882,0.036,1.188,0.018c0.252-0.018,0.45-0.072,0.612-0.18
		c0.306-0.198,0.414-0.774,0.414-1.332c0-1.063-0.396-2.341-1.837-3.854c0.63-1.422,1.261-3.043,1.711-4.285h-2.971v14.729h-0.811
		v-15.539h4.141l0.145-0.036L441.778,123.439z M448.17,132.892c1.063,1.71,2.845,3.349,4.501,4.141
		c-0.18,0.162-0.468,0.468-0.594,0.684c-1.747-0.936-3.619-2.863-4.699-4.789v5.708h-0.829v-5.672
		c-1.188,1.963-3.259,3.854-5.077,4.826c-0.144-0.198-0.396-0.504-0.594-0.684c1.729-0.811,3.654-2.485,4.825-4.213h-3.061v-6.068
		h3.906v-1.674h-4.717v-0.774h4.717v-2.017h0.829v2.017h4.843v0.774h-4.843v1.674h4.015v6.068H448.17z M443.452,129.489h3.097
		v-1.944h-3.097V129.489z M443.452,132.172h3.097v-1.98h-3.097V132.172z M447.378,127.544v1.944h3.187v-1.944H447.378z
		 M450.564,130.191h-3.187v1.98h3.187V130.191z"/>
	<path id="XMLID_131_" fill="#E2E2E2" d="M460.659,129.687c-0.63-0.486-1.837-1.17-2.845-1.603l0.468-0.648
		c0.99,0.378,2.232,1.044,2.845,1.512L460.659,129.687z M458.318,137.682c0.774-1.405,1.891-3.799,2.646-5.78l0.721,0.522
		c-0.738,1.873-1.747,4.159-2.575,5.78L458.318,137.682z M459.219,122.575c1.008,0.415,2.269,1.117,2.898,1.621l-0.504,0.72
		c-0.63-0.504-1.872-1.26-2.881-1.71L459.219,122.575z M462.514,123.277h4.285v4.933h-3.187c-0.126,1.063-0.271,2.215-0.414,3.151
		h3.402c0,0-0.018,0.324-0.036,0.432c-0.378,4.16-0.737,5.69-1.313,6.266c-0.288,0.27-0.559,0.36-1.026,0.396
		c-0.379,0-1.117,0-1.854-0.054c-0.019-0.234-0.108-0.559-0.234-0.792c0.811,0.09,1.548,0.09,1.836,0.09s0.45-0.018,0.612-0.18
		c0.45-0.414,0.793-1.854,1.116-5.384h-3.438c0.234-1.224,0.504-3.223,0.648-4.699h3.061v-3.403h-3.457V123.277z M473.263,138.276
		c-0.09-0.468-0.216-1.026-0.36-1.639c-4.879,0.72-5.455,0.846-5.779,1.026c-0.018-0.198-0.162-0.594-0.252-0.828
		c0.306-0.108,0.666-1.297,1.044-2.773c0.36-1.405,1.495-6.662,1.837-11.2l0.828,0.126c-0.396,4.447-1.314,9.687-2.448,13.54
		l4.609-0.648c-0.433-1.674-1.009-3.637-1.567-5.257l0.757-0.198c0.9,2.485,1.836,5.744,2.179,7.58L473.263,138.276z"/>
	<path id="XMLID_137_" fill="#E2E2E2" d="M479.612,137.412c0.9-1.152,1.566-3.043,1.927-4.448l0.774,0.27
		c-0.396,1.44-1.026,3.385-1.909,4.592L479.612,137.412z M495.529,125.167v0.829h-7.544v3.529h6.481v0.828h-13.666v-0.828h6.302
		v-3.529h-7.454v-0.829h7.454v-2.827h0.883v2.827H495.529z M490.308,137.609c1.026,0,1.188-0.342,1.278-2.376
		c0.216,0.144,0.576,0.27,0.811,0.342c-0.145,2.287-0.45,2.827-2.035,2.827h-4.501c-1.801,0-2.287-0.271-2.287-1.44v-4.195h0.864
		v4.177c0,0.522,0.217,0.666,1.405,0.666H490.308z M489.516,134.674c-0.828-0.918-2.539-2.232-4.016-3.097l0.595-0.54
		c1.458,0.846,3.205,2.125,4.069,3.043L489.516,134.674z M492.9,132.784c0.973,1.512,2.053,3.565,2.521,4.789l-0.828,0.36
		c-0.45-1.26-1.494-3.331-2.467-4.861L492.9,132.784z"/>
	<path id="XMLID_143_" fill="#E2E2E2" d="M79.799,151.439c-0.54,1.44-1.278,3.223-1.926,4.664c1.422,1.548,1.8,2.845,1.8,4.015
		c0,0.846-0.198,1.603-0.666,1.927c-0.216,0.144-0.54,0.252-0.864,0.288c-0.396,0.036-0.846,0.036-1.242,0
		c-0.018-0.216-0.108-0.54-0.252-0.774c0.468,0.018,0.882,0.036,1.188,0.018c0.252-0.018,0.45-0.072,0.612-0.18
		c0.306-0.198,0.414-0.774,0.414-1.332c0-1.063-0.396-2.341-1.836-3.854c0.63-1.422,1.26-3.043,1.71-4.285h-2.971v14.729h-0.81
		v-15.539h4.141l0.144-0.036L79.799,151.439z M86.191,160.892c1.063,1.71,2.845,3.349,4.501,4.141
		c-0.18,0.162-0.468,0.468-0.594,0.684c-1.747-0.936-3.619-2.863-4.699-4.789v5.708h-0.829v-5.672
		c-1.188,1.963-3.259,3.854-5.077,4.826c-0.144-0.198-0.396-0.504-0.594-0.684c1.729-0.811,3.655-2.485,4.825-4.213h-3.061v-6.068
		h3.907v-1.674h-4.717v-0.774h4.717v-2.017h0.829v2.017h4.843v0.774h-4.843v1.674h4.015v6.068H86.191z M81.474,157.489h3.097v-1.944
		h-3.097V157.489z M81.474,160.172h3.097v-1.98h-3.097V160.172z M85.399,155.544v1.944h3.187v-1.944H85.399z M88.586,158.191h-3.187
		v1.98h3.187V158.191z"/>
	<path id="XMLID_150_" fill="#E2E2E2" d="M101.634,158.299c-0.396,0.738-0.828,1.458-1.351,2.125h10.173v6.266h-0.882v-0.973h-8.895
		v0.99h-0.864v-5.689c-0.954,1.098-2.106,2.071-3.493,2.845c-0.126-0.198-0.396-0.504-0.541-0.666
		c2.197-1.225,3.763-2.899,4.88-4.897h-2.899v-0.792h3.331c0.36-0.756,0.666-1.548,0.918-2.358h-5.978v-0.792h6.23
		c0.216-0.756,0.396-1.548,0.522-2.323h-4.861v-0.792h12.045v3.115h1.999v0.792h-1.999v3.151H101.634z M100.679,161.234v3.691h8.895
		v-3.691H100.679z M102.93,155.148c-0.252,0.81-0.558,1.603-0.918,2.358h7.094v-2.358H102.93z M103.705,152.033
		c-0.126,0.792-0.324,1.567-0.541,2.323h5.942v-2.323H103.705z"/>
	<path id="XMLID_155_" fill="#E2E2E2" d="M122.118,150.629c-0.504,1.477-1.135,2.935-1.854,4.303v11.686h-0.811v-10.263
		c-0.522,0.846-1.098,1.639-1.656,2.305c-0.108-0.18-0.378-0.558-0.559-0.756c1.675-1.837,3.169-4.646,4.087-7.472L122.118,150.629z
		 M127.969,159.523c-0.18,0.45-0.342,0.937-0.504,1.351h5.401v4.826c0,0.45-0.09,0.666-0.396,0.81
		c-0.324,0.126-0.882,0.144-1.729,0.144c-0.036-0.234-0.162-0.522-0.288-0.738c0.702,0.018,1.206,0.018,1.368,0
		c0.198,0,0.234-0.054,0.234-0.216v-4.087h-2.431v4.807h-0.774v-4.807h-2.359v4.807h-0.774v-4.807h-2.323v5.042h-0.792v-5.78h4.033
		c0.144-0.396,0.288-0.9,0.414-1.351h-5.474v-0.756h12.136v0.756H127.969z M127.123,151.763h-4.555v-0.738h10.155v0.738h-4.771
		v1.351h5.366v2.376h-0.738v-1.656h-4.627v4.429h-0.828v-4.429h-4.447v1.656h-0.738v-2.376h5.186V151.763z M122.37,157.327
		c1.098-0.18,2.575-0.45,4.123-0.756l0.054,0.576c-1.386,0.306-2.719,0.612-3.853,0.882L122.37,157.327z M123.396,154.698
		c1.098,0.126,2.539,0.432,3.313,0.738l-0.216,0.63c-0.792-0.288-2.214-0.648-3.367-0.81L123.396,154.698z M132.11,155.148
		c-0.954,0.396-2.431,0.702-3.457,0.846l-0.324-0.432c1.008-0.198,2.539-0.648,3.385-0.937L132.11,155.148z M132.38,158.065
		c-0.936-0.324-2.683-0.738-4.015-0.99l0.252-0.522c1.314,0.18,3.061,0.594,3.997,0.9L132.38,158.065z"/>
	<path id="XMLID_163_" fill="#E2E2E2" d="M154.32,153.762c-1.837,1.657-4.735,3.079-7.076,3.799c-0.126-0.198-0.36-0.522-0.54-0.702
		c2.431-0.648,5.365-2.071,7.076-3.619h-6.608v-0.792h7.148v-2.107h0.864v2.107h7.274v0.792h-7.274v0.234
		c2.557,0.991,5.744,2.413,7.436,3.367l-0.432,0.702c-1.584-0.918-4.52-2.287-7.004-3.295v3.349h-0.864V153.762z M162.746,162.314
		h-7.58v3.187c0,0.576-0.144,0.81-0.63,0.972c-0.504,0.144-1.314,0.144-2.827,0.144c-0.072-0.234-0.252-0.558-0.414-0.792
		c1.296,0.036,2.34,0.036,2.628,0c0.324-0.018,0.396-0.09,0.396-0.324v-3.187h-7.472v-0.81h7.472v-1.026
		c1.224-0.378,2.539-1.026,3.511-1.657h-7.832v-0.792h8.876l0.198-0.054l0.576,0.468c-1.152,0.954-2.881,1.854-4.483,2.467v0.594
		h7.58V162.314z"/>
	<path id="XMLID_166_" fill="#E2E2E2" d="M183.14,165.357c0,0.648-0.144,0.954-0.648,1.098c-0.504,0.162-1.477,0.162-2.917,0.162
		c-0.036-0.27-0.198-0.612-0.306-0.864c1.26,0.036,2.305,0.018,2.628,0c0.306-0.018,0.378-0.108,0.378-0.378v-8.877h-11.704v10.155
		h-0.864V155.67h6.212v-5.33h0.864v5.33h6.356V165.357z M172.355,154.968c-0.486-1.008-1.513-2.539-2.503-3.655l0.72-0.342
		c1.026,1.098,2.071,2.593,2.539,3.583L172.355,154.968z M173.903,163.575v1.17h-0.811v-6.122h6.572v4.951H173.903z
		 M173.903,159.397v3.385h4.951v-3.385H173.903z M182.96,151.205c-0.792,1.278-1.854,2.809-2.737,3.781l-0.684-0.306
		c0.846-0.99,1.98-2.647,2.593-3.799L182.96,151.205z"/>
	<path id="XMLID_172_" fill="#E2E2E2" d="M190.228,165.267c0.955-1.08,1.693-2.827,2.089-4.141l0.738,0.252
		c-0.468,1.386-1.134,3.187-2.089,4.303L190.228,165.267z M204.146,159.848H191.92v-8.697h12.226V159.848z M203.246,151.925h-10.461
		v7.13h10.461V151.925z M201.373,158.479c-0.828-0.738-2.359-1.909-3.691-2.791c-0.594,1.26-1.603,2.197-3.313,2.827
		c-0.09-0.18-0.324-0.45-0.45-0.576c1.854-0.63,2.809-1.692,3.313-3.151h-3.205v-0.738h3.385c0.126-0.54,0.216-1.116,0.271-1.729
		h0.774c-0.054,0.612-0.144,1.188-0.252,1.729h3.745v0.738h-3.925l-0.09,0.27c1.368,0.882,3.079,2.089,3.961,2.863L201.373,158.479z
		 M200.635,165.501c0.937,0,1.081-0.306,1.17-2.359c0.198,0.18,0.558,0.288,0.81,0.36c-0.126,2.287-0.432,2.809-1.944,2.809h-4.069
		c-1.692,0-2.143-0.27-2.143-1.404v-3.889h0.864v3.871c0,0.486,0.216,0.612,1.278,0.612H200.635z M197.52,160.352
		c1.008,0.846,2.143,2.017,2.646,2.845l-0.72,0.45c-0.504-0.811-1.602-2.035-2.611-2.899L197.52,160.352z M203.065,160.712
		c1.134,1.296,2.287,3.079,2.719,4.285l-0.81,0.378c-0.396-1.188-1.513-3.007-2.665-4.303L203.065,160.712z"/>
	<path id="XMLID_180_" fill="#E2E2E2" d="M225.977,159.793c-0.414-0.684-1.621-2.196-2.431-3.169v10.011H222.7v-9.813
		c-0.846,2.449-2.125,4.934-3.331,6.338c-0.126-0.234-0.378-0.558-0.541-0.756c1.405-1.548,2.935-4.573,3.673-7.274h-3.241v-0.828
		h3.439v-3.961h0.846v3.961h2.683v0.828h-2.683v0.432c0.558,0.594,2.593,2.899,3.061,3.475L225.977,159.793z M231.703,155.13
		c0.828,3.079,2.287,6.23,3.799,7.796c-0.198,0.162-0.504,0.468-0.684,0.684c-1.297-1.513-2.557-4.159-3.421-6.896v9.921h-0.864
		v-9.831c-0.99,2.809-2.502,5.564-4.033,7.094c-0.144-0.252-0.396-0.558-0.576-0.756c1.729-1.692,3.511-4.916,4.357-8.012h-3.133
		v-0.828h3.385v-3.961h0.864v3.961h3.565v0.828H231.703z"/>
	<path id="XMLID_183_" fill="#E2E2E2" d="M244.066,153.87h2.071v0.828h-2.071v1.008c0.486,0.594,1.729,2.376,2.035,2.827
		l-0.558,0.667c-0.252-0.522-0.954-1.621-1.477-2.449v9.867h-0.828v-9.723c-0.594,2.052-1.404,4.069-2.215,5.275
		c-0.108-0.234-0.342-0.594-0.522-0.792c1.044-1.44,2.143-4.25,2.647-6.68h-2.323v-0.828h2.413v-3.529h0.828V153.87z
		 M251.07,156.193c0.018,0.234,0.054,0.558,0.108,0.738c-3.655,0.991-4.123,1.152-4.429,1.351c-0.036-0.252-0.198-0.648-0.306-0.864
		c0.216-0.072,0.522-0.18,0.522-0.756v-6.194h0.846v2.431h3.241v0.792h-3.241v3.313L251.07,156.193z M251.682,157.957
		c-0.234,0.486-0.468,1.044-0.702,1.495h4.664v7.166h-0.864v-0.684h-6.626v0.756h-0.864v-7.238h2.845
		c0.234-0.54,0.486-1.26,0.612-1.747L251.682,157.957z M254.779,160.208h-6.626v2.07h6.626V160.208z M254.779,165.177v-2.161h-6.626
		v2.161H254.779z M255.518,157.201c0.504,0,0.594-0.27,0.648-1.98c0.198,0.162,0.522,0.288,0.774,0.36
		c-0.108,1.908-0.36,2.395-1.351,2.395h-2.323c-1.152,0-1.458-0.252-1.458-1.333v-6.158h0.847v2.413h3.907v0.792h-3.907v2.971
		c0,0.45,0.108,0.54,0.684,0.54H255.518z"/>
	<path id="XMLID_190_" fill="#E2E2E2" d="M267.917,162.513l0.054,0.792c-1.891,0.522-3.871,1.044-5.383,1.44l-0.234-0.846
		c0.774-0.18,1.747-0.432,2.809-0.684c0.45-2.017,0.954-5.384,1.206-7.67l0.829,0.18c-0.324,2.232-0.829,5.257-1.278,7.292
		L267.917,162.513z M267.755,154.68h-5.348v-0.81h5.348V154.68z M263.919,162.495c-0.108-1.837-0.504-4.609-0.936-6.716l0.72-0.126
		c0.432,2.143,0.864,4.862,0.972,6.716L263.919,162.495z M265,153.6c-0.162-0.721-0.54-1.855-0.81-2.701l0.774-0.252
		c0.306,0.846,0.702,1.927,0.864,2.647L265,153.6z M272.958,165.357c0,0.63-0.144,0.9-0.576,1.044
		c-0.432,0.162-1.225,0.162-2.539,0.162c-0.018-0.216-0.126-0.576-0.252-0.811c1.026,0.036,1.944,0.018,2.197,0
		c0.288,0,0.378-0.09,0.378-0.396v-5.6c-1.17,1.08-2.395,2.179-3.385,3.043l-0.468-0.63c0.972-0.774,2.449-2.053,3.853-3.331v-6.77
		h-3.601v-0.81h4.394V165.357z M269.555,154.338c0.522,1.134,1.152,2.647,1.404,3.493l-0.666,0.288
		c-0.27-0.882-0.864-2.431-1.404-3.583L269.555,154.338z M277.982,165.412c0,0.666-0.18,0.936-0.594,1.08
		c-0.432,0.144-1.243,0.162-2.557,0.144c-0.036-0.216-0.144-0.576-0.27-0.828c1.062,0.036,1.98,0.036,2.25,0.018
		c0.27-0.018,0.36-0.108,0.36-0.396v-5.924c-1.134,1.081-2.269,2.161-3.223,3.025l-0.486-0.648c0.918-0.774,2.359-2.053,3.709-3.331
		v-6.482h-3.619v-0.81h4.43V165.412z M274.381,154.284c0.576,1.098,1.224,2.575,1.494,3.403l-0.666,0.324
		c-0.306-0.9-0.936-2.395-1.477-3.529L274.381,154.284z"/>
	<path id="XMLID_199_" fill="#E2E2E2" d="M294.628,157.957c-0.72-0.576-2.107-1.368-3.259-1.854l0.522-0.648
		c1.116,0.486,2.539,1.242,3.277,1.782L294.628,157.957z M295.87,160.568c-0.936,1.836-2.197,4.123-3.205,5.708l-0.738-0.594
		c0.936-1.369,2.305-3.745,3.295-5.726L295.87,160.568z M295.726,153.186c-0.72-0.576-2.143-1.404-3.313-1.98l0.576-0.576
		c1.152,0.504,2.575,1.314,3.349,1.891L295.726,153.186z M302.46,150.593c-0.126,0.198-0.271,0.415-0.415,0.594
		c1.657,2.017,3.673,3.313,5.762,4.375c-0.234,0.162-0.486,0.45-0.63,0.702c-1.999-1.134-3.871-2.467-5.582-4.465
		c-1.513,1.891-3.637,3.619-5.816,4.664c-0.144-0.18-0.36-0.45-0.576-0.612c2.557-1.207,5.113-3.349,6.5-5.582L302.46,150.593z
		 M299.129,161.54c-0.756,1.369-1.765,2.917-2.629,3.943c-0.144-0.126-0.504-0.378-0.72-0.486c0.918-1.008,1.873-2.431,2.557-3.691
		L299.129,161.54z M302.082,160.118v5.384c0,0.612-0.144,0.864-0.594,1.008c-0.45,0.162-1.26,0.162-2.611,0.162
		c-0.054-0.252-0.18-0.576-0.324-0.829c1.134,0.036,2.052,0.036,2.322,0.018c0.288-0.018,0.36-0.108,0.36-0.342v-5.402h-5.06v-0.828
		h5.06v-2.611h-3.403v-0.792h7.454v0.792h-3.205v2.611h5.438v0.828H302.082z M304.765,161.198c1.044,1.206,2.214,2.791,2.791,3.763
		l-0.72,0.432c-0.594-0.991-1.765-2.665-2.755-3.854L304.765,161.198z"/>
	<path id="XMLID_207_" fill="#E2E2E2" d="M319.451,163.125c-2.197,0.594-4.466,1.188-6.158,1.639l-0.252-0.864
		c0.882-0.198,2.017-0.486,3.223-0.774c0.468-1.98,0.99-5.383,1.242-7.67l0.81,0.162c-0.324,2.232-0.828,5.312-1.296,7.31
		l2.341-0.594L319.451,163.125z M319.163,154.68h-5.96v-0.81h5.96V154.68z M314.787,162.477c-0.09-1.819-0.486-4.591-0.955-6.698
		l0.703-0.126c0.504,2.143,0.9,4.879,0.99,6.716L314.787,162.477z M316.173,153.51c-0.18-0.738-0.648-1.873-1.062-2.719l0.72-0.216
		c0.432,0.864,0.918,1.963,1.134,2.665L316.173,153.51z M328.201,165.573c0,0.522-0.107,0.756-0.486,0.9
		c-0.396,0.144-1.08,0.144-2.196,0.144c-0.036-0.234-0.162-0.54-0.288-0.774c0.9,0.036,1.639,0.036,1.854,0.018
		c0.234,0,0.288-0.072,0.288-0.27v-1.999h-6.05c-0.18,1.17-0.522,2.359-1.261,3.313c-0.144-0.18-0.45-0.486-0.63-0.594
		c1.08-1.422,1.206-3.295,1.206-4.753v-3.385h7.563V165.573z M329.372,156.175v0.72h-9.921v-0.72h4.448v-1.495h-3.818v-0.702h3.818
		v-1.351h-4.286v-0.72h4.286v-1.548h0.828v1.548h4.501v0.72h-4.501v1.351h4.159v0.702h-4.159v1.495H329.372z M327.373,162.891
		v-1.639h-5.924v0.306c0,0.414-0.018,0.864-0.054,1.333H327.373z M321.449,158.912v1.656h5.924v-1.656H321.449z"/>
	<path id="XMLID_216_" fill="#E2E2E2" d="M347.73,160.424c-0.936,1.477-2.305,2.701-4.051,3.673c2.125,0.9,4.609,1.494,7.311,1.8
		c-0.181,0.198-0.379,0.504-0.486,0.756c-2.845-0.36-5.474-1.044-7.707-2.125c-2.16,1.044-4.825,1.747-7.904,2.161
		c-0.071-0.252-0.233-0.559-0.414-0.774c2.881-0.36,5.366-0.954,7.419-1.836c-1.729-0.955-3.151-2.179-4.159-3.655h-2.863v-0.774
		h7.688c-0.181-0.378-0.396-0.756-0.612-1.099l0.811-0.252c0.288,0.414,0.594,0.936,0.773,1.351h7.185v0.774H347.73z
		 M336.189,157.237h-0.847v-3.763h6.95v-1.638h-6.176v-0.72h13.306v0.72h-6.283v1.638h7.094v3.763h-0.846v-3.025h-6.248v3.961
		h-0.847v-3.961h-6.104V157.237z M336.766,157.759c1.134-0.144,2.683-0.378,4.285-0.594l0.036,0.63
		c-1.423,0.27-2.809,0.522-3.997,0.738L336.766,157.759z M337.468,154.842c1.242,0.234,2.827,0.684,3.691,1.063l-0.288,0.612
		c-0.864-0.396-2.449-0.882-3.709-1.116L337.468,154.842z M338.71,160.424c0.99,1.314,2.377,2.377,4.069,3.241
		c1.692-0.864,3.007-1.927,3.979-3.241H338.71z M348.397,158.641c-0.991-0.342-2.81-0.756-4.231-0.954l0.27-0.594
		c1.404,0.162,3.224,0.522,4.214,0.9L348.397,158.641z M348.433,155.382c-1.062,0.45-2.61,0.864-3.727,1.099l-0.342-0.504
		c1.08-0.252,2.7-0.81,3.618-1.17L348.433,155.382z"/>
	<path id="XMLID_224_" fill="#E2E2E2" d="M367.132,158.047c-0.738-0.559-2.179-1.405-3.295-1.945l0.486-0.648
		c1.116,0.522,2.538,1.332,3.276,1.873L367.132,158.047z M364.413,165.826c0.99-1.405,2.412-3.854,3.421-5.87l0.63,0.576
		c-0.954,1.873-2.269,4.25-3.313,5.87L364.413,165.826z M365.259,150.575c1.099,0.594,2.539,1.477,3.26,2.071l-0.541,0.702
		c-0.702-0.63-2.106-1.566-3.24-2.179L365.259,150.575z M380.132,164.565v0.864h-11.128v-0.864h4.826v-11.559h-4.033v-0.864h9.236
		v0.864h-4.285v11.559H380.132z"/>
	<path id="XMLID_229_" fill="#E2E2E2" d="M401.678,165.339v0.81h-16.223v-0.81h1.962v-4.879h12.442v4.879H401.678z M393.341,155.922
		h-7.058v-0.774h7.058v-1.296c1.387-0.486,2.972-1.261,4.088-2.017h-8.769v-0.792h9.776l0.162-0.054l0.595,0.432
		c-1.279,1.08-3.224,2.125-4.97,2.809v0.918h6.392v0.774h-6.392v2.575c0,0.594-0.145,0.828-0.648,0.972
		c-0.522,0.144-1.44,0.144-2.971,0.144c-0.072-0.252-0.234-0.54-0.396-0.792c1.404,0.036,2.431,0.036,2.755,0
		c0.324-0.018,0.378-0.09,0.378-0.342V155.922z M388.246,165.339h3.024v-4.087h-3.024V165.339z M392.099,161.252v4.087h3.007v-4.087
		H392.099z M395.934,161.252v4.087h3.079v-4.087H395.934z"/>
	<path id="XMLID_235_" fill="#E2E2E2" d="M411.52,162.548h3.728v0.792h-3.728v3.295h-0.828v-3.295h-3.673v-0.792h3.673v-1.674
		h-3.007v-6.086h3.007v-1.566h-3.403v-0.81h3.403v-2.089h0.828v2.089h3.367v0.81h-3.367v1.566h3.062v6.086h-3.062V162.548z
		 M408.44,157.471h2.305v-1.963h-2.305V157.471z M408.44,160.154h2.305v-1.98h-2.305V160.154z M413.807,155.508h-2.323v1.963h2.323
		V155.508z M413.807,158.173h-2.323v1.98h2.323V158.173z M423.421,158.335h-3.78v8.3h-0.864v-8.3h-3.745v-0.829h3.745v-5.095h-3.331
		v-0.828h7.67v0.828h-3.475v5.095h3.78V158.335z"/>
	<path id="XMLID_242_" fill="#E2E2E2" d="M450.961,165.394c0,0.684-0.217,0.954-0.685,1.098c-0.504,0.144-1.44,0.162-3.079,0.162
		c-0.036-0.234-0.198-0.576-0.324-0.811c1.297,0.036,2.449,0.018,2.755,0c0.36-0.018,0.469-0.126,0.469-0.45v-7.526h-10.983
		c-0.072,2.845-0.504,6.356-2.341,8.913c-0.145-0.162-0.486-0.468-0.685-0.558c1.98-2.773,2.179-6.59,2.179-9.453v-5.564h12.694
		V165.394z M439.131,152.033v1.981h4.844v-1.981H439.131z M439.131,157.093h4.844v-2.323h-4.844v1.999V157.093z M441.508,164.043
		v1.026h-0.811v-5.618h7.545v4.591H441.508z M441.508,160.19v3.115h5.905v-3.115H441.508z M450.097,152.033h-5.294v1.981h5.294
		V152.033z M450.097,157.093v-2.323h-5.294v2.323H450.097z"/>
	<path id="XMLID_250_" fill="#E2E2E2" d="M462.855,156.661c-0.324,2.503-0.882,4.573-1.656,6.23
		c1.782,1.999,4.447,2.449,7.761,2.467c0.521,0,4.483,0,5.203-0.018c-0.144,0.216-0.306,0.594-0.36,0.81h-4.861
		c-3.511,0-6.212-0.486-8.12-2.521c-0.685,1.224-1.477,2.161-2.377,2.881c-0.126-0.18-0.45-0.486-0.666-0.612
		c0.954-0.702,1.782-1.692,2.467-2.953c-0.666-0.882-1.206-2.017-1.639-3.439l0.702-0.306c0.324,1.206,0.774,2.161,1.314,2.953
		c0.595-1.35,1.044-2.953,1.314-4.825h-2.953c0.811-1.296,1.891-3.313,2.719-4.988h-3.493v-0.792H463
		c-0.792,1.566-1.837,3.547-2.665,4.987h1.837l0.162-0.036L462.855,156.661z M467.825,152.753h-3.691v-0.756h3.691v-1.549h0.828
		v1.549h3.89v2.395h1.386v0.738h-1.386v2.449h-3.89v1.656h4.321v0.738h-4.321v1.801h5.06v0.756h-5.06v2.143h-0.828v-2.143h-4.771
		v-0.756h4.771v-1.801h-3.961v-0.738h3.961v-1.656h-3.835v-0.756h3.835v-1.692h-4.951v-0.738h4.951V152.753z M468.653,152.753v1.639
		h3.079v-1.639H468.653z M471.732,155.13h-3.079v1.692h3.079V155.13z"/>
	<path id="XMLID_255_" fill="#E2E2E2" d="M494.646,165.538c0.162,0,0.324-0.036,0.415-0.126c0.054-0.09,0.126-0.252,0.18-0.612
		c0.018-0.378,0.036-1.225,0.054-2.323c0.198,0.18,0.486,0.324,0.721,0.396c0,0.9-0.055,2.089-0.108,2.449
		c-0.072,0.432-0.198,0.667-0.414,0.81c-0.198,0.145-0.432,0.198-0.774,0.198h-0.72c-0.288,0-0.595-0.072-0.811-0.27
		c-0.252-0.216-0.324-0.45-0.324-1.999v-11.919h-3.313v5.042c0,2.971-0.36,6.842-2.989,9.507c-0.144-0.18-0.45-0.432-0.648-0.541
		c0.36-0.36,0.666-0.72,0.937-1.116c-2.646,0.378-5.401,0.72-7.328,0.99l-0.145-0.81c1.855-0.216,4.771-0.558,7.617-0.937v0.541
		c1.548-2.359,1.746-5.258,1.746-7.634v-5.87h4.951v12.982c0,0.63,0.036,1.044,0.126,1.134c0.091,0.072,0.198,0.108,0.324,0.108
		H494.646z M487.823,156.643h-8.318v-0.756h8.318V156.643z M487.175,154.644h-7.059v-3.439h0.793v2.701h2.25v-3.313h0.828v3.313
		h2.396v-2.701h0.792V154.644z M486.977,161.468h-6.572v-3.619h6.572V161.468z M481.936,164.619c-0.108-0.702-0.45-1.71-0.864-2.503
		l0.756-0.18c0.45,0.738,0.811,1.764,0.918,2.431L481.936,164.619z M486.131,158.587h-4.916v2.143h4.916V158.587z M484.42,164.277
		c0.306-0.666,0.756-1.746,0.973-2.449l0.846,0.252c-0.378,0.846-0.774,1.782-1.134,2.413L484.42,164.277z"/>
	<path id="XMLID_263_" fill="#E2E2E2" d="M79.223,178.611c-0.45,1.314-1.044,2.629-1.692,3.854v12.189h-0.846v-10.731
		c-0.594,0.973-1.242,1.854-1.909,2.593c-0.108-0.198-0.36-0.594-0.54-0.792c1.692-1.783,3.223-4.556,4.177-7.346L79.223,178.611z
		 M90.603,181.042h-1.458v12.172c0,0.792-0.234,1.08-0.811,1.242s-1.764,0.162-3.565,0.162c-0.054-0.27-0.216-0.63-0.36-0.918
		c1.585,0.054,2.971,0.036,3.385,0.018c0.396-0.018,0.504-0.126,0.504-0.486v-12.19h-8.913v-0.828h11.218V181.042z M80.934,189.937
		v1.314h-0.829v-7.31h5.402v5.996H80.934z M80.934,184.733v4.411h3.763v-4.411H80.934z"/>
	<path id="XMLID_268_" fill="#E2E2E2" d="M112.149,193.303v0.811H95.854v-0.811h9.705c0.738-1.17,1.674-2.899,2.196-4.123
		l0.918,0.306c-0.648,1.224-1.44,2.701-2.161,3.817H112.149z M110.907,188.676H97.079v-0.81h6.842
		c-0.27-0.576-0.63-1.296-0.972-1.891l0.846-0.234c0.414,0.666,0.864,1.53,1.17,2.125h5.942V188.676z M109.988,185.453H97.925
		v-6.446h12.063V185.453z M109.124,179.745H98.771v2.107h10.353V179.745z M109.124,182.554H98.771v2.143h10.353V182.554z
		 M100.95,192.997c-0.252-0.99-0.864-2.521-1.351-3.673l0.81-0.216c0.541,1.152,1.134,2.647,1.387,3.619L100.95,192.997z"/>
	<path id="XMLID_275_" fill="#E2E2E2" d="M132.813,187.866c-1.098,0.99-2.557,2.089-3.781,2.899
		c1.224,1.333,2.827,2.305,4.771,2.809c-0.198,0.18-0.433,0.504-0.559,0.738c-3.763-1.134-6.176-3.781-7.382-7.652h-2.593v6.608
		l4.213-1.332c-0.018,0.234,0.018,0.558,0.036,0.756c-4.357,1.477-4.861,1.675-5.186,1.927c-0.072-0.198-0.324-0.576-0.468-0.774
		c0.234-0.126,0.541-0.396,0.541-1.098v-6.086h-2.197c-0.126,2.665-0.594,5.78-2.089,8.103c-0.144-0.162-0.522-0.396-0.756-0.504
		c1.836-2.845,2.017-6.806,2.017-9.687v-5.149h13.684v0.846h-12.802v2.287h11.685v0.828h-11.685v1.188c0,0.396,0,0.828-0.018,1.26
		h13.324v0.828h-6.914c0.468,1.333,1.081,2.539,1.909,3.565c1.207-0.811,2.629-1.999,3.493-2.845L132.813,187.866z"/>
	<path id="XMLID_277_" fill="#E2E2E2" d="M162.62,189.36v0.81h-8.103c-0.918,2.485-2.899,3.871-7.472,4.573
		c-0.072-0.216-0.27-0.558-0.414-0.702c4.213-0.612,6.086-1.782,6.986-3.871h-6.662v-0.81h6.932c0.234-0.756,0.36-1.603,0.45-2.575
		h-5.816v-6.968h0.864v6.158H161v3.385H162.62z M159.919,184.427h-8.589v-5.023h8.589V184.427z M159.073,180.195h-6.914v3.439h6.914
		V180.195z M155.184,186.786c-0.09,0.954-0.216,1.818-0.414,2.575h5.365v-2.575H155.184z M155.22,190.873
		c2.322,0.954,5.401,2.341,7.04,3.205l-0.468,0.756c-1.584-0.864-4.682-2.341-7.022-3.331L155.22,190.873z"/>
	<path id="XMLID_283_" fill="#E2E2E2" d="M181.412,193.105c1.368,0,1.638-0.685,1.764-3.673c0.234,0.144,0.63,0.27,0.9,0.324
		c-0.216,3.439-0.72,4.231-2.701,4.231h-8.859c-2.287,0-3.421-0.774-3.421-2.107c0-1.207,0.468-2.575,10.587-11.109h-10.569v-0.864
		h11.739l0.216-0.072l0.612,0.414c-0.054,0.072-0.126,0.09-0.216,0.144c-10.839,9.128-11.451,10.479-11.451,11.433
		c0,0.882,0.99,1.279,2.358,1.279H181.412z"/>
	<path id="XMLID_285_" fill="#E2E2E2" d="M196.709,183.958c-0.63-0.504-1.8-1.351-2.809-1.999c-0.63,1.008-1.729,1.657-3.529,2.106
		c-0.09-0.162-0.306-0.504-0.468-0.648c3.205-0.738,3.925-2.089,4.105-5.078h0.792c-0.072,1.225-0.234,2.179-0.559,2.989
		c1.026,0.63,2.323,1.513,3.007,2.053L196.709,183.958z M205.658,193.412v0.792H190.39v-0.792h7.167v-2.575h-4.897v-0.774h4.897
		v-2.233h-5.51v-0.756h11.956v0.756h-5.6v2.233h4.663v0.774h-4.663v2.575H205.658z M204.56,187.452v-2.269h-13.09v2.269h-0.828
		v-3.043h14.764v3.043H204.56z M191.866,181.654c-0.252-0.522-0.774-1.404-1.188-2.088l0.576-0.234
		c0.432,0.63,0.955,1.477,1.207,1.999L191.866,181.654z M197.646,179.601c-0.54,0.702-1.17,1.405-1.657,1.891l-0.576-0.288
		c0.504-0.522,1.152-1.386,1.513-1.944L197.646,179.601z M205.082,184.084c-0.81-0.612-2.358-1.53-3.691-2.179
		c-0.63,0.973-1.692,1.639-3.385,2.089c-0.054-0.18-0.306-0.504-0.468-0.666c3.042-0.738,3.763-2.143,3.961-4.988h0.828
		c-0.09,1.188-0.252,2.125-0.594,2.935c1.333,0.63,3.007,1.548,3.89,2.179L205.082,184.084z M199.446,181.636
		c-0.288-0.522-0.828-1.422-1.296-2.088l0.612-0.288c0.468,0.63,1.026,1.494,1.296,2.017L199.446,181.636z M200.905,191.071
		c0.955,0.468,2.179,1.17,2.809,1.656l-0.558,0.54c-0.63-0.486-1.837-1.224-2.809-1.71L200.905,191.071z M205.496,179.583
		c-0.558,0.702-1.26,1.44-1.8,1.908l-0.576-0.288c0.54-0.54,1.242-1.422,1.639-1.962L205.496,179.583z"/>
</g>
<g id="XMLID_19_">
</g>
<g id="XMLID_325_">
</g>
<g id="XMLID_326_">
</g>
<g id="XMLID_327_">
</g>
<g id="XMLID_328_">
</g>
<g id="XMLID_329_">
</g>
<g id="XMLID_330_">
</g>
<g id="XMLID_331_">
</g>
<g id="XMLID_332_">
</g>
<g id="XMLID_333_">
</g>
<g id="XMLID_334_">
</g>
<g id="XMLID_335_">
</g>
<g id="XMLID_336_">
</g>
<g id="XMLID_337_">
</g>
<g id="XMLID_338_">
</g>
</svg>
