<?xml version="1.0" encoding="iso-8859-1"?>
<!-- Generator: Adobe Illustrator 19.0.0, SVG Export Plug-In . SVG Version: 6.00 Build 0)  -->
<svg version="1.2" baseProfile="tiny" id="&#x5716;&#x5C64;_1"
	 xmlns="http://www.w3.org/2000/svg" xmlns:xlink="http://www.w3.org/1999/xlink" x="0px" y="0px" viewBox="-66 304.8 387 156"
	 xml:space="preserve">
<g>
	<g id="XMLID_144_">
		<path id="XMLID_150_" fill="#E5E5E5" d="M-43.7,414.8v-40.2c0-0.5,0.4-0.9,0.9-0.9h3.7c0.5,0,0.9,0.4,0.9,0.9v40.2
			c0,0.5-0.4,0.9-0.9,0.9h-3.7C-43.4,415.6-43.7,415.3-43.7,414.8z"/>
		<path id="XMLID_156_" fill="#E5E5E5" d="M93.7,373.7h3.7c0.5,0,0.9,0.4,0.9,0.9v30.6c0,4,1.3,6,4,6c1.2,0,2.1-0.5,2.8-1.5
			s1.1-2.4,1.1-4.2v-30.9c0-0.5,0.4-0.9,0.9-0.9h3.7c0.5,0,0.9,0.4,0.9,0.9v30.3c0,3.7-0.9,6.5-2.8,8.4c-1.9,1.9-4,2.9-6.6,2.9
			c-2.7,0-4.9-1-6.7-3s-2.7-4.6-2.7-7.9v-30.7C92.8,374.1,93.2,373.7,93.7,373.7z"/>
		<path id="XMLID_160_" fill="#E5E5E5" d="M194.9,414.8v-40.2c0-0.5,0.4-0.9,0.9-0.9h3.7c0.5,0,0.9,0.4,0.9,0.9v40.2
			c0,0.5-0.4,0.9-0.9,0.9h-3.7C195.3,415.6,194.9,415.3,194.9,414.8z"/>
		<path id="XMLID_162_" fill="#E5E5E5" d="M245.4,416.2c-3.3,0-6-1.9-8.1-5.7s-3.1-9.1-3.1-15.8c0-6.3,1-11.5,3-15.5s4.7-6,8.3-6
			c3.4,0,6.2,2,8.2,6s3,9.2,3,15.5c0,6.7-1.1,12-3.2,15.8C251.2,414.3,248.6,416.2,245.4,416.2z M245.3,378.2
			c-1.8,0-3.1,1.5-4.1,4.4c-0.9,2.9-1.4,7-1.4,12.1c0,5.3,0.5,9.4,1.5,12.2s2.4,4.3,4.2,4.3c1.7,0,3.1-1.4,4.1-4.3s1.5-6.9,1.5-12.1
			c0-5.3-0.5-9.3-1.5-12.2C248.5,379.6,247.1,378.2,245.3,378.2z"/>
		<path id="XMLID_165_" fill="#E5E5E5" d="M293.9,387.4l5.2-12.9c0.1-0.3,0.4-0.5,0.8-0.5h3.2c0.5,0,0.9,0.4,0.9,0.9v40.2
			c0,0.5-0.4,0.9-0.9,0.9h-3.5c-0.5,0-0.9-0.4-0.9-0.9l0.3-29.4l-0.2-0.1l-5.3,13.8h-1l-5.1-13.9l-0.2,0.1l0.3,29.4
			c0,0.5-0.4,0.9-0.9,0.9h-3.5c-0.5,0-0.9-0.4-0.9-0.9v-40.2c0-0.5,0.4-0.9,0.9-0.9h3.2c0.4,0,0.7,0.2,0.8,0.5l5.2,12.9
			C292.6,388.1,293.6,388.1,293.9,387.4z"/>
		<path id="XMLID_167_" fill="#E5E5E5" d="M12.1,410.3H6.8c-0.5,0-0.9-0.4-0.9-0.9v-34.6c0-0.5-0.4-0.9-0.9-0.9H1.1
			c-0.5,0-0.9,0.4-0.9,0.9V415c0,0.5,0.4,0.9,0.9,0.9h10.8c0.5,0,0.9-0.4,0.9-0.9v-3.9C13,410.7,12.6,410.3,12.1,410.3z"/>
		<path id="XMLID_145_" fill="#E5E5E5" d="M59.8,410.3h-5.3c-0.5,0-0.9-0.4-0.9-0.9v-34.6c0-0.5-0.4-0.9-0.9-0.9h-3.9
			c-0.5,0-0.9,0.4-0.9,0.9V415c0,0.5,0.4,0.9,0.9,0.9h10.8c0.5,0,0.9-0.4,0.9-0.9v-3.9C60.7,410.7,60.3,410.3,59.8,410.3z"/>
		<path id="XMLID_154_" fill="#E5E5E5" d="M152.3,393.1c-2-3.6-3.2-6.2-3.6-7.5c-0.5-1.4-0.7-2.5-0.7-3.5c0-2.7,1.5-3.9,4.2-3.9h3.1
			c0.5,0,0.9-0.4,0.9-0.9v-2.2c0-0.3-0.2-0.7-0.5-0.8c-1.3-0.6-2.9-1.2-4.2-1.2c-2.5,0-4.6,0.9-6.2,2.7c-1.6,1.8-2.4,4.1-2.4,6.9
			c0,1.5,0.3,3.1,0.9,5c0.6,1.9,1.9,4.7,3.8,8.4c2,3.7,3.2,6.2,3.6,7.6c0.5,1.4,0.7,2.5,0.7,3.5c0,1.1-0.4,2.3-1.2,3.1
			c-0.8,0.8-1.8,1.4-2.9,1.4h-3.3c-0.5,0-0.9,0.4-0.9,0.9v1.5c0,0.3,0.1,0.6,0.4,0.7c1.3,0.9,3,1.4,4.7,1.4c2.6,0,4.5-0.9,6.1-2.7
			c1.6-1.8,2.3-4.1,2.3-7c0-1.5-0.4-3.2-0.9-5.1C155.5,399.6,154.2,396.8,152.3,393.1z"/>
	</g>
	<g id="XMLID_5_">
		<path id="XMLID_38_" fill="#E5E5E5" d="M17.2,449.9v0.2h-5.1c0-1.3,1.3-2.1,2.4-2.9c1.2-0.8,2.3-1.6,2.3-2.8s-0.9-1.8-2.1-1.8
			c-1.6,0-2.2,1-2.2,2.4h-0.2c0-1.7,0.8-2.6,2.4-2.6c1.3,0,2.3,0.7,2.3,2c0,2.5-4.5,3.5-4.7,5.5L17.2,449.9L17.2,449.9z"/>
		<path id="XMLID_40_" fill="#E5E5E5" d="M34.2,450.2c-2.2,0-2.9-2-2.9-3.9s0.7-3.9,2.9-3.9s2.9,2,2.9,3.9S36.4,450.2,34.2,450.2z
			 M34.2,442.6c-2.1,0-2.6,2-2.6,3.7s0.6,3.7,2.6,3.7c2.1,0,2.6-2,2.6-3.7C36.9,444.6,36.3,442.6,34.2,442.6z"/>
		<path id="XMLID_43_" fill="#E5E5E5" d="M54.1,442.8L54.1,442.8c-0.5,0.6-1.3,1.1-2,1.3v-0.2c0.9-0.3,1.4-0.7,2-1.4h0.2v7.6h-0.2
			V442.8L54.1,442.8z"/>
		<path id="XMLID_45_" fill="#E5E5E5" d="M75.8,444.3c-0.3-1.4-1.4-1.7-2.1-1.7c-2.3,0-2.7,2.6-2.6,4.3l0,0c0.2-1.1,1.3-1.9,2.5-1.9
			c1.3,0,2.6,1.1,2.6,2.6s-1.2,2.6-2.6,2.6c-1,0-1.8-0.6-2.2-1.2c-0.4-0.7-0.5-1.5-0.5-2.5c0-1.9,0.6-4.1,2.9-4.1
			c1.3,0,2.2,0.8,2.3,1.9L75.8,444.3L75.8,444.3z M73.5,445.2c-1.3,0-2.4,1.1-2.4,2.4s1.1,2.4,2.4,2.4s2.4-1.1,2.4-2.4
			S74.8,445.2,73.5,445.2z"/>
		<path id="XMLID_48_" fill="#E5E5E5" d="M107.1,442.1h0.2v8h-0.2V442.1z"/>
		<path id="XMLID_52_" fill="#E5E5E5" d="M129,442.1h0.4v8h-0.2v-7.7l0,0l-3.4,7.7h-0.2l-3.4-7.7l0,0v7.7H122v-8h0.4l3.4,7.7l0,0
			L129,442.1z"/>
		<path id="XMLID_72_" fill="#E5E5E5" d="M160.5,442.1h0.3l5.4,7.7l0,0v-7.7h0.2v8h-0.3l-5.4-7.7l0,0v7.7h-0.2V442.1L160.5,442.1z"
			/>
		<path id="XMLID_74_" fill="#E5E5E5" d="M181.2,442.1h0.2v8h-0.2V442.1z"/>
		<path id="XMLID_76_" fill="#E5E5E5" d="M199.6,446.6v-0.2h3.3v3.7h-0.2v-2l0,0c-0.4,1.3-1.6,2.2-3.2,2.2c-2.5,0-3.7-1.9-3.7-4.2
			s1.4-4.2,3.7-4.2c1.8,0,3,1,3.3,2.7h-0.2c-0.3-1.5-1.4-2.5-3.1-2.5c-2.2,0-3.5,1.8-3.5,4s1.2,4,3.5,4c1.8,0,3.2-1.3,3.2-3.1v-0.4
			H199.6L199.6,446.6z"/>
		<path id="XMLID_88_" fill="#E5E5E5" d="M217.7,446.1v4h-0.2v-8h0.2v3.7h5.6v-3.7h0.2v8h-0.2v-4H217.7z"/>
		<path id="XMLID_90_" fill="#E5E5E5" d="M237.3,442.4v-0.2h6v0.2h-2.9v7.7h-0.2v-7.7H237.3z"/>
	</g>
</g>
</svg>
