<?xml version="1.0" encoding="iso-8859-1"?>
<!-- Generator: Adobe Illustrator 19.0.0, SVG Export Plug-In . SVG Version: 6.00 Build 0)  -->
<svg version="1.2" baseProfile="tiny" id="&#x5716;&#x5C64;_1"
	 xmlns="http://www.w3.org/2000/svg" xmlns:xlink="http://www.w3.org/1999/xlink" x="0px" y="0px" viewBox="0 0 521.041 282.337"
	 xml:space="preserve">
<path id="XMLID_7_" fill="#E8E8E8" d="M36.781,217.57l-9.245-26.878c-1.3-3.778-1.957-7.666-1.957-11.57V49.308h11.202V217.57z"/>
<g id="XMLID_6_">
	<path id="XMLID_204_" fill="#EFEFEF" d="M81.526,54.689c1.226,0,2.43,0.179,3.614,0.536c1.183,0.357,2.235,0.916,3.154,1.673
		c0.919,0.758,1.664,1.724,2.234,2.898s0.855,2.588,0.855,4.24c0,1.362-0.217,2.63-0.651,3.805c-0.435,1.175-1.018,2.298-1.75,3.371
		c-0.732,1.073-1.58,2.124-2.541,3.154c-0.962,1.03-1.971,2.082-3.026,3.154L70.8,90.393c0.358-0.034,0.771-0.06,1.239-0.077
		s0.992-0.026,1.571-0.026H92.1c0.17,0,0.255,0.085,0.255,0.255v0.307H69.983v-0.204c0-0.103,0.025-0.188,0.077-0.255
		c0.051-0.068,0.093-0.119,0.127-0.153l12.872-13.076c1.056-1.073,2.052-2.12,2.988-3.141c0.936-1.021,1.753-2.06,2.452-3.116
		c0.698-1.056,1.251-2.146,1.66-3.269c0.409-1.124,0.613-2.324,0.613-3.601c0-1.549-0.264-2.882-0.792-3.997
		c-0.528-1.115-1.226-2.03-2.094-2.745c-0.869-0.715-1.856-1.243-2.963-1.583c-1.107-0.34-2.239-0.511-3.396-0.511
		c-1.328,0-2.55,0.204-3.665,0.613s-2.099,0.983-2.95,1.724c-0.852,0.741-1.554,1.622-2.107,2.644s-0.932,2.154-1.136,3.396
		c-0.051,0.273-0.188,0.409-0.409,0.409h-0.255c0.187-1.43,0.575-2.72,1.162-3.869s1.341-2.124,2.26-2.924
		c0.919-0.8,1.979-1.417,3.18-1.852C78.807,54.906,80.113,54.689,81.526,54.689z"/>
	<path id="XMLID_206_" fill="#EFEFEF" d="M104.153,90.341h8.683V57.243c0-0.238,0.008-0.481,0.025-0.728
		c0.017-0.247,0.042-0.489,0.077-0.728l-9.245,8.351c-0.085,0.085-0.17,0.128-0.255,0.128c-0.102,0-0.188-0.042-0.255-0.128
		l-0.153-0.204l10.063-9.041h0.357v35.448h8.479v0.511h-17.775V90.341z"/>
	<path id="XMLID_208_" fill="#EFEFEF" d="M152.881,72.975c0,3.133-0.336,5.845-1.009,8.134c-0.673,2.29-1.583,4.185-2.732,5.683
		c-1.149,1.498-2.495,2.609-4.035,3.333c-1.542,0.724-3.171,1.085-4.891,1.085s-3.35-0.361-4.891-1.085
		c-1.541-0.723-2.886-1.834-4.035-3.333s-2.06-3.393-2.732-5.683c-0.673-2.29-1.009-5.001-1.009-8.134
		c0-3.132,0.336-5.844,1.009-8.134c0.672-2.29,1.583-4.188,2.732-5.695s2.494-2.626,4.035-3.358s3.171-1.098,4.891-1.098
		s3.35,0.366,4.891,1.098c1.541,0.732,2.886,1.852,4.035,3.358c1.149,1.507,2.06,3.405,2.732,5.695
		C152.544,67.131,152.881,69.842,152.881,72.975z M152.217,72.975c0-3.064-0.319-5.712-0.958-7.942
		c-0.639-2.23-1.503-4.074-2.592-5.529c-1.09-1.456-2.362-2.537-3.818-3.244c-1.456-0.706-3-1.06-4.635-1.06
		c-1.634,0-3.184,0.354-4.648,1.06c-1.464,0.707-2.746,1.788-3.844,3.244s-1.966,3.299-2.605,5.529
		c-0.638,2.23-0.958,4.878-0.958,7.942c0,3.065,0.319,5.712,0.958,7.943c0.639,2.23,1.507,4.069,2.605,5.516
		c1.098,1.448,2.379,2.52,3.844,3.218c1.464,0.698,3.014,1.047,4.648,1.047c1.635,0,3.18-0.349,4.635-1.047
		c1.456-0.698,2.729-1.771,3.818-3.218c1.089-1.447,1.954-3.286,2.592-5.516C151.897,78.687,152.217,76.04,152.217,72.975z"/>
	<path id="XMLID_211_" fill="#EFEFEF" d="M182.506,72.975c0,3.133-0.336,5.845-1.009,8.134c-0.673,2.29-1.583,4.185-2.732,5.683
		c-1.149,1.498-2.495,2.609-4.035,3.333c-1.542,0.724-3.171,1.085-4.891,1.085s-3.35-0.361-4.891-1.085
		c-1.541-0.723-2.886-1.834-4.035-3.333s-2.06-3.393-2.732-5.683c-0.673-2.29-1.009-5.001-1.009-8.134
		c0-3.132,0.336-5.844,1.009-8.134c0.672-2.29,1.583-4.188,2.732-5.695s2.494-2.626,4.035-3.358s3.171-1.098,4.891-1.098
		s3.35,0.366,4.891,1.098c1.541,0.732,2.886,1.852,4.035,3.358c1.149,1.507,2.06,3.405,2.732,5.695
		C182.169,67.131,182.506,69.842,182.506,72.975z M181.842,72.975c0-3.064-0.319-5.712-0.958-7.942
		c-0.639-2.23-1.503-4.074-2.592-5.529c-1.09-1.456-2.362-2.537-3.818-3.244c-1.456-0.706-3-1.06-4.635-1.06
		c-1.634,0-3.184,0.354-4.648,1.06c-1.464,0.707-2.746,1.788-3.844,3.244s-1.966,3.299-2.605,5.529
		c-0.638,2.23-0.958,4.878-0.958,7.942c0,3.065,0.319,5.712,0.958,7.943c0.639,2.23,1.507,4.069,2.605,5.516
		c1.098,1.448,2.379,2.52,3.844,3.218c1.464,0.698,3.014,1.047,4.648,1.047c1.635,0,3.18-0.349,4.635-1.047
		c1.456-0.698,2.729-1.771,3.818-3.218c1.089-1.447,1.954-3.286,2.592-5.516C181.522,78.687,181.842,76.04,181.842,72.975z"/>
</g>
<g id="XMLID_5_">
	<path id="XMLID_32_" fill="#E2E2E2" d="M226.645,56.624h8.879l5.429,14.768c0.69,1.979,1.242,4.141,1.886,6.257h0.23
		c0.69-2.116,1.242-4.278,1.886-6.257l5.245-14.768h8.925v34.228h-7.499V79.12c0-3.404,0.644-8.511,1.058-11.869H252.5l-2.853,8.189
		l-4.601,12.513h-4.508l-4.646-12.513l-2.76-8.189h-0.184c0.414,3.358,1.058,8.465,1.058,11.869v11.731h-7.361V56.624z"/>
	<path id="XMLID_195_" fill="#E2E2E2" d="M271.816,56.624h8.695l3.911,15.596c1.012,3.681,1.656,7.223,2.668,10.949h0.23
		c0.966-3.726,1.702-7.269,2.668-10.949l3.865-15.596h8.373l-10.305,34.228h-9.845L271.816,56.624z"/>
	<path id="XMLID_197_" fill="#E2E2E2" d="M355.726,90.622h-6.764v4.508h-6.302v-4.508h-4.785v0.046h-6.072
		c0.828-2.162,1.794-4.969,2.622-7.775h-0.69v-2.346c-2.99,8.051-9.108,12.79-16.47,15.136c-0.644-1.334-2.438-3.681-3.588-4.692
		c2.668-0.69,5.106-1.656,7.269-2.944c-0.69-0.782-1.656-1.749-2.622-2.623c-0.782,0.598-1.564,1.15-2.393,1.61
		c-0.828-1.012-2.76-3.037-3.91-3.957c3.542-1.702,6.763-4.417,8.603-7.545h-7.729v-5.152h7.361v-2.163h-4.876v-5.245h4.876v-2.76
		c-1.012,0.828-2.116,1.61-3.267,2.393c-1.104-1.334-3.266-3.128-4.784-3.957c3.91-2.07,6.809-4.831,8.511-7.315l6.396,1.288
		c-0.322,0.506-0.69,0.966-1.013,1.426h26.499v4.876h-30.915c-0.368,0.368-0.783,0.69-1.197,1.058h6.027v2.99h1.702v-2.898h5.705
		v2.898h1.886v-2.898h5.705v2.898h1.794V59.89h6.395v3.082h4.003v5.245h-4.003v2.163h5.659v5.152h-31.605l2.53,0.69
		c-0.276,0.552-0.599,1.104-0.921,1.656h4.279l0.966-0.138l3.128,1.426v-1.334h8.926v-1.748h6.302v1.748h5.936v5.061h-5.936v2.806
		h6.764V90.622z M322.05,82.157l-0.047,0.046c1.013,0.828,2.116,1.794,2.944,2.622c0.782-0.828,1.427-1.702,2.024-2.668H322.05z
		 M326.512,70.379h1.702v-2.163h-1.702V70.379z M333.919,68.217v2.163h1.886v-2.163H333.919z M342.66,85.699v-2.806h-2.163
		c-0.321,0.966-0.598,1.886-0.92,2.806H342.66z M341.51,68.217v2.163h1.794v-2.163H341.51z"/>
</g>
<g id="XMLID_3_">
	<rect id="XMLID_193_" x="67.26" y="121.499" fill="none" width="432.802" height="118.501"/>
	<path id="XMLID_33_" fill="#E2E2E2" d="M79.313,126.14c-0.468,0.81-1.063,1.62-1.674,2.376v10.227h-0.829v-9.255
		c-0.774,0.864-1.603,1.657-2.395,2.287c-0.108-0.144-0.414-0.541-0.576-0.702c1.729-1.279,3.529-3.259,4.681-5.222L79.313,126.14z
		 M78.845,122.665c-1.008,1.477-2.683,3.115-4.249,4.177c-0.09-0.162-0.342-0.468-0.504-0.612c1.458-0.99,3.133-2.539,3.961-3.889
		L78.845,122.665z M85.399,122.593c-0.126,0.216-0.252,0.45-0.396,0.648c1.603,2.214,3.529,3.637,5.582,4.807
		c-0.216,0.162-0.468,0.433-0.576,0.685c-1.963-1.225-3.781-2.665-5.402-4.826c-1.368,1.927-3.277,3.691-5.222,4.826
		c-0.144-0.198-0.36-0.45-0.558-0.63c2.323-1.26,4.627-3.511,5.888-5.798L85.399,122.593z M82.122,133.504
		c-0.612,1.476-1.548,3.025-2.449,4.051c-0.18-0.144-0.54-0.36-0.738-0.468c0.955-0.973,1.837-2.413,2.377-3.799L82.122,133.504z
		 M85.165,132.136v5.366c0,0.612-0.162,0.864-0.594,1.008c-0.45,0.162-1.26,0.162-2.61,0.162c-0.036-0.252-0.162-0.576-0.306-0.829
		c1.134,0.036,2.035,0.036,2.287,0.018c0.288-0.018,0.36-0.108,0.36-0.342v-5.384h-4.969v-0.81h4.969v-2.647h-2.899v-0.792h6.986
		v0.792h-3.223v2.647h5.023v0.81H85.165z M87.758,133.234c1.044,1.17,2.161,2.755,2.647,3.817l-0.738,0.432
		c-0.486-1.063-1.566-2.701-2.593-3.889L87.758,133.234z"/>
	<path id="XMLID_40_" fill="#E2E2E2" d="M103.65,134.584c0,0-0.018,0.252-0.036,0.378c-0.216,2.089-0.396,2.935-0.738,3.241
		c-0.234,0.234-0.486,0.306-0.9,0.324c-0.378,0-1.117,0-1.891-0.054c-0.018-0.216-0.108-0.504-0.216-0.72
		c0.81,0.09,1.566,0.09,1.819,0.09c0.27,0,0.432,0,0.54-0.126c0.198-0.216,0.378-0.864,0.54-2.413h-2.917
		c-0.504,1.621-1.494,2.701-3.529,3.367c-0.09-0.18-0.342-0.468-0.504-0.594c1.801-0.576,2.737-1.477,3.205-2.773H96.43v-0.72h2.827
		c0.09-0.414,0.162-0.828,0.198-1.314h0.81c-0.054,0.468-0.126,0.9-0.216,1.314H103.65z M111.789,123.709v0.72h-7.4v1.332h6.212
		v0.72H97.42v-0.72h6.104v-1.332h-7.256v-0.72h7.256v-1.351h0.864v1.351H111.789z M107.611,130.983
		c-0.288,0.45-0.576,0.937-0.864,1.351h4.916v0.738H96.268v-0.738h5.023c-0.162-0.414-0.54-1.026-0.918-1.422l0.504-0.162h-2.646
		v-3.115h11.685v3.115h-3.042L107.611,130.983z M99.059,130.065h10.011v-1.729H99.059V130.065z M101.166,130.75
		c0.432,0.396,0.811,0.936,0.937,1.332l-0.702,0.252h4.429c0.324-0.486,0.702-1.134,0.918-1.584H101.166z M104.929,134.116h6.014
		v4.448h-0.828v-0.594h-4.393v0.666h-0.792V134.116z M105.721,134.836v2.413h4.393v-2.413H105.721z"/>
	<path id="XMLID_48_" fill="#E2E2E2" d="M123,134.909c-1.908,0.612-3.907,1.26-5.401,1.729l-0.216-0.846
		c0.684-0.198,1.548-0.45,2.484-0.738v-5.348h-2.161v-0.81h2.161v-4.394h-2.305v-0.828h5.474v0.828h-2.358v4.394h1.926v0.81h-1.926
		v5.096c0.72-0.216,1.458-0.468,2.196-0.703L123,134.909z M127.231,135.179c-0.882,1.224-2.269,2.539-3.673,3.457
		c-0.126-0.162-0.378-0.396-0.594-0.54c1.368-0.882,2.755-2.197,3.493-3.313L127.231,135.179z M133.767,133.342v0.792h-10.533
		v-0.792h2.232v-7.544h-1.873v-0.792h1.873v-2.665h0.829v2.665h4.573v-2.665h0.846v2.665h1.729v0.792h-1.729v7.544H133.767z
		 M126.295,125.798v1.98h4.573v-1.98H126.295z M126.295,130.533h4.573v-2.017h-4.573V130.533z M126.295,133.342h4.573v-2.053h-4.573
		V133.342z M130.436,134.783c1.242,0.972,2.646,2.358,3.331,3.295l-0.72,0.522c-0.63-0.954-2.017-2.358-3.259-3.367L130.436,134.783
		z"/>
	<path id="XMLID_56_" fill="#E2E2E2" d="M153.582,131.793c-0.414-0.684-1.621-2.196-2.431-3.169v10.011h-0.846v-9.813
		c-0.846,2.449-2.125,4.934-3.331,6.338c-0.126-0.234-0.378-0.558-0.541-0.756c1.405-1.548,2.935-4.573,3.673-7.274h-3.241v-0.828
		h3.439v-3.961h0.846v3.961h2.683v0.828h-2.683v0.432c0.558,0.594,2.593,2.899,3.061,3.475L153.582,131.793z M159.307,127.13
		c0.828,3.079,2.287,6.23,3.799,7.796c-0.198,0.162-0.504,0.468-0.684,0.684c-1.297-1.513-2.557-4.159-3.421-6.896v9.921h-0.864
		v-9.831c-0.99,2.809-2.502,5.564-4.033,7.094c-0.144-0.252-0.396-0.558-0.576-0.756c1.729-1.692,3.511-4.916,4.357-8.012h-3.133
		v-0.828h3.385v-3.961h0.864v3.961h3.565v0.828H159.307z"/>
	<path id="XMLID_59_" fill="#E2E2E2" d="M169.042,130.965h6.104v7.508h-0.864v-0.846h-4.411v1.026h-0.829V130.965z M169.87,131.793
		v5.006h4.411v-5.006H169.87z M181.159,128.805h-9.417v-5.671h9.417V128.805z M180.295,123.979h-7.706v3.997h7.706V123.979z
		 M183.896,130.965v7.563h-0.846v-0.9h-4.825v1.026h-0.846v-7.688H183.896z M183.05,136.799v-5.006h-4.825v5.006H183.05z"/>
	<path id="XMLID_66_" fill="#E2E2E2" d="M195.053,134.063l0.09,0.828c-1.818,0.612-3.745,1.26-5.186,1.747l-0.198-0.846
		c0.666-0.198,1.512-0.486,2.449-0.792v-5.293h-1.963v-0.81h1.963v-4.394h-2.251v-0.828h5.114v0.828h-2.089v4.394h1.71v0.81h-1.71
		v5.06L195.053,134.063z M201.355,128.301c-0.09,0.198-0.216,0.414-0.342,0.612c1.206,1.549,3.421,3.223,5.186,4.124
		c-0.18,0.162-0.396,0.504-0.468,0.702c-0.414-0.252-0.846-0.522-1.296-0.828v5.654h-0.846v-0.576h-5.474v0.666h-0.829v-5.78
		c-0.522,0.36-1.08,0.738-1.638,1.063c-0.144-0.162-0.414-0.432-0.612-0.558c2.431-1.333,4.465-3.295,5.474-5.33L201.355,128.301z
		 M199.519,126.734c-0.774,1.206-1.945,2.466-2.971,3.295c-0.144-0.144-0.45-0.432-0.666-0.558c1.081-0.774,2.143-1.891,2.827-2.971
		L199.519,126.734z M196.728,127.238h-0.81v-2.881h4.843c-0.216-0.576-0.594-1.314-0.936-1.873l0.738-0.234
		c0.414,0.666,0.882,1.53,1.098,2.106h3.907v2.881h-0.81v-2.125h-8.031V127.238z M204.236,132.784
		c-1.314-0.937-2.701-2.107-3.637-3.241c-0.846,1.207-1.944,2.287-3.205,3.241H204.236z M203.588,137.213v-3.655h-5.474v3.655
		H203.588z M202.471,126.356c1.081,0.973,2.413,2.305,3.061,3.169l-0.648,0.45c-0.612-0.864-1.945-2.25-3.043-3.241L202.471,126.356
		z"/>
	<path id="XMLID_74_" fill="#E2E2E2" d="M225.149,136.385c-1.44,0.9-3.691,1.8-5.492,2.305c-0.144-0.162-0.432-0.468-0.612-0.648
		c1.818-0.486,4.105-1.368,5.257-2.125L225.149,136.385z M235.178,128.769h-15.953v-0.774h15.953V128.769z M223.564,124.609h-3.493
		v-0.738h3.493v-1.549h0.846v1.549h5.618v-1.549h0.864v1.549h3.529v0.738h-3.529v2.287h-7.328V124.609z M221.313,135.629v-5.798
		h11.956v5.798H221.313z M222.16,132.37h4.574v-1.836h-4.574V132.37z M222.16,134.909h4.574v-1.854h-4.574V134.909z
		 M224.411,124.609v1.567h5.618v-1.567H224.411z M232.405,130.533h-4.825v1.836h4.825V130.533z M232.405,133.054h-4.825v1.854h4.825
		V133.054z M229.92,135.917c1.98,0.63,4.087,1.458,5.419,2.088l-0.738,0.648c-1.224-0.648-3.259-1.477-5.257-2.161L229.92,135.917z"
		/>
	<path id="XMLID_85_" fill="#E2E2E2" d="M245.272,122.467c-0.162,0.738-0.342,1.422-0.558,2.089h5.492v0.81h-5.762
		c-0.288,0.774-0.576,1.513-0.937,2.197h5.618v9.885c0,0.541-0.126,0.792-0.522,0.937s-1.117,0.144-2.377,0.144
		c-0.036-0.216-0.162-0.54-0.288-0.756c0.972,0.018,1.819,0.018,2.053,0s0.324-0.072,0.324-0.306v-3.115h-4.808
		c-0.072,1.476-0.378,3.115-1.314,4.321c-0.108-0.198-0.414-0.522-0.612-0.612c1.044-1.369,1.152-3.241,1.152-4.808v-4.321
		c-0.468,0.774-1.026,1.44-1.603,2.035c-0.126-0.144-0.432-0.486-0.612-0.666c1.296-1.242,2.323-2.953,3.061-4.934h-2.791v-0.81
		h3.079c0.216-0.72,0.432-1.458,0.594-2.233L245.272,122.467z M243.544,128.354v2.197h4.771v-2.197H243.544z M248.315,133.576v-2.25
		h-4.771v1.926v0.324H248.315z M256.796,123.799c-0.792,1.692-1.836,3.763-2.791,5.456c2.053,1.729,2.611,3.169,2.629,4.52
		c0,0.936-0.234,1.764-0.828,2.125c-0.306,0.198-0.684,0.324-1.152,0.36c-0.486,0.054-1.117,0.054-1.657,0.018
		c-0.018-0.234-0.108-0.576-0.27-0.828c0.63,0.072,1.243,0.072,1.674,0.036c0.324-0.018,0.612-0.09,0.864-0.234
		c0.433-0.252,0.576-0.846,0.559-1.53c0-1.242-0.612-2.629-2.719-4.339c0.954-1.674,1.872-3.655,2.539-5.131h-3.835v14.422h-0.828
		v-15.25h5.114l0.126-0.036L256.796,123.799z"/>
	<path id="XMLID_90_" fill="#E2E2E2" d="M268.979,134.765c-1.404,1.584-3.997,3.043-6.14,3.727c-0.144-0.234-0.378-0.558-0.594-0.72
		c2.125-0.594,4.681-1.909,5.996-3.331L268.979,134.765z M270.816,133.846v4.826h-0.882v-4.826h-7.311v-0.81h7.311v-1.873h-4.339
		v-3.727h9.633v3.727h-4.411v1.873h7.436v0.81H270.816z M263.902,128.535h-0.829v-3.421h6.842v-2.773h0.864v2.773h2.935
		c0.559-0.756,1.261-1.909,1.657-2.701l0.846,0.36c-0.468,0.774-1.063,1.657-1.566,2.341h3.205v3.421h-0.847v-2.629h-13.107V128.535
		z M266.134,125.078c-0.288-0.594-0.954-1.548-1.53-2.215l0.756-0.324c0.63,0.666,1.278,1.566,1.584,2.143L266.134,125.078z
		 M266.422,130.425h7.958v-2.25h-7.958V130.425z M272.598,134.369c1.98,1.008,4.483,2.521,5.726,3.529l-0.558,0.684
		c-1.242-1.062-3.727-2.593-5.726-3.637L272.598,134.369z"/>
	<path id="XMLID_97_" fill="#E2E2E2" d="M297.383,122.629c-1.207,1.765-3.421,3.223-5.438,4.141
		c-0.108-0.162-0.414-0.54-0.612-0.684c2.017-0.81,4.123-2.143,5.221-3.727L297.383,122.629z M298.589,137.375
		c0,0.558-0.126,0.81-0.54,0.954c-0.432,0.126-1.207,0.144-2.431,0.144c-0.054-0.234-0.144-0.54-0.288-0.774
		c1.044,0.018,1.854,0.018,2.106,0c0.27-0.018,0.324-0.09,0.324-0.306v-2.467c-2.035,0.774-4.159,1.566-5.726,2.143l-0.378-0.738
		c1.513-0.486,3.854-1.314,6.104-2.143v-3.223h-5.563v-0.792h6.392V137.375z M295.312,134.008c-0.522-0.576-1.548-1.386-2.395-1.891
		l0.612-0.432c0.846,0.504,1.89,1.278,2.395,1.801L295.312,134.008z M299.868,124.52c-1.314,1.278-2.683,2.449-4.051,3.331
		l6.806-0.468c-0.594-0.468-1.17-0.936-1.71-1.314l0.702-0.414c1.387,1.044,3.169,2.503,4.069,3.385l-0.684,0.468
		c-0.414-0.414-0.972-0.9-1.584-1.44c-7.94,0.541-8.661,0.612-9.093,0.774c-0.054-0.198-0.162-0.648-0.288-0.882
		c0.342-0.036,0.774-0.288,1.296-0.648c0.558-0.36,2.413-1.783,3.745-3.241L299.868,124.52z M302.478,122.395
		c1.117,1.656,3.439,3.151,5.384,3.871c-0.198,0.162-0.468,0.468-0.594,0.702c-1.873-0.792-4.015-2.215-5.275-3.835h-3.295v-0.738
		H302.478z M306.655,137.375c0,0.54-0.126,0.792-0.54,0.936c-0.45,0.144-1.242,0.144-2.467,0.144
		c-0.054-0.234-0.144-0.54-0.288-0.774c1.063,0.018,1.873,0.018,2.125,0c0.271-0.018,0.324-0.09,0.324-0.306v-2.467
		c-2.088,0.792-4.285,1.584-5.906,2.179l-0.378-0.738c1.548-0.504,3.943-1.351,6.284-2.161v-3.223h-5.815v-0.792h6.662V137.375z
		 M303.163,134.044c-0.504-0.576-1.531-1.404-2.359-1.909l0.612-0.432c0.846,0.522,1.873,1.314,2.376,1.854L303.163,134.044z"/>
	<path id="XMLID_105_" fill="#E2E2E2" d="M329.246,131.308h-7.581v6.032c0,0.738-0.216,1.008-0.792,1.17
		c-0.558,0.144-1.657,0.162-3.439,0.162c-0.072-0.27-0.234-0.612-0.396-0.9c1.566,0.054,2.881,0.036,3.277,0.018
		c0.36-0.018,0.468-0.108,0.468-0.45v-6.032h-7.616v-0.846h7.616v-2.683c1.693-0.774,3.746-2.07,5.132-3.259h-10.93v-0.846h11.848
		l0.216-0.054l0.63,0.468c-1.566,1.53-3.997,3.151-6.014,4.159v2.215h7.581V131.308z"/>
	<path id="XMLID_107_" fill="#E2E2E2" d="M340.961,129.093c-0.45,0.594-1.045,1.225-1.53,1.71c0.647,0.738,1.314,1.513,1.566,1.819
		l-0.576,0.648c-0.378-0.558-1.369-1.8-2.106-2.665v7.922h-0.864v-7.49c-0.757,0.99-1.585,1.854-2.359,2.521
		c-0.126-0.216-0.396-0.594-0.558-0.72c1.854-1.476,3.835-4.087,4.861-6.716h-4.483v-0.828h4.879l0.181-0.054l0.504,0.324
		c-0.504,1.44-1.225,2.863-2.053,4.123c0.162,0.18,0.36,0.396,0.576,0.63c0.486-0.486,1.026-1.188,1.351-1.675L340.961,129.093z
		 M337.738,124.879c-0.145-0.63-0.541-1.638-0.864-2.395l0.737-0.216c0.36,0.756,0.738,1.729,0.919,2.376L337.738,124.879z
		 M346.795,122.593c-0.126,0.288-0.288,0.558-0.45,0.829c1.062,1.674,2.988,3.439,4.699,4.375c-0.181,0.234-0.378,0.594-0.486,0.846
		c-1.675-1.062-3.511-2.827-4.682-4.501c-1.224,1.854-2.826,3.493-4.429,4.609c-0.055-0.18-0.271-0.648-0.414-0.846
		c1.944-1.279,3.907-3.331,5.06-5.636L346.795,122.593z M349.297,131.542l0.612,0.198c-0.72,1.836-1.962,4.771-2.971,6.968
		l-0.864-0.216c0.9-1.854,1.98-4.411,2.646-6.05h-6.59v-0.846h7.004L349.297,131.542z M348.721,128.193v0.81h-5.312v-0.81H348.721z"
		/>
	<path id="XMLID_113_" fill="#E2E2E2" d="M371.507,125.762c-1.836,1.657-4.735,3.079-7.076,3.799
		c-0.126-0.198-0.36-0.522-0.54-0.702c2.431-0.648,5.365-2.071,7.076-3.619h-6.608v-0.792h7.148v-2.107h0.864v2.107h7.274v0.792
		h-7.274v0.234c2.557,0.991,5.744,2.413,7.437,3.367l-0.433,0.702c-1.584-0.918-4.519-2.287-7.004-3.295v3.349h-0.864V125.762z
		 M379.934,134.314h-7.58v3.187c0,0.576-0.145,0.81-0.631,0.972c-0.504,0.144-1.314,0.144-2.826,0.144
		c-0.072-0.234-0.252-0.558-0.414-0.792c1.296,0.036,2.341,0.036,2.629,0c0.323-0.018,0.396-0.09,0.396-0.324v-3.187h-7.472v-0.81
		h7.472v-1.026c1.225-0.378,2.539-1.026,3.511-1.657h-7.832v-0.792h8.877l0.198-0.054l0.576,0.468
		c-1.152,0.954-2.881,1.854-4.483,2.467v0.594h7.58V134.314z"/>
	<path id="XMLID_116_" fill="#E2E2E2" d="M387.651,130.299c-0.054,2.646-0.396,5.96-1.71,8.373
		c-0.127-0.144-0.486-0.396-0.667-0.486c1.44-2.647,1.566-6.302,1.566-8.985v-5.545h7.131c-0.126-0.414-0.307-0.882-0.486-1.26
		l0.811-0.162c0.216,0.432,0.468,0.99,0.611,1.422h6.555v0.738h-5.204v1.333h4.394v2.898H387.67v0.576v0.433h13.396l0.145-0.054
		l0.576,0.198c-0.433,0.756-0.9,1.603-1.314,2.161l-0.702-0.234c0.288-0.378,0.594-0.882,0.864-1.404h-7.112
		c0.702,0.378,1.548,0.864,2.017,1.206l-0.45,0.559c-0.54-0.36-1.53-0.99-2.251-1.369l0.36-0.396H387.651z M398.923,134.44
		c-0.864,0.972-2.143,1.765-3.637,2.413c1.818,0.504,3.835,0.864,5.924,1.026c-0.181,0.18-0.396,0.522-0.486,0.774
		c-2.305-0.252-4.573-0.702-6.572-1.387c-1.98,0.685-4.231,1.135-6.302,1.405c-0.072-0.216-0.271-0.522-0.414-0.72
		c1.872-0.18,3.871-0.54,5.672-1.063c-1.009-0.414-1.927-0.882-2.719-1.458c-0.721,0.414-1.531,0.792-2.413,1.152
		c-0.09-0.18-0.342-0.414-0.54-0.522c0.864-0.324,1.656-0.684,2.358-1.063c-0.414-0.342-0.792-0.684-1.099-1.08l0.721-0.324
		c0.306,0.342,0.666,0.684,1.08,0.99c0.738-0.45,1.351-0.918,1.801-1.368c-0.973-0.054-1.242-0.271-1.242-1.063v-1.296h0.756v1.296
		c0,0.36,0.145,0.414,0.973,0.414h3.114c0.541,0,0.648-0.108,0.703-1.026c0.197,0.108,0.449,0.198,0.684,0.252
		c-0.072,1.135-0.342,1.423-1.278,1.423h-2.683c-0.271,0.306-0.595,0.594-0.937,0.882h5.815l0.162-0.036L398.923,134.44z
		 M387.67,124.394v1.333h3.475v-1.333H387.67z M387.67,127.958h3.475v-1.566h-3.475V127.958z M388.155,132.874
		c0.612-0.558,1.261-1.512,1.692-2.143l0.631,0.36c-0.469,0.667-1.08,1.603-1.675,2.215L388.155,132.874z M391.486,134.765
		c-0.126,0.09-0.252,0.18-0.396,0.252c0.9,0.594,1.962,1.081,3.133,1.495c1.314-0.468,2.448-1.044,3.276-1.747H391.486z
		 M395.466,124.394h-3.511v1.333h3.511V124.394z M391.955,127.958h3.511v-1.566h-3.511V127.958z M396.258,126.392v1.566h3.583
		v-1.566H396.258z M397.734,130.677c0.774,0.648,1.765,1.549,2.287,2.107l-0.576,0.45c-0.505-0.558-1.495-1.512-2.269-2.196
		L397.734,130.677z"/>
	<path id="XMLID_127_" fill="#E2E2E2" d="M423.007,128.769v0.828h-9.723c-1.368,3.295-3.187,6.05-5.51,8.03
		c-0.144-0.18-0.521-0.486-0.738-0.612c2.251-1.782,4.016-4.375,5.294-7.418h-4.97v-0.828h5.33c0.342-0.882,0.63-1.783,0.9-2.719
		l0.864,0.198c-0.253,0.864-0.522,1.71-0.847,2.521H423.007z M408.513,127.617h-0.846v-3.151h7.616
		c-0.217-0.54-0.612-1.368-1.009-2.017l0.847-0.216c0.414,0.612,0.864,1.477,1.08,2.017l-0.612,0.216h7.148v3.151h-0.864v-2.341
		h-13.36V127.617z M418.794,133.45c1.242,1.495,2.791,3.529,3.511,4.717l-0.72,0.504c-0.234-0.432-0.576-0.937-0.973-1.513
		c-7.634,0.811-8.354,0.882-8.805,1.081c-0.054-0.198-0.198-0.612-0.306-0.864c0.324-0.054,0.72-0.522,1.188-1.17
		c0.504-0.648,2.16-3.097,3.223-5.419l0.882,0.324c-1.134,2.197-2.484,4.375-3.799,6.032l7.112-0.702
		c-0.63-0.882-1.351-1.818-1.999-2.611L418.794,133.45z"/>
	<path id="XMLID_131_" fill="#E2E2E2" d="M441.544,131.271c0,0-0.019,0.306-0.036,0.45c-0.216,4.393-0.433,5.942-0.918,6.482
		c-0.271,0.288-0.54,0.378-1.063,0.414c-0.414,0.018-1.314,0-2.197-0.054c-0.018-0.271-0.107-0.594-0.27-0.847
		c0.954,0.09,1.872,0.108,2.196,0.108s0.486-0.036,0.648-0.198c0.342-0.36,0.559-1.783,0.756-5.563h-3.853
		c0.107-1.243,0.18-3.313,0.18-4.844h3.709v-3.187h-4.159v-0.81h4.987v4.808h-3.763c-0.018,1.098-0.054,2.287-0.108,3.241H441.544z
		 M451.645,132.748c-0.774,0.756-1.782,1.584-2.629,2.179c1.081,1.206,2.359,2.179,3.655,2.755c-0.198,0.162-0.45,0.468-0.594,0.684
		c-2.539-1.26-4.861-3.943-6.122-6.86h-1.801v5.87l3.259-1.134c0.019,0.216,0.055,0.54,0.108,0.72
		c-3.475,1.296-3.907,1.512-4.195,1.746c-0.054-0.216-0.252-0.612-0.378-0.81c0.18-0.09,0.378-0.216,0.378-0.846v-5.546h-1.26
		v-0.792h1.71v-7.472h8.192v0.756h-7.346v1.729h6.68v0.72h-6.68v1.729h6.697v0.738h-6.697v1.801h7.724v0.792h-5.563
		c0.45,1.026,1.063,2.017,1.801,2.899c0.811-0.63,1.801-1.548,2.413-2.196L451.645,132.748z"/>
	<path id="XMLID_134_" fill="#E2E2E2" d="M464.801,132.244c-1.099,1.837-2.341,3.655-3.583,5.023l9.921-0.54
		c-0.919-1.062-2.035-2.161-3.079-3.061l0.72-0.415c1.801,1.477,3.817,3.619,4.699,5.114l-0.773,0.486
		c-0.234-0.396-0.559-0.882-0.955-1.369c-10.299,0.63-11.163,0.684-11.721,0.882c-0.055-0.198-0.198-0.648-0.307-0.9
		c0.307-0.072,0.666-0.468,1.135-1.026c0.432-0.486,1.854-2.323,2.845-4.195h-5.726v-0.828h16.007v0.828H464.801z M462.334,125.078
		h-4.178v-0.81h4.178v-1.927h0.846v1.927h2.413v0.81h-2.413v1.783h-0.846V125.078z M459.885,127.887h12.262v0.81h-12.262V127.887z
		 M468.6,125.078h-2.287v-0.81h2.287v-1.927h0.864v1.927h4.285v0.81h-4.285v1.783H468.6V125.078z"/>
	<path id="XMLID_139_" fill="#E2E2E2" d="M485.176,134.765c-1.98,0.666-4.051,1.35-5.563,1.873l-0.216-0.846
		c0.666-0.198,1.513-0.468,2.431-0.756v-5.33H479.9v-0.81h1.927v-4.394h-2.215v-0.828h5.006v0.828h-2.017v4.394h1.818v0.81h-1.818
		v5.06c0.792-0.252,1.639-0.522,2.467-0.81L485.176,134.765z M495.602,137.321v0.792h-10.659v-0.792H495.602z M486.131,127.167
		h-0.811v-2.701h4.573c-0.108-0.576-0.378-1.368-0.685-1.999l0.738-0.216c0.36,0.684,0.685,1.566,0.757,2.125l-0.252,0.09h4.627
		v2.701h-0.828v-1.945h-8.12V127.167z M486.473,129.291h7.563v6.248h-7.563V129.291z M493.621,126.986v0.738h-6.86v-0.738H493.621z
		 M487.283,132.046h5.923v-2.035h-5.923V132.046z M487.283,134.819h5.923v-2.071h-5.923V134.819z"/>
	<path id="XMLID_147_" fill="#E2E2E2" d="M79.728,160.892c-0.072,0.486-0.144,0.918-0.252,1.333h4.771v0.702h-4.97
		c-0.666,1.8-1.944,3.007-4.555,3.709c-0.09-0.18-0.324-0.504-0.486-0.63c2.359-0.594,3.547-1.62,4.159-3.079h-4.051v-0.702h4.286
		c0.126-0.415,0.198-0.846,0.27-1.333h-3.637v-6.986h2.719v-1.224h-3.457v-0.72h2.953c-0.271-0.432-0.612-0.882-0.918-1.278
		l0.648-0.288c0.396,0.468,0.864,1.098,1.152,1.566h2.125c0.396-0.522,0.828-1.17,1.098-1.621l0.72,0.306
		c-0.288,0.45-0.648,0.9-0.972,1.314h2.881v0.72h-3.385v1.224h2.719v6.986H79.728z M76,160.226h6.788v-2.755h-0.072
		c-0.144,0.018-0.45,0.018-0.648,0.018h-0.846c-0.306,0-0.648-0.036-0.811-0.198c-0.198-0.144-0.252-0.36-0.252-1.17v-1.548h-1.513
		c0,1.188-0.342,2.521-2.106,3.457c-0.072-0.144-0.288-0.414-0.432-0.522c1.584-0.828,1.873-1.926,1.873-2.935H76V160.226z
		 M77.027,158.425h4.843v0.63h-4.843V158.425z M78.647,153.906h1.513v-1.224h-1.513V153.906z M79.944,163.179
		c1.278,0.774,2.898,1.909,3.745,2.575l-0.522,0.594c-0.864-0.72-2.485-1.891-3.745-2.647L79.944,163.179z M80.826,154.572v1.747
		c0,0.27,0.018,0.504,0.108,0.54c0.072,0.036,0.18,0.054,0.36,0.054h0.684h0.468h0.252c0.036-0.018,0.072-0.036,0.09-0.072v-2.269
		H80.826z M90.351,151.727c-0.648,1.603-1.548,3.655-2.358,5.384c1.729,1.747,2.196,3.151,2.196,4.429
		c0,0.918-0.216,1.765-0.756,2.125c-0.288,0.18-0.648,0.306-1.063,0.342c-0.486,0.054-1.116,0.036-1.639,0.018
		c-0.036-0.252-0.126-0.594-0.288-0.846c0.612,0.054,1.225,0.054,1.621,0.036c0.306-0.018,0.576-0.072,0.792-0.198
		c0.396-0.252,0.522-0.882,0.504-1.53c0-1.207-0.504-2.521-2.269-4.286c0.774-1.638,1.584-3.583,2.125-5.005h-3.439v14.495h-0.846
		v-15.323h4.681l0.126-0.054L90.351,151.727z"/>
	<path id="XMLID_155_" fill="#E2E2E2" d="M110.331,165.501c0.864,0,0.99-0.504,1.08-3.439c0.234,0.18,0.576,0.324,0.828,0.378
		c-0.126,3.097-0.396,3.907-1.873,3.907h-3.007c-1.404,0-1.818-0.324-1.818-1.603v-7.364l-3.187,0.27
		c-0.27,4.934-1.17,7.688-6.086,9.075c-0.108-0.216-0.36-0.558-0.522-0.72c4.717-1.224,5.492-3.745,5.726-8.282
		c-2.845,0.234-3.295,0.288-3.655,0.432c-0.054-0.18-0.198-0.63-0.306-0.882c0.36-0.072,0.829-0.558,1.405-1.225
		c0.63-0.684,2.719-3.277,4.123-5.797l0.882,0.378c-1.477,2.359-3.169,4.664-4.825,6.428l9.362-0.685
		c-0.81-1.08-1.746-2.25-2.575-3.223l0.685-0.396c1.476,1.729,3.385,4.105,4.339,5.456l-0.774,0.522
		c-0.27-0.45-0.666-1.008-1.116-1.603l-2.611,0.198v7.436c0,0.612,0.162,0.738,0.99,0.738H110.331z"/>
	<path id="XMLID_157_" fill="#E2E2E2" d="M119.633,155.922h5.33v0.847h-1.747v9.921h-0.81v-9.921h-2.773v0.198
		c0,2.773-0.216,6.716-1.692,9.471c-0.144-0.18-0.486-0.468-0.685-0.558c1.405-2.646,1.549-6.284,1.549-8.931v-4.555h0.018
		c1.818-0.396,3.997-0.972,5.167-1.548l0.54,0.738c-1.278,0.558-3.169,1.044-4.897,1.404V155.922z M128.473,163.989
		c-0.72,0.99-1.8,2.089-2.736,2.809c-0.145-0.198-0.415-0.468-0.594-0.63c0.936-0.648,1.999-1.747,2.521-2.593L128.473,163.989z
		 M128.221,153.978c0.27-0.558,0.558-1.296,0.738-1.891h-3.493v-0.792h7.652v0.792h-3.205c-0.252,0.63-0.54,1.333-0.828,1.891h3.493
		v9.002h-6.554v-9.002H128.221z M131.769,154.716h-4.952v1.999h4.952V154.716z M131.769,157.435h-4.952v2.035h4.952V157.435z
		 M131.769,160.19h-4.952v2.053h4.952V160.19z M130.796,163.575c0.882,0.792,1.981,1.945,2.503,2.701l-0.666,0.504
		c-0.468-0.756-1.549-1.944-2.467-2.773L130.796,163.575z"/>
	<path id="XMLID_165_" fill="#E2E2E2" d="M152.753,164.385c-1.44,0.9-3.691,1.8-5.492,2.305c-0.144-0.162-0.432-0.468-0.612-0.648
		c1.818-0.486,4.105-1.368,5.257-2.125L152.753,164.385z M162.782,156.769H146.83v-0.774h15.953V156.769z M151.169,152.609h-3.493
		v-0.738h3.493v-1.549h0.846v1.549h5.618v-1.549h0.864v1.549h3.529v0.738h-3.529v2.287h-7.328V152.609z M148.918,163.629v-5.798
		h11.956v5.798H148.918z M149.764,160.37h4.574v-1.836h-4.574V160.37z M149.764,162.909h4.574v-1.854h-4.574V162.909z
		 M152.015,152.609v1.567h5.618v-1.567H152.015z M160.009,158.533h-4.825v1.836h4.825V158.533z M160.009,161.054h-4.825v1.854h4.825
		V161.054z M157.525,163.917c1.98,0.63,4.087,1.458,5.419,2.088l-0.738,0.648c-1.224-0.648-3.259-1.477-5.257-2.161L157.525,163.917
		z"/>
	<path id="XMLID_176_" fill="#E2E2E2" d="M169.924,153.636v4.826c0,2.305-0.162,5.527-1.152,7.76
		c-0.126-0.144-0.45-0.378-0.648-0.468c0.936-2.125,1.026-5.113,1.026-7.292v-5.528h3.205v-2.611h0.81v1.026h3.673v0.666h-3.673
		v0.918h3.691l0.144-0.054l0.522,0.18c-0.234,0.648-0.486,1.422-0.685,1.909l-0.684-0.162c0.126-0.306,0.27-0.738,0.414-1.17h-3.529
		v0.972l2.557-0.252l0.09,0.594l-2.646,0.27v0.306c0,0.468,0.054,0.558,0.378,0.558h2.143c0.27,0,0.702,0,0.972-0.036
		c0.018,0.18,0.036,0.433,0.054,0.594c-0.198,0.054-0.594,0.054-0.99,0.054h-2.233c-0.846,0-1.026-0.288-1.026-1.17v-0.252
		l-1.855,0.18l-0.09-0.594l1.945-0.198v-1.026H169.924z M176.928,157.939h-6.536v-0.63h6.536V157.939z M176.856,165.538
		c0,0.378-0.072,0.558-0.36,0.702c-0.306,0.126-0.792,0.126-1.584,0.126c-0.018-0.198-0.126-0.45-0.234-0.648
		c0.612,0.018,1.081,0.018,1.261,0.018c0.162-0.018,0.198-0.072,0.198-0.198v-3.439h-5.005v4.321h-0.72v-4.951h6.446V165.538z
		 M171.167,160.784v-2.161h4.934v2.161H171.167z M173.903,164.169v2.125h-0.667v-2.125h-1.656v-0.612h0.972
		c-0.198-0.396-0.468-0.81-0.756-1.17l0.522-0.252c0.342,0.414,0.738,0.973,0.954,1.422h0.576c0.36-0.45,0.774-1.044,0.99-1.422
		l0.576,0.288c-0.27,0.396-0.558,0.774-0.846,1.134h1.044v0.612H173.903z M171.851,160.19h3.547v-0.973h-3.547V160.19z
		 M181.105,156.229c0.468,4.268,1.44,7.94,3.403,9.777c-0.198,0.144-0.468,0.45-0.612,0.685c-1.656-1.693-2.61-4.483-3.205-7.869
		c-0.306,2.647-1.152,5.51-3.241,7.851c-0.126-0.162-0.414-0.45-0.648-0.594c2.719-2.881,3.187-6.788,3.259-9.849h-2.899v-0.81
		h2.917v-0.684v-4.303h0.828v4.303v0.684h3.565v0.81H181.105z M183.752,153.924c-0.36-0.738-1.188-1.854-1.999-2.628l0.648-0.324
		c0.81,0.738,1.674,1.818,2.053,2.557L183.752,153.924z"/>
	<path id="XMLID_185_" fill="#E2E2E2" d="M206.09,165.429c-0.144,0.198-0.288,0.541-0.342,0.756h-5.42
		c-3.061,0-5.33-0.234-6.95-1.224c-0.828,0.738-1.782,1.26-2.809,1.638c-0.09-0.216-0.288-0.522-0.45-0.684
		c0.954-0.288,1.854-0.756,2.611-1.404c-0.558-0.468-1.026-1.044-1.422-1.765l0.63-0.324c0.342,0.648,0.792,1.17,1.314,1.566
		c0.63-0.666,1.117-1.476,1.44-2.431h-3.331c0.738-0.738,1.621-1.747,2.395-2.701h-3.115v-0.72h4.663l-0.594,0.72
		c-0.612,0.702-1.224,1.422-1.782,2.017h2.088l0.162-0.036l0.504,0.162c-0.36,1.422-0.972,2.557-1.746,3.421
		c1.53,0.811,3.691,1.008,6.392,1.008H206.09z M191.398,156.265h-0.846v-3.331h6.968v-1.134h-6.338v-0.666h13.63v0.666h-6.446v1.134
		h7.094v3.331h-0.864v-2.647h-6.23v3.835h-0.846v-3.835h-6.122V156.265z M192.064,156.319c1.152-0.144,2.683-0.378,4.303-0.63
		l0.036,0.63c-1.44,0.27-2.809,0.522-4.016,0.738L192.064,156.319z M192.893,153.852c1.152,0.234,2.611,0.684,3.403,1.08
		l-0.288,0.576c-0.792-0.378-2.232-0.882-3.403-1.152L192.893,153.852z M205.64,164.043h-9.363v-0.702h4.25v-1.765h-3.475v-0.72
		h3.475v-1.71c-1.188,0.108-2.431,0.198-3.529,0.234c-0.018-0.18-0.108-0.468-0.198-0.648c2.502-0.126,5.726-0.414,7.382-0.864
		l0.522,0.612c-0.882,0.252-2.071,0.45-3.367,0.576v1.8h3.529v0.72h-3.529v1.765h4.303V164.043z M203.732,157.111
		c-0.99-0.36-2.809-0.774-4.25-0.954l0.252-0.576c1.405,0.162,3.241,0.54,4.25,0.882L203.732,157.111z M203.606,154.374
		c-1.044,0.468-2.629,0.846-3.709,1.098l-0.342-0.468c1.098-0.27,2.701-0.828,3.619-1.17L203.606,154.374z"/>
</g>
<g id="XMLID_19_">
</g>
<g id="XMLID_214_">
</g>
<g id="XMLID_215_">
</g>
<g id="XMLID_216_">
</g>
<g id="XMLID_217_">
</g>
<g id="XMLID_218_">
</g>
<g id="XMLID_219_">
</g>
<g id="XMLID_220_">
</g>
<g id="XMLID_221_">
</g>
<g id="XMLID_222_">
</g>
<g id="XMLID_223_">
</g>
<g id="XMLID_224_">
</g>
<g id="XMLID_225_">
</g>
<g id="XMLID_226_">
</g>
<g id="XMLID_227_">
</g>
</svg>
