<?xml version="1.0" encoding="iso-8859-1"?>
<!-- Generator: Adobe Illustrator 19.0.0, SVG Export Plug-In . SVG Version: 6.00 Build 0)  -->
<svg version="1.2" baseProfile="tiny" id="&#x5716;&#x5C64;_1"
	 xmlns="http://www.w3.org/2000/svg" xmlns:xlink="http://www.w3.org/1999/xlink" x="0px" y="0px"
	 viewBox="-58 99.663 521.041 282.337" xml:space="preserve">
<path id="XMLID_7_" fill="#E8E8E8" d="M-21.219,317.233l-9.245-26.878c-1.3-3.778-1.957-7.666-1.957-11.57V148.971h11.202V317.233z"
	/>
<g id="XMLID_6_">
	<path id="XMLID_390_" fill="#EFEFEF" d="M16.529,190.004h8.683v-33.098c0-0.238,0.008-0.481,0.025-0.728s0.042-0.489,0.077-0.728
		l-9.245,8.351c-0.085,0.085-0.17,0.128-0.255,0.128c-0.102,0-0.188-0.042-0.255-0.128l-0.153-0.204l10.063-9.041h0.357v35.448
		h8.479v0.511H16.529V190.004z"/>
	<path id="XMLID_392_" fill="#EFEFEF" d="M52.947,174.834c-1.567,0-2.984-0.255-4.252-0.766c-1.269-0.511-2.35-1.217-3.244-2.12
		c-0.894-0.902-1.579-1.975-2.056-3.218c-0.477-1.243-0.715-2.596-0.715-4.061c0-1.498,0.281-2.877,0.843-4.137
		c0.562-1.26,1.332-2.35,2.312-3.269c0.979-0.919,2.136-1.634,3.473-2.145c1.336-0.511,2.788-0.766,4.354-0.766
		c1.464,0,2.822,0.26,4.074,0.779c1.251,0.52,2.336,1.256,3.256,2.209c0.919,0.954,1.639,2.103,2.158,3.448s0.779,2.844,0.779,4.495
		c0,0.834-0.102,1.634-0.306,2.4c-0.205,0.766-0.498,1.554-0.881,2.362c-0.383,0.809-0.855,1.66-1.417,2.554
		c-0.562,0.894-1.209,1.877-1.941,2.95l-9.96,14.813c-0.051,0.085-0.103,0.132-0.153,0.141c-0.051,0.009-0.102,0.013-0.153,0.013
		h-0.511l10.318-15.221c0.851-1.26,1.6-2.379,2.247-3.358s1.166-1.971,1.558-2.976c-0.426,0.903-0.983,1.716-1.673,2.439
		c-0.689,0.724-1.46,1.341-2.311,1.852c-0.852,0.511-1.771,0.903-2.758,1.175C54.998,174.698,53.985,174.834,52.947,174.834z
		 M63.315,164.925c0-1.447-0.243-2.788-0.728-4.022c-0.485-1.234-1.158-2.299-2.018-3.192c-0.86-0.894-1.877-1.592-3.052-2.094
		s-2.46-0.753-3.856-0.753c-1.516,0-2.907,0.238-4.176,0.715c-1.269,0.477-2.362,1.146-3.282,2.005
		c-0.919,0.86-1.634,1.894-2.145,3.103s-0.766,2.537-0.766,3.984c0,1.481,0.234,2.818,0.702,4.01s1.124,2.205,1.966,3.039
		c0.843,0.834,1.856,1.478,3.04,1.928c1.183,0.452,2.481,0.677,3.895,0.677c1.651,0,3.124-0.289,4.418-0.868
		c1.293-0.579,2.388-1.319,3.282-2.222c0.894-0.902,1.57-1.911,2.03-3.026C63.085,167.092,63.315,165.997,63.315,164.925z"/>
	<path id="XMLID_395_" fill="#EFEFEF" d="M82.929,154.352c1.226,0,2.417,0.17,3.575,0.511s2.188,0.868,3.09,1.583
		c0.902,0.715,1.626,1.639,2.171,2.771c0.545,1.133,0.817,2.49,0.817,4.074c0,1.209-0.23,2.32-0.689,3.333
		c-0.46,1.013-1.069,1.894-1.826,2.643c-0.758,0.75-1.63,1.366-2.618,1.852c-0.988,0.485-2.001,0.805-3.04,0.958
		c1.481,0.119,2.797,0.426,3.946,0.919c1.149,0.494,2.111,1.133,2.886,1.916c0.774,0.784,1.362,1.698,1.762,2.746
		c0.4,1.047,0.6,2.184,0.6,3.41c0,1.311-0.277,2.563-0.83,3.754c-0.554,1.192-1.324,2.239-2.311,3.142
		c-0.988,0.902-2.163,1.622-3.524,2.158c-1.363,0.537-2.852,0.805-4.47,0.805c-1.43,0-2.686-0.145-3.767-0.434
		c-1.082-0.29-2.018-0.668-2.81-1.137c-0.792-0.468-1.456-1.013-1.992-1.634c-0.536-0.622-0.983-1.264-1.341-1.928
		c-0.357-0.664-0.643-1.328-0.855-1.992s-0.387-1.285-0.523-1.864l0.102-0.051c0.068-0.034,0.136-0.051,0.205-0.051
		c0.136,0,0.234,0.055,0.293,0.166s0.115,0.268,0.166,0.472c0.051,0.239,0.149,0.6,0.294,1.085c0.144,0.485,0.37,1.021,0.677,1.609
		c0.306,0.587,0.702,1.192,1.188,1.813s1.111,1.188,1.877,1.698s1.677,0.928,2.733,1.251c1.055,0.324,2.307,0.485,3.754,0.485
		c1.753,0,3.286-0.294,4.597-0.881c1.311-0.587,2.405-1.336,3.282-2.247s1.537-1.916,1.979-3.014
		c0.442-1.098,0.664-2.167,0.664-3.205c0-1.226-0.213-2.367-0.639-3.422c-0.426-1.056-1.098-1.975-2.018-2.758
		c-0.919-0.783-2.094-1.4-3.524-1.852s-3.15-0.685-5.159-0.702v-0.411c1.566-0.051,2.988-0.294,4.265-0.728
		c1.277-0.434,2.363-1.03,3.256-1.788c0.894-0.757,1.583-1.651,2.069-2.682c0.485-1.03,0.728-2.175,0.728-3.435
		c0-1.481-0.251-2.754-0.753-3.818c-0.502-1.063-1.175-1.937-2.018-2.618s-1.809-1.183-2.898-1.507
		c-1.09-0.323-2.213-0.485-3.371-0.485c-1.328,0-2.554,0.204-3.678,0.613c-1.124,0.409-2.111,0.983-2.962,1.724
		c-0.852,0.741-1.558,1.622-2.12,2.644c-0.562,1.021-0.945,2.154-1.149,3.396c-0.051,0.273-0.17,0.409-0.357,0.409h-0.255
		c0.187-1.43,0.574-2.72,1.162-3.869c0.588-1.149,1.341-2.124,2.26-2.924c0.919-0.8,1.979-1.417,3.18-1.852
		S81.515,154.352,82.929,154.352z"/>
	<path id="XMLID_397_" fill="#EFEFEF" d="M121.441,155.016c0,0.085-0.035,0.158-0.103,0.217c-0.068,0.06-0.153,0.089-0.255,0.089
		h-14.455l-2.579,14.174c1.293-0.34,2.52-0.587,3.677-0.741c1.157-0.154,2.248-0.23,3.269-0.23c1.856,0,3.486,0.26,4.891,0.779
		c1.404,0.52,2.579,1.243,3.524,2.17c0.945,0.928,1.656,2.043,2.133,3.346c0.477,1.303,0.715,2.737,0.715,4.303
		c0,1.874-0.323,3.542-0.97,5.006c-0.647,1.464-1.516,2.699-2.605,3.703c-1.09,1.005-2.354,1.771-3.792,2.298
		c-1.439,0.528-2.95,0.792-4.533,0.792c-0.919,0-1.805-0.077-2.656-0.23c-0.852-0.153-1.647-0.353-2.388-0.6
		c-0.741-0.247-1.417-0.527-2.031-0.843c-0.613-0.315-1.149-0.643-1.609-0.983l0.153-0.204c0.068-0.102,0.17-0.153,0.307-0.153
		c0.119,0,0.383,0.124,0.792,0.37c0.409,0.247,0.958,0.524,1.647,0.83c0.689,0.307,1.515,0.583,2.477,0.83
		c0.962,0.247,2.064,0.371,3.308,0.371c1.515,0,2.954-0.243,4.316-0.728c1.362-0.485,2.554-1.2,3.576-2.146
		c1.021-0.945,1.834-2.12,2.439-3.524c0.604-1.404,0.906-3.018,0.906-4.839c0-1.447-0.208-2.784-0.625-4.01
		c-0.417-1.226-1.06-2.286-1.928-3.18c-0.868-0.894-1.971-1.592-3.307-2.094c-1.337-0.502-2.916-0.753-4.738-0.753
		c-1.021,0-2.124,0.081-3.307,0.243c-1.184,0.162-2.456,0.413-3.818,0.753l-0.459-0.204l2.707-15.068h15.324v0.256H121.441z"/>
</g>
<g id="XMLID_5_">
	<path id="XMLID_32_" fill="#E2E2E2" d="M174.58,169.674v25.211h-6.533v-42.049h18.402v16.838H174.58z M174.58,157.483v1.564h5.613
		v-1.564H174.58z M180.192,164.982v-1.702h-5.613v1.702H180.192z M194.868,184.948v9.109h-5.842v-9.109h-3.221
		c-0.506,3.174-2.116,7.499-5.75,10.029c-0.92-1.15-2.898-2.898-4.232-3.772c2.484-1.518,3.727-4.094,4.232-6.256h-3.957v-5.383
		h4.232v-2.623h-3.634v-5.198h21.991v5.198h-3.819v2.623h4.463v5.383h-4.463V184.948z M189.025,179.565v-2.622h-3.037v2.623
		L189.025,179.565L189.025,179.565z M207.565,187.386c0,3.174-0.506,4.969-2.346,6.073c-1.886,1.104-4.325,1.288-7.867,1.242
		c-0.184-1.794-1.058-4.876-1.932-6.579c1.748,0.092,3.957,0.092,4.646,0.092s0.92-0.276,0.92-0.92v-17.482H188.84v-16.976h18.724
		v34.55H207.565z M195.19,157.483v1.564h5.797v-1.564H195.19z M200.987,165.12v-1.84h-5.797v1.84H200.987z"/>
	<path id="XMLID_377_" fill="#E2E2E2" d="M246.664,175.103c-0.276,0.552-0.598,1.104-0.92,1.61h18.218c0,0-0.046,1.472-0.138,2.208
		c-0.599,8.695-1.334,12.467-2.577,13.894c-0.966,1.15-2.07,1.564-3.313,1.748c-1.104,0.184-2.806,0.23-4.739,0.184
		c-0.092-1.334-0.46-3.128-1.104-4.462c-1.38,1.886-2.898,3.588-4.462,4.785c-1.15-1.242-3.083-2.76-4.739-3.681
		c3.313-2.024,6.257-5.659,8.235-9.477h-1.61c-2.484,4.187-6.717,8.649-10.581,11.087c-1.058-1.334-2.807-2.944-4.371-3.911
		c3.128-1.518,6.303-4.232,8.741-7.177h-1.61c-1.519,1.564-3.174,2.944-4.876,4.048c-0.736-0.828-2.208-2.208-3.405-3.22
		c-3.588,1.84-7.223,3.634-10.351,5.153l-2.438-6.763c1.473-0.506,3.313-1.196,5.337-1.978v-12.145h-4.232v-6.303h4.232v-8.833h6.21
		v8.833h3.865v6.303h-3.865v9.615l3.083-1.288l1.012,4.002c1.426-1.242,2.76-2.668,3.818-4.232h-4.508v-5.567h29.213v5.567
		C264.789,175.103,246.664,175.103,246.664,175.103z M261.662,168.248h-22.313v-16.01h22.313V168.248z M255.497,156.746h-10.259
		v1.38h10.259V156.746z M255.497,162.359h-10.259v1.38h10.259V162.359z M256.739,181.912c-1.012,2.576-2.484,5.291-4.187,7.729
		c0.92,0.046,1.656,0.046,2.116,0.046c0.598,0,0.966-0.092,1.334-0.552c0.552-0.598,1.058-2.622,1.472-7.223
		C257.474,181.912,256.739,181.912,256.739,181.912z"/>
	<path id="XMLID_383_" fill="#E2E2E2" d="M319.806,190.285h-6.763v4.508h-6.303v-4.508h-4.784v0.046h-6.073
		c0.828-2.162,1.794-4.969,2.622-7.775h-0.689v-2.346c-2.99,8.051-9.109,12.79-16.47,15.136c-0.645-1.334-2.438-3.681-3.589-4.692
		c2.668-0.69,5.106-1.656,7.269-2.944c-0.689-0.782-1.656-1.749-2.622-2.623c-0.782,0.598-1.564,1.15-2.393,1.61
		c-0.828-1.012-2.76-3.037-3.91-3.957c3.543-1.702,6.763-4.417,8.604-7.545h-7.729v-5.152h7.361v-2.163h-4.877v-5.245h4.877v-2.76
		c-1.013,0.828-2.116,1.61-3.267,2.393c-1.104-1.334-3.267-3.128-4.784-3.957c3.91-2.07,6.809-4.831,8.511-7.315l6.395,1.288
		c-0.322,0.506-0.69,0.966-1.012,1.426h26.499v4.876h-30.916c-0.368,0.368-0.782,0.69-1.196,1.058h6.027v2.99h1.702v-2.898H298
		v2.898h1.887v-2.898h5.704v2.898h1.795v-3.081h6.395v3.082h4.002v5.245h-4.002v2.163h5.658v5.152h-31.605l2.53,0.69
		c-0.276,0.552-0.598,1.104-0.92,1.656h4.278l0.966-0.138l3.129,1.426v-1.334h8.925v-1.748h6.303v1.748h5.935v5.061h-5.935v2.806
		h6.763v4.923H319.806z M286.13,181.82l-0.046,0.046c1.012,0.828,2.116,1.794,2.944,2.622c0.782-0.828,1.426-1.702,2.024-2.668
		H286.13z M290.593,170.042h1.702v-2.163h-1.702V170.042z M297.999,167.88v2.163h1.887v-2.163H297.999z M306.74,185.362v-2.806
		h-2.162c-0.322,0.966-0.599,1.886-0.92,2.806H306.74z M305.59,167.88v2.163h1.795v-2.163H305.59z"/>
</g>
<g id="XMLID_3_">
	<rect id="XMLID_368_" x="9.26" y="221.162" fill="none" width="432.802" height="118.501"/>
	<path id="XMLID_33_" fill="#E2E2E2" d="M21.799,223.102c-0.54,1.44-1.278,3.223-1.926,4.664c1.422,1.548,1.8,2.845,1.8,4.015
		c0,0.846-0.198,1.603-0.666,1.927c-0.216,0.144-0.54,0.252-0.864,0.288c-0.396,0.036-0.846,0.036-1.242,0
		c-0.018-0.216-0.108-0.54-0.252-0.774c0.468,0.018,0.882,0.036,1.188,0.018c0.252-0.018,0.45-0.072,0.612-0.18
		c0.306-0.198,0.414-0.774,0.414-1.332c0-1.063-0.396-2.341-1.836-3.854c0.63-1.422,1.26-3.043,1.71-4.285h-2.971v14.729h-0.81
		v-15.539h4.141l0.144-0.036L21.799,223.102z M28.191,232.555c1.063,1.71,2.845,3.349,4.501,4.141
		c-0.18,0.162-0.468,0.468-0.594,0.684c-1.747-0.936-3.619-2.863-4.699-4.789v5.708H26.57v-5.672
		c-1.188,1.963-3.259,3.854-5.077,4.826c-0.144-0.198-0.396-0.504-0.594-0.684c1.729-0.811,3.655-2.485,4.825-4.213h-3.061v-6.068
		h3.907v-1.674h-4.717v-0.774h4.717v-2.017h0.829v2.017h4.843v0.774h-4.843v1.674h4.015v6.068h-3.223V232.555z M23.474,229.152
		h3.097v-1.944h-3.097V229.152z M23.474,231.835h3.097v-1.98h-3.097V231.835z M27.399,227.207v1.944h3.187v-1.944
		C30.586,227.207,27.399,227.207,27.399,227.207z M30.586,229.854h-3.187v1.98h3.187V229.854z"/>
	<path id="XMLID_40_" fill="#E2E2E2" d="M40.681,229.35c-0.63-0.486-1.836-1.17-2.845-1.603l0.468-0.648
		c0.99,0.378,2.232,1.044,2.845,1.512L40.681,229.35z M38.34,237.345c0.774-1.405,1.891-3.799,2.646-5.78l0.72,0.522
		c-0.738,1.873-1.747,4.159-2.575,5.78L38.34,237.345z M39.24,222.238c1.008,0.415,2.269,1.117,2.899,1.621l-0.504,0.72
		c-0.63-0.504-1.873-1.26-2.881-1.71L39.24,222.238z M42.536,222.94h4.285v4.933h-3.187c-0.126,1.063-0.27,2.215-0.414,3.151h3.403
		c0,0-0.018,0.324-0.036,0.432c-0.378,4.16-0.738,5.69-1.314,6.266c-0.288,0.27-0.558,0.36-1.026,0.396
		c-0.378,0-1.117,0-1.855-0.054c-0.018-0.234-0.108-0.559-0.234-0.792c0.81,0.09,1.548,0.09,1.836,0.09s0.45-0.018,0.612-0.18
		c0.45-0.414,0.792-1.854,1.116-5.384h-3.439c0.234-1.224,0.504-3.223,0.648-4.699h3.061v-3.403h-3.457v-0.756H42.536z
		 M53.285,237.939c-0.09-0.468-0.216-1.026-0.36-1.639c-4.879,0.72-5.456,0.846-5.779,1.026c-0.018-0.198-0.162-0.594-0.252-0.828
		c0.306-0.108,0.667-1.297,1.044-2.773c0.36-1.405,1.495-6.662,1.836-11.2l0.829,0.126c-0.396,4.447-1.314,9.687-2.449,13.54
		l4.609-0.648c-0.432-1.674-1.008-3.637-1.566-5.257l0.756-0.198c0.9,2.485,1.836,5.744,2.179,7.58L53.285,237.939z"/>
	<path id="XMLID_46_" fill="#E2E2E2" d="M59.634,237.075c0.9-1.152,1.566-3.043,1.926-4.448l0.774,0.27
		c-0.396,1.44-1.026,3.385-1.909,4.592L59.634,237.075z M75.551,224.83v0.829h-7.544v3.529h6.482v0.828H60.823v-0.828h6.302v-3.529
		h-7.454v-0.829h7.454v-2.827h0.882v2.827C68.007,224.83,75.551,224.83,75.551,224.83z M70.33,237.272
		c1.026,0,1.188-0.342,1.278-2.376c0.216,0.144,0.576,0.27,0.81,0.342c-0.144,2.287-0.45,2.827-2.035,2.827h-4.501
		c-1.8,0-2.287-0.271-2.287-1.44v-4.195h0.864v4.177c0,0.522,0.216,0.666,1.404,0.666L70.33,237.272L70.33,237.272z M69.537,234.337
		c-0.828-0.918-2.539-2.232-4.015-3.097l0.594-0.54c1.458,0.846,3.205,2.125,4.069,3.043L69.537,234.337z M72.922,232.447
		c0.972,1.512,2.052,3.565,2.521,4.789l-0.828,0.36c-0.45-1.26-1.495-3.331-2.467-4.861L72.922,232.447z"/>
	<path id="XMLID_52_" fill="#E2E2E2" d="M95.582,231.456c-0.414-0.684-1.621-2.196-2.431-3.169v10.011h-0.846v-9.813
		c-0.846,2.449-2.125,4.934-3.331,6.338c-0.126-0.234-0.378-0.558-0.541-0.756c1.405-1.548,2.935-4.573,3.673-7.274h-3.241v-0.828
		h3.439v-3.961h0.846v3.961h2.683v0.828H93.15v0.432c0.558,0.594,2.593,2.899,3.061,3.475L95.582,231.456z M101.307,226.793
		c0.828,3.079,2.287,6.23,3.799,7.796c-0.198,0.162-0.504,0.468-0.684,0.684c-1.297-1.513-2.557-4.159-3.421-6.896v9.921h-0.864
		v-9.831c-0.99,2.809-2.502,5.564-4.033,7.094c-0.144-0.252-0.396-0.558-0.576-0.756c1.729-1.692,3.511-4.916,4.357-8.012h-3.133
		v-0.828h3.385v-3.961h0.864v3.961h3.565v0.828H101.307L101.307,226.793z"/>
	<path id="XMLID_55_" fill="#E2E2E2" d="M111.744,228.72h-0.792v-3.907h6.932v-1.531h-6.068v-0.756h13.072v0.756h-6.176v1.531h7.094
		v3.907h-0.828v-3.169h-6.266v4.933h-0.828v-4.933h-6.14V228.72z M126.076,234.913h-2.143v2.827h-10.965v-0.756h10.119v-2.071
		h-12.01v-0.756h12.01v-2.071h-10.173v-0.756h11.019v2.827h2.143V234.913z M112.392,229.818c1.134-0.306,2.755-0.792,4.357-1.296
		l0.108,0.63c-1.44,0.522-2.881,0.991-4.087,1.387L112.392,229.818z M113.076,226.343c1.225,0.234,2.827,0.666,3.691,1.063
		L116.479,228c-0.864-0.378-2.449-0.882-3.709-1.116L113.076,226.343z M124.366,230.557c-1.063-0.486-3.043-1.152-4.591-1.531
		l0.288-0.522c1.566,0.342,3.511,0.936,4.573,1.44L124.366,230.557z M124.042,226.883c-1.062,0.45-2.611,0.864-3.727,1.099
		l-0.342-0.504c1.081-0.27,2.683-0.828,3.602-1.188L124.042,226.883z"/>
	<path id="XMLID_62_" fill="#E2E2E2" d="M146.038,237.363c0.829,0,0.955-0.415,1.044-2.989c0.198,0.144,0.541,0.27,0.792,0.324
		c-0.126,2.719-0.396,3.349-1.765,3.349h-3.061c-1.458,0-1.854-0.252-1.854-1.351v-5.383h-2.539
		c-0.432,3.763-1.603,5.941-6.176,7.004c-0.09-0.198-0.342-0.522-0.522-0.666c4.339-0.955,5.402-2.953,5.762-6.338h-3.709v-7.707
		h0.018c1.656-0.378,3.601-0.936,4.646-1.458l0.756,0.63c-1.242,0.504-2.953,0.972-4.519,1.314v2.665h4.159v0.792h-4.159v2.935
		h10.353v-2.917h-4.177v-0.811h4.177v-2.629h-4.501v-0.828h5.366v8.013h-4.069v5.401c0,0.54,0.162,0.648,1.008,0.648h2.97V237.363z"
		/>
	<path id="XMLID_64_" fill="#E2E2E2" d="M167.149,236.048c-1.44,0.9-3.691,1.8-5.492,2.305c-0.144-0.162-0.432-0.468-0.612-0.648
		c1.818-0.486,4.105-1.368,5.257-2.125L167.149,236.048z M177.178,228.432h-15.953v-0.774h15.953V228.432z M165.564,224.272h-3.493
		v-0.738h3.493v-1.549h0.846v1.549h5.618v-1.549h0.864v1.549h3.529v0.738h-3.529v2.287h-7.328L165.564,224.272L165.564,224.272z
		 M163.313,235.292v-5.798h11.956v5.798H163.313z M164.16,232.033h4.574v-1.836h-4.574V232.033z M164.16,234.572h4.574v-1.854
		h-4.574V234.572z M166.411,224.272v1.567h5.618v-1.567H166.411z M174.405,230.196h-4.825v1.836h4.825V230.196z M174.405,232.717
		h-4.825v1.854h4.825V232.717z M171.92,235.58c1.98,0.63,4.087,1.458,5.419,2.088l-0.738,0.648
		c-1.224-0.648-3.259-1.477-5.257-2.161L171.92,235.58z"/>
	<path id="XMLID_75_" fill="#E2E2E2" d="M186.75,236.048c-0.288-0.414-0.703-0.882-1.152-1.423
		c-0.594,1.261-1.387,2.485-2.503,3.655c-0.126-0.162-0.414-0.378-0.612-0.486c1.17-1.206,1.98-2.484,2.539-3.781
		c-0.667-0.738-1.423-1.495-2.089-2.143c0.342-1.261,0.72-3.079,1.044-4.97l-1.333,0.09l-0.108-0.847l1.566-0.072
		c0.216-1.404,0.396-2.827,0.504-4.033l0.738,0.018c-0.108,1.206-0.306,2.611-0.504,3.979l1.44-0.072v-1.387h0.738v1.351
		l0.792-0.054v0.774l-0.792,0.054c-0.018,2.143-0.162,4.645-1.099,7.112c0.576,0.594,1.063,1.17,1.422,1.603L186.75,236.048z
		 M184.698,226.847c-0.306,1.765-0.63,3.475-0.955,4.79c0.504,0.486,1.081,1.026,1.603,1.584c0.811-2.287,0.918-4.555,0.937-6.464
		L184.698,226.847z M189.523,231.097c-0.072,3.187-0.36,5.402-1.782,6.752c-0.108-0.18-0.36-0.468-0.559-0.594
		c1.279-1.152,1.531-3.223,1.567-6.158H189.523z M187.758,229.494h5.636v0.756h-5.636V229.494z M193.088,228.126h-4.844v-4.375
		h0.684v3.655h1.422v-5.402h0.703v5.402h1.332v-3.655h0.703L193.088,228.126L193.088,228.126z M193.862,234.103
		c0.054,0.216,0.162,0.486,0.234,0.648c-1.98,1.296-2.287,1.53-2.448,1.747c-0.072-0.198-0.252-0.559-0.396-0.738
		c0.198-0.108,0.486-0.378,0.486-1.063v-3.637h0.738v3.835L193.862,234.103z M198.202,226.415c-0.27,3.024-0.72,5.491-1.584,7.508
		c0.594,1.513,1.386,2.701,2.413,3.511c-0.216,0.162-0.468,0.468-0.594,0.684c-0.936-0.81-1.656-1.926-2.25-3.277
		c-0.72,1.404-1.692,2.557-2.971,3.493c-0.108-0.144-0.396-0.432-0.576-0.576c1.458-0.972,2.467-2.251,3.187-3.853
		c-0.594-1.639-0.99-3.529-1.26-5.654c-0.234,0.45-0.45,0.9-0.702,1.278c-0.108-0.126-0.414-0.432-0.612-0.576
		c1.134-1.71,1.819-4.303,2.197-6.968l0.811,0.126c-0.18,1.225-0.45,2.395-0.756,3.511h3.385v0.792h-0.688V226.415z
		 M195.249,226.415c-0.036,0.162-0.09,0.342-0.144,0.486c0.216,2.197,0.594,4.231,1.134,5.96c0.648-1.801,0.972-3.943,1.17-6.446
		H195.249z"/>
	<path id="XMLID_84_" fill="#E2E2E2" d="M209.395,229.044h1.513v0.829h-1.513v7.184c0,0.666-0.198,0.936-0.63,1.098
		c-0.45,0.144-1.279,0.162-2.665,0.162c-0.036-0.252-0.18-0.612-0.306-0.864c1.134,0.036,2.107,0.036,2.377,0.018
		c0.288-0.018,0.396-0.108,0.396-0.396v-6.95c-0.954,2.502-2.521,5.149-3.907,6.572c-0.144-0.198-0.432-0.504-0.63-0.648
		c1.351-1.243,2.917-3.835,3.835-6.176h-3.385c0.396-1.531,0.918-4.124,1.225-6.068h-1.351v-0.811h6.572v0.811h-1.531
		L209.395,229.044L209.395,229.044z M206.514,223.805c-0.27,1.638-0.684,3.727-1.026,5.239h3.079v-5.239H206.514z M220.468,237.164
		h-7.148v1.134h-0.81v-11.109c-0.415,0.684-0.829,1.314-1.261,1.854c-0.126-0.162-0.45-0.45-0.63-0.612
		c1.368-1.567,2.502-3.943,3.223-6.338l0.792,0.18c-0.324,1.044-0.72,2.071-1.152,3.043h6.95v0.811h-3.043v2.845h2.593v0.792h-2.593
		v2.899h2.593v0.792h-2.593v2.898h3.079V237.164z M216.561,226.127h-3.241v2.845h3.241V226.127z M216.561,229.764h-3.241v2.899
		h3.241V229.764z M213.32,236.354h3.241v-2.898h-3.241V236.354z M216.885,225.245c-0.126-0.756-0.522-1.909-0.954-2.791l0.72-0.27
		c0.486,0.864,0.864,2.035,0.99,2.791L216.885,225.245z"/>
	<path id="XMLID_92_" fill="#E2E2E2" d="M239.545,236.048c-1.44,0.9-3.691,1.8-5.492,2.305c-0.144-0.162-0.432-0.468-0.612-0.648
		c1.818-0.486,4.105-1.368,5.258-2.125L239.545,236.048z M249.574,228.432h-15.953v-0.774h15.953V228.432z M237.96,224.272h-3.493
		v-0.738h3.493v-1.549h0.846v1.549h5.618v-1.549h0.864v1.549h3.529v0.738h-3.529v2.287h-7.328L237.96,224.272L237.96,224.272z
		 M235.709,235.292v-5.798h11.956v5.798H235.709z M236.556,232.033h4.574v-1.836h-4.574V232.033z M236.556,234.572h4.574v-1.854
		h-4.574V234.572z M238.807,224.272v1.567h5.618v-1.567H238.807z M246.801,230.196h-4.825v1.836h4.825V230.196z M246.801,232.717
		h-4.825v1.854h4.825V232.717z M244.316,235.58c1.981,0.63,4.087,1.458,5.42,2.088l-0.738,0.648
		c-1.225-0.648-3.259-1.477-5.258-2.161L244.316,235.58z"/>
	<path id="XMLID_103_" fill="#E2E2E2" d="M260.19,229.044h1.513v0.829h-1.513v7.184c0,0.666-0.198,0.936-0.63,1.098
		c-0.45,0.144-1.278,0.162-2.665,0.162c-0.036-0.252-0.18-0.612-0.306-0.864c1.134,0.036,2.107,0.036,2.377,0.018
		c0.288-0.018,0.396-0.108,0.396-0.396v-6.95c-0.954,2.502-2.521,5.149-3.907,6.572c-0.144-0.198-0.432-0.504-0.63-0.648
		c1.35-1.243,2.917-3.835,3.835-6.176h-3.385c0.396-1.531,0.918-4.124,1.225-6.068h-1.351v-0.811h6.572v0.811h-1.531L260.19,229.044
		L260.19,229.044z M257.309,223.805c-0.27,1.638-0.684,3.727-1.026,5.239h3.079v-5.239H257.309z M271.264,237.164h-7.148v1.134
		h-0.81v-11.109c-0.415,0.684-0.829,1.314-1.261,1.854c-0.126-0.162-0.45-0.45-0.63-0.612c1.368-1.567,2.502-3.943,3.223-6.338
		l0.792,0.18c-0.324,1.044-0.72,2.071-1.152,3.043h6.95v0.811h-3.043v2.845h2.593v0.792h-2.593v2.899h2.593v0.792h-2.593v2.898
		h3.079V237.164z M267.356,226.127h-3.241v2.845h3.241V226.127z M267.356,229.764h-3.241v2.899h3.241V229.764z M264.115,236.354
		h3.241v-2.898h-3.241V236.354z M267.681,225.245c-0.126-0.756-0.522-1.909-0.954-2.791l0.72-0.27
		c0.486,0.864,0.864,2.035,0.99,2.791L267.681,225.245z"/>
	<path id="XMLID_111_" fill="#E2E2E2" d="M284.888,229.098h-8.192v-0.792h5.077c0.414-0.972,0.918-2.376,1.17-3.349l0.847,0.234
		c-0.378,0.99-0.811,2.197-1.225,3.115h2.341v0.774c1.099-1.747,1.711-4.375,2.07-7.094l0.883,0.144
		c-0.145,0.937-0.307,1.854-0.504,2.719h4.969l0.162-0.054l0.595,0.198c-0.307,1.495-0.757,3.295-1.207,4.375l-0.756-0.216
		c0.36-0.882,0.702-2.25,0.937-3.493h-4.88c-0.396,1.512-0.882,2.863-1.513,3.925c-0.144-0.126-0.558-0.36-0.792-0.45
		L284.888,229.098z M284.815,224.759h-7.742v-0.774h3.871c-0.234-0.558-0.576-1.242-0.918-1.782l0.773-0.216
		c0.414,0.612,0.847,1.404,1.081,1.999h2.935V224.759z M277.812,230.592h6.464v7.382h-0.847v-0.792h-4.808v1.08h-0.81v-7.67H277.812
		z M279,228.054c-0.072-0.792-0.379-1.962-0.721-2.881l0.738-0.18c0.36,0.9,0.666,2.071,0.756,2.863L279,228.054z M278.621,231.349
		v2.125h4.808v-2.125H278.621z M283.429,236.426v-2.232h-4.808v2.232H283.429z M289.064,228.09c0,0.504-0.018,1.062-0.036,1.621
		c0.631,3.781,1.747,5.996,4.142,7.922c-0.234,0.162-0.486,0.45-0.612,0.72c-1.999-1.711-3.115-3.601-3.854-6.284
		c-0.432,2.125-1.404,4.394-3.583,6.356c-0.162-0.198-0.45-0.504-0.666-0.648c3.493-3.061,3.745-6.95,3.745-9.687v-1.17h0.864
		V228.09z"/>
	<path id="XMLID_119_" fill="#E2E2E2" d="M309.384,231.583v5.689c0,0.504-0.126,0.72-0.45,0.864c-0.36,0.144-0.9,0.162-1.837,0.162
		c-0.035-0.216-0.18-0.54-0.306-0.756c0.738,0.018,1.351,0.018,1.549,0.018c0.197-0.018,0.252-0.072,0.252-0.27v-5.401l-2.395,0.972
		l-0.217-0.846c0.702-0.252,1.621-0.576,2.611-0.973v-3.493c0.684-0.918,1.477-2.287,2.017-3.475h-4.088v-0.792h4.502l0.18-0.054
		l0.576,0.378c-0.63,1.386-1.566,2.953-2.395,4.087v3.061c0.702-0.288,1.44-0.576,2.179-0.864l0.162,0.756L309.384,231.583z
		 M314.804,233.347c-0.721,1.566-1.783,3.151-2.81,4.195c-0.18-0.108-0.558-0.27-0.792-0.378c1.135-1.008,2.125-2.539,2.809-4.051
		L314.804,233.347z M319.017,222.598c-1.62,1.17-4.249,2.197-6.626,2.971c-0.036-0.162-0.198-0.45-0.288-0.648
		c2.269-0.738,4.861-1.836,6.194-2.917L319.017,222.598z M317.072,231.799v5.528c0,0.486-0.09,0.72-0.45,0.864
		c-0.36,0.126-0.99,0.126-1.963,0.126c-0.036-0.234-0.162-0.522-0.288-0.756c0.792,0.018,1.44,0.018,1.621,0
		c0.197-0.018,0.252-0.072,0.252-0.252v-5.419c-3.007,0.306-3.476,0.396-3.781,0.522c-0.019-0.198-0.162-0.63-0.252-0.864
		c0.396-0.054,0.99-0.396,1.71-0.9c0.504-0.324,1.765-1.242,3.097-2.395c-3.547,0.342-3.997,0.414-4.285,0.54
		c-0.054-0.198-0.162-0.63-0.27-0.846c0.306-0.036,0.666-0.234,1.063-0.522c0.485-0.288,1.98-1.476,3.061-2.701l0.792,0.414
		c-1.008,1.008-2.07,1.909-3.133,2.629l3.655-0.306c0.486-0.414,0.937-0.864,1.368-1.296l0.738,0.468
		c-1.891,1.818-3.889,3.421-5.834,4.682l6.014-0.522c-0.378-0.648-0.846-1.296-1.278-1.854l0.631-0.324
		c0.936,1.116,1.927,2.665,2.341,3.655l-0.702,0.378c-0.145-0.342-0.324-0.756-0.576-1.188L317.072,231.799z M319.322,232.879
		c1.009,1.278,2.125,2.971,2.629,4.069l-0.702,0.396c-0.521-1.117-1.62-2.881-2.61-4.142L319.322,232.879z"/>
	<path id="XMLID_125_" fill="#E2E2E2" d="M332.712,233.455c-1.908,0.648-3.853,1.332-5.365,1.854l-0.198-0.828
		c0.685-0.216,1.53-0.486,2.467-0.811v-4.663h-1.98v-0.792h1.98v-4.177h-2.179v-0.828h5.06v0.828h-2.07v4.177h1.908v0.792h-1.908
		v4.393c0.702-0.234,1.44-0.486,2.16-0.738L332.712,233.455z M342.31,222.67c-0.036,7.598-0.108,14.746,0.936,14.746
		c0.253,0,0.324-1.224,0.343-2.791c0.18,0.18,0.432,0.378,0.612,0.486c-0.091,2.449-0.253,3.151-1.063,3.151
		c-1.765,0-1.603-5.852-1.639-14.818h-7.652v5.798c0,2.773-0.324,6.5-2.575,9.021c-0.107-0.144-0.414-0.414-0.576-0.522
		c2.161-2.413,2.377-5.816,2.377-8.517v-6.554L342.31,222.67L342.31,222.67z M334.567,225.299h6.14v0.756h-2.701v2.431h2.413v6.374
		c0,0.414-0.055,0.648-0.343,0.774c-0.27,0.162-0.702,0.162-1.368,0.162c-0.018-0.216-0.126-0.522-0.252-0.756
		c0.559,0.018,0.973,0.018,1.099,0.018c0.162-0.018,0.18-0.054,0.18-0.198v-5.618h-1.729v0.072h-0.054v8.949h-0.666v-8.949h-0.036
		v-0.072h-1.692v6.734h-0.667v-7.49h2.359v-2.431h-2.683L334.567,225.299L334.567,225.299z"/>
	<path id="XMLID_129_" fill="#E2E2E2" d="M354.006,234.68c-1.765,0.612-3.565,1.225-4.97,1.692l-0.216-0.828
		c0.666-0.198,1.477-0.45,2.358-0.738v-5.383h-2.017v-0.811h2.017v-4.411h-2.16v-0.811h5.06v0.811h-2.106v4.411h1.962v0.811h-1.962
		v5.131l1.926-0.63L354.006,234.68z M359.3,237.201c0,0.504-0.108,0.756-0.45,0.882c-0.378,0.145-1.026,0.162-2.017,0.162
		c-0.036-0.234-0.145-0.558-0.271-0.792c0.828,0.036,1.477,0.036,1.692,0.018c0.217-0.018,0.271-0.072,0.271-0.27v-2.773h-2.989
		c-0.144,1.333-0.45,2.755-1.152,3.889c-0.126-0.18-0.45-0.45-0.63-0.54c0.99-1.584,1.099-3.709,1.099-5.312v-3.763h4.447
		L359.3,237.201L359.3,237.201z M360.416,222.292c-0.145,0.216-0.288,0.396-0.433,0.612c1.278,1.44,3.655,2.935,5.492,3.655
		c-0.181,0.162-0.433,0.45-0.576,0.648c-1.747-0.756-3.979-2.232-5.384-3.727c-1.423,1.621-3.385,3.061-5.113,3.853
		c-0.126-0.216-0.396-0.504-0.576-0.666c2.16-0.864,4.627-2.791,5.869-4.7L360.416,222.292z M358.525,233.707v-1.818h-2.899v0.576
		c0,0.396,0,0.792-0.035,1.242L358.525,233.707L358.525,233.707z M355.626,229.458v1.71h2.899v-1.71H355.626z M362.595,227.297
		h-6.536v-0.756h6.536V227.297z M361.496,235.364h-0.72v-6.428h0.72V235.364z M363.387,228.27h0.756v8.895
		c0,0.54-0.126,0.756-0.468,0.882c-0.36,0.144-0.99,0.162-1.999,0.162c-0.035-0.216-0.162-0.522-0.27-0.756
		c0.811,0.018,1.494,0.018,1.71,0c0.217-0.018,0.271-0.072,0.271-0.27L363.387,228.27L363.387,228.27z"/>
	<path id="XMLID_138_" fill="#E2E2E2" d="M385.164,231.456c-0.414-0.684-1.62-2.196-2.431-3.169v10.011h-0.846v-9.813
		c-0.847,2.449-2.125,4.934-3.331,6.338c-0.126-0.234-0.379-0.558-0.54-0.756c1.404-1.548,2.935-4.573,3.673-7.274h-3.241v-0.828
		h3.439v-3.961h0.846v3.961h2.683v0.828h-2.683v0.432c0.559,0.594,2.593,2.899,3.062,3.475L385.164,231.456z M390.89,226.793
		c0.828,3.079,2.287,6.23,3.8,7.796c-0.198,0.162-0.505,0.468-0.685,0.684c-1.296-1.513-2.557-4.159-3.421-6.896v9.921h-0.864
		v-9.831c-0.99,2.809-2.503,5.564-4.033,7.094c-0.145-0.252-0.396-0.558-0.576-0.756c1.729-1.692,3.511-4.916,4.357-8.012h-3.133
		v-0.828h3.385v-3.961h0.864v3.961h3.565v0.828H390.89L390.89,226.793z"/>
	<path id="XMLID_141_" fill="#E2E2E2" d="M403.344,225.551h2.305v0.828h-2.305v0.594c0.432,0.63,1.98,3.061,2.305,3.673
		l-0.667,0.684c-0.306-0.648-1.062-2.017-1.638-3.025v10.011h-0.811v-9.309c-0.595,2.16-1.423,4.285-2.251,5.563
		c-0.126-0.252-0.378-0.558-0.576-0.738c1.099-1.674,2.232-4.808,2.737-7.454h-2.575v-0.828h2.665v-3.511h0.811V225.551z
		 M415.083,225.281v12.892H414.2v-0.9h-6.535v1.026h-0.864v-13.018h2.898c0.324-0.954,0.685-2.305,0.882-3.241l0.955,0.144
		c-0.307,1.008-0.648,2.197-0.99,3.097C410.546,225.281,415.083,225.281,415.083,225.281z M407.665,226.109v4.699h6.535v-4.699
		C414.2,226.109,407.665,226.109,407.665,226.109z M414.2,236.444v-4.808h-6.535v4.808H414.2z"/>
	<path id="XMLID_146_" fill="#E2E2E2" d="M426.078,224.219h-4.304v-0.792h4.304v-1.404h0.846v1.404h2.305v0.792h-2.305v1.584h-0.846
		V224.219z M422.98,226.469h13.217v11.901h-0.847v-0.792h-11.54v0.792h-0.829L422.98,226.469L422.98,226.469z M423.81,227.244v9.543
		h11.541v-9.543C435.351,227.244,423.81,227.244,423.81,227.244z M433.73,236.192c-0.847-1.117-2.521-2.809-4.088-4.177
		c-0.396,1.494-1.548,2.953-4.483,4.105c-0.107-0.198-0.306-0.486-0.485-0.648c3.385-1.278,4.194-2.953,4.375-4.538h-4.214v-0.774
		h4.25v-0.036v-2.251h0.792v2.251v0.036h4.465v0.774h-4.501l-0.018,0.252c1.656,1.405,3.564,3.259,4.501,4.43L433.73,236.192z
		 M437.35,223.426v0.792h-4.357v1.584h-0.864v-1.584h-2.197v-0.792h2.197v-1.404h0.864v1.404H437.35z"/>
	<path id="XMLID_152_" fill="#E2E2E2" d="M22.772,261.959c-1.333,1.53-3.854,3.007-5.906,3.709
		c-0.126-0.234-0.396-0.558-0.594-0.702c2.053-0.63,4.52-1.944,5.78-3.367L22.772,261.959z M19.495,254.451
		c-0.702-0.522-2.07-1.188-3.205-1.548l0.432-0.63c1.134,0.342,2.502,0.955,3.223,1.495L19.495,254.451z M24.878,260.249h7.472
		v0.792h-7.472v5.275h-0.864v-5.275h-7.562v-0.792h7.562v-1.639h0.864V260.249z M16.704,258.394c0.9-0.774,2.197-2.053,3.277-3.277
		l0.522,0.576c-0.973,1.116-2.143,2.322-3.169,3.331L16.704,258.394z M20.449,252.128c-0.667-0.522-1.999-1.17-3.097-1.548
		l0.432-0.594c1.099,0.36,2.413,0.973,3.133,1.495L20.449,252.128z M26.103,251.588c-0.504,3.763-2.197,5.762-5.222,7.04
		c-0.108-0.162-0.432-0.504-0.648-0.648c1.729-0.612,2.989-1.513,3.817-2.827c-0.72-0.72-1.927-1.584-2.953-2.178l0.432-0.541
		c1.008,0.558,2.143,1.369,2.899,2.053c0.378-0.828,0.648-1.783,0.811-2.899h-3.151v-0.792h7.4c0,0,0,0.324-0.018,0.432
		c-0.036,0.828-0.09,1.548-0.126,2.161c1.081,0.864,2.359,2.017,3.043,2.737l-0.63,0.558c-0.54-0.63-1.548-1.566-2.484-2.377
		c-0.18,2.233-0.36,3.151-0.702,3.547c-0.252,0.27-0.522,0.378-0.955,0.378c-0.36,0.036-1.044,0.018-1.729-0.018
		c-0.018-0.234-0.09-0.54-0.234-0.774c0.738,0.072,1.422,0.09,1.674,0.09s0.414-0.036,0.54-0.198
		c0.324-0.36,0.558-1.818,0.756-5.744L26.103,251.588L26.103,251.588z M26.733,261.527c1.963,0.937,4.375,2.359,5.618,3.331
		l-0.576,0.666c-1.206-0.972-3.619-2.449-5.563-3.403L26.733,261.527z"/>
	<path id="XMLID_160_" fill="#E2E2E2" d="M37.638,257.998c0.414-1.225,0.72-3.187,0.846-4.574l0.702,0.108
		c-0.072,1.35-0.36,3.403-0.829,4.681L37.638,257.998z M40.141,250.022h0.828v16.331h-0.828V250.022z M42.463,255.603
		c-0.144-0.684-0.558-1.782-0.972-2.611l0.666-0.252c0.414,0.828,0.846,1.873,1.008,2.503L42.463,255.603z M53.915,264.984h-8.48
		v1.333h-0.828v-11.073c-0.504,0.918-1.08,1.747-1.656,2.431c-0.162-0.144-0.504-0.432-0.685-0.594
		c1.531-1.692,2.809-4.303,3.619-6.95l0.846,0.18c-0.324,1.026-0.72,2.035-1.152,2.989h8.048v0.811h-3.799v2.772h3.403v0.811h-3.403
		v2.791h3.403v0.811h-3.403v2.881h4.087C53.915,264.177,53.915,264.984,53.915,264.984z M49,254.109h-3.565v2.772H49V254.109z
		 M49,257.692h-3.565v2.791H49V257.692z M45.434,264.174H49v-2.881h-3.565L45.434,264.174L45.434,264.174z M49.792,253.191
		c-0.252-0.738-0.81-1.891-1.351-2.737l0.738-0.288c0.559,0.846,1.152,1.962,1.405,2.683L49.792,253.191z"/>
	<path id="XMLID_169_" fill="#E2E2E2" d="M63.83,250.346c-0.396,1.242-0.9,2.449-1.44,3.619v12.37h-0.811v-10.821
		c-0.63,1.116-1.332,2.143-2.053,3.007c-0.09-0.198-0.342-0.63-0.504-0.828c1.621-1.873,3.097-4.682,3.997-7.544L63.83,250.346z
		 M69.573,252.093c-0.756,3.763-2.755,6.158-5.114,7.328c-0.108-0.18-0.306-0.468-0.504-0.648c1.152-0.504,2.232-1.386,3.097-2.593
		c-0.504-0.522-1.26-1.242-1.944-1.818c-0.342,0.468-0.72,0.9-1.116,1.314c-0.145-0.162-0.415-0.36-0.612-0.468
		c1.512-1.44,2.502-3.385,2.953-4.897l0.792,0.108c-0.162,0.468-0.36,0.99-0.594,1.513h2.376l0.162-0.036L69.573,252.093z
		 M67.971,261.888c-0.972,1.278-2.359,2.754-3.493,3.745c-0.126-0.162-0.468-0.468-0.684-0.612c1.17-0.9,2.467-2.233,3.367-3.439
		L67.971,261.888z M70.042,260.159h5.563v0.792h-5.563v5.384h-0.847v-5.384H63.92v-0.792h5.275v-2.107h0.847V260.159z
		 M66.152,252.669c-0.18,0.378-0.396,0.738-0.648,1.116c0.702,0.522,1.495,1.188,1.999,1.729c0.486-0.828,0.882-1.783,1.152-2.845
		H66.152z M75.749,256.144v0.756H73.57v2.197h-0.792V256.9h-2.953v-0.018h-0.378c0.324-1.008,0.756-2.502,1.062-3.745h-0.648v-0.756
		h2.917v-2.071h0.792v2.071h1.854v0.756H73.57v3.007H75.749z M72.778,256.144v-3.007h-1.53c-0.27,1.008-0.576,2.107-0.846,3.007
		H72.778z M71.878,261.581c1.224,1.098,2.628,2.557,3.295,3.493l-0.667,0.54c-0.684-0.955-2.088-2.503-3.259-3.583L71.878,261.581z"
		/>
	<path id="XMLID_178_" fill="#E2E2E2" d="M94.753,264.048c-1.44,0.9-3.691,1.8-5.492,2.305c-0.144-0.162-0.432-0.468-0.612-0.648
		c1.818-0.486,4.105-1.368,5.257-2.125L94.753,264.048z M104.782,256.432H88.83v-0.774h15.953v0.774H104.782z M93.169,252.272
		h-3.493v-0.738h3.493v-1.549h0.846v1.549h5.618v-1.549h0.864v1.549h3.529v0.738h-3.529v2.287h-7.328L93.169,252.272L93.169,252.272
		z M90.918,263.292v-5.798h11.956v5.798H90.918z M91.764,260.033h4.574v-1.836h-4.574V260.033z M91.764,262.572h4.574v-1.854h-4.574
		V262.572z M94.015,252.272v1.567h5.618v-1.567H94.015z M102.009,258.196h-4.825v1.836h4.825V258.196z M102.009,260.717h-4.825
		v1.854h4.825V260.717z M99.525,263.58c1.98,0.63,4.087,1.458,5.419,2.088l-0.738,0.648c-1.224-0.648-3.259-1.477-5.257-2.161
		L99.525,263.58z"/>
	<path id="XMLID_189_" fill="#E2E2E2" d="M118.316,261.618c-1.026,2.34-3.043,3.925-7.526,4.717
		c-0.072-0.216-0.27-0.576-0.414-0.738c4.141-0.667,6.05-2.017,7.004-3.979h-6.824v-0.811h7.166c0.18-0.576,0.324-1.188,0.432-1.854
		h0.9c-0.108,0.666-0.252,1.278-0.45,1.854h7.742v0.811H118.316L118.316,261.618z M116.029,252.633h-5.582v-0.792h7.85
		c-0.252-0.504-0.63-1.17-0.972-1.674l0.792-0.216c0.432,0.559,0.9,1.369,1.152,1.891h7.076v0.792h-5.474v6.626h-0.846v-6.626
		h-3.151v0.774c0,1.945-0.432,4.268-4.501,5.924c-0.126-0.216-0.378-0.504-0.576-0.666c3.889-1.458,4.231-3.619,4.231-5.275
		L116.029,252.633L116.029,252.633z M114.319,253.821c-0.72,1.134-1.854,2.395-2.845,3.205c-0.145-0.144-0.468-0.414-0.648-0.54
		c1.008-0.756,2.053-1.836,2.719-2.917L114.319,253.821z M119.18,261.977c2.377,1.063,5.546,2.647,7.184,3.565l-0.432,0.774
		c-1.639-0.972-4.771-2.593-7.202-3.709L119.18,261.977z M122.457,253.605c1.207,0.937,2.575,2.269,3.223,3.205l-0.738,0.468
		c-0.612-0.937-1.944-2.323-3.169-3.277L122.457,253.605z"/>
	<path id="XMLID_195_" fill="#E2E2E2" d="M133.56,256.522v9.831h-0.846v-15.521h6.32v5.69H133.56z M133.56,251.552v1.729h4.646
		v-1.729H133.56z M138.206,255.802v-1.819h-4.646v1.819H138.206z M143.553,265.002c-0.685-0.666-1.729-1.477-2.917-2.269
		c-1.386,1.206-3.205,2.035-5.275,2.611c-0.108-0.198-0.36-0.541-0.522-0.72c2.035-0.486,3.781-1.225,5.132-2.341
		c-1.099-0.72-2.233-1.387-3.313-1.927l0.414-0.594c1.134,0.576,2.34,1.279,3.457,1.981c0.702-0.685,1.242-1.513,1.621-2.485h-6.95
		v-0.756h9.615v0.756h-1.765c-0.432,1.17-1.044,2.125-1.836,2.935c1.116,0.756,2.125,1.494,2.809,2.125L143.553,265.002z
		 M140.15,258.376c-0.216-0.45-0.72-1.152-1.206-1.603l0.594-0.378c0.504,0.468,1.008,1.116,1.26,1.584L140.15,258.376z
		 M147.352,265.02c0,0.648-0.18,0.972-0.612,1.116c-0.486,0.162-1.351,0.18-2.701,0.18c-0.036-0.252-0.162-0.648-0.306-0.9
		c1.117,0.018,2.089,0.018,2.377,0c0.288,0,0.378-0.09,0.378-0.396v-8.48h-5.618v-5.708h6.482V265.02z M141.699,251.552v1.729h4.789
		v-1.729H141.699z M146.488,255.802v-1.819h-4.789v1.819H146.488z"/>
	<path id="XMLID_204_" fill="#E2E2E2" d="M166.59,251.102c-0.54,1.44-1.278,3.223-1.926,4.664c1.422,1.548,1.8,2.845,1.8,4.015
		c0,0.846-0.198,1.603-0.666,1.927c-0.216,0.144-0.54,0.252-0.864,0.288c-0.396,0.036-0.846,0.036-1.242,0
		c-0.018-0.216-0.108-0.54-0.252-0.774c0.468,0.018,0.882,0.036,1.188,0.018c0.252-0.018,0.45-0.072,0.612-0.18
		c0.306-0.198,0.414-0.774,0.414-1.332c0-1.063-0.396-2.341-1.836-3.854c0.63-1.422,1.26-3.043,1.71-4.285h-2.971v14.729h-0.81
		v-15.539h4.141l0.144-0.036L166.59,251.102z M172.982,260.555c1.063,1.71,2.845,3.349,4.501,4.141
		c-0.18,0.162-0.468,0.468-0.594,0.684c-1.747-0.936-3.619-2.863-4.699-4.789v5.708h-0.829v-5.672
		c-1.188,1.963-3.259,3.854-5.077,4.826c-0.144-0.198-0.396-0.504-0.594-0.684c1.729-0.811,3.655-2.485,4.825-4.213h-3.061v-6.068
		h3.907v-1.674h-4.717v-0.774h4.717v-2.017h0.829v2.017h4.843v0.774h-4.843v1.674h4.015v6.068h-3.223V260.555z M168.265,257.152
		h3.097v-1.944h-3.097V257.152z M168.265,259.835h3.097v-1.98h-3.097V259.835z M172.19,255.207v1.944h3.187v-1.944H172.19z
		 M175.377,257.854h-3.187v1.98h3.187V257.854z"/>
	<path id="XMLID_211_" fill="#E2E2E2" d="M188.515,260.069c-0.27-0.54-1.062-1.782-1.621-2.629v8.877h-0.828v-8.787
		c-0.846,2.106-2.053,4.267-3.133,5.51c-0.108-0.234-0.36-0.576-0.522-0.774c1.278-1.351,2.754-3.979,3.529-6.248h-3.151v-0.828
		h3.277v-3.403c-0.954,0.216-1.962,0.378-2.881,0.522c-0.054-0.198-0.18-0.486-0.27-0.666c2.017-0.36,4.447-0.882,5.744-1.44
		l0.648,0.648c-0.685,0.27-1.513,0.522-2.413,0.738v3.601h2.683v0.828h-2.683v0.432c0.415,0.486,1.855,2.467,2.179,2.953
		L188.515,260.069z M194.457,249.986c0,2.161-0.018,4.285-0.18,6.266c0.612,4.375,1.927,7.742,4.753,9.237
		c-0.216,0.162-0.504,0.486-0.612,0.702c-2.395-1.404-3.709-3.925-4.465-7.346c-0.612,3.169-1.891,5.797-4.718,7.472
		c-0.162-0.198-0.468-0.486-0.684-0.63c5.096-2.863,5.023-9.057,5.042-15.701H194.457z M191.396,258.394
		c-0.342-1.134-1.152-3.151-1.854-4.627l0.702-0.288c0.702,1.495,1.513,3.457,1.891,4.537L191.396,258.394z M198.598,253.803
		c-0.612,1.548-1.44,3.457-2.125,4.681l-0.72-0.27c0.684-1.242,1.548-3.295,1.999-4.699L198.598,253.803z"/>
	<path id="XMLID_216_" fill="#E2E2E2" d="M219.478,253.281v8.103h-0.882v-1.098h-5.815v6.014h-0.882v-6.014h-5.816v1.188h-0.846
		v-8.192h6.662v-3.259h0.882v3.259L219.478,253.281L219.478,253.281z M211.897,259.439v-5.312h-5.816v5.312H211.897z
		 M218.595,259.439v-5.312h-5.815v5.312H218.595z"/>
	<path id="XMLID_220_" fill="#E2E2E2" d="M239.545,264.048c-1.44,0.9-3.691,1.8-5.492,2.305c-0.144-0.162-0.432-0.468-0.612-0.648
		c1.818-0.486,4.105-1.368,5.258-2.125L239.545,264.048z M249.574,256.432h-15.953v-0.774h15.953V256.432z M237.96,252.272h-3.493
		v-0.738h3.493v-1.549h0.846v1.549h5.618v-1.549h0.864v1.549h3.529v0.738h-3.529v2.287h-7.328L237.96,252.272L237.96,252.272z
		 M235.709,263.292v-5.798h11.956v5.798H235.709z M236.556,260.033h4.574v-1.836h-4.574V260.033z M236.556,262.572h4.574v-1.854
		h-4.574V262.572z M238.807,252.272v1.567h5.618v-1.567H238.807z M246.801,258.196h-4.825v1.836h4.825V258.196z M246.801,260.717
		h-4.825v1.854h4.825V260.717z M244.316,263.58c1.981,0.63,4.087,1.458,5.42,2.088l-0.738,0.648
		c-1.225-0.648-3.259-1.477-5.258-2.161L244.316,263.58z"/>
	<path id="XMLID_231_" fill="#E2E2E2" d="M271.174,257.98h-7.58v8.354h-0.883v-8.354h-7.49v-0.846h7.49v-4.753
		c-2.089,0.324-4.268,0.594-6.284,0.792c-0.036-0.216-0.162-0.558-0.252-0.774c4.394-0.45,9.688-1.188,12.479-2.089l0.666,0.72
		c-1.513,0.468-3.529,0.882-5.726,1.242v4.862h7.58L271.174,257.98L271.174,257.98z"/>
	<path id="XMLID_233_" fill="#E2E2E2" d="M281.61,262.68c-1.765,0.612-3.565,1.225-4.97,1.692l-0.216-0.828
		c0.666-0.198,1.477-0.45,2.358-0.738v-5.383h-2.017v-0.811h2.017v-4.411h-2.16v-0.811h5.06v0.811h-2.106v4.411h1.962v0.811h-1.962
		v5.131l1.926-0.63L281.61,262.68z M286.904,265.201c0,0.504-0.108,0.756-0.45,0.882c-0.378,0.145-1.026,0.162-2.017,0.162
		c-0.036-0.234-0.145-0.558-0.271-0.792c0.828,0.036,1.477,0.036,1.692,0.018c0.217-0.018,0.271-0.072,0.271-0.27v-2.773h-2.989
		c-0.144,1.333-0.45,2.755-1.152,3.889c-0.126-0.18-0.45-0.45-0.63-0.54c0.99-1.584,1.099-3.709,1.099-5.312v-3.763h4.447
		L286.904,265.201L286.904,265.201z M288.021,250.292c-0.145,0.216-0.288,0.396-0.433,0.612c1.278,1.44,3.655,2.935,5.492,3.655
		c-0.181,0.162-0.433,0.45-0.576,0.648c-1.747-0.756-3.979-2.232-5.384-3.727c-1.423,1.621-3.385,3.061-5.113,3.853
		c-0.126-0.216-0.396-0.504-0.576-0.666c2.16-0.864,4.627-2.791,5.869-4.7L288.021,250.292z M286.13,261.707v-1.818h-2.899v0.576
		c0,0.396,0,0.792-0.035,1.242L286.13,261.707L286.13,261.707z M283.23,257.458v1.71h2.899v-1.71H283.23z M290.199,255.297h-6.536
		v-0.756h6.536V255.297z M289.101,263.364h-0.72v-6.428h0.72V263.364z M290.991,256.27h0.756v8.895c0,0.54-0.126,0.756-0.468,0.882
		c-0.36,0.144-0.99,0.162-1.999,0.162c-0.035-0.216-0.162-0.522-0.27-0.756c0.811,0.018,1.494,0.018,1.71,0
		c0.217-0.018,0.271-0.072,0.271-0.27L290.991,256.27L290.991,256.27z"/>
	<path id="XMLID_242_" fill="#E2E2E2" d="M311.383,251.102c-0.541,1.44-1.279,3.223-1.927,4.664c1.422,1.548,1.8,2.845,1.8,4.015
		c0,0.846-0.197,1.603-0.666,1.927c-0.216,0.144-0.54,0.252-0.864,0.288c-0.396,0.036-0.846,0.036-1.242,0
		c-0.018-0.216-0.108-0.54-0.252-0.774c0.468,0.018,0.882,0.036,1.188,0.018c0.252-0.018,0.45-0.072,0.612-0.18
		c0.306-0.198,0.414-0.774,0.414-1.332c0-1.063-0.396-2.341-1.837-3.854c0.63-1.422,1.261-3.043,1.711-4.285h-2.971v14.729h-0.811
		v-15.539h4.141l0.145-0.036L311.383,251.102z M317.774,260.555c1.063,1.71,2.845,3.349,4.501,4.141
		c-0.18,0.162-0.468,0.468-0.594,0.684c-1.747-0.936-3.619-2.863-4.699-4.789v5.708h-0.829v-5.672
		c-1.188,1.963-3.259,3.854-5.077,4.826c-0.144-0.198-0.396-0.504-0.594-0.684c1.729-0.811,3.654-2.485,4.825-4.213h-3.061v-6.068
		h3.906v-1.674h-4.717v-0.774h4.717v-2.017h0.829v2.017h4.843v0.774h-4.843v1.674h4.015v6.068h-3.222V260.555z M313.057,257.152
		h3.097v-1.944h-3.097V257.152z M313.057,259.835h3.097v-1.98h-3.097V259.835z M316.982,255.207v1.944h3.187v-1.944H316.982z
		 M320.169,257.854h-3.187v1.98h3.187V257.854z"/>
	<path id="XMLID_249_" fill="#E2E2E2" d="M343.336,265.057v0.792h-15.521v-0.792h7.329v-2.377h-5.276v-0.756h5.276v-2.052h-4.808
		c-0.612,0.81-1.278,1.548-1.945,2.125c-0.161-0.162-0.521-0.432-0.756-0.576c1.387-1.026,2.646-2.647,3.421-4.303l0.864,0.234
		c-0.288,0.576-0.63,1.17-1.008,1.729h4.231v-1.656h0.864v1.656h6.229v0.792h-6.229v2.052h5.509v0.756h-5.509v2.377L343.336,265.057
		L343.336,265.057z M341.517,256.972H329.76v-6.176h11.757V256.972z M340.635,251.552h-10.029v1.963h10.029V251.552z
		 M340.635,254.235h-10.029v1.999h10.029V254.235z"/>
	<path id="XMLID_254_" fill="#E2E2E2" d="M354.744,254.811c-0.036,2.088-0.271,4.591-1.477,7.004
		c0.847,0.756,1.585,1.477,2.053,2.053l-0.576,0.684c-0.45-0.558-1.116-1.242-1.873-1.944c-0.773,1.278-1.8,2.539-3.276,3.673
		c-0.145-0.144-0.414-0.432-0.63-0.54c1.476-1.17,2.521-2.413,3.259-3.727c-0.883-0.756-1.818-1.531-2.701-2.143
		c0.414-1.261,0.847-3.007,1.242-4.826l-1.656,0.09l-0.126-0.846l1.963-0.09c0.27-1.44,0.521-2.899,0.666-4.141l0.828,0.054
		c-0.162,1.225-0.414,2.665-0.685,4.069l2.179-0.108v-1.495h0.811v1.44l1.314-0.072v0.774L354.744,254.811z M351.611,255.009
		c-0.36,1.675-0.757,3.295-1.135,4.574c0.702,0.504,1.44,1.098,2.143,1.674c1.063-2.215,1.278-4.501,1.314-6.392L351.611,255.009z
		 M364.467,266.029c-0.198-0.486-0.468-1.099-0.792-1.765c-6.716,0.72-7.382,0.811-7.796,0.99c-0.055-0.198-0.198-0.648-0.307-0.882
		c0.307-0.036,0.648-0.576,1.08-1.26c0.414-0.648,1.801-3.025,2.701-5.348h-3.89v-0.828h9.777v0.828h-4.861
		c-1.009,2.287-2.196,4.609-3.421,6.356l6.338-0.63c-0.559-1.134-1.207-2.376-1.801-3.403l0.756-0.27
		c1.081,1.891,2.413,4.411,3.025,5.834L364.467,266.029z M364.089,252.363h-7.4v-0.846h7.4V252.363z"/>
	<path id="XMLID_259_" fill="#E2E2E2" d="M387.487,258.557c1.71,2.34,4.609,4.663,7.166,5.726c-0.216,0.18-0.469,0.504-0.631,0.756
		c-2.521-1.207-5.419-3.601-7.22-6.086v7.364h-0.882v-7.418c-1.729,2.611-4.609,5.024-7.131,6.266
		c-0.162-0.216-0.414-0.54-0.63-0.72c2.539-1.098,5.384-3.439,7.04-5.888h-6.662v-0.846h7.383v-3.619h-4.286
		c-0.521,0.918-1.062,1.729-1.638,2.395c-0.181-0.126-0.595-0.324-0.811-0.432c1.296-1.386,2.395-3.457,3.061-5.6l0.864,0.198
		c-0.288,0.9-0.647,1.764-1.044,2.593h3.854v-3.205h0.882v3.205h6.032v0.846h-6.032v3.619h7.418v0.846L387.487,258.557
		L387.487,258.557z"/>
	<path id="XMLID_261_" fill="#E2E2E2" d="M412.922,260.087c-0.936,1.477-2.305,2.701-4.051,3.673c2.125,0.9,4.609,1.494,7.311,1.8
		c-0.181,0.198-0.379,0.504-0.486,0.756c-2.845-0.36-5.474-1.044-7.707-2.125c-2.16,1.044-4.825,1.747-7.904,2.161
		c-0.071-0.252-0.233-0.559-0.414-0.774c2.881-0.36,5.366-0.954,7.419-1.836c-1.729-0.955-3.151-2.179-4.159-3.655h-2.863v-0.774
		h7.688c-0.181-0.378-0.396-0.756-0.612-1.099l0.811-0.252c0.288,0.414,0.594,0.936,0.773,1.351h7.185v0.774H412.922z
		 M401.381,256.9h-0.847v-3.763h6.95v-1.638h-6.176v-0.72h13.306v0.72h-6.283v1.638h7.094v3.763h-0.846v-3.025h-6.248v3.961h-0.847
		v-3.961h-6.104L401.381,256.9L401.381,256.9z M401.957,257.422c1.134-0.144,2.683-0.378,4.285-0.594l0.036,0.63
		c-1.423,0.27-2.809,0.522-3.997,0.738L401.957,257.422z M402.659,254.505c1.242,0.234,2.827,0.684,3.691,1.063l-0.288,0.612
		c-0.864-0.396-2.449-0.882-3.709-1.116L402.659,254.505z M403.901,260.087c0.99,1.314,2.377,2.377,4.069,3.241
		c1.692-0.864,3.007-1.927,3.979-3.241H403.901z M413.589,258.304c-0.991-0.342-2.81-0.756-4.231-0.954l0.27-0.594
		c1.404,0.162,3.224,0.522,4.214,0.9L413.589,258.304z M413.624,255.045c-1.062,0.45-2.61,0.864-3.727,1.099l-0.342-0.504
		c1.08-0.252,2.7-0.81,3.618-1.17L413.624,255.045z"/>
	<path id="XMLID_269_" fill="#E2E2E2" d="M426.474,250.31c-0.558,1.368-1.224,2.737-1.962,3.979v12.01h-0.829v-10.713
		c-0.684,1.008-1.404,1.927-2.178,2.683c-0.072-0.18-0.36-0.594-0.522-0.774c1.854-1.8,3.601-4.591,4.682-7.418L426.474,250.31z
		 M432.02,250.22c-0.09,0.216-0.216,0.432-0.342,0.648c1.404,2.089,3.997,4.321,6.157,5.348c-0.233,0.162-0.521,0.486-0.666,0.684
		c-1.998-1.098-4.411-3.241-5.941-5.33c-1.314,2.053-3.205,3.998-5.42,5.456c-0.144-0.144-0.45-0.378-0.648-0.504
		c2.665-1.71,4.897-4.195,6.014-6.518L432.02,250.22z M436.07,258.719c-0.99,1.747-2.862,3.943-4.159,5.239
		c0.793,0.667,1.513,1.333,1.999,1.854l-0.756,0.45c-0.99-1.134-3.098-2.935-4.826-4.159l0.721-0.396
		c0.684,0.504,1.458,1.098,2.196,1.692c1.116-1.044,2.629-2.827,3.565-4.195h-7.706v-0.792h8.229l0.161-0.054L436.07,258.719z
		 M434.54,255.459v0.792h-6.104v-0.792H434.54z"/>
	<path id="XMLID_274_" fill="#E2E2E2" d="M21.799,279.102c-0.54,1.44-1.278,3.223-1.926,4.664c1.422,1.548,1.8,2.845,1.8,4.015
		c0,0.846-0.198,1.603-0.666,1.927c-0.216,0.144-0.54,0.252-0.864,0.288c-0.396,0.036-0.846,0.036-1.242,0
		c-0.018-0.216-0.108-0.54-0.252-0.774c0.468,0.018,0.882,0.036,1.188,0.018c0.252-0.018,0.45-0.072,0.612-0.18
		c0.306-0.198,0.414-0.774,0.414-1.332c0-1.063-0.396-2.341-1.836-3.854c0.63-1.422,1.26-3.043,1.71-4.285h-2.971v14.729h-0.81
		v-15.539h4.141l0.144-0.036L21.799,279.102z M28.191,288.555c1.063,1.71,2.845,3.349,4.501,4.141
		c-0.18,0.162-0.468,0.468-0.594,0.684c-1.747-0.936-3.619-2.863-4.699-4.789v5.708H26.57v-5.672
		c-1.188,1.963-3.259,3.854-5.077,4.826c-0.144-0.198-0.396-0.504-0.594-0.684c1.729-0.811,3.655-2.485,4.825-4.213h-3.061v-6.068
		h3.907v-1.674h-4.717v-0.774h4.717v-2.017h0.829v2.017h4.843v0.774h-4.843v1.674h4.015v6.068h-3.223V288.555z M23.474,285.152
		h3.097v-1.944h-3.097V285.152z M23.474,287.835h3.097v-1.98h-3.097V287.835z M27.399,283.207v1.944h3.187v-1.944H27.399z
		 M30.586,285.854h-3.187v1.98h3.187V285.854z"/>
	<path id="XMLID_281_" fill="#E2E2E2" d="M54.149,292.966v0.811H37.854v-0.811h9.705c0.738-1.17,1.674-2.899,2.196-4.123
		l0.918,0.306c-0.648,1.224-1.44,2.701-2.161,3.817H54.149z M52.907,288.339H39.079v-0.81h6.842c-0.27-0.576-0.63-1.296-0.972-1.891
		l0.846-0.234c0.414,0.666,0.864,1.53,1.17,2.125h5.942C52.907,287.529,52.907,288.339,52.907,288.339z M51.988,285.116H39.925
		v-6.446h12.063C51.988,278.67,51.988,285.116,51.988,285.116z M51.124,279.408H40.771v2.107h10.353V279.408z M51.124,282.217
		H40.771v2.143h10.353V282.217z M42.95,292.66c-0.252-0.99-0.864-2.521-1.351-3.673l0.81-0.216c0.541,1.152,1.134,2.647,1.387,3.619
		L42.95,292.66z"/>
	<path id="XMLID_288_" fill="#E2E2E2" d="M70.419,281.911c1.296,1.369,3.421,2.485,5.419,3.025c-0.198,0.18-0.432,0.468-0.576,0.702
		c-1.224-0.378-2.485-0.99-3.601-1.747v2.413h-7.958v-2.413c-1.17,0.738-2.449,1.333-3.799,1.819
		c-0.144-0.18-0.468-0.522-0.667-0.667c2.233-0.684,4.195-1.71,5.708-3.133H59.94v-0.756h5.726c0.396-0.486,0.774-1.008,1.08-1.584
		c-1.854,0.108-3.781,0.18-5.509,0.198c0-0.216-0.108-0.522-0.198-0.72c4.051-0.054,9.183-0.36,11.793-0.864l0.648,0.648
		c-1.513,0.306-3.565,0.522-5.744,0.667c-0.271,0.612-0.63,1.134-0.991,1.656h8.553v0.756H70.419z M74.363,293.075
		c0,0.558-0.126,0.81-0.576,0.954c-0.486,0.144-1.351,0.144-2.719,0.144c-0.054-0.234-0.198-0.522-0.324-0.774
		c1.224,0.036,2.143,0.036,2.431,0c0.288,0,0.342-0.072,0.342-0.324v-4.934H61.796v6.194h-0.829v-6.95h13.396L74.363,293.075
		L74.363,293.075z M70.996,292.696h-6.734v-3.259h6.734V292.696z M70.815,283.838h-6.302v1.8h6.302V283.838z M70.689,283.171
		c-0.468-0.396-0.9-0.81-1.242-1.26h-3.349c-0.414,0.468-0.882,0.864-1.369,1.26H70.689z M70.167,290.103h-5.096v1.927h5.096
		V290.103z"/>
	<path id="XMLID_295_" fill="#E2E2E2" d="M97.976,290.446l0.054,0.828c-3.349,0.63-6.914,1.26-9.273,1.71l-0.18-0.918
		c0.468-0.072,0.99-0.162,1.566-0.252v-12.352c2.161-0.234,4.843-0.648,6.338-1.098l0.504,0.756
		c-1.548,0.45-3.943,0.811-5.996,1.026v3.493h6.608v0.828h-1.963v6.392L97.976,290.446z M90.99,291.67
		c1.152-0.198,2.485-0.432,3.835-0.666v-6.536H90.99V291.67z M104.854,279.408c-0.828,1.639-1.926,3.655-2.953,5.348
		c2.179,1.747,2.773,3.115,2.773,4.429c0.018,0.937-0.234,1.747-0.9,2.125c-0.324,0.198-0.774,0.306-1.242,0.378
		c-0.63,0.054-1.458,0.036-2.107-0.018c-0.018-0.252-0.144-0.594-0.306-0.864c0.774,0.09,1.566,0.108,2.089,0.054
		c0.378-0.018,0.72-0.09,0.99-0.216c0.486-0.27,0.648-0.846,0.648-1.512c-0.018-1.207-0.721-2.539-2.917-4.231
		c0.99-1.656,1.999-3.601,2.719-5.042h-4.015v14.495h-0.811v-15.323h5.276l0.162-0.054L104.854,279.408z"/>
	<path id="XMLID_299_" fill="#E2E2E2" d="M124.15,293.309c1.278,0,1.476-0.396,1.62-2.521c0.216,0.144,0.558,0.271,0.811,0.324
		c-0.18,2.377-0.522,2.989-2.431,2.989h-5.618c-2.088,0-2.683-0.306-2.683-1.674v-5.744h-2.323v1.495
		c0,1.908-0.486,4.411-2.773,6.176c-0.108-0.18-0.378-0.504-0.558-0.63c2.107-1.639,2.521-3.835,2.521-5.545v-1.495h-2.269v-0.828
		h8.156v0.828h-1.944v5.744c0,0.684,0.306,0.882,1.8,0.882h5.691V293.309z M111.78,281.767h-0.846v-2.827h14.945v2.827h-0.864
		v-1.999H111.78V281.767z M111.672,282.325h6.248v0.828h-6.248V282.325z M124.276,290.95c0,0.54-0.126,0.792-0.522,0.937
		c-0.414,0.144-1.116,0.162-2.305,0.144c-0.036-0.216-0.162-0.541-0.288-0.774c0.955,0.018,1.747,0.018,1.98,0
		c0.234-0.018,0.306-0.072,0.306-0.306v-6.158h-4.861v-0.81h4.861v-2.557h0.829v2.557h2.088v0.81h-2.088L124.276,290.95
		L124.276,290.95z M120.063,286.034c0.756,0.991,1.458,2.305,1.729,3.205l-0.756,0.342c-0.252-0.9-0.954-2.269-1.674-3.259
		L120.063,286.034z"/>
	<path id="XMLID_305_" fill="#E2E2E2" d="M147.082,281.281v8.103H146.2v-1.098h-5.815v6.014h-0.882v-6.014h-5.816v1.188h-0.846
		v-8.192h6.662v-3.259h0.882v3.259L147.082,281.281L147.082,281.281z M139.502,287.439v-5.312h-5.816v5.312H139.502z M146.2,287.439
		v-5.312h-5.815v5.312H146.2z"/>
	<path id="XMLID_309_" fill="#E2E2E2" d="M164.286,285.692c-0.72-0.558-2.125-1.387-3.223-1.927l0.468-0.63
		c1.098,0.504,2.502,1.297,3.223,1.819L164.286,285.692z M161.621,293.471c0.936-1.351,2.323-3.691,3.313-5.636l0.63,0.558
		c-0.918,1.836-2.197,4.087-3.205,5.672L161.621,293.471z M165.42,281.155c-0.774-0.666-2.287-1.656-3.475-2.341l0.522-0.594
		c1.207,0.63,2.701,1.584,3.457,2.25L165.42,281.155z M177.34,287.673v0.846h-11.667v-0.846h2.971v-4.934h-2.539v-0.828h2.539
		v-3.817h0.846v3.817h4.069v-3.835h0.846v3.835h2.701v0.828h-2.701v4.934H177.34z M169.777,290.103
		c-0.864,1.548-2.178,3.151-3.349,4.177c-0.162-0.144-0.522-0.414-0.738-0.558c1.242-0.972,2.485-2.431,3.259-3.871L169.777,290.103
		z M169.489,287.673h4.069v-4.934h-4.069V287.673z M173.811,289.906c1.261,1.224,2.647,2.863,3.295,3.961l-0.721,0.468
		c-0.648-1.117-2.017-2.809-3.241-4.015L173.811,289.906z"/>
	<path id="XMLID_330_" fill="#E2E2E2" d="M209.305,282.793c0,2.106-0.144,4.646-1.207,7.076c0.846,0.792,1.621,1.566,2.107,2.214
		l-0.541,0.685c-0.468-0.612-1.152-1.369-1.944-2.143c-0.684,1.279-1.657,2.521-3.043,3.655c-0.126-0.18-0.414-0.414-0.594-0.522
		c1.404-1.152,2.377-2.413,3.043-3.691c-0.846-0.774-1.747-1.548-2.593-2.196c0.396-1.261,0.828-3.079,1.188-4.97l-1.458,0.09
		l-0.108-0.847c0.504-0.018,1.08-0.036,1.729-0.072c0.252-1.404,0.468-2.809,0.594-4.033l0.774,0.036
		c-0.144,1.206-0.36,2.575-0.594,3.961l1.873-0.108v-1.351h0.774v1.314l1.026-0.054v0.774l-1.026,0.072L209.305,282.793
		L209.305,282.793z M206.478,282.847c-0.324,1.765-0.721,3.475-1.063,4.771c0.684,0.522,1.386,1.099,2.053,1.693
		c0.954-2.269,1.062-4.574,1.062-6.5v-0.09L206.478,282.847z M210.061,286.287h10.281v2.61h-0.81v-1.854h-8.697v1.854h-0.774
		L210.061,286.287L210.061,286.287z M220.54,279.876v0.774h-10.335v-0.774h4.825c-0.234-0.522-0.576-1.17-0.918-1.674l0.774-0.252
		c0.432,0.594,0.864,1.387,1.063,1.927h4.591V279.876z M211.285,288.609h7.67v0.756h-3.331v3.889c0,0.522-0.108,0.738-0.504,0.882
		c-0.45,0.126-1.188,0.144-2.395,0.144c-0.036-0.234-0.162-0.522-0.288-0.756c1.026,0.018,1.801,0.018,2.035,0
		c0.252-0.018,0.306-0.09,0.306-0.288v-3.871h-3.493L211.285,288.609L211.285,288.609z M218.956,281.803v3.169h-7.346v-3.169
		H218.956z M218.127,282.505h-5.708v1.765h5.708V282.505z"/>
	<path id="XMLID_338_" fill="#E2E2E2" d="M239.743,285.152c-0.162,6.14-0.27,8.103-0.738,8.697
		c-0.252,0.324-0.522,0.432-0.972,0.468c-0.432,0.018-1.207,0.018-1.962-0.036c-0.018-0.252-0.108-0.576-0.234-0.81
		c0.847,0.072,1.621,0.072,1.891,0.072c0.27,0.018,0.432-0.018,0.576-0.216c0.306-0.414,0.468-2.359,0.612-7.833h-2.647
		c-0.216,3.547-0.738,6.788-2.269,8.841c-0.144-0.18-0.468-0.432-0.684-0.541c1.909-2.539,2.161-7.31,2.232-11.919h-2.088v-0.81
		h7.04v0.81h-4.105c-0.018,0.937-0.036,1.891-0.09,2.809h3.439L239.743,285.152L239.743,285.152z M237.222,280.759
		c-0.198-0.648-0.63-1.657-1.008-2.395l0.72-0.252c0.396,0.738,0.846,1.711,1.044,2.359L237.222,280.759z M242.479,281.479
		c-0.486,1.17-1.08,2.232-1.747,3.061c-0.144-0.144-0.486-0.432-0.702-0.558c1.243-1.477,2.161-3.691,2.683-5.996l0.846,0.18
		c-0.216,0.864-0.45,1.71-0.756,2.503h6.914v0.81H242.479z M247.971,293.434c0.828,0,0.972-0.36,1.044-2.197
		c0.216,0.162,0.54,0.288,0.774,0.36c-0.126,2.053-0.396,2.611-1.8,2.611h-3.979c-1.584,0-2.017-0.306-2.017-1.603v-5.023
		l-1.314,0.612l-0.342-0.684l1.657-0.774v-2.953h0.792v2.557l2.125-1.026v-3.007h0.792v2.647l2.341-1.116l0.27-0.252l0.594,0.198
		l-0.036,0.162c-0.018,1.98-0.126,4.627-0.324,6.194l-0.684-0.162c0.126-1.333,0.198-3.493,0.216-5.293l-2.376,1.134v5.6h-0.792
		v-5.24l-2.125,1.008v5.42c0,0.666,0.198,0.828,1.225,0.828h3.959V293.434z"/>
	<path id="XMLID_343_" fill="#E2E2E2" d="M257.615,282.235c-0.684,0.792-1.422,1.494-2.179,2.07
		c-0.126-0.162-0.486-0.486-0.72-0.648c1.909-1.333,3.637-3.403,4.682-5.654l0.846,0.252c-0.486,1.044-1.098,2.035-1.783,2.935
		v6.104h-0.846L257.615,282.235L257.615,282.235z M268.526,288.501h0.847v5.798h-0.847v-1.026h-11.523v-4.753h0.846v3.925h4.88v-5.6
		h0.846v5.6h4.951V288.501z M264.674,282.325c1.225,2.593,3.223,4.267,4.915,4.25c0.576-0.018,0.757-0.541,0.847-2.143
		c0.216,0.198,0.504,0.342,0.756,0.396c-0.162,2.017-0.576,2.575-1.62,2.575c-2.161,0.018-4.447-2.035-5.78-5.005l-3.943,0.27
		l-0.072-0.811l3.673-0.252c-0.396-1.116-0.685-2.305-0.792-3.583h0.865c0.09,1.278,0.396,2.449,0.792,3.529l6.752-0.45l0.072,0.792
		L264.674,282.325z M268.977,280.525c-0.63-0.522-1.891-1.278-2.916-1.783l0.468-0.558c1.044,0.45,2.322,1.206,2.971,1.71
		L268.977,280.525z"/>
	<path id="XMLID_348_" fill="#E2E2E2" d="M281.683,278.31c-0.559,1.368-1.225,2.737-1.963,3.979v12.01h-0.828v-10.713
		c-0.685,1.008-1.404,1.927-2.179,2.683c-0.072-0.18-0.36-0.594-0.522-0.774c1.854-1.8,3.602-4.591,4.682-7.418L281.683,278.31z
		 M287.229,278.22c-0.091,0.216-0.217,0.432-0.343,0.648c1.404,2.089,3.997,4.321,6.158,5.348c-0.234,0.162-0.522,0.486-0.666,0.684
		c-1.999-1.098-4.412-3.241-5.942-5.33c-1.314,2.053-3.205,3.998-5.419,5.456c-0.145-0.144-0.45-0.378-0.648-0.504
		c2.665-1.71,4.897-4.195,6.014-6.518L287.229,278.22z M291.279,286.719c-0.99,1.747-2.863,3.943-4.159,5.239
		c0.792,0.667,1.513,1.333,1.998,1.854l-0.756,0.45c-0.99-1.134-3.097-2.935-4.825-4.159l0.72-0.396
		c0.685,0.504,1.459,1.098,2.197,1.692c1.116-1.044,2.629-2.827,3.564-4.195h-7.706v-0.792h8.229l0.162-0.054L291.279,286.719z
		 M289.749,283.459v0.792h-6.104v-0.792H289.749z"/>
	<path id="XMLID_353_" fill="#E2E2E2" d="M312.769,287.456c-0.414-0.684-1.62-2.196-2.431-3.169v10.011h-0.846v-9.813
		c-0.847,2.449-2.125,4.934-3.331,6.338c-0.126-0.234-0.379-0.558-0.54-0.756c1.404-1.548,2.935-4.573,3.673-7.274h-3.241v-0.828
		h3.439v-3.961h0.846v3.961h2.683v0.828h-2.683v0.432c0.559,0.594,2.593,2.899,3.062,3.475L312.769,287.456z M318.494,282.793
		c0.828,3.079,2.287,6.23,3.8,7.796c-0.198,0.162-0.505,0.468-0.685,0.684c-1.296-1.513-2.557-4.159-3.421-6.896v9.921h-0.864
		v-9.831c-0.99,2.809-2.503,5.564-4.033,7.094c-0.145-0.252-0.396-0.558-0.576-0.756c1.729-1.692,3.511-4.916,4.357-8.012h-3.133
		v-0.828h3.385v-3.961h0.864v3.961h3.565v0.828L318.494,282.793L318.494,282.793z"/>
	<path id="XMLID_356_" fill="#E2E2E2" d="M331.326,280.164c-0.307,2.791-1.116,4.861-3.602,6.068
		c-0.107-0.198-0.378-0.522-0.576-0.648c2.341-1.044,3.079-2.971,3.331-5.42h-2.809v-0.81h7.616v0.432
		c-0.144,3.799-0.271,5.113-0.648,5.545c-0.233,0.27-0.504,0.378-0.954,0.396c-0.414,0.036-1.206,0.018-1.998-0.036
		c-0.019-0.234-0.108-0.558-0.253-0.774c0.864,0.072,1.675,0.072,1.927,0.072c0.307,0.018,0.469,0,0.576-0.162
		c0.252-0.288,0.378-1.477,0.504-4.664L331.326,280.164L331.326,280.164z M329.147,292.858v1.26h-0.811v-7.184h6.608v5.924
		L329.147,292.858L329.147,292.858z M329.147,287.745v4.304h4.97v-4.304H329.147z M343.264,282.127c0,0-0.019,0.396-0.019,0.504
		c-0.162,7.814-0.323,10.317-0.882,11.055c-0.306,0.378-0.63,0.504-1.135,0.541c-0.521,0.036-1.44,0.018-2.322-0.036
		c-0.036-0.27-0.126-0.612-0.271-0.846c1.026,0.09,1.963,0.09,2.323,0.09c0.306,0,0.486-0.036,0.648-0.27
		c0.45-0.54,0.647-3.061,0.792-10.209h-3.043c-0.234,4.646-1.026,8.913-4.016,11.433c-0.144-0.18-0.485-0.45-0.72-0.576
		c2.898-2.305,3.673-6.428,3.889-10.857h-2.772v-0.828h2.809c0.055-1.351,0.055-2.719,0.055-4.069h0.846
		c0,1.368-0.018,2.719-0.054,4.069L343.264,282.127L343.264,282.127z"/>
	<path id="XMLID_361_" fill="#E2E2E2" d="M353.52,290.211h3.728v0.792h-3.728v3.295h-0.828v-3.295h-3.673v-0.792h3.673v-1.674
		h-3.007v-6.086h3.007v-1.566h-3.403v-0.81h3.403v-2.089h0.828v2.089h3.367v0.81h-3.367v1.566h3.062v6.086h-3.062V290.211z
		 M350.44,285.134h2.305v-1.963h-2.305V285.134z M350.44,287.817h2.305v-1.98h-2.305V287.817z M355.807,283.171h-2.323v1.963h2.323
		V283.171z M355.807,285.836h-2.323v1.98h2.323V285.836z M365.421,285.998h-3.78v8.3h-0.864v-8.3h-3.745v-0.829h3.745v-5.095h-3.331
		v-0.828h7.67v0.828h-3.475v5.095h3.78V285.998z"/>
</g>
<g id="XMLID_19_">
</g>
<g id="XMLID_399_">
</g>
<g id="XMLID_400_">
</g>
<g id="XMLID_401_">
</g>
<g id="XMLID_402_">
</g>
<g id="XMLID_403_">
</g>
<g id="XMLID_404_">
</g>
<g id="XMLID_405_">
</g>
<g id="XMLID_406_">
</g>
<g id="XMLID_407_">
</g>
<g id="XMLID_408_">
</g>
<g id="XMLID_409_">
</g>
<g id="XMLID_410_">
</g>
<g id="XMLID_411_">
</g>
<g id="XMLID_412_">
</g>
<g>
	<path fill="#DDDDDD" d="M188.088,286.395h3.493v0.792h-3.493v0.954c0.756,0.541,2.935,2.197,3.439,2.611l-0.558,0.702
		c-0.522-0.522-1.945-1.765-2.881-2.503v5.672h-0.828v-6.464c-1.009,1.944-2.431,3.817-3.728,4.879
		c-0.162-0.216-0.396-0.485-0.612-0.647c1.44-1.045,3.042-3.151,3.997-5.204h-3.547v-0.792h3.89v-2.503
		c-1.152,0.181-2.341,0.324-3.439,0.414c-0.036-0.198-0.144-0.504-0.27-0.684c2.503-0.252,5.564-0.702,7.112-1.278l0.684,0.63
		c-0.882,0.306-2.017,0.558-3.259,0.792V286.395z M187.17,280.561h-3.835v-0.774h3.835v-1.476h0.846v1.476h2.719v0.774h-2.719v1.513
		h-0.846V280.561z M199.107,279.787v0.774h-3.979v1.53h-0.846v-1.53h-2.755v-0.774h2.755v-1.458h0.846v1.458H199.107z
		 M192.68,283.244h0.828v8.193h-0.828V283.244z M196.965,282.29h0.846v11.109c0,0.666-0.18,0.919-0.612,1.063
		c-0.486,0.162-1.314,0.18-2.701,0.162c-0.054-0.234-0.198-0.595-0.342-0.847c1.152,0.036,2.143,0.019,2.413,0.019
		c0.306-0.019,0.396-0.09,0.396-0.378V282.29z"/>
</g>
</svg>
