<?xml version="1.0" encoding="iso-8859-1"?>
<!-- Generator: Adobe Illustrator 19.0.0, SVG Export Plug-In . SVG Version: 6.00 Build 0)  -->
<svg version="1.2" baseProfile="tiny" id="&#x5716;&#x5C64;_1"
	 xmlns="http://www.w3.org/2000/svg" xmlns:xlink="http://www.w3.org/1999/xlink" x="0px" y="0px" viewBox="0 0 521.041 282.337"
	 xml:space="preserve">
<path id="XMLID_7_" fill="#E8E8E8" d="M36.781,217.57l-9.245-26.878c-1.3-3.778-1.957-7.666-1.957-11.57V49.308h11.202V217.57z"/>
<g id="XMLID_6_">
	<path id="XMLID_360_" fill="#EFEFEF" d="M74.529,90.341h8.683V57.243c0-0.238,0.008-0.481,0.025-0.728
		c0.017-0.247,0.042-0.489,0.077-0.728l-9.245,8.351c-0.085,0.085-0.17,0.128-0.255,0.128c-0.102,0-0.188-0.042-0.255-0.128
		l-0.153-0.204l10.063-9.041h0.357v35.448h8.479v0.511H74.529V90.341z"/>
	<path id="XMLID_362_" fill="#EFEFEF" d="M110.947,75.171c-1.567,0-2.984-0.255-4.252-0.766c-1.269-0.511-2.35-1.217-3.244-2.12
		c-0.894-0.902-1.579-1.975-2.056-3.218c-0.477-1.243-0.715-2.596-0.715-4.061c0-1.498,0.281-2.877,0.843-4.137
		c0.562-1.26,1.332-2.35,2.312-3.269c0.979-0.919,2.136-1.634,3.473-2.145c1.336-0.511,2.788-0.766,4.354-0.766
		c1.464,0,2.822,0.26,4.074,0.779c1.251,0.52,2.336,1.256,3.256,2.209c0.919,0.954,1.639,2.103,2.158,3.448
		c0.519,1.345,0.779,2.844,0.779,4.495c0,0.834-0.102,1.634-0.306,2.4c-0.205,0.766-0.498,1.554-0.881,2.362
		c-0.383,0.809-0.855,1.66-1.417,2.554c-0.562,0.894-1.209,1.877-1.941,2.95l-9.96,14.813c-0.051,0.085-0.103,0.132-0.153,0.141
		c-0.051,0.009-0.102,0.013-0.153,0.013h-0.511l10.318-15.221c0.851-1.26,1.6-2.379,2.247-3.358s1.166-1.971,1.558-2.976
		c-0.426,0.903-0.983,1.716-1.673,2.439c-0.689,0.724-1.46,1.341-2.311,1.852c-0.852,0.511-1.771,0.903-2.758,1.175
		C112.998,75.035,111.985,75.171,110.947,75.171z M121.315,65.262c0-1.447-0.243-2.788-0.728-4.022
		c-0.485-1.234-1.158-2.299-2.018-3.192c-0.86-0.894-1.877-1.592-3.052-2.094s-2.46-0.753-3.856-0.753
		c-1.516,0-2.907,0.238-4.176,0.715c-1.269,0.477-2.362,1.146-3.282,2.005c-0.919,0.86-1.634,1.894-2.145,3.103
		s-0.766,2.537-0.766,3.984c0,1.481,0.234,2.818,0.702,4.01c0.468,1.192,1.124,2.205,1.966,3.039
		c0.843,0.834,1.856,1.478,3.04,1.928c1.183,0.452,2.481,0.677,3.895,0.677c1.651,0,3.124-0.289,4.418-0.868
		c1.293-0.579,2.388-1.319,3.282-2.222c0.894-0.902,1.57-1.911,2.03-3.026C121.085,67.429,121.315,66.334,121.315,65.262z"/>
	<path id="XMLID_365_" fill="#EFEFEF" d="M146.343,79.309h7.56v0.204c0,0.204-0.136,0.307-0.409,0.307h-7.151v11.033h-0.613V79.819
		h-17.724c-0.188,0-0.302-0.021-0.345-0.064c-0.043-0.042-0.081-0.106-0.115-0.191l-0.051-0.205l18.49-24.313h0.357V79.309z
		 M145.73,57.089c0-0.136,0-0.281,0-0.434s0.017-0.307,0.051-0.46L128.21,79.309h17.52V57.089z"/>
	<path id="XMLID_368_" fill="#EFEFEF" d="M179.441,55.353c0,0.085-0.035,0.158-0.103,0.217c-0.068,0.06-0.153,0.089-0.255,0.089
		h-14.455l-2.579,14.174c1.293-0.34,2.52-0.587,3.677-0.741s2.248-0.23,3.269-0.23c1.856,0,3.486,0.26,4.891,0.779
		c1.404,0.52,2.579,1.243,3.524,2.17c0.945,0.928,1.656,2.043,2.133,3.346c0.477,1.303,0.715,2.737,0.715,4.303
		c0,1.874-0.323,3.542-0.97,5.006c-0.647,1.464-1.516,2.699-2.605,3.703c-1.09,1.005-2.354,1.771-3.792,2.298
		c-1.439,0.528-2.95,0.792-4.533,0.792c-0.919,0-1.805-0.077-2.656-0.23c-0.852-0.153-1.647-0.353-2.388-0.6
		c-0.741-0.247-1.417-0.527-2.031-0.843c-0.613-0.315-1.149-0.643-1.609-0.983l0.153-0.204c0.068-0.102,0.17-0.153,0.307-0.153
		c0.119,0,0.383,0.124,0.792,0.37c0.409,0.247,0.958,0.524,1.647,0.83c0.689,0.307,1.515,0.583,2.477,0.83
		c0.962,0.247,2.064,0.371,3.308,0.371c1.515,0,2.954-0.243,4.316-0.728c1.362-0.485,2.554-1.2,3.576-2.146
		c1.021-0.945,1.834-2.12,2.439-3.524c0.604-1.404,0.906-3.018,0.906-4.839c0-1.447-0.208-2.784-0.625-4.01
		c-0.417-1.226-1.06-2.286-1.928-3.18c-0.868-0.894-1.971-1.592-3.307-2.094c-1.337-0.502-2.916-0.753-4.738-0.753
		c-1.021,0-2.124,0.081-3.307,0.243c-1.184,0.162-2.456,0.413-3.818,0.753l-0.459-0.204l2.707-15.068h15.324V55.353z"/>
</g>
<g id="XMLID_5_">
	<path id="XMLID_32_" fill="#E2E2E2" d="M259.033,69.275c0,0.92-0.046,1.979-0.092,3.037c1.933,8.373,4.693,13.525,9.983,17.804
		c-1.564,1.196-3.313,3.174-4.141,4.922c-3.68-3.358-6.21-6.947-8.097-11.409c-1.564,4.14-4.095,8.235-8.143,11.685
		c-0.552-0.966-1.564-2.254-2.576-3.358c-0.276,0.874-0.874,1.38-1.84,1.794c-1.702,0.736-3.864,0.782-6.809,0.782
		c-0.276-1.426-1.058-3.358-1.749-4.646c1.518,0.092,3.542,0.092,4.095,0.092c0.598-0.046,0.782-0.184,0.782-0.69V77.142h-16.746
		v-5.705h16.47V58.51h-15.918v-5.566h24.061v5.566h-2.254v8.005c2.024-4.002,3.404-9.569,4.095-15.043l6.303,1.058
		c-0.276,1.794-0.598,3.542-1.012,5.291h7.407l0.92-0.23l4.463,1.15c-0.736,4.877-1.886,10.352-2.898,13.94l-5.199-1.519
		c0.414-1.978,0.874-4.738,1.242-7.499h-7.453c-0.23,0.598-0.414,1.196-0.598,1.794h5.705V69.275z M230.832,89.425v1.426h-5.337
		V78.43h13.02v10.995H230.832z M237.594,59.706v10.535h-12.007V59.706H237.594z M232.625,63.938h-2.392v2.116h2.392V63.938z
		 M230.832,82.893v2.07h2.576v-2.07H230.832z M246.059,71.438h3.22c-0.92-0.644-2.162-1.38-3.22-1.979V71.438z M246.289,88.781
		c6.119-6.257,6.855-14.492,6.855-19.644v-3.221c-0.736,2.07-1.564,3.911-2.484,5.521v5.705h-4.371V88.781z"/>
	<path id="XMLID_347_" fill="#E2E2E2" d="M322.606,90.622h-6.764v4.508h-6.302v-4.508h-4.785v0.046h-6.073
		c0.828-2.162,1.794-4.969,2.622-7.775h-0.69v-2.346c-2.99,8.051-9.109,12.79-16.47,15.136c-0.644-1.334-2.438-3.681-3.588-4.692
		c2.668-0.69,5.106-1.656,7.269-2.944c-0.69-0.782-1.656-1.749-2.622-2.623c-0.782,0.598-1.564,1.15-2.393,1.61
		c-0.828-1.012-2.76-3.037-3.91-3.957c3.542-1.702,6.763-4.417,8.603-7.545h-7.729v-5.152h7.361v-2.163h-4.876v-5.245h4.876v-2.76
		c-1.012,0.828-2.116,1.61-3.267,2.393c-1.104-1.334-3.266-3.128-4.784-3.957c3.91-2.07,6.809-4.831,8.511-7.315l6.395,1.288
		c-0.322,0.506-0.69,0.966-1.012,1.426h26.499v4.876h-30.916c-0.368,0.368-0.782,0.69-1.196,1.058h6.027v2.99h1.702v-2.898h5.705
		v2.898h1.886v-2.898h5.705v2.898h1.794V59.89h6.395v3.082h4.002v5.245h-4.002v2.163h5.659v5.152h-31.606l2.53,0.69
		c-0.276,0.552-0.598,1.104-0.92,1.656h4.279l0.966-0.138l3.128,1.426v-1.334h8.925v-1.748h6.302v1.748h5.936v5.061h-5.936v2.806
		h6.764V90.622z M288.93,82.157l-0.046,0.046c1.012,0.828,2.116,1.794,2.944,2.622c0.782-0.828,1.426-1.702,2.024-2.668H288.93z
		 M293.393,70.379h1.702v-2.163h-1.702V70.379z M300.799,68.217v2.163h1.886v-2.163H300.799z M309.541,85.699v-2.806h-2.163
		c-0.322,0.966-0.598,1.886-0.92,2.806H309.541z M308.39,68.217v2.163h1.794v-2.163H308.39z"/>
	<path id="XMLID_354_" fill="#E2E2E2" d="M361.658,81.559c-0.736,0.46-1.427,0.874-2.162,1.288c1.195,1.61,3.174,4.555,3.726,5.475
		l-4.002,3.497c-0.552-1.886-1.887-5.107-2.898-7.223l-0.645,0.322c1.15,3.588,0.368,7.177-1.334,8.695
		c-1.288,1.196-2.392,1.564-4.187,1.61c-0.782,0-1.609,0-2.484-0.046c-0.092-1.104-0.367-2.577-0.966-3.819
		c-1.518,0.782-3.036,1.472-4.462,1.979c-0.368-0.782-1.059-1.886-1.749-2.714c-0.506,1.61-1.104,3.128-1.886,4.462
		c-1.013-0.92-3.589-2.484-4.923-3.036c2.944-5.199,3.175-12.835,3.175-18.494v-13.94h8.051v-7.913h6.211v1.84h9.017v4.508h-9.017
		v1.564h5.75l0.874-0.138l3.865,0.69c-0.461,2.944-1.242,6.257-2.07,8.327l-4.646-1.012c0.229-0.874,0.506-2.07,0.689-3.267h-4.876
		v1.196l3.727-0.414l0.46,3.404l-4.187,0.506c0.092,0.598,0.321,0.874,1.149,0.874h3.772c1.013,0,2.944-0.092,3.727-0.322
		c0.092,1.288,0.139,2.393,0.322,3.588c-0.782,0.276-2.438,0.322-3.772,0.322h-5.337c-3.588,0-4.646-1.334-4.83-3.864l-2.438,0.276
		l-0.46-3.497l2.853-0.322v-1.749h-3.221v9.339c0,3.266-0.138,7.269-0.69,11.133c2.301-0.552,5.107-1.656,6.947-2.807
		c-0.138-0.138-0.276-0.276-0.414-0.414c-1.426,0.598-2.898,1.15-4.278,1.519c-0.322-0.828-1.15-2.3-1.702-3.037
		c1.748-0.414,3.68-1.058,5.429-1.794h-4.509v-4.187h17.62v4.187h-6.901c-0.552,0.46-1.149,0.874-1.84,1.288
		c0.782,0.644,1.426,1.38,1.933,2.162c1.426-1.012,2.944-2.208,3.91-3.128L361.658,81.559z M350.755,84.963
		c-0.092-0.23-0.185-0.46-0.322-0.69c-1.933,1.288-4.509,2.576-6.625,3.404c-0.414-0.874-1.288-2.254-2.024-2.944
		c-0.275,1.748-0.598,3.497-1.058,5.152C344.268,88.919,348.408,86.941,350.755,84.963z M350.801,90.023
		c0.229-0.276,0.414-0.736,0.506-1.426c-1.058,0.736-2.208,1.472-3.404,2.116c0.46,0.046,0.828,0.046,1.196,0.046
		C349.835,90.76,350.433,90.622,350.801,90.023z M368.19,83.168h-5.889V56.854h5.889V83.168z M376.241,52.759v35.24
		c0,3.221-0.598,4.923-2.484,5.935c-1.886,1.012-4.6,1.242-8.326,1.196c-0.23-1.748-1.104-4.554-1.933-6.303
		c2.208,0.092,4.646,0.092,5.429,0.092c0.736,0,1.012-0.23,1.012-0.966V52.759H376.241z"/>
</g>
<g id="XMLID_3_">
	<rect id="XMLID_339_" x="67.26" y="121.499" fill="none" width="432.802" height="118.501"/>
	<path id="XMLID_33_" fill="#E2E2E2" d="M79.799,123.439c-0.54,1.44-1.278,3.223-1.926,4.664c1.422,1.548,1.8,2.845,1.8,4.015
		c0,0.846-0.198,1.603-0.666,1.927c-0.216,0.144-0.54,0.252-0.864,0.288c-0.396,0.036-0.846,0.036-1.242,0
		c-0.018-0.216-0.108-0.54-0.252-0.774c0.468,0.018,0.882,0.036,1.188,0.018c0.252-0.018,0.45-0.072,0.612-0.18
		c0.306-0.198,0.414-0.774,0.414-1.332c0-1.063-0.396-2.341-1.836-3.854c0.63-1.422,1.26-3.043,1.71-4.285h-2.971v14.729h-0.81
		v-15.539h4.141l0.144-0.036L79.799,123.439z M86.191,132.892c1.063,1.71,2.845,3.349,4.501,4.141
		c-0.18,0.162-0.468,0.468-0.594,0.684c-1.747-0.936-3.619-2.863-4.699-4.789v5.708h-0.829v-5.672
		c-1.188,1.963-3.259,3.854-5.077,4.826c-0.144-0.198-0.396-0.504-0.594-0.684c1.729-0.811,3.655-2.485,4.825-4.213h-3.061v-6.068
		h3.907v-1.674h-4.717v-0.774h4.717v-2.017h0.829v2.017h4.843v0.774h-4.843v1.674h4.015v6.068H86.191z M81.474,129.489h3.097v-1.944
		h-3.097V129.489z M81.474,132.172h3.097v-1.98h-3.097V132.172z M85.399,127.544v1.944h3.187v-1.944H85.399z M88.586,130.191h-3.187
		v1.98h3.187V130.191z"/>
	<path id="XMLID_40_" fill="#E2E2E2" d="M101.508,128.661v9.417h-0.846v-9.417h-2.827v2.251c0,2.269-0.18,5.33-1.386,7.364
		c-0.126-0.18-0.468-0.45-0.648-0.559c1.117-1.926,1.207-4.663,1.207-6.788v-6.77c1.944-0.36,4.177-0.955,5.348-1.585l0.756,0.594
		c-1.333,0.667-3.385,1.188-5.276,1.584v3.079h5.474v0.828H101.508z M107.972,128.553c0,0.504-0.018,1.008-0.036,1.53
		c0.684,3.817,1.854,5.996,4.303,7.887c-0.216,0.162-0.45,0.432-0.576,0.666c-2.088-1.674-3.259-3.565-4.015-6.392
		c-0.45,2.161-1.53,4.483-4.033,6.464c-0.108-0.216-0.396-0.504-0.594-0.63c3.854-2.971,4.124-6.824,4.124-9.507v-1.152h0.828
		V128.553z M105.811,126.212c-0.486,1.422-1.063,2.701-1.765,3.691c-0.162-0.108-0.54-0.342-0.756-0.432
		c1.296-1.729,2.125-4.357,2.593-7.148l0.846,0.144c-0.18,1.008-0.414,1.999-0.684,2.917h5.42l0.162-0.036l0.541,0.198
		c-0.27,1.477-0.702,3.277-1.134,4.375l-0.72-0.216c0.36-0.882,0.684-2.287,0.882-3.493H105.811z"/>
	<path id="XMLID_44_" fill="#E2E2E2" d="M133.533,137.339v0.81h-15.88v-0.81h3.475v-9.723h8.858v9.723H133.533z M119.093,128.066
		h-0.846v-3.511h14.746v3.511h-0.864v-2.683h-13.036V128.066z M121.974,128.409v2.377h7.148v-2.377H121.974z M129.122,131.56h-7.148
		v2.449h7.148V131.56z M121.974,137.339h7.148v-2.557h-7.148V137.339z M125.449,122.287c0.432,0.612,0.846,1.458,1.026,1.999
		l-0.846,0.27c-0.162-0.541-0.594-1.405-0.99-2.053L125.449,122.287z"/>
	<path id="XMLID_51_" fill="#E2E2E2" d="M153.582,131.793c-0.414-0.684-1.621-2.196-2.431-3.169v10.011h-0.846v-9.813
		c-0.846,2.449-2.125,4.934-3.331,6.338c-0.126-0.234-0.378-0.558-0.541-0.756c1.405-1.548,2.935-4.573,3.673-7.274h-3.241v-0.828
		h3.439v-3.961h0.846v3.961h2.683v0.828h-2.683v0.432c0.558,0.594,2.593,2.899,3.061,3.475L153.582,131.793z M159.307,127.13
		c0.828,3.079,2.287,6.23,3.799,7.796c-0.198,0.162-0.504,0.468-0.684,0.684c-1.297-1.513-2.557-4.159-3.421-6.896v9.921h-0.864
		v-9.831c-0.99,2.809-2.502,5.564-4.033,7.094c-0.144-0.252-0.396-0.558-0.576-0.756c1.729-1.692,3.511-4.916,4.357-8.012h-3.133
		v-0.828h3.385v-3.961h0.864v3.961h3.565v0.828H159.307z"/>
	<path id="XMLID_54_" fill="#E2E2E2" d="M169.042,130.965h6.104v7.508h-0.864v-0.846h-4.411v1.026h-0.829V130.965z M169.87,131.793
		v5.006h4.411v-5.006H169.87z M181.159,128.805h-9.417v-5.671h9.417V128.805z M180.295,123.979h-7.706v3.997h7.706V123.979z
		 M183.896,130.965v7.563h-0.846v-0.9h-4.825v1.026h-0.846v-7.688H183.896z M183.05,136.799v-5.006h-4.825v5.006H183.05z"/>
	<path id="XMLID_61_" fill="#E2E2E2" d="M195.053,134.063l0.09,0.828c-1.818,0.612-3.745,1.26-5.186,1.747l-0.198-0.846
		c0.666-0.198,1.512-0.486,2.449-0.792v-5.293h-1.963v-0.81h1.963v-4.394h-2.251v-0.828h5.114v0.828h-2.089v4.394h1.71v0.81h-1.71
		v5.06L195.053,134.063z M201.355,128.301c-0.09,0.198-0.216,0.414-0.342,0.612c1.206,1.549,3.421,3.223,5.186,4.124
		c-0.18,0.162-0.396,0.504-0.468,0.702c-0.414-0.252-0.846-0.522-1.296-0.828v5.654h-0.846v-0.576h-5.474v0.666h-0.829v-5.78
		c-0.522,0.36-1.08,0.738-1.638,1.063c-0.144-0.162-0.414-0.432-0.612-0.558c2.431-1.333,4.465-3.295,5.474-5.33L201.355,128.301z
		 M199.519,126.734c-0.774,1.206-1.945,2.466-2.971,3.295c-0.144-0.144-0.45-0.432-0.666-0.558c1.081-0.774,2.143-1.891,2.827-2.971
		L199.519,126.734z M196.728,127.238h-0.81v-2.881h4.843c-0.216-0.576-0.594-1.314-0.936-1.873l0.738-0.234
		c0.414,0.666,0.882,1.53,1.098,2.106h3.907v2.881h-0.81v-2.125h-8.031V127.238z M204.236,132.784
		c-1.314-0.937-2.701-2.107-3.637-3.241c-0.846,1.207-1.944,2.287-3.205,3.241H204.236z M203.588,137.213v-3.655h-5.474v3.655
		H203.588z M202.471,126.356c1.081,0.973,2.413,2.305,3.061,3.169l-0.648,0.45c-0.612-0.864-1.945-2.25-3.043-3.241L202.471,126.356
		z"/>
	<path id="XMLID_69_" fill="#E2E2E2" d="M222.286,130.029c-0.72-0.558-2.125-1.387-3.223-1.927l0.468-0.63
		c1.098,0.504,2.502,1.297,3.223,1.819L222.286,130.029z M219.621,137.808c0.936-1.351,2.323-3.691,3.313-5.636l0.63,0.558
		c-0.918,1.836-2.197,4.087-3.205,5.672L219.621,137.808z M223.42,125.492c-0.774-0.666-2.287-1.656-3.475-2.341l0.522-0.594
		c1.207,0.63,2.701,1.584,3.457,2.25L223.42,125.492z M235.34,132.01v0.846h-11.667v-0.846h2.971v-4.934h-2.539v-0.828h2.539v-3.817
		h0.846v3.817h4.069v-3.835h0.846v3.835h2.701v0.828h-2.701v4.934H235.34z M227.777,134.44c-0.864,1.548-2.178,3.151-3.349,4.177
		c-0.162-0.144-0.522-0.414-0.738-0.558c1.242-0.972,2.485-2.431,3.259-3.871L227.777,134.44z M227.489,132.01h4.069v-4.934h-4.069
		V132.01z M231.811,134.243c1.261,1.224,2.647,2.863,3.295,3.961l-0.721,0.468c-0.648-1.117-2.017-2.809-3.241-4.015
		L231.811,134.243z"/>
	<path id="XMLID_77_" fill="#E2E2E2" d="M249.432,122.341c-0.09,0.126-0.162,0.252-0.252,0.396c1.8,1.927,5.095,3.835,7.76,4.718
		c-0.18,0.162-0.468,0.522-0.612,0.756c-2.539-0.954-5.654-2.845-7.634-4.843c-1.692,2.143-4.357,3.817-7.544,4.987
		c-0.108-0.18-0.36-0.504-0.558-0.666c3.619-1.278,6.608-3.241,7.995-5.654L249.432,122.341z M240.933,137.501
		c0.828-1.17,1.53-3.061,1.891-4.375l0.738,0.27c-0.414,1.351-1.044,3.277-1.854,4.465L240.933,137.501z M243.004,128.751h10.263
		l0.126-0.054l0.576,0.378c-0.792,1.44-2.179,3.079-3.295,4.087c-0.18-0.126-0.468-0.306-0.666-0.414
		c0.936-0.81,1.999-2.089,2.701-3.223h-9.705V128.751z M251.7,137.447c0.99,0,1.134-0.288,1.243-2.125
		c0.198,0.162,0.54,0.288,0.81,0.36c-0.144,2.088-0.468,2.575-2.017,2.575h-4.609c-1.818,0-2.323-0.252-2.323-1.422v-3.781h0.864
		v3.781c0,0.504,0.234,0.612,1.458,0.612H251.7z M252.079,126.374v0.774h-6.572v-0.774H252.079z M247.685,131.758
		c1.008,1.08,2.305,2.575,2.971,3.475l-0.756,0.432c-0.612-0.9-1.909-2.413-2.935-3.529L247.685,131.758z M254.113,132.622
		c0.792,1.548,1.783,3.583,2.287,4.735l-0.847,0.324c-0.468-1.152-1.458-3.259-2.25-4.808L254.113,132.622z"/>
	<path id="XMLID_85_" fill="#E2E2E2" d="M263.848,133.846c-0.252,1.549-0.63,3.241-0.99,4.375c-0.162-0.072-0.558-0.216-0.738-0.288
		c0.432-1.134,0.738-2.737,0.936-4.231L263.848,133.846z M267.143,129.075c0.486,1.261,0.954,2.899,1.116,3.854l-0.774,0.234
		c-0.054-0.342-0.144-0.756-0.252-1.207c-3.853,0.594-4.339,0.685-4.645,0.847c-0.054-0.198-0.18-0.612-0.288-0.847
		c0.342-0.072,0.756-0.54,1.278-1.188c0.324-0.36,1.026-1.279,1.8-2.431c-2.287,0.288-2.665,0.378-2.917,0.486
		c-0.036-0.198-0.18-0.63-0.271-0.828c0.288-0.072,0.594-0.468,0.973-1.026c0.414-0.54,1.746-2.647,2.557-4.646l0.828,0.36
		c-0.9,1.836-1.962,3.691-3.043,5.113l2.395-0.252c0.486-0.756,0.972-1.566,1.386-2.377l0.792,0.415
		c-1.296,2.214-2.791,4.411-4.285,6.104l3.259-0.432c-0.198-0.684-0.415-1.386-0.63-2.017L267.143,129.075z M265.522,133.667
		c0.216,1.26,0.45,2.863,0.504,3.925l-0.756,0.144c-0.036-1.08-0.252-2.701-0.45-3.943L265.522,133.667z M267.088,133.306
		c0.432,1.044,0.864,2.413,1.044,3.295l-0.702,0.234c-0.18-0.9-0.612-2.305-0.99-3.349L267.088,133.306z M278.522,130.479h-1.548
		v7.04c0,0.576-0.144,0.792-0.576,0.936s-1.225,0.162-2.539,0.162c-0.036-0.252-0.18-0.54-0.288-0.792
		c1.099,0.036,1.981,0.018,2.233,0c0.27,0,0.342-0.072,0.342-0.306v-7.04h-7.634v-0.792h10.011V130.479z M277.585,129.183
		c-0.954-0.702-2.736-1.819-4.249-2.647c-0.738,1.333-2.035,2.161-4.339,2.701c-0.09-0.198-0.306-0.504-0.468-0.648
		c2.773-0.612,3.998-1.657,4.52-3.511h-3.943v-0.774h4.142c0.108-0.576,0.18-1.26,0.216-1.999h0.828
		c-0.054,0.72-0.108,1.405-0.216,1.999h4.069v0.774h-4.231c-0.072,0.288-0.162,0.54-0.252,0.792
		c1.548,0.792,3.439,1.926,4.447,2.683L277.585,129.183z M270.545,136.169v1.152h-0.738v-5.419h4.483v4.267H270.545z
		 M270.545,132.64v2.791h2.989v-2.791H270.545z"/>
	<path id="XMLID_94_" fill="#E2E2E2" d="M296.987,123.439c-0.541,1.44-1.279,3.223-1.927,4.664c1.422,1.548,1.8,2.845,1.8,4.015
		c0,0.846-0.198,1.603-0.666,1.927c-0.216,0.144-0.54,0.252-0.864,0.288c-0.396,0.036-0.846,0.036-1.242,0
		c-0.018-0.216-0.108-0.54-0.252-0.774c0.468,0.018,0.882,0.036,1.188,0.018c0.252-0.018,0.45-0.072,0.612-0.18
		c0.306-0.198,0.414-0.774,0.414-1.332c0-1.063-0.396-2.341-1.836-3.854c0.63-1.422,1.26-3.043,1.71-4.285h-2.971v14.729h-0.811
		v-15.539h4.141l0.144-0.036L296.987,123.439z M303.378,132.892c1.063,1.71,2.845,3.349,4.501,4.141
		c-0.18,0.162-0.468,0.468-0.594,0.684c-1.747-0.936-3.619-2.863-4.699-4.789v5.708h-0.829v-5.672
		c-1.188,1.963-3.259,3.854-5.077,4.826c-0.144-0.198-0.396-0.504-0.594-0.684c1.729-0.811,3.655-2.485,4.825-4.213h-3.061v-6.068
		h3.907v-1.674h-4.717v-0.774h4.717v-2.017h0.829v2.017h4.843v0.774h-4.843v1.674h4.015v6.068H303.378z M298.661,129.489h3.097
		v-1.944h-3.097V129.489z M298.661,132.172h3.097v-1.98h-3.097V132.172z M302.586,127.544v1.944h3.187v-1.944H302.586z
		 M305.773,130.191h-3.187v1.98h3.187V130.191z"/>
	<path id="XMLID_101_" fill="#E2E2E2" d="M318.82,130.299c-0.396,0.738-0.828,1.458-1.351,2.125h10.174v6.266h-0.883v-0.973h-8.895
		v0.99h-0.864v-5.689c-0.954,1.098-2.106,2.071-3.493,2.845c-0.126-0.198-0.396-0.504-0.541-0.666
		c2.197-1.225,3.763-2.899,4.88-4.897h-2.899v-0.792h3.331c0.36-0.756,0.666-1.548,0.918-2.358h-5.978v-0.792h6.23
		c0.216-0.756,0.396-1.548,0.522-2.323h-4.861v-0.792h12.046v3.115h1.998v0.792h-1.998v3.151H318.82z M317.866,133.234v3.691h8.895
		v-3.691H317.866z M320.117,127.148c-0.252,0.81-0.558,1.603-0.918,2.358h7.095v-2.358H320.117z M320.891,124.033
		c-0.126,0.792-0.324,1.567-0.541,2.323h5.942v-2.323H320.891z"/>
	<path id="XMLID_106_" fill="#E2E2E2" d="M339.305,122.629c-0.505,1.477-1.135,2.935-1.854,4.303v11.686h-0.811v-10.263
		c-0.522,0.846-1.099,1.639-1.656,2.305c-0.108-0.18-0.379-0.558-0.559-0.756c1.675-1.837,3.169-4.646,4.087-7.472L339.305,122.629z
		 M345.156,131.523c-0.181,0.45-0.343,0.937-0.504,1.351h5.401v4.826c0,0.45-0.09,0.666-0.396,0.81
		c-0.324,0.126-0.882,0.144-1.729,0.144c-0.036-0.234-0.162-0.522-0.288-0.738c0.702,0.018,1.206,0.018,1.368,0
		c0.198,0,0.234-0.054,0.234-0.216v-4.087h-2.431v4.807h-0.774v-4.807h-2.358v4.807h-0.774v-4.807h-2.322v5.042h-0.793v-5.78h4.033
		c0.145-0.396,0.288-0.9,0.414-1.351h-5.474v-0.756h12.136v0.756H345.156z M344.31,123.763h-4.555v-0.738h10.154v0.738h-4.771v1.351
		h5.366v2.376h-0.738v-1.656h-4.628v4.429h-0.828v-4.429h-4.447v1.656h-0.738v-2.376h5.186V123.763z M339.557,129.327
		c1.098-0.18,2.574-0.45,4.123-0.756l0.054,0.576c-1.386,0.306-2.719,0.612-3.853,0.882L339.557,129.327z M340.583,126.698
		c1.098,0.126,2.538,0.432,3.313,0.738l-0.216,0.63c-0.792-0.288-2.215-0.648-3.367-0.81L340.583,126.698z M349.297,127.148
		c-0.954,0.396-2.431,0.702-3.457,0.846l-0.323-0.432c1.008-0.198,2.538-0.648,3.385-0.937L349.297,127.148z M349.567,130.065
		c-0.937-0.324-2.683-0.738-4.016-0.99l0.253-0.522c1.313,0.18,3.061,0.594,3.997,0.9L349.567,130.065z"/>
	<path id="XMLID_114_" fill="#E2E2E2" d="M379.808,133.36v0.81h-8.103c-0.918,2.485-2.898,3.871-7.473,4.573
		c-0.071-0.216-0.27-0.558-0.414-0.702c4.214-0.612,6.086-1.782,6.986-3.871h-6.662v-0.81h6.933c0.233-0.756,0.359-1.603,0.45-2.575
		h-5.816v-6.968h0.864v6.158h11.613v3.385H379.808z M377.106,128.427h-8.588v-5.023h8.588V128.427z M376.261,124.195h-6.914v3.439
		h6.914V124.195z M372.371,130.786c-0.09,0.954-0.216,1.818-0.414,2.575h5.365v-2.575H372.371z M372.407,134.873
		c2.322,0.954,5.401,2.341,7.04,3.205l-0.468,0.756c-1.585-0.864-4.682-2.341-7.022-3.331L372.407,134.873z"/>
	<path id="XMLID_120_" fill="#E2E2E2" d="M388.264,129.687c-0.63-0.486-1.837-1.17-2.845-1.603l0.468-0.648
		c0.99,0.378,2.232,1.044,2.845,1.512L388.264,129.687z M385.923,137.682c0.774-1.405,1.891-3.799,2.646-5.78l0.721,0.522
		c-0.738,1.873-1.747,4.159-2.575,5.78L385.923,137.682z M386.823,122.575c1.008,0.415,2.269,1.117,2.898,1.621l-0.504,0.72
		c-0.63-0.504-1.872-1.26-2.881-1.71L386.823,122.575z M390.118,123.277h4.285v4.933h-3.187c-0.126,1.063-0.271,2.215-0.414,3.151
		h3.402c0,0-0.018,0.324-0.036,0.432c-0.378,4.16-0.737,5.69-1.313,6.266c-0.288,0.27-0.559,0.36-1.026,0.396
		c-0.379,0-1.117,0-1.854-0.054c-0.019-0.234-0.108-0.559-0.234-0.792c0.811,0.09,1.548,0.09,1.836,0.09s0.45-0.018,0.612-0.18
		c0.45-0.414,0.793-1.854,1.116-5.384h-3.438c0.234-1.224,0.504-3.223,0.648-4.699h3.061v-3.403h-3.457V123.277z M400.867,138.276
		c-0.09-0.468-0.216-1.026-0.36-1.639c-4.879,0.72-5.455,0.846-5.779,1.026c-0.018-0.198-0.162-0.594-0.252-0.828
		c0.306-0.108,0.666-1.297,1.044-2.773c0.36-1.405,1.495-6.662,1.837-11.2l0.828,0.126c-0.396,4.447-1.314,9.687-2.448,13.54
		l4.609-0.648c-0.433-1.674-1.009-3.637-1.567-5.257l0.757-0.198c0.9,2.485,1.836,5.744,2.179,7.58L400.867,138.276z"/>
	<path id="XMLID_126_" fill="#E2E2E2" d="M412.33,127.94c-0.145,0.27-0.307,0.558-0.468,0.846c1.512,0.99,3.223,2.341,4.087,3.313
		l-0.576,0.558c-0.198-0.234-0.433-0.468-0.702-0.738v6.608h-0.811v-0.792h-4.268v0.882h-0.792v-6.428
		c-0.432,0.342-0.9,0.63-1.351,0.9c-0.144-0.18-0.359-0.415-0.558-0.559c1.98-1.026,3.799-2.881,4.735-4.843L412.33,127.94z
		 M409.972,128.391c-0.505,0.738-1.278,1.548-1.963,2.071c-0.126-0.108-0.396-0.342-0.576-0.45c0.702-0.486,1.387-1.134,1.818-1.818
		L409.972,128.391z M408.243,127.634h-0.774v-2.521h3.619v-2.791h0.81v1.099h3.331v0.702h-3.331v0.99h4.088v2.521h-0.774v-1.818
		h-6.968V127.634z M414.4,127.49h-5.312v-0.666h5.312V127.49z M413.86,132.172h-4.268v1.224h4.268V132.172z M409.593,135.215h4.268
		v-1.188h-4.268V135.215z M413.86,137.051v-1.207h-4.268v1.207H413.86z M414.221,131.505c-0.828-0.72-1.801-1.494-2.737-2.143
		c-0.521,0.756-1.152,1.513-1.872,2.143H414.221z M415.427,130.281c-0.486-0.504-1.44-1.242-2.215-1.657l0.486-0.414
		c0.792,0.432,1.747,1.117,2.215,1.603L415.427,130.281z M422.683,123.637c-0.396,4.213-1.313,7.598-2.61,10.209
		c0.847,1.747,1.927,3.169,3.277,4.124c-0.198,0.144-0.486,0.45-0.648,0.666c-1.242-0.972-2.251-2.305-3.079-3.907
		c-0.9,1.657-1.98,2.971-3.169,3.943c-0.126-0.198-0.396-0.504-0.612-0.648c1.242-0.954,2.377-2.395,3.331-4.249
		c-1.116-2.611-1.854-5.834-2.322-9.417h-0.648v-0.828h5.798l0.144-0.036L422.683,123.637z M417.605,124.357
		c0.414,3.151,1.044,6.068,2.035,8.462c1.025-2.287,1.782-5.149,2.16-8.462H417.605z"/>
	<path id="XMLID_138_" fill="#E2E2E2" d="M441.292,126.14c-0.469,0.81-1.063,1.62-1.675,2.376v10.227h-0.828v-9.255
		c-0.774,0.864-1.603,1.657-2.395,2.287c-0.108-0.144-0.414-0.541-0.576-0.702c1.729-1.279,3.528-3.259,4.681-5.222L441.292,126.14z
		 M440.823,122.665c-1.008,1.477-2.683,3.115-4.249,4.177c-0.09-0.162-0.342-0.468-0.504-0.612c1.458-0.99,3.133-2.539,3.961-3.889
		L440.823,122.665z M447.378,122.593c-0.126,0.216-0.253,0.45-0.396,0.648c1.603,2.214,3.529,3.637,5.582,4.807
		c-0.217,0.162-0.469,0.433-0.576,0.685c-1.963-1.225-3.781-2.665-5.402-4.826c-1.368,1.927-3.276,3.691-5.222,4.826
		c-0.144-0.198-0.359-0.45-0.558-0.63c2.322-1.26,4.627-3.511,5.888-5.798L447.378,122.593z M444.101,133.504
		c-0.612,1.476-1.549,3.025-2.449,4.051c-0.18-0.144-0.54-0.36-0.737-0.468c0.954-0.973,1.836-2.413,2.376-3.799L444.101,133.504z
		 M447.144,132.136v5.366c0,0.612-0.162,0.864-0.595,1.008c-0.449,0.162-1.26,0.162-2.61,0.162
		c-0.036-0.252-0.162-0.576-0.306-0.829c1.134,0.036,2.034,0.036,2.286,0.018c0.288-0.018,0.36-0.108,0.36-0.342v-5.384h-4.97v-0.81
		h4.97v-2.647h-2.899v-0.792h6.986v0.792h-3.223v2.647h5.023v0.81H447.144z M449.736,133.234c1.044,1.17,2.16,2.755,2.646,3.817
		l-0.738,0.432c-0.486-1.063-1.566-2.701-2.593-3.889L449.736,133.234z"/>
	<path id="XMLID_145_" fill="#E2E2E2" d="M459.471,133.846c-0.234,1.549-0.594,3.241-0.99,4.375c-0.18-0.09-0.54-0.234-0.756-0.306
		c0.432-1.134,0.738-2.737,0.954-4.195L459.471,133.846z M463.216,129.075c0.504,1.207,1.026,2.791,1.242,3.728l-0.792,0.234
		c-0.054-0.324-0.162-0.72-0.288-1.152c-4.375,0.648-4.88,0.756-5.203,0.936c-0.055-0.198-0.181-0.648-0.288-0.882
		c0.323-0.054,0.773-0.541,1.296-1.188c0.324-0.36,1.044-1.243,1.818-2.377c-2.286,0.27-2.7,0.342-2.952,0.45
		c-0.019-0.18-0.162-0.612-0.271-0.846c0.271-0.072,0.612-0.45,1.008-1.008c0.396-0.54,1.783-2.665,2.611-4.664l0.846,0.378
		c-0.918,1.836-2.034,3.691-3.133,5.113l2.431-0.234c0.505-0.774,0.99-1.584,1.423-2.395l0.792,0.45
		c-1.314,2.197-2.826,4.394-4.339,6.05l3.763-0.504c-0.216-0.666-0.468-1.333-0.72-1.909L463.216,129.075z M461.397,133.684
		c0.216,1.225,0.432,2.827,0.504,3.871l-0.774,0.145c-0.054-1.063-0.252-2.665-0.468-3.907L461.397,133.684z M463.234,133.27
		c0.396,1.063,0.864,2.413,1.025,3.313l-0.737,0.216c-0.181-0.882-0.595-2.269-0.991-3.331L463.234,133.27z M473.425,123.313
		c0,0-0.018,0.306-0.036,0.432c-0.18,3.907-0.378,5.312-0.81,5.78c-0.253,0.288-0.505,0.378-0.973,0.414
		c-0.396,0.018-1.206,0.018-1.999-0.054c-0.018-0.234-0.107-0.576-0.233-0.811c0.846,0.09,1.656,0.09,1.927,0.09
		c0.288,0,0.449-0.018,0.594-0.162c0.288-0.342,0.486-1.584,0.648-4.879h-3.439c-0.36,2.719-1.188,5.095-3.709,6.374
		c-0.126-0.18-0.378-0.468-0.559-0.594c2.323-1.134,3.098-3.331,3.403-5.78h-3.241v-0.811H473.425z M465.431,131.614h7.437v6.968
		h-0.864v-0.738h-5.727v0.829h-0.846V131.614z M466.276,132.406v4.646h5.727v-4.646H466.276z"/>
	<path id="XMLID_153_" fill="#E2E2E2" d="M483.916,134.548h3.727v0.792h-3.727v3.295h-0.828v-3.295h-3.674v-0.792h3.674v-1.674
		h-3.007v-6.086h3.007v-1.566h-3.403v-0.81h3.403v-2.089h0.828v2.089h3.367v0.81h-3.367v1.566h3.061v6.086h-3.061V134.548z
		 M480.837,129.471h2.305v-1.963h-2.305V129.471z M480.837,132.154h2.305v-1.98h-2.305V132.154z M486.202,127.508h-2.322v1.963
		h2.322V127.508z M486.202,130.173h-2.322v1.98h2.322V130.173z M495.817,130.335h-3.781v8.3h-0.864v-8.3h-3.745v-0.829h3.745v-5.095
		h-3.331v-0.828h7.67v0.828h-3.475v5.095h3.781V130.335z"/>
	<path id="XMLID_160_" fill="#E2E2E2" d="M78.917,150.683c-0.414,1.332-0.955,2.665-1.549,3.925v12.046h-0.828V156.21
		c-0.558,0.99-1.17,1.909-1.782,2.683c-0.108-0.18-0.378-0.612-0.541-0.811c1.603-1.89,3.007-4.753,3.889-7.616L78.917,150.683z
		 M84.499,161.882c-0.45,1.639-1.819,3.385-5.546,4.771c-0.126-0.198-0.36-0.504-0.54-0.666c3.457-1.17,4.753-2.701,5.222-4.105
		h-5.167v-0.792h5.365c0.054-0.415,0.072-0.792,0.072-1.152v-1.621h-2.863c-0.45,0.702-0.955,1.35-1.477,1.854
		c-0.162-0.126-0.486-0.36-0.702-0.468c1.098-0.99,2.053-2.485,2.611-4.033l0.792,0.216c-0.216,0.558-0.468,1.098-0.756,1.638h7.958
		v0.792h-4.717v1.621c0,0.378-0.018,0.738-0.072,1.152h5.689v0.792H84.499z M90.531,154.59v0.792H78.611v-0.792h7.616
		c0.144-0.811,0.288-1.783,0.396-2.539h-6.266v-0.774h6.464l0.162-0.054l0.594,0.09c-0.126,1.026-0.306,2.233-0.486,3.277H90.531z
		 M85.777,162.314c1.548,1.152,3.565,2.773,4.627,3.727l-0.612,0.576c-1.008-0.972-3.025-2.629-4.609-3.835L85.777,162.314z"/>
	<path id="XMLID_165_" fill="#E2E2E2" d="M111.771,158.947v0.829h-7.364v6.77h-0.9v-6.77H96.16v-0.829H111.771z M100.877,162.081
		c-0.99,1.35-2.557,2.61-3.925,3.457c-0.162-0.144-0.504-0.432-0.72-0.576c1.44-0.756,2.899-1.927,3.799-3.133L100.877,162.081z
		 M97.384,155.922H96.52v-3.637h7.346c-0.216-0.576-0.522-1.314-0.828-1.873l0.846-0.18c0.324,0.63,0.702,1.44,0.918,2.053h6.734
		v3.637h-0.864v-2.809H97.384V155.922z M99.005,156.391v-0.81h9.867v0.81H99.005z M107.647,161.667
		c1.44,0.99,3.241,2.395,4.124,3.349l-0.703,0.558c-0.864-0.936-2.628-2.413-4.087-3.439L107.647,161.667z"/>
	<path id="XMLID_171_" fill="#E2E2E2" d="M122.64,150.593c-0.54,1.314-1.188,2.629-1.927,3.835v12.208h-0.828v-10.911
		c-0.72,1.026-1.477,1.962-2.269,2.755c-0.108-0.198-0.396-0.594-0.558-0.792c1.891-1.782,3.673-4.52,4.789-7.346L122.64,150.593z
		 M126.889,154.752c-0.433,1.404-0.955,2.736-1.621,3.997h7.634v7.706h-0.864v-1.044h-6.464v1.206h-0.847v-6.914
		c-0.792,1.296-1.764,2.485-2.935,3.457c-0.144-0.18-0.414-0.504-0.576-0.648c2.358-1.927,3.853-4.736,4.79-7.76h-4.087v-0.847
		h4.321c0.324-1.188,0.576-2.358,0.756-3.547l0.882,0.162c-0.198,1.134-0.45,2.25-0.756,3.385h6.68v0.847H126.889z M125.575,159.578
		v5.023h6.464v-5.023H125.575z"/>
	<path id="XMLID_175_" fill="#E2E2E2" d="M153.78,164.925c0.486,0,1.206-0.054,1.566-0.108c0.036,0.234,0.09,0.594,0.144,0.792
		c-0.27,0.054-0.955,0.09-1.729,0.09h-4.213c-1.603,0-2.233-0.541-2.233-2.251v-11.271h-0.666v-0.792h8.643v0.792h-7.166v11.326
		c0,1.026,0.378,1.422,1.368,1.422H153.78z M148.882,158.947h2.754v4.538h-2.754V158.947z M154.176,157.561h-4.682v-3.997h4.682
		V157.561z M149.512,162.819h1.495v-3.205h-1.495V162.819z M153.419,154.23h-3.205v2.665h3.205V154.23z M155.076,163.485h-2.827
		v-4.501h2.827V163.485z M154.446,159.65h-1.566v3.151h1.566V159.65z M157.327,154.212c-0.414,1.44-0.954,2.719-1.584,3.727
		c-0.162-0.126-0.522-0.36-0.738-0.468c1.188-1.729,1.909-4.375,2.323-7.148l0.828,0.144c-0.144,1.008-0.342,1.999-0.594,2.917h4.79
		l0.162-0.036l0.522,0.198c-0.288,1.495-0.72,3.295-1.152,4.375l-0.684-0.216c0.342-0.882,0.648-2.269,0.882-3.493H157.327z
		 M159.271,156.571c0,0.486,0,0.99-0.036,1.53c0.54,3.673,1.494,5.87,3.547,7.833c-0.216,0.162-0.45,0.432-0.576,0.684
		c-1.692-1.656-2.647-3.475-3.259-6.05c-0.378,2.035-1.225,4.177-3.043,6.05c-0.126-0.198-0.396-0.468-0.612-0.612
		c2.953-3.007,3.169-6.77,3.169-9.435v-1.134h0.81V156.571z"/>
	<path id="XMLID_185_" fill="#E2E2E2" d="M173.831,150.719c-0.576,1.35-1.26,2.665-2.035,3.907v11.992h-0.846v-10.713
		c-0.792,1.08-1.638,2.088-2.502,2.917c-0.108-0.198-0.396-0.594-0.594-0.792c2.035-1.819,3.961-4.646,5.149-7.563L173.831,150.719z
		 M179.305,159.001v6.086h4.862v0.828h-10.605v-0.828h4.879v-6.086h-5.474v-0.846h5.474v-5.24h-4.141v-0.828h9.507v0.828h-4.501
		v5.24h5.276v0.846H179.305z"/>
	<path id="XMLID_188_" fill="#E2E2E2" d="M194.207,164.421c1.098-0.198,2.25-0.414,3.385-0.648l0.072,0.81l-7.581,1.495
		l-0.216-0.828c0.954-0.18,2.161-0.414,3.529-0.667v-5.906h-3.331v-0.792h3.331v-2.305h-2.305v-0.774h5.492v0.774h-2.376v2.305
		h3.025v0.792h-3.025V164.421z M196.674,154.446c-0.756-0.703-1.963-1.675-3.043-2.503c-0.937,1.242-2.125,2.359-3.241,3.151
		c-0.09-0.198-0.306-0.63-0.45-0.846c1.44-0.936,2.971-2.395,3.872-3.979l0.72,0.306c-0.144,0.252-0.306,0.522-0.468,0.756
		c1.098,0.792,2.269,1.693,3.043,2.395L196.674,154.446z M191.362,159.902c0.324,1.08,0.685,2.521,0.811,3.439l-0.72,0.162
		c-0.144-0.937-0.468-2.359-0.792-3.457L191.362,159.902z M195.161,163.107c0.342-0.9,0.792-2.377,1.026-3.367l0.774,0.216
		c-0.36,1.117-0.774,2.485-1.152,3.349L195.161,163.107z M205.838,153.924c-0.342,8.48-0.63,11.29-1.351,12.136
		c-0.342,0.414-0.72,0.54-1.26,0.576c-0.558,0.036-1.584,0-2.557-0.054c-0.036-0.27-0.108-0.612-0.27-0.846
		c1.152,0.108,2.179,0.108,2.557,0.108c0.36,0.018,0.576-0.018,0.738-0.27c0.648-0.666,0.99-3.511,1.296-11.343h-5.744
		c-0.54,1.081-1.116,2.035-1.729,2.809c-0.162-0.144-0.54-0.378-0.774-0.504c1.333-1.53,2.449-3.871,3.115-6.212l0.846,0.198
		c-0.306,0.99-0.667,1.98-1.081,2.899h6.212V153.924z M197.844,161.162h5.923v0.792h-5.923V161.162z M203.282,157.237v0.792h-4.646
		v-0.792H203.282z"/>
	<path id="XMLID_196_" fill="#E2E2E2" d="M225.149,164.385c-1.44,0.9-3.691,1.8-5.492,2.305c-0.144-0.162-0.432-0.468-0.612-0.648
		c1.818-0.486,4.105-1.368,5.257-2.125L225.149,164.385z M235.178,156.769h-15.953v-0.774h15.953V156.769z M223.564,152.609h-3.493
		v-0.738h3.493v-1.549h0.846v1.549h5.618v-1.549h0.864v1.549h3.529v0.738h-3.529v2.287h-7.328V152.609z M221.313,163.629v-5.798
		h11.956v5.798H221.313z M222.16,160.37h4.574v-1.836h-4.574V160.37z M222.16,162.909h4.574v-1.854h-4.574V162.909z
		 M224.411,152.609v1.567h5.618v-1.567H224.411z M232.405,158.533h-4.825v1.836h4.825V158.533z M232.405,161.054h-4.825v1.854h4.825
		V161.054z M229.92,163.917c1.98,0.63,4.087,1.458,5.419,2.088l-0.738,0.648c-1.224-0.648-3.259-1.477-5.257-2.161L229.92,163.917z"
		/>
	<path id="XMLID_207_" fill="#E2E2E2" d="M244.066,153.87h2.071v0.828h-2.071v1.008c0.486,0.594,1.729,2.376,2.035,2.827
		l-0.558,0.667c-0.252-0.522-0.954-1.621-1.477-2.449v9.867h-0.828v-9.723c-0.594,2.052-1.404,4.069-2.215,5.275
		c-0.108-0.234-0.342-0.594-0.522-0.792c1.044-1.44,2.143-4.25,2.647-6.68h-2.323v-0.828h2.413v-3.529h0.828V153.87z
		 M251.07,156.193c0.018,0.234,0.054,0.558,0.108,0.738c-3.655,0.991-4.123,1.152-4.429,1.351c-0.036-0.252-0.198-0.648-0.306-0.864
		c0.216-0.072,0.522-0.18,0.522-0.756v-6.194h0.846v2.431h3.241v0.792h-3.241v3.313L251.07,156.193z M251.682,157.957
		c-0.234,0.486-0.468,1.044-0.702,1.495h4.664v7.166h-0.864v-0.684h-6.626v0.756h-0.864v-7.238h2.845
		c0.234-0.54,0.486-1.26,0.612-1.747L251.682,157.957z M254.779,160.208h-6.626v2.07h6.626V160.208z M254.779,165.177v-2.161h-6.626
		v2.161H254.779z M255.518,157.201c0.504,0,0.594-0.27,0.648-1.98c0.198,0.162,0.522,0.288,0.774,0.36
		c-0.108,1.908-0.36,2.395-1.351,2.395h-2.323c-1.152,0-1.458-0.252-1.458-1.333v-6.158h0.847v2.413h3.907v0.792h-3.907v2.971
		c0,0.45,0.108,0.54,0.684,0.54H255.518z"/>
	<path id="XMLID_214_" fill="#E2E2E2" d="M265.684,161.72c-0.288,1.836-1.098,3.709-3.133,4.987
		c-0.126-0.216-0.378-0.504-0.558-0.648c1.836-1.063,2.575-2.719,2.845-4.339h-2.791v-0.792h2.899
		c0.054-0.594,0.072-1.207,0.072-1.729v-1.117h-2.575v-0.792h2.575v-2.611h-2.845v-0.81h3.655c0.54-0.991,1.188-2.485,1.513-3.511
		l0.864,0.27c-0.432,1.026-1.008,2.305-1.531,3.241h1.801v0.81h-2.611v2.611h2.485v0.792h-2.485v1.117
		c0,0.54-0.018,1.134-0.072,1.729h2.557v0.792H265.684z M263.704,153.51c-0.162-0.738-0.594-1.891-0.954-2.791l0.756-0.216
		c0.378,0.882,0.828,2.017,1.026,2.755L263.704,153.51z M272.886,165.213c0,0.648-0.162,0.918-0.576,1.063
		c-0.45,0.144-1.242,0.162-2.557,0.144c-0.036-0.216-0.162-0.558-0.288-0.81c1.063,0.036,1.999,0.036,2.25,0.018
		c0.288-0.018,0.396-0.09,0.396-0.396v-5.06c-1.152,1.062-2.322,2.125-3.295,2.971l-0.468-0.666
		c0.936-0.774,2.395-1.999,3.763-3.223v-7.184h-3.457v-0.81h4.231V165.213z M269.771,154.338c0.522,1.134,1.134,2.647,1.404,3.493
		l-0.666,0.288c-0.288-0.882-0.864-2.431-1.422-3.583L269.771,154.338z M277.946,165.285c0,0.648-0.162,0.918-0.594,1.081
		c-0.432,0.144-1.26,0.144-2.629,0.144c-0.036-0.234-0.162-0.594-0.27-0.828c1.081,0.036,2.035,0.036,2.305,0.018
		c0.306-0.018,0.396-0.108,0.396-0.415v-5.671c-1.152,1.062-2.305,2.161-3.259,3.043l-0.486-0.648
		c0.936-0.792,2.376-2.07,3.745-3.349v-6.59h-3.547v-0.81h4.339V165.285z M274.399,154.284c0.558,1.134,1.188,2.611,1.476,3.421
		l-0.684,0.306c-0.288-0.9-0.9-2.413-1.44-3.529L274.399,154.284z"/>
	<path id="XMLID_221_" fill="#E2E2E2" d="M298.373,159.793c-0.414-0.684-1.621-2.196-2.431-3.169v10.011h-0.846v-9.813
		c-0.847,2.449-2.125,4.934-3.331,6.338c-0.126-0.234-0.378-0.558-0.54-0.756c1.404-1.548,2.935-4.573,3.673-7.274h-3.241v-0.828
		h3.439v-3.961h0.846v3.961h2.683v0.828h-2.683v0.432c0.558,0.594,2.593,2.899,3.061,3.475L298.373,159.793z M304.099,155.13
		c0.828,3.079,2.287,6.23,3.799,7.796c-0.198,0.162-0.504,0.468-0.685,0.684c-1.296-1.513-2.557-4.159-3.421-6.896v9.921h-0.864
		v-9.831c-0.99,2.809-2.502,5.564-4.033,7.094c-0.144-0.252-0.396-0.558-0.576-0.756c1.729-1.692,3.511-4.916,4.357-8.012h-3.133
		v-0.828h3.385v-3.961h0.864v3.961h3.565v0.828H304.099z"/>
	<path id="XMLID_224_" fill="#E2E2E2" d="M316.461,153.87h2.071v0.828h-2.071v1.008c0.486,0.594,1.729,2.376,2.035,2.827
		l-0.558,0.667c-0.252-0.522-0.954-1.621-1.477-2.449v9.867h-0.828v-9.723c-0.594,2.052-1.404,4.069-2.215,5.275
		c-0.108-0.234-0.342-0.594-0.522-0.792c1.044-1.44,2.143-4.25,2.647-6.68h-2.323v-0.828h2.413v-3.529h0.828V153.87z
		 M323.466,156.193c0.019,0.234,0.054,0.558,0.108,0.738c-3.656,0.991-4.124,1.152-4.43,1.351c-0.036-0.252-0.198-0.648-0.306-0.864
		c0.216-0.072,0.522-0.18,0.522-0.756v-6.194h0.846v2.431h3.242v0.792h-3.242v3.313L323.466,156.193z M324.078,157.957
		c-0.234,0.486-0.468,1.044-0.702,1.495h4.663v7.166h-0.864v-0.684h-6.626v0.756h-0.864v-7.238h2.845
		c0.234-0.54,0.486-1.26,0.612-1.747L324.078,157.957z M327.175,160.208h-6.626v2.07h6.626V160.208z M327.175,165.177v-2.161h-6.626
		v2.161H327.175z M327.913,157.201c0.504,0,0.595-0.27,0.648-1.98c0.198,0.162,0.522,0.288,0.774,0.36
		c-0.108,1.908-0.36,2.395-1.351,2.395h-2.323c-1.152,0-1.458-0.252-1.458-1.333v-6.158h0.847v2.413h3.907v0.792h-3.907v2.971
		c0,0.45,0.107,0.54,0.684,0.54H327.913z"/>
	<path id="XMLID_231_" fill="#E2E2E2" d="M340.313,162.513l0.054,0.792c-1.891,0.522-3.871,1.044-5.383,1.44l-0.234-0.846
		c0.774-0.18,1.746-0.432,2.809-0.684c0.45-2.017,0.954-5.384,1.206-7.67l0.829,0.18c-0.324,2.232-0.829,5.257-1.278,7.292
		L340.313,162.513z M340.15,154.68h-5.348v-0.81h5.348V154.68z M336.315,162.495c-0.108-1.837-0.504-4.609-0.937-6.716l0.721-0.126
		c0.432,2.143,0.864,4.862,0.972,6.716L336.315,162.495z M337.396,153.6c-0.162-0.721-0.54-1.855-0.81-2.701l0.773-0.252
		c0.307,0.846,0.702,1.927,0.864,2.647L337.396,153.6z M345.354,165.357c0,0.63-0.145,0.9-0.576,1.044
		c-0.433,0.162-1.225,0.162-2.539,0.162c-0.019-0.216-0.126-0.576-0.252-0.811c1.026,0.036,1.944,0.018,2.196,0
		c0.288,0,0.378-0.09,0.378-0.396v-5.6c-1.17,1.08-2.395,2.179-3.385,3.043l-0.468-0.63c0.972-0.774,2.448-2.053,3.853-3.331v-6.77
		h-3.601v-0.81h4.394V165.357z M341.951,154.338c0.522,1.134,1.152,2.647,1.404,3.493l-0.666,0.288
		c-0.271-0.882-0.864-2.431-1.404-3.583L341.951,154.338z M350.378,165.412c0,0.666-0.181,0.936-0.595,1.08
		c-0.432,0.144-1.242,0.162-2.557,0.144c-0.036-0.216-0.144-0.576-0.27-0.828c1.062,0.036,1.98,0.036,2.25,0.018
		c0.271-0.018,0.36-0.108,0.36-0.396v-5.924c-1.135,1.081-2.269,2.161-3.223,3.025l-0.486-0.648
		c0.918-0.774,2.358-2.053,3.709-3.331v-6.482h-3.619v-0.81h4.43V165.412z M346.776,154.284c0.576,1.098,1.225,2.575,1.494,3.403
		l-0.666,0.324c-0.306-0.9-0.936-2.395-1.477-3.529L346.776,154.284z"/>
	<path id="XMLID_240_" fill="#E2E2E2" d="M369.383,151.439c-0.541,1.44-1.279,3.223-1.927,4.664c1.422,1.548,1.8,2.845,1.8,4.015
		c0,0.846-0.197,1.603-0.666,1.927c-0.216,0.144-0.54,0.252-0.864,0.288c-0.396,0.036-0.846,0.036-1.242,0
		c-0.018-0.216-0.108-0.54-0.252-0.774c0.468,0.018,0.882,0.036,1.188,0.018c0.252-0.018,0.45-0.072,0.612-0.18
		c0.306-0.198,0.414-0.774,0.414-1.332c0-1.063-0.396-2.341-1.837-3.854c0.63-1.422,1.261-3.043,1.711-4.285h-2.971v14.729h-0.811
		v-15.539h4.141l0.145-0.036L369.383,151.439z M375.774,160.892c1.063,1.71,2.845,3.349,4.501,4.141
		c-0.18,0.162-0.468,0.468-0.594,0.684c-1.747-0.936-3.619-2.863-4.699-4.789v5.708h-0.829v-5.672
		c-1.188,1.963-3.259,3.854-5.077,4.826c-0.144-0.198-0.396-0.504-0.594-0.684c1.729-0.811,3.654-2.485,4.825-4.213h-3.061v-6.068
		h3.906v-1.674h-4.717v-0.774h4.717v-2.017h0.829v2.017h4.843v0.774h-4.843v1.674h4.015v6.068H375.774z M371.057,157.489h3.097
		v-1.944h-3.097V157.489z M371.057,160.172h3.097v-1.98h-3.097V160.172z M374.982,155.544v1.944h3.187v-1.944H374.982z
		 M378.169,158.191h-3.187v1.98h3.187V158.191z"/>
	<path id="XMLID_247_" fill="#E2E2E2" d="M389.326,152.501c-0.307,2.791-1.116,4.861-3.602,6.068
		c-0.107-0.198-0.378-0.522-0.576-0.648c2.341-1.044,3.079-2.971,3.331-5.42h-2.809v-0.81h7.616v0.432
		c-0.144,3.799-0.271,5.113-0.648,5.545c-0.233,0.27-0.504,0.378-0.954,0.396c-0.414,0.036-1.206,0.018-1.998-0.036
		c-0.019-0.234-0.108-0.558-0.253-0.774c0.864,0.072,1.675,0.072,1.927,0.072c0.307,0.018,0.469,0,0.576-0.162
		c0.252-0.288,0.378-1.477,0.504-4.664H389.326z M387.147,165.195v1.26h-0.811v-7.184h6.608v5.924H387.147z M387.147,160.082v4.304
		h4.97v-4.304H387.147z M401.264,154.464c0,0-0.019,0.396-0.019,0.504c-0.162,7.814-0.323,10.317-0.882,11.055
		c-0.306,0.378-0.63,0.504-1.135,0.541c-0.521,0.036-1.44,0.018-2.322-0.036c-0.036-0.27-0.126-0.612-0.271-0.846
		c1.026,0.09,1.963,0.09,2.323,0.09c0.306,0,0.486-0.036,0.648-0.27c0.45-0.54,0.647-3.061,0.792-10.209h-3.043
		c-0.234,4.646-1.026,8.913-4.016,11.433c-0.144-0.18-0.485-0.45-0.72-0.576c2.898-2.305,3.673-6.428,3.889-10.857h-2.772v-0.828
		h2.809c0.055-1.351,0.055-2.719,0.055-4.069h0.846c0,1.368-0.018,2.719-0.054,4.069H401.264z"/>
	<path id="XMLID_252_" fill="#E2E2E2" d="M407.414,165.267c0.955-1.08,1.693-2.827,2.089-4.141l0.738,0.252
		c-0.468,1.386-1.134,3.187-2.089,4.303L407.414,165.267z M421.333,159.848h-12.226v-8.697h12.226V159.848z M420.433,151.925
		h-10.461v7.13h10.461V151.925z M418.56,158.479c-0.828-0.738-2.358-1.909-3.69-2.791c-0.595,1.26-1.603,2.197-3.313,2.827
		c-0.09-0.18-0.324-0.45-0.45-0.576c1.854-0.63,2.809-1.692,3.313-3.151h-3.205v-0.738h3.385c0.126-0.54,0.216-1.116,0.271-1.729
		h0.773c-0.054,0.612-0.144,1.188-0.252,1.729h3.745v0.738h-3.925l-0.09,0.27c1.368,0.882,3.079,2.089,3.961,2.863L418.56,158.479z
		 M417.821,165.501c0.937,0,1.081-0.306,1.171-2.359c0.198,0.18,0.558,0.288,0.81,0.36c-0.126,2.287-0.432,2.809-1.944,2.809h-4.069
		c-1.692,0-2.143-0.27-2.143-1.404v-3.889h0.864v3.871c0,0.486,0.217,0.612,1.278,0.612H417.821z M414.707,160.352
		c1.008,0.846,2.143,2.017,2.646,2.845l-0.721,0.45c-0.504-0.811-1.602-2.035-2.61-2.899L414.707,160.352z M420.252,160.712
		c1.135,1.296,2.287,3.079,2.719,4.285l-0.81,0.378c-0.396-1.188-1.513-3.007-2.665-4.303L420.252,160.712z"/>
	<path id="XMLID_260_" fill="#E2E2E2" d="M443.164,159.793c-0.414-0.684-1.62-2.196-2.431-3.169v10.011h-0.846v-9.813
		c-0.847,2.449-2.125,4.934-3.331,6.338c-0.126-0.234-0.379-0.558-0.54-0.756c1.404-1.548,2.935-4.573,3.673-7.274h-3.241v-0.828
		h3.439v-3.961h0.846v3.961h2.683v0.828h-2.683v0.432c0.559,0.594,2.593,2.899,3.062,3.475L443.164,159.793z M448.89,155.13
		c0.828,3.079,2.287,6.23,3.8,7.796c-0.198,0.162-0.505,0.468-0.685,0.684c-1.296-1.513-2.557-4.159-3.421-6.896v9.921h-0.864
		v-9.831c-0.99,2.809-2.503,5.564-4.033,7.094c-0.145-0.252-0.396-0.558-0.576-0.756c1.729-1.692,3.511-4.916,4.357-8.012h-3.133
		v-0.828h3.385v-3.961h0.864v3.961h3.565v0.828H448.89z"/>
	<path id="XMLID_263_" fill="#E2E2E2" d="M473.911,159.505v0.738h-15.845v-0.738h7.418v-1.278h-6.229v-0.684h6.229v-1.224h-5.672
		v-0.685h5.672v-1.296h-7.4v-0.72h7.4v-1.26h-5.455v-0.684h5.455v-1.351h0.864v1.351h5.258v1.944h2.269v0.72h-2.269v1.981h-5.258
		v1.224h6.41v0.684h-6.41v1.278H473.911z M460.389,161.252h11.308v5.402h-0.864v-0.594h-9.597v0.63h-0.847V161.252z
		 M461.235,161.955v1.332h9.597v-1.332H461.235z M470.832,165.375v-1.422h-9.597v1.422H470.832z M466.349,153.618h4.411v-1.26
		h-4.411V153.618z M466.349,155.634h4.411v-1.296h-4.411V155.634z"/>
	<path id="XMLID_270_" fill="#E2E2E2" d="M483.861,150.701c-0.414,1.224-0.918,2.449-1.476,3.619v12.334h-0.829v-10.767
		c-0.63,1.098-1.332,2.125-2.052,2.971c-0.091-0.18-0.36-0.63-0.522-0.828c1.639-1.854,3.115-4.682,4.033-7.563L483.861,150.701z
		 M485.32,163.161h-0.847v-10.083h0.847V163.161z M494.305,154.752c-0.648,3.061-1.62,5.491-3.079,7.436
		c1.207,1.603,2.773,2.953,4.897,3.853c-0.197,0.162-0.468,0.504-0.612,0.72c-2.052-0.954-3.618-2.305-4.807-3.889
		c-1.369,1.603-3.098,2.845-5.294,3.817c-0.108-0.162-0.432-0.522-0.612-0.702c2.287-0.918,4.052-2.179,5.384-3.835
		c-1.188-1.836-1.944-3.925-2.449-5.942c-0.485,1.026-1.025,1.963-1.62,2.737c-0.144-0.162-0.468-0.45-0.666-0.594
		c1.549-1.944,2.719-4.915,3.421-8.012l0.828,0.162c-0.288,1.188-0.612,2.323-1.008,3.421h6.95v0.829H494.305z M488.255,155.058
		c0.45,2.161,1.206,4.412,2.485,6.374c1.242-1.8,2.088-3.997,2.683-6.68h-5.042L488.255,155.058z"/>
	<path id="XMLID_275_" fill="#E2E2E2" d="M81.186,187.793c-0.414-0.684-1.621-2.196-2.431-3.169v10.011h-0.846v-9.813
		c-0.846,2.449-2.125,4.934-3.331,6.338c-0.126-0.234-0.378-0.558-0.541-0.756c1.405-1.548,2.935-4.573,3.673-7.274H74.47v-0.828
		h3.439v-3.961h0.846v3.961h2.683v0.828h-2.683v0.432c0.558,0.594,2.593,2.899,3.061,3.475L81.186,187.793z M86.912,183.13
		c0.828,3.079,2.287,6.23,3.799,7.796c-0.198,0.162-0.504,0.468-0.684,0.684c-1.297-1.513-2.557-4.159-3.421-6.896v9.921h-0.864
		v-9.831c-0.99,2.809-2.502,5.564-4.033,7.094c-0.144-0.252-0.396-0.558-0.576-0.756c1.729-1.692,3.511-4.916,4.357-8.012h-3.133
		v-0.828h3.385v-3.961h0.864v3.961h3.565v0.828H86.912z"/>
	<path id="XMLID_278_" fill="#E2E2E2" d="M110.889,188.1c-0.342,4.142-0.63,5.636-1.188,6.176c-0.288,0.288-0.576,0.378-1.063,0.396
		c-0.432,0.036-1.314,0.018-2.197-0.054c-0.036-0.234-0.108-0.558-0.27-0.792c0.955,0.108,1.855,0.108,2.179,0.108
		c0.324,0,0.504-0.018,0.648-0.18c0.414-0.396,0.72-1.782,1.008-5.293h-2.575c-0.955,2.575-2.485,4.807-4.231,6.284
		c-0.144-0.144-0.504-0.432-0.72-0.558c1.729-1.35,3.169-3.403,4.033-5.726h-2.899c-1.333,2.395-3.385,4.465-5.474,5.852
		c-0.126-0.162-0.468-0.468-0.684-0.612c2.053-1.225,3.943-3.115,5.186-5.24h-3.043c-0.937,0.972-1.98,1.818-3.007,2.467
		c-0.144-0.162-0.486-0.468-0.702-0.612c1.836-1.081,3.637-2.683,4.807-4.465h-2.232v-6.644h11.361v6.644h-8.138
		c-0.378,0.612-0.847,1.242-1.351,1.818h10.605L110.889,188.1z M99.311,182.14h9.651v-2.161h-9.651V182.14z M99.311,185.093h9.651
		v-2.214h-9.651V185.093z"/>
	<path id="XMLID_282_" fill="#E2E2E2" d="M119.903,186.407c-0.504-0.648-1.584-1.548-2.503-2.143l0.522-0.576
		c0.918,0.576,1.999,1.44,2.502,2.053L119.903,186.407z M117.652,193.826c0.666-1.333,1.602-3.619,2.232-5.51l0.648,0.522
		c-0.594,1.747-1.44,3.961-2.179,5.546L117.652,193.826z M118.408,178.701c0.882,0.576,1.873,1.44,2.323,2.052l-0.522,0.63
		c-0.486-0.63-1.44-1.512-2.305-2.125L118.408,178.701z M128.149,191.701l0.036,0.738c-2.539,0.468-5.239,0.955-7.112,1.278
		l-0.198-0.792c1.081-0.144,2.557-0.396,4.159-0.684c0.396-0.882,0.846-2.143,1.081-3.025l0.792,0.27
		c-0.324,0.846-0.702,1.818-1.08,2.611L128.149,191.701z M124.152,181.474h-2.863V180.7h2.863v-1.98h0.811v1.98h2.971v0.774h-2.971
		v1.675h2.449v0.756h-5.852v-0.756h2.593V181.474z M127.303,188.676h-5.42v-3.493h5.42V188.676z M122.802,192.259
		c-0.036-0.703-0.306-1.855-0.648-2.719l0.703-0.162c0.342,0.864,0.648,1.98,0.684,2.665L122.802,192.259z M126.511,185.939h-3.853
		v1.999h3.853V185.939z M133.767,183.382h-1.531v9.435c0,0.63-0.18,0.882-0.594,1.026c-0.414,0.145-1.152,0.162-2.502,0.162
		c-0.054-0.234-0.18-0.558-0.306-0.792c1.063,0.036,1.944,0.018,2.197,0.018c0.288-0.018,0.396-0.108,0.396-0.396v-9.453h-3.331
		v-0.828h3.331v-4.069h0.81v4.069h1.531V183.382z M129.572,189.396c-0.18-1.044-0.738-2.791-1.351-4.087l0.685-0.252
		c0.63,1.314,1.206,3.024,1.404,4.051L129.572,189.396z"/>
	<path id="XMLID_293_" fill="#E2E2E2" d="M161.378,193.394c0,0.684-0.216,0.954-0.684,1.098c-0.504,0.144-1.44,0.162-3.079,0.162
		c-0.036-0.234-0.198-0.576-0.324-0.811c1.296,0.036,2.449,0.018,2.755,0c0.36-0.018,0.468-0.126,0.468-0.45v-7.526H149.53
		c-0.072,2.845-0.504,6.356-2.341,8.913c-0.144-0.162-0.486-0.468-0.684-0.558c1.98-2.773,2.179-6.59,2.179-9.453v-5.564h12.694
		V193.394z M149.548,180.033v1.981h4.843v-1.981H149.548z M149.548,185.093h4.843v-2.323h-4.843v1.999V185.093z M151.925,192.043
		v1.026h-0.81v-5.618h7.544v4.591H151.925z M151.925,188.19v3.115h5.906v-3.115H151.925z M160.514,180.033h-5.293v1.981h5.293
		V180.033z M160.514,185.093v-2.323h-5.293v2.323H160.514z"/>
	<path id="XMLID_301_" fill="#E2E2E2" d="M174.191,188.64c-0.396-0.486-1.387-1.549-2.089-2.269v8.283h-0.846v-7.778
		c-0.864,0.9-1.765,1.71-2.646,2.323c-0.09-0.216-0.324-0.612-0.468-0.756c2.017-1.351,4.231-3.709,5.366-6.14h-5.042v-0.811h5.51
		l0.18-0.036l0.468,0.324c-0.54,1.369-1.351,2.665-2.305,3.854c0.684,0.612,2.035,1.962,2.395,2.34L174.191,188.64z M172.193,181.15
		c-0.324-0.667-1.044-1.639-1.711-2.305l0.612-0.432c0.702,0.684,1.44,1.62,1.765,2.25L172.193,181.15z M178.747,182.464
		c-0.36,1.476-0.774,2.845-1.333,4.051h6.338v8.084h-0.846v-1.134h-5.312v1.134h-0.828v-6.788c-0.684,1.225-1.513,2.287-2.521,3.187
		c-0.144-0.18-0.486-0.504-0.684-0.648c2.215-1.836,3.511-4.52,4.303-7.886h-2.646v-0.811h2.827c0.198-1.044,0.36-2.143,0.504-3.295
		l0.882,0.108c-0.144,1.117-0.324,2.179-0.504,3.187h5.6v0.811H178.747z M177.594,187.326v5.33h5.312v-5.33H177.594z"/>
	<path id="XMLID_306_" fill="#E2E2E2" d="M194.207,192.421c1.098-0.198,2.25-0.414,3.385-0.648l0.072,0.81l-7.581,1.495
		l-0.216-0.828c0.954-0.18,2.161-0.414,3.529-0.667v-5.906h-3.331v-0.792h3.331v-2.305h-2.305v-0.774h5.492v0.774h-2.376v2.305
		h3.025v0.792h-3.025V192.421z M196.674,182.446c-0.756-0.703-1.963-1.675-3.043-2.503c-0.937,1.242-2.125,2.359-3.241,3.151
		c-0.09-0.198-0.306-0.63-0.45-0.846c1.44-0.936,2.971-2.395,3.872-3.979l0.72,0.306c-0.144,0.252-0.306,0.522-0.468,0.756
		c1.098,0.792,2.269,1.693,3.043,2.395L196.674,182.446z M191.362,187.902c0.324,1.08,0.685,2.521,0.811,3.439l-0.72,0.162
		c-0.144-0.937-0.468-2.359-0.792-3.457L191.362,187.902z M195.161,191.107c0.342-0.9,0.792-2.377,1.026-3.367l0.774,0.216
		c-0.36,1.117-0.774,2.485-1.152,3.349L195.161,191.107z M205.838,181.924c-0.342,8.48-0.63,11.29-1.351,12.136
		c-0.342,0.414-0.72,0.54-1.26,0.576c-0.558,0.036-1.584,0-2.557-0.054c-0.036-0.27-0.108-0.612-0.27-0.846
		c1.152,0.108,2.179,0.108,2.557,0.108c0.36,0.018,0.576-0.018,0.738-0.27c0.648-0.666,0.99-3.511,1.296-11.343h-5.744
		c-0.54,1.081-1.116,2.035-1.729,2.809c-0.162-0.144-0.54-0.378-0.774-0.504c1.333-1.53,2.449-3.871,3.115-6.212l0.846,0.198
		c-0.306,0.99-0.667,1.98-1.081,2.899h6.212V181.924z M197.844,189.162h5.923v0.792h-5.923V189.162z M203.282,185.237v0.792h-4.646
		v-0.792H203.282z"/>
	<path id="XMLID_314_" fill="#E2E2E2" d="M224.104,182.14c-0.468,0.81-1.063,1.62-1.674,2.376v10.227h-0.829v-9.255
		c-0.774,0.864-1.603,1.657-2.395,2.287c-0.108-0.144-0.414-0.541-0.576-0.702c1.729-1.279,3.529-3.259,4.681-5.222L224.104,182.14z
		 M223.636,178.665c-1.008,1.477-2.683,3.115-4.249,4.177c-0.09-0.162-0.342-0.468-0.504-0.612c1.458-0.99,3.133-2.539,3.961-3.889
		L223.636,178.665z M230.19,178.593c-0.126,0.216-0.252,0.45-0.396,0.648c1.603,2.214,3.529,3.637,5.582,4.807
		c-0.216,0.162-0.468,0.433-0.576,0.685c-1.963-1.225-3.781-2.665-5.402-4.826c-1.368,1.927-3.277,3.691-5.222,4.826
		c-0.144-0.198-0.36-0.45-0.558-0.63c2.323-1.26,4.627-3.511,5.888-5.798L230.19,178.593z M226.913,189.504
		c-0.612,1.476-1.548,3.025-2.449,4.051c-0.18-0.144-0.54-0.36-0.738-0.468c0.955-0.973,1.837-2.413,2.377-3.799L226.913,189.504z
		 M229.956,188.136v5.366c0,0.612-0.162,0.864-0.594,1.008c-0.45,0.162-1.26,0.162-2.61,0.162c-0.036-0.252-0.162-0.576-0.306-0.829
		c1.134,0.036,2.035,0.036,2.287,0.018c0.288-0.018,0.36-0.108,0.36-0.342v-5.384h-4.969v-0.81h4.969v-2.647h-2.899v-0.792h6.986
		v0.792h-3.223v2.647h5.023v0.81H229.956z M232.549,189.234c1.044,1.17,2.161,2.755,2.647,3.817l-0.738,0.432
		c-0.486-1.063-1.566-2.701-2.593-3.889L232.549,189.234z"/>
	<path id="XMLID_321_" fill="#E2E2E2" d="M244.696,187.091c-0.36,1.549-0.918,3.367-1.548,4.664c0.396,0.18,0.828,0.594,1.656,1.081
		c1.278,0.774,2.899,0.918,5.042,0.918c2.467,0,5.24-0.162,7.256-0.324c-0.126,0.234-0.252,0.648-0.27,0.918
		c-1.261,0.072-4.826,0.18-7.004,0.18c-2.358,0-3.961-0.198-5.312-1.008c-0.72-0.432-1.404-1.063-1.836-1.063
		c-0.378,0-0.99,1.063-1.548,2.269l-0.63-0.702c0.648-1.044,1.224-1.926,1.8-2.232c0.576-1.099,1.099-2.719,1.405-4.087h-2.413
		c0.522-1.08,1.188-2.683,1.692-4.105h-2.233v-0.811h3.385c-0.504,1.314-1.134,2.917-1.657,4.141h1.584l0.162-0.036L244.696,187.091
		z M242.554,181.6c-0.18-0.756-0.576-1.981-0.864-2.881l0.774-0.216c0.288,0.918,0.702,2.088,0.918,2.845L242.554,181.6z
		 M246.479,183.004c-0.306,0.324-0.612,0.612-0.918,0.846c-0.162-0.144-0.504-0.414-0.72-0.576c1.566-1.17,3.007-3.007,3.871-4.934
		l0.846,0.216c-0.198,0.432-0.432,0.864-0.648,1.278h3.979l0.144-0.036l0.558,0.36c-0.396,0.774-1.008,1.62-1.566,2.305h3.493v4.411
		h-3.673v3.925c0,0.414,0.108,0.504,0.828,0.504h2.611c0.576,0,0.685-0.216,0.738-1.783c0.198,0.126,0.522,0.252,0.756,0.324
		c-0.108,1.783-0.378,2.215-1.422,2.215h-2.719c-1.26,0-1.603-0.234-1.603-1.26v-3.925h-0.198c-0.738,2.341-2.143,4.393-5.023,5.6
		c-0.126-0.18-0.378-0.486-0.558-0.63c2.683-1.026,4.033-2.881,4.735-4.969h-3.511V183.004z M248.423,180.591
		c-0.432,0.667-0.918,1.314-1.44,1.873h4.087c0.45-0.522,0.954-1.243,1.314-1.873H248.423z M250.224,186.119
		c0.252-0.954,0.396-1.944,0.504-2.917h-3.421v2.917H250.224z M254.689,183.202h-3.115c-0.108,0.991-0.27,1.963-0.504,2.917h3.619
		V183.202z M253.357,187.416c0.648,0.504,1.422,1.296,1.765,1.818l-0.612,0.45c-0.342-0.558-1.081-1.332-1.747-1.873
		L253.357,187.416z"/>
	<path id="XMLID_329_" fill="#E2E2E2" d="M262.281,194.293c0.882-0.846,1.836-2.179,2.449-3.403l0.774,0.234
		c-0.648,1.207-1.566,2.611-2.449,3.529L262.281,194.293z M270.383,180.195c-1.098,5.167-3.907,8.229-7.256,9.813
		c-0.126-0.198-0.414-0.504-0.612-0.648c2.161-0.955,4.051-2.521,5.384-4.79c-0.612-0.756-1.675-1.783-2.647-2.575
		c-0.702,1.116-1.53,2.161-2.449,2.971c-0.072-0.18-0.324-0.486-0.45-0.63c1.729-1.566,3.133-4.015,3.817-6.122l0.81,0.234
		c-0.18,0.504-0.396,1.044-0.648,1.566h3.367l0.18-0.054L270.383,180.195z M266.404,185.651c-1.278,0.378-2.502,0.72-3.601,1.026
		l-0.288-0.702c1.008-0.216,2.377-0.576,3.799-0.936L266.404,185.651z M265.972,180.771c-0.126,0.216-0.252,0.432-0.36,0.648
		c0.936,0.72,1.999,1.692,2.665,2.449c0.468-0.918,0.846-1.945,1.116-3.097H265.972z M268.601,191.215
		c0.216,1.044,0.396,2.376,0.414,3.151l-0.828,0.126c-0.018-0.81-0.162-2.161-0.396-3.205L268.601,191.215z M277.766,190.152
		c-0.684-1.638-2.214-4.231-3.745-6.338c-0.522,2.197-1.764,4.501-4.627,6.428c-0.144-0.18-0.45-0.433-0.666-0.576
		c2.953-1.945,4.141-4.339,4.573-6.5h-3.043v-0.829h3.187c0.108-0.756,0.126-1.458,0.126-2.07v-1.729h0.829v1.729
		c0,0.63-0.018,1.333-0.108,2.07h4.051v0.829h-3.835c1.603,2.143,3.295,4.843,4.033,6.572L277.766,190.152z M272.31,191.089
		c0.504,1.026,1.008,2.376,1.207,3.205l-0.829,0.198c-0.198-0.846-0.666-2.197-1.17-3.241L272.31,191.089z M277.189,181.726
		c-0.414-0.685-1.296-1.747-2.07-2.467l0.63-0.414c0.792,0.72,1.71,1.729,2.107,2.431L277.189,181.726z M276.001,190.783
		c0.954,1.08,2.052,2.575,2.521,3.511l-0.792,0.396c-0.468-0.955-1.531-2.467-2.485-3.565L276.001,190.783z"/>
</g>
<g id="XMLID_19_">
</g>
<g id="XMLID_370_">
</g>
<g id="XMLID_371_">
</g>
<g id="XMLID_372_">
</g>
<g id="XMLID_373_">
</g>
<g id="XMLID_374_">
</g>
<g id="XMLID_375_">
</g>
<g id="XMLID_376_">
</g>
<g id="XMLID_377_">
</g>
<g id="XMLID_378_">
</g>
<g id="XMLID_379_">
</g>
<g id="XMLID_380_">
</g>
<g id="XMLID_381_">
</g>
<g id="XMLID_382_">
</g>
<g id="XMLID_383_">
</g>
</svg>
