<?xml version="1.0" encoding="iso-8859-1"?>
<!-- Generator: Adobe Illustrator 19.0.0, SVG Export Plug-In . SVG Version: 6.00 Build 0)  -->
<svg version="1.2" baseProfile="tiny" id="&#x5716;&#x5C64;_1"
	 xmlns="http://www.w3.org/2000/svg" xmlns:xlink="http://www.w3.org/1999/xlink" x="0px" y="0px" viewBox="0 0 521.041 282.337"
	 xml:space="preserve">
<path id="XMLID_7_" fill="#E8E8E8" d="M36.781,217.57l-9.245-26.878c-1.3-3.778-1.957-7.666-1.957-11.57V49.308h11.202V217.57z"/>
<g id="XMLID_6_">
	<path id="XMLID_248_" fill="#EFEFEF" d="M81.526,54.689c1.226,0,2.43,0.179,3.614,0.536c1.183,0.357,2.235,0.916,3.154,1.673
		c0.919,0.758,1.664,1.724,2.234,2.898s0.855,2.588,0.855,4.24c0,1.362-0.217,2.63-0.651,3.805c-0.435,1.175-1.018,2.298-1.75,3.371
		c-0.732,1.073-1.58,2.124-2.541,3.154c-0.962,1.03-1.971,2.082-3.026,3.154L70.8,90.393c0.358-0.034,0.771-0.06,1.239-0.077
		s0.992-0.026,1.571-0.026H92.1c0.17,0,0.255,0.085,0.255,0.255v0.307H69.983v-0.204c0-0.103,0.025-0.188,0.077-0.255
		c0.051-0.068,0.093-0.119,0.127-0.153l12.872-13.076c1.056-1.073,2.052-2.12,2.988-3.141c0.936-1.021,1.753-2.06,2.452-3.116
		c0.698-1.056,1.251-2.146,1.66-3.269c0.409-1.124,0.613-2.324,0.613-3.601c0-1.549-0.264-2.882-0.792-3.997
		c-0.528-1.115-1.226-2.03-2.094-2.745c-0.869-0.715-1.856-1.243-2.963-1.583c-1.107-0.34-2.239-0.511-3.396-0.511
		c-1.328,0-2.55,0.204-3.665,0.613s-2.099,0.983-2.95,1.724c-0.852,0.741-1.554,1.622-2.107,2.644s-0.932,2.154-1.136,3.396
		c-0.051,0.273-0.188,0.409-0.409,0.409h-0.255c0.187-1.43,0.575-2.72,1.162-3.869s1.341-2.124,2.26-2.924
		c0.919-0.8,1.979-1.417,3.18-1.852C78.807,54.906,80.113,54.689,81.526,54.689z"/>
	<path id="XMLID_250_" fill="#EFEFEF" d="M104.153,90.341h8.683V57.243c0-0.238,0.008-0.481,0.025-0.728
		c0.017-0.247,0.042-0.489,0.077-0.728l-9.245,8.351c-0.085,0.085-0.17,0.128-0.255,0.128c-0.102,0-0.188-0.042-0.255-0.128
		l-0.153-0.204l10.063-9.041h0.357v35.448h8.479v0.511h-17.775V90.341z"/>
	<path id="XMLID_252_" fill="#EFEFEF" d="M140.775,54.689c1.226,0,2.43,0.179,3.614,0.536c1.183,0.357,2.235,0.916,3.154,1.673
		c0.919,0.758,1.664,1.724,2.234,2.898s0.855,2.588,0.855,4.24c0,1.362-0.217,2.63-0.651,3.805c-0.435,1.175-1.018,2.298-1.75,3.371
		c-0.732,1.073-1.58,2.124-2.541,3.154c-0.962,1.03-1.971,2.082-3.026,3.154l-12.617,12.872c0.358-0.034,0.771-0.06,1.239-0.077
		s0.992-0.026,1.571-0.026h18.49c0.17,0,0.255,0.085,0.255,0.255v0.307h-22.372v-0.204c0-0.103,0.025-0.188,0.077-0.255
		c0.051-0.068,0.093-0.119,0.127-0.153l12.872-13.076c1.056-1.073,2.052-2.12,2.988-3.141c0.936-1.021,1.753-2.06,2.452-3.116
		c0.698-1.056,1.251-2.146,1.66-3.269c0.409-1.124,0.613-2.324,0.613-3.601c0-1.549-0.264-2.882-0.792-3.997
		c-0.528-1.115-1.226-2.03-2.094-2.745c-0.869-0.715-1.856-1.243-2.963-1.583c-1.107-0.34-2.239-0.511-3.396-0.511
		c-1.328,0-2.55,0.204-3.665,0.613s-2.099,0.983-2.95,1.724c-0.852,0.741-1.554,1.622-2.107,2.644s-0.932,2.154-1.136,3.396
		c-0.051,0.273-0.188,0.409-0.409,0.409h-0.255c0.187-1.43,0.575-2.72,1.162-3.869s1.341-2.124,2.26-2.924
		c0.919-0.8,1.979-1.417,3.18-1.852C138.056,54.906,139.362,54.689,140.775,54.689z"/>
	<path id="XMLID_254_" fill="#EFEFEF" d="M182.506,72.975c0,3.133-0.336,5.845-1.009,8.134c-0.673,2.29-1.583,4.185-2.732,5.683
		c-1.149,1.498-2.495,2.609-4.035,3.333c-1.542,0.724-3.171,1.085-4.891,1.085s-3.35-0.361-4.891-1.085
		c-1.541-0.723-2.886-1.834-4.035-3.333s-2.06-3.393-2.732-5.683c-0.673-2.29-1.009-5.001-1.009-8.134
		c0-3.132,0.336-5.844,1.009-8.134c0.672-2.29,1.583-4.188,2.732-5.695s2.494-2.626,4.035-3.358s3.171-1.098,4.891-1.098
		s3.35,0.366,4.891,1.098c1.541,0.732,2.886,1.852,4.035,3.358c1.149,1.507,2.06,3.405,2.732,5.695
		C182.169,67.131,182.506,69.842,182.506,72.975z M181.842,72.975c0-3.064-0.319-5.712-0.958-7.942
		c-0.639-2.23-1.503-4.074-2.592-5.529c-1.09-1.456-2.362-2.537-3.818-3.244c-1.456-0.706-3-1.06-4.635-1.06
		c-1.634,0-3.184,0.354-4.648,1.06c-1.464,0.707-2.746,1.788-3.844,3.244s-1.966,3.299-2.605,5.529
		c-0.638,2.23-0.958,4.878-0.958,7.942c0,3.065,0.319,5.712,0.958,7.943c0.639,2.23,1.507,4.069,2.605,5.516
		c1.098,1.448,2.379,2.52,3.844,3.218c1.464,0.698,3.014,1.047,4.648,1.047c1.635,0,3.18-0.349,4.635-1.047
		c1.456-0.698,2.729-1.771,3.818-3.218c1.089-1.447,1.954-3.286,2.592-5.516C181.522,78.687,181.842,76.04,181.842,72.975z"/>
</g>
<g id="XMLID_5_">
	<path id="XMLID_32_" fill="#E2E2E2" d="M225.587,74.014h18.264v21.024h-6.671v-2.024h-5.291v2.208h-6.303V74.014z M259.953,70.747
		h-28.247V53.265h28.247V70.747z M231.89,80.408v6.211h5.291v-6.211H231.89z M253.098,59.66h-14.952v4.738h14.952V59.66z
		 M265.841,74.014v21.024h-6.717v-2.024h-5.612v2.208h-6.395V74.014H265.841z M259.125,86.619v-6.211h-5.612v6.211H259.125z"/>
	<path id="XMLID_235_" fill="#E2E2E2" d="M289.528,81.696c1.472-0.414,2.944-0.828,4.417-1.242l0.736,5.98
		c-5.153,1.564-10.765,3.174-15.136,4.417l-1.104-6.349c1.518-0.322,3.312-0.782,5.291-1.288v-9.983h-4.187v-6.119h4.187v-7.039
		h-4.462v-6.165h14.722v6.165h-4.463v7.039h3.865v6.119h-3.865V81.696z M313.359,69.919c-0.322,0.552-0.69,1.058-1.058,1.61
		c2.99,2.3,7.131,4.417,10.949,5.613c-1.012,1.61-2.116,4.601-2.53,6.349c-0.644-0.276-1.288-0.598-1.933-0.92v12.697h-6.395v-1.656
		h-7.177v1.656h-6.073V83.123c-0.552,0.322-1.104,0.644-1.656,0.92c-0.92-1.334-2.944-3.635-4.232-4.693
		c5.613-2.76,10.949-7.314,13.802-11.777L313.359,69.919z M307.654,64.858c-2.07,3.313-5.383,6.901-8.143,9.109
		c-1.012-1.104-3.174-3.313-4.462-4.371c1.794-1.15,3.68-2.806,5.198-4.509h-4.922v-8.511h11.133
		c-0.46-1.334-1.058-2.806-1.61-4.048l5.613-1.61c0.874,1.702,1.932,3.957,2.484,5.659h9.477v8.511h-4.831
		c1.748,1.794,3.542,3.727,4.601,5.153l-4.877,3.174c-1.38-2.116-4.508-5.566-6.854-8.051l4.601-2.76l1.242,1.196v-2.07h-15.136
		v2.208c0.276-0.368,0.506-0.69,0.736-1.058L307.654,64.858z M312.991,79.12c-1.518-1.058-2.99-2.162-4.325-3.313
		c-1.15,1.15-2.392,2.254-3.68,3.313H312.991z M312.393,88.229v-3.772h-7.177v3.772H312.393z"/>
	<path id="XMLID_241_" fill="#E2E2E2" d="M377.806,90.622h-6.763v4.508h-6.303v-4.508h-4.784v0.046h-6.073
		c0.828-2.162,1.794-4.969,2.622-7.775h-0.689v-2.346c-2.99,8.051-9.109,12.79-16.47,15.136c-0.645-1.334-2.438-3.681-3.589-4.692
		c2.668-0.69,5.106-1.656,7.269-2.944c-0.689-0.782-1.656-1.749-2.622-2.623c-0.782,0.598-1.564,1.15-2.393,1.61
		c-0.828-1.012-2.76-3.037-3.91-3.957c3.543-1.702,6.763-4.417,8.604-7.545h-7.729v-5.152h7.361v-2.163h-4.877v-5.245h4.877v-2.76
		c-1.013,0.828-2.116,1.61-3.267,2.393c-1.104-1.334-3.267-3.128-4.784-3.957c3.91-2.07,6.809-4.831,8.511-7.315l6.395,1.288
		c-0.322,0.506-0.69,0.966-1.012,1.426h26.499v4.876h-30.916c-0.368,0.368-0.782,0.69-1.196,1.058h6.027v2.99h1.702v-2.898h5.704
		v2.898h1.887v-2.898h5.704v2.898h1.795V59.89h6.395v3.082h4.002v5.245h-4.002v2.163h5.658v5.152h-31.605l2.53,0.69
		c-0.276,0.552-0.598,1.104-0.92,1.656h4.278l0.966-0.138l3.129,1.426v-1.334h8.925v-1.748h6.303v1.748h5.935v5.061h-5.935v2.806
		h6.763V90.622z M344.13,82.157l-0.046,0.046c1.012,0.828,2.116,1.794,2.944,2.622c0.782-0.828,1.426-1.702,2.024-2.668H344.13z
		 M348.593,70.379h1.702v-2.163h-1.702V70.379z M355.999,68.217v2.163h1.887v-2.163H355.999z M364.74,85.699v-2.806h-2.162
		c-0.322,0.966-0.599,1.886-0.92,2.806H364.74z M363.59,68.217v2.163h1.795v-2.163H363.59z"/>
</g>
<g id="XMLID_3_">
	<rect id="XMLID_228_" x="67.26" y="121.499" fill="none" width="432.802" height="118.501"/>
	<path id="XMLID_33_" fill="#E2E2E2" d="M81.186,131.793c-0.414-0.684-1.621-2.196-2.431-3.169v10.011h-0.846v-9.813
		c-0.846,2.449-2.125,4.934-3.331,6.338c-0.126-0.234-0.378-0.558-0.541-0.756c1.405-1.548,2.935-4.573,3.673-7.274H74.47v-0.828
		h3.439v-3.961h0.846v3.961h2.683v0.828h-2.683v0.432c0.558,0.594,2.593,2.899,3.061,3.475L81.186,131.793z M86.912,127.13
		c0.828,3.079,2.287,6.23,3.799,7.796c-0.198,0.162-0.504,0.468-0.684,0.684c-1.297-1.513-2.557-4.159-3.421-6.896v9.921h-0.864
		v-9.831c-0.99,2.809-2.502,5.564-4.033,7.094c-0.144-0.252-0.396-0.558-0.576-0.756c1.729-1.692,3.511-4.916,4.357-8.012h-3.133
		v-0.828h3.385v-3.961h0.864v3.961h3.565v0.828H86.912z"/>
	<path id="XMLID_36_" fill="#E2E2E2" d="M96.646,130.965h6.104v7.508h-0.864v-0.846h-4.411v1.026h-0.829V130.965z M97.475,131.793
		v5.006h4.411v-5.006H97.475z M108.764,128.805h-9.417v-5.671h9.417V128.805z M107.899,123.979h-7.706v3.997h7.706V123.979z
		 M111.5,130.965v7.563h-0.846v-0.9h-4.825v1.026h-0.846v-7.688H111.5z M110.654,136.799v-5.006h-4.825v5.006H110.654z"/>
	<path id="XMLID_43_" fill="#E2E2E2" d="M122.658,134.063l0.09,0.828c-1.818,0.612-3.745,1.26-5.186,1.747l-0.198-0.846
		c0.666-0.198,1.512-0.486,2.449-0.792v-5.293h-1.963v-0.81h1.963v-4.394h-2.251v-0.828h5.114v0.828h-2.089v4.394h1.71v0.81h-1.71
		v5.06L122.658,134.063z M128.959,128.301c-0.09,0.198-0.216,0.414-0.342,0.612c1.206,1.549,3.421,3.223,5.186,4.124
		c-0.18,0.162-0.396,0.504-0.468,0.702c-0.414-0.252-0.846-0.522-1.296-0.828v5.654h-0.846v-0.576h-5.474v0.666h-0.829v-5.78
		c-0.522,0.36-1.08,0.738-1.638,1.063c-0.144-0.162-0.414-0.432-0.612-0.558c2.431-1.333,4.465-3.295,5.474-5.33L128.959,128.301z
		 M127.123,126.734c-0.774,1.206-1.945,2.466-2.971,3.295c-0.144-0.144-0.45-0.432-0.666-0.558c1.081-0.774,2.143-1.891,2.827-2.971
		L127.123,126.734z M124.332,127.238h-0.81v-2.881h4.843c-0.216-0.576-0.594-1.314-0.936-1.873l0.738-0.234
		c0.414,0.666,0.882,1.53,1.098,2.106h3.907v2.881h-0.81v-2.125h-8.031V127.238z M131.84,132.784
		c-1.314-0.937-2.701-2.107-3.637-3.241c-0.846,1.207-1.944,2.287-3.205,3.241H131.84z M131.192,137.213v-3.655h-5.474v3.655
		H131.192z M130.076,126.356c1.081,0.973,2.413,2.305,3.061,3.169l-0.648,0.45c-0.612-0.864-1.945-2.25-3.043-3.241L130.076,126.356
		z"/>
	<path id="XMLID_51_" fill="#E2E2E2" d="M152.753,136.385c-1.44,0.9-3.691,1.8-5.492,2.305c-0.144-0.162-0.432-0.468-0.612-0.648
		c1.818-0.486,4.105-1.368,5.257-2.125L152.753,136.385z M162.782,128.769H146.83v-0.774h15.953V128.769z M151.169,124.609h-3.493
		v-0.738h3.493v-1.549h0.846v1.549h5.618v-1.549h0.864v1.549h3.529v0.738h-3.529v2.287h-7.328V124.609z M148.918,135.629v-5.798
		h11.956v5.798H148.918z M149.764,132.37h4.574v-1.836h-4.574V132.37z M149.764,134.909h4.574v-1.854h-4.574V134.909z
		 M152.015,124.609v1.567h5.618v-1.567H152.015z M160.009,130.533h-4.825v1.836h4.825V130.533z M160.009,133.054h-4.825v1.854h4.825
		V133.054z M157.525,135.917c1.98,0.63,4.087,1.458,5.419,2.088l-0.738,0.648c-1.224-0.648-3.259-1.477-5.257-2.161L157.525,135.917
		z"/>
	<path id="XMLID_62_" fill="#E2E2E2" d="M172.877,122.467c-0.162,0.738-0.342,1.422-0.558,2.089h5.492v0.81h-5.762
		c-0.288,0.774-0.576,1.513-0.937,2.197h5.618v9.885c0,0.541-0.126,0.792-0.522,0.937s-1.117,0.144-2.377,0.144
		c-0.036-0.216-0.162-0.54-0.288-0.756c0.972,0.018,1.819,0.018,2.053,0s0.324-0.072,0.324-0.306v-3.115h-4.808
		c-0.072,1.476-0.378,3.115-1.314,4.321c-0.108-0.198-0.414-0.522-0.612-0.612c1.044-1.369,1.152-3.241,1.152-4.808v-4.321
		c-0.468,0.774-1.026,1.44-1.603,2.035c-0.126-0.144-0.432-0.486-0.612-0.666c1.296-1.242,2.323-2.953,3.061-4.934h-2.791v-0.81
		h3.079c0.216-0.72,0.432-1.458,0.594-2.233L172.877,122.467z M171.148,128.354v2.197h4.771v-2.197H171.148z M175.92,133.576v-2.25
		h-4.771v1.926v0.324H175.92z M184.4,123.799c-0.792,1.692-1.836,3.763-2.791,5.456c2.053,1.729,2.611,3.169,2.629,4.52
		c0,0.936-0.234,1.764-0.828,2.125c-0.306,0.198-0.684,0.324-1.152,0.36c-0.486,0.054-1.117,0.054-1.657,0.018
		c-0.018-0.234-0.108-0.576-0.27-0.828c0.63,0.072,1.243,0.072,1.674,0.036c0.324-0.018,0.612-0.09,0.864-0.234
		c0.433-0.252,0.576-0.846,0.559-1.53c0-1.242-0.612-2.629-2.719-4.339c0.954-1.674,1.872-3.655,2.539-5.131h-3.835v14.422h-0.828
		v-15.25h5.114l0.126-0.036L184.4,123.799z"/>
	<path id="XMLID_67_" fill="#E2E2E2" d="M196.583,134.765c-1.404,1.584-3.997,3.043-6.14,3.727c-0.144-0.234-0.378-0.558-0.594-0.72
		c2.125-0.594,4.681-1.909,5.996-3.331L196.583,134.765z M198.42,133.846v4.826h-0.882v-4.826h-7.311v-0.81h7.311v-1.873h-4.339
		v-3.727h9.633v3.727h-4.411v1.873h7.436v0.81H198.42z M191.506,128.535h-0.829v-3.421h6.842v-2.773h0.864v2.773h2.935
		c0.559-0.756,1.261-1.909,1.657-2.701l0.846,0.36c-0.468,0.774-1.063,1.657-1.566,2.341h3.205v3.421h-0.847v-2.629h-13.107V128.535
		z M193.739,125.078c-0.288-0.594-0.954-1.548-1.53-2.215l0.756-0.324c0.63,0.666,1.278,1.566,1.584,2.143L193.739,125.078z
		 M194.027,130.425h7.958v-2.25h-7.958V130.425z M200.203,134.369c1.98,1.008,4.483,2.521,5.726,3.529l-0.558,0.684
		c-1.242-1.062-3.727-2.593-5.726-3.637L200.203,134.369z"/>
	<path id="XMLID_74_" fill="#E2E2E2" d="M224.104,126.14c-0.468,0.81-1.063,1.62-1.674,2.376v10.227h-0.829v-9.255
		c-0.774,0.864-1.603,1.657-2.395,2.287c-0.108-0.144-0.414-0.541-0.576-0.702c1.729-1.279,3.529-3.259,4.681-5.222L224.104,126.14z
		 M223.636,122.665c-1.008,1.477-2.683,3.115-4.249,4.177c-0.09-0.162-0.342-0.468-0.504-0.612c1.458-0.99,3.133-2.539,3.961-3.889
		L223.636,122.665z M230.19,122.593c-0.126,0.216-0.252,0.45-0.396,0.648c1.603,2.214,3.529,3.637,5.582,4.807
		c-0.216,0.162-0.468,0.433-0.576,0.685c-1.963-1.225-3.781-2.665-5.402-4.826c-1.368,1.927-3.277,3.691-5.222,4.826
		c-0.144-0.198-0.36-0.45-0.558-0.63c2.323-1.26,4.627-3.511,5.888-5.798L230.19,122.593z M226.913,133.504
		c-0.612,1.476-1.548,3.025-2.449,4.051c-0.18-0.144-0.54-0.36-0.738-0.468c0.955-0.973,1.837-2.413,2.377-3.799L226.913,133.504z
		 M229.956,132.136v5.366c0,0.612-0.162,0.864-0.594,1.008c-0.45,0.162-1.26,0.162-2.61,0.162c-0.036-0.252-0.162-0.576-0.306-0.829
		c1.134,0.036,2.035,0.036,2.287,0.018c0.288-0.018,0.36-0.108,0.36-0.342v-5.384h-4.969v-0.81h4.969v-2.647h-2.899v-0.792h6.986
		v0.792h-3.223v2.647h5.023v0.81H229.956z M232.549,133.234c1.044,1.17,2.161,2.755,2.647,3.817l-0.738,0.432
		c-0.486-1.063-1.566-2.701-2.593-3.889L232.549,133.234z"/>
	<path id="XMLID_81_" fill="#E2E2E2" d="M248.441,134.584c0,0-0.018,0.252-0.036,0.378c-0.216,2.089-0.396,2.935-0.738,3.241
		c-0.234,0.234-0.486,0.306-0.9,0.324c-0.378,0-1.117,0-1.891-0.054c-0.018-0.216-0.108-0.504-0.216-0.72
		c0.81,0.09,1.566,0.09,1.819,0.09c0.27,0,0.432,0,0.54-0.126c0.198-0.216,0.378-0.864,0.54-2.413h-2.917
		c-0.504,1.621-1.494,2.701-3.529,3.367c-0.09-0.18-0.342-0.468-0.504-0.594c1.801-0.576,2.737-1.477,3.205-2.773h-2.593v-0.72
		h2.827c0.09-0.414,0.162-0.828,0.198-1.314h0.81c-0.054,0.468-0.126,0.9-0.216,1.314H248.441z M256.58,123.709v0.72h-7.4v1.332
		h6.212v0.72h-13.18v-0.72h6.104v-1.332h-7.256v-0.72h7.256v-1.351h0.864v1.351H256.58z M252.402,130.983
		c-0.288,0.45-0.576,0.937-0.864,1.351h4.916v0.738h-15.395v-0.738h5.023c-0.162-0.414-0.54-1.026-0.918-1.422l0.504-0.162h-2.646
		v-3.115h11.685v3.115h-3.042L252.402,130.983z M243.85,130.065h10.011v-1.729H243.85V130.065z M245.957,130.75
		c0.432,0.396,0.811,0.936,0.937,1.332l-0.702,0.252h4.429c0.324-0.486,0.702-1.134,0.918-1.584H245.957z M249.72,134.116h6.014
		v4.448h-0.828v-0.594h-4.393v0.666h-0.792V134.116z M250.512,134.836v2.413h4.393v-2.413H250.512z"/>
	<path id="XMLID_89_" fill="#E2E2E2" d="M267.791,134.909c-1.908,0.612-3.907,1.26-5.401,1.729l-0.216-0.846
		c0.684-0.198,1.548-0.45,2.484-0.738v-5.348h-2.161v-0.81h2.161v-4.394h-2.305v-0.828h5.474v0.828h-2.358v4.394h1.926v0.81h-1.926
		v5.096c0.72-0.216,1.458-0.468,2.196-0.703L267.791,134.909z M272.022,135.179c-0.882,1.224-2.269,2.539-3.673,3.457
		c-0.126-0.162-0.378-0.396-0.594-0.54c1.368-0.882,2.755-2.197,3.493-3.313L272.022,135.179z M278.558,133.342v0.792h-10.533
		v-0.792h2.232v-7.544h-1.873v-0.792h1.873v-2.665h0.829v2.665h4.573v-2.665h0.846v2.665h1.729v0.792h-1.729v7.544H278.558z
		 M271.086,125.798v1.98h4.573v-1.98H271.086z M271.086,130.533h4.573v-2.017h-4.573V130.533z M271.086,133.342h4.573v-2.053h-4.573
		V133.342z M275.227,134.783c1.242,0.972,2.646,2.358,3.331,3.295l-0.72,0.522c-0.63-0.954-2.017-2.358-3.259-3.367L275.227,134.783
		z"/>
	<path id="XMLID_97_" fill="#E2E2E2" d="M296.752,131.271c0,0-0.018,0.306-0.036,0.45c-0.216,4.393-0.432,5.942-0.918,6.482
		c-0.27,0.288-0.54,0.378-1.063,0.414c-0.414,0.018-1.314,0-2.197-0.054c-0.018-0.271-0.108-0.594-0.27-0.847
		c0.955,0.09,1.873,0.108,2.197,0.108s0.486-0.036,0.648-0.198c0.342-0.36,0.559-1.783,0.756-5.563h-3.853
		c0.108-1.243,0.18-3.313,0.18-4.844h3.709v-3.187h-4.159v-0.81h4.987v4.808h-3.763c-0.018,1.098-0.054,2.287-0.108,3.241H296.752z
		 M306.854,132.748c-0.774,0.756-1.783,1.584-2.629,2.179c1.081,1.206,2.359,2.179,3.655,2.755c-0.198,0.162-0.45,0.468-0.594,0.684
		c-2.539-1.26-4.861-3.943-6.122-6.86h-1.8v5.87l3.259-1.134c0.018,0.216,0.054,0.54,0.108,0.72
		c-3.475,1.296-3.907,1.512-4.195,1.746c-0.054-0.216-0.252-0.612-0.378-0.81c0.18-0.09,0.378-0.216,0.378-0.846v-5.546h-1.26
		v-0.792h1.71v-7.472h8.192v0.756h-7.346v1.729h6.68v0.72h-6.68v1.729h6.698v0.738h-6.698v1.801h7.724v0.792h-5.563
		c0.45,1.026,1.062,2.017,1.8,2.899c0.811-0.63,1.801-1.548,2.413-2.196L306.854,132.748z"/>
	<path id="XMLID_100_" fill="#E2E2E2" d="M321.972,128.427c-0.108,0.162-0.252,0.324-0.414,0.468c2.088,1.8,4.843,2.449,7.796,2.881
		c-0.198,0.162-0.396,0.504-0.486,0.756c-0.99-0.18-1.962-0.396-2.898-0.666v6.716h-0.847v-0.72h-7.886v0.792h-0.828v-6.806
		c-0.9,0.306-1.837,0.558-2.809,0.756c-0.09-0.198-0.288-0.522-0.45-0.72c3.403-0.612,6.572-1.909,8.103-3.781L321.972,128.427z
		 M314.535,127.778h-0.829v-2.611h6.914v-2.827h0.847v0.955h6.464v0.648h-6.464v1.224h7.202v2.611h-0.864v-1.926h-13.271V127.778z
		 M319.559,127.995c-1.278,0.918-3.223,1.818-4.826,2.341c-0.126-0.144-0.432-0.45-0.612-0.576c1.657-0.504,3.547-1.243,4.718-2.053
		L319.559,127.995z M325.662,127.4h-9.021v-0.702h9.021V127.4z M325.122,132.01h-7.886v1.26h7.886V132.01z M317.236,135.215h7.886
		v-1.296h-7.886V135.215z M325.122,137.177v-1.314h-7.886v1.314H325.122z M324.384,131.344c-1.224-0.486-2.34-1.099-3.331-1.963
		c-0.9,0.756-2.035,1.422-3.295,1.963H324.384z M327.967,130.317c-1.025-0.667-3.007-1.566-4.609-2.107l0.45-0.54
		c1.603,0.486,3.583,1.333,4.628,1.999L327.967,130.317z"/>
	<path id="XMLID_110_" fill="#E2E2E2" d="M340.421,130.299c-0.396,0.738-0.828,1.458-1.351,2.125h10.173v6.266h-0.882v-0.973h-8.895
		v0.99h-0.864v-5.689c-0.955,1.098-2.107,2.071-3.493,2.845c-0.126-0.198-0.396-0.504-0.54-0.666
		c2.196-1.225,3.763-2.899,4.879-4.897h-2.898v-0.792h3.331c0.359-0.756,0.666-1.548,0.918-2.358h-5.978v-0.792h6.229
		c0.216-0.756,0.396-1.548,0.522-2.323h-4.861v-0.792h12.045v3.115h1.999v0.792h-1.999v3.151H340.421z M339.467,133.234v3.691h8.895
		v-3.691H339.467z M341.717,127.148c-0.252,0.81-0.558,1.603-0.918,2.358h7.094v-2.358H341.717z M342.491,124.033
		c-0.126,0.792-0.324,1.567-0.54,2.323h5.941v-2.323H342.491z"/>
	<path id="XMLID_115_" fill="#E2E2E2" d="M368.842,126.194h-4.753v-0.756h4.753V126.194z M368.32,137.591h-2.917v0.882h-0.721
		v-5.978h3.638V137.591z M364.701,127.725h3.709v0.756h-3.709V127.725z M364.701,130.119h3.709v0.738h-3.709V130.119z
		 M365.403,133.252v3.583h2.179v-3.583H365.403z M366.52,125.078c-0.126-0.63-0.504-1.639-0.9-2.376l0.685-0.234
		c0.414,0.756,0.81,1.71,0.918,2.341L366.52,125.078z M375.378,131.056c-0.378,0.612-0.846,1.206-1.332,1.8v4.538
		c0,0.558-0.126,0.81-0.522,0.972c-0.396,0.144-1.116,0.162-2.251,0.162c-0.035-0.234-0.161-0.576-0.27-0.811
		c0.918,0.036,1.71,0.018,1.944,0c0.252,0,0.324-0.072,0.324-0.324v-3.709c-1.225,1.225-2.629,2.305-3.997,3.133
		c-0.072-0.18-0.307-0.558-0.433-0.738c1.531-0.846,3.134-2.071,4.43-3.439v-0.271c-1.53,0.198-2.989,0.36-4.213,0.486l-0.126-0.81
		l0.864-0.072v-7.616h1.35c0.234-0.63,0.45-1.44,0.576-2.035l0.847,0.216c-0.216,0.594-0.433,1.26-0.648,1.818h2.125v7.364
		c0.234-0.306,0.45-0.612,0.648-0.936L375.378,131.056z M370.57,125.114v1.891h2.701v-1.891H370.57z M373.271,127.725h-2.701v1.926
		h2.701V127.725z M373.271,131.65v-1.297h-2.701v1.549L373.271,131.65z M380.149,127.292h-1.134v9.993
		c0,0.648-0.162,0.9-0.576,1.044c-0.433,0.162-1.207,0.18-2.341,0.18c-0.055-0.234-0.181-0.612-0.324-0.864
		c0.972,0.036,1.836,0.018,2.089,0.018c0.27-0.018,0.342-0.09,0.342-0.378v-9.993h-3.637v-0.828h3.637v-3.979h0.811v3.979h1.134
		V127.292z M376.494,133.342c-0.18-1.063-0.773-2.827-1.386-4.159l0.72-0.198c0.63,1.333,1.242,3.061,1.459,4.105L376.494,133.342z"
		/>
	<path id="XMLID_128_" fill="#E2E2E2" d="M401.533,130.498h-7.364v6.662c0,0.792-0.252,1.081-0.81,1.243
		c-0.559,0.162-1.656,0.18-3.529,0.162c-0.072-0.252-0.234-0.63-0.378-0.9c1.566,0.036,2.917,0.036,3.295,0.018
		s0.54-0.126,0.54-0.504v-6.68h-7.652v-0.847h7.652v-5.095h-6.41v-0.846h13.396v0.846h-6.104v5.095h7.364V130.498z"/>
	<path id="XMLID_130_" fill="#E2E2E2" d="M409.665,127.058v1.711c0,2.953-0.234,7.058-2.07,9.903
		c-0.145-0.144-0.522-0.396-0.738-0.468c1.782-2.773,1.944-6.608,1.944-9.435v-5.51h13.18v3.799H409.665z M409.665,124.051v2.233
		h11.434v-2.233H409.665z M423.098,134.314h-3.674v4.375h-0.864v-4.375h-4.231c-0.288,1.621-1.206,3.187-3.889,4.393
		c-0.126-0.198-0.378-0.486-0.576-0.648c2.377-1.044,3.277-2.395,3.601-3.745h-3.438v-0.792h3.565
		c0.035-0.342,0.054-0.666,0.054-0.99v-1.836h-3.115v-0.774h7.742c0.54-0.756,1.135-1.855,1.477-2.593l0.864,0.306
		c-0.45,0.774-0.972,1.603-1.458,2.287h3.421v0.774h-3.151v2.827h3.674V134.314z M413.681,129.615
		c-0.271-0.468-0.793-1.279-1.225-1.909l0.738-0.252c0.432,0.576,0.973,1.368,1.242,1.836L413.681,129.615z M418.56,133.522v-2.827
		h-4.087v1.854c0,0.324,0,0.648-0.036,0.972H418.56z"/>
	<path id="XMLID_136_" fill="#E2E2E2" d="M443.164,131.793c-0.414-0.684-1.62-2.196-2.431-3.169v10.011h-0.846v-9.813
		c-0.847,2.449-2.125,4.934-3.331,6.338c-0.126-0.234-0.379-0.558-0.54-0.756c1.404-1.548,2.935-4.573,3.673-7.274h-3.241v-0.828
		h3.439v-3.961h0.846v3.961h2.683v0.828h-2.683v0.432c0.559,0.594,2.593,2.899,3.062,3.475L443.164,131.793z M448.89,127.13
		c0.828,3.079,2.287,6.23,3.8,7.796c-0.198,0.162-0.505,0.468-0.685,0.684c-1.296-1.513-2.557-4.159-3.421-6.896v9.921h-0.864
		v-9.831c-0.99,2.809-2.503,5.564-4.033,7.094c-0.145-0.252-0.396-0.558-0.576-0.756c1.729-1.692,3.511-4.916,4.357-8.012h-3.133
		v-0.828h3.385v-3.961h0.864v3.961h3.565v0.828H448.89z"/>
	<path id="XMLID_139_" fill="#E2E2E2" d="M461.344,125.888h2.305v0.828h-2.305v0.594c0.432,0.63,1.98,3.061,2.305,3.673
		l-0.667,0.684c-0.306-0.648-1.062-2.017-1.638-3.025v10.011h-0.811v-9.309c-0.595,2.16-1.423,4.285-2.251,5.563
		c-0.126-0.252-0.378-0.558-0.576-0.738c1.099-1.674,2.232-4.808,2.737-7.454h-2.575v-0.828h2.665v-3.511h0.811V125.888z
		 M473.083,125.618v12.892H472.2v-0.9h-6.535v1.026h-0.864v-13.018h2.898c0.324-0.954,0.685-2.305,0.882-3.241l0.955,0.144
		c-0.307,1.008-0.648,2.197-0.99,3.097H473.083z M465.665,126.446v4.699h6.535v-4.699H465.665z M472.2,136.781v-4.808h-6.535v4.808
		H472.2z"/>
	<path id="XMLID_144_" fill="#E2E2E2" d="M484.078,124.556h-4.304v-0.792h4.304v-1.404h0.846v1.404h2.305v0.792h-2.305v1.584h-0.846
		V124.556z M480.98,126.806h13.217v11.901h-0.847v-0.792H481.81v0.792h-0.829V126.806z M481.81,127.581v9.543h11.541v-9.543H481.81z
		 M491.73,136.529c-0.847-1.117-2.521-2.809-4.088-4.177c-0.396,1.494-1.548,2.953-4.483,4.105
		c-0.107-0.198-0.306-0.486-0.485-0.648c3.385-1.278,4.194-2.953,4.375-4.538h-4.214v-0.774h4.25v-0.036v-2.251h0.792v2.251v0.036
		h4.465v0.774h-4.501l-0.018,0.252c1.656,1.405,3.564,3.259,4.501,4.43L491.73,136.529z M495.35,123.763v0.792h-4.357v1.584h-0.864
		v-1.584h-2.197v-0.792h2.197v-1.404h0.864v1.404H495.35z"/>
	<path id="XMLID_150_" fill="#E2E2E2" d="M78.773,152.339h-4.195v-0.774h4.195v-1.225h0.846v1.225h2.413v0.774H79.62v1.333h-0.846
		V152.339z M89.415,165.609c0,0.504-0.108,0.738-0.504,0.882c-0.414,0.144-1.152,0.144-2.449,0.144
		c-0.036-0.234-0.162-0.522-0.288-0.738c1.044,0.018,1.837,0.018,2.071,0c0.252-0.018,0.324-0.072,0.324-0.288v-4.303h-5.78v2.269
		l2.881-0.126c-0.324-0.468-0.72-0.954-1.099-1.351l0.667-0.288c0.918,0.937,1.854,2.251,2.197,3.187l-0.703,0.306
		c-0.126-0.324-0.342-0.72-0.576-1.134c-3.079,0.162-6.266,0.324-8.408,0.414l-0.054-0.81c1.116-0.036,2.629-0.09,4.268-0.162
		v-2.305h-5.636v5.366h-0.847v-5.366H74.74v-0.756h0.738v-0.738h0.847v0.738h5.636v-1.333h-5.294v-5.275h11.542v5.275h-5.419v1.333
		h6.626V165.609z M77.495,156.229h4.466v-1.603h-4.466V156.229z M81.96,158.515v-1.603h-4.466v1.603H81.96z M90.17,151.565v0.774
		h-4.267v1.351h-0.846v-1.351h-2.323v-0.774h2.323v-1.225h0.846v1.225H90.17z M87.344,154.626h-4.555v1.603h4.555V154.626z
		 M87.344,156.913h-4.555v1.603h4.555V156.913z"/>
	<path id="XMLID_158_" fill="#E2E2E2" d="M104.064,164.799c-2.899,0.468-5.924,0.954-8.03,1.278l-0.162-0.828
		c0.99-0.126,2.269-0.324,3.673-0.541V161.9h-3.223v-0.756h3.223v-1.909h0.811v1.909h3.403v0.756h-3.403v2.683l3.691-0.558
		L104.064,164.799z M98.573,152.124h-2.521v-0.756h7.724v0.756h-2.431v1.836h2.449v5.06h-7.418v-5.06h2.197V152.124z
		 M103.056,158.299v-1.387l-0.108,0.018c-0.126,0.018-0.396,0.018-0.576,0.018h-0.756c-0.306,0-0.63-0.036-0.774-0.198
		c-0.18-0.126-0.216-0.342-0.216-0.973v-1.098h-1.333c-0.054,1.584-0.378,2.449-1.584,2.971c-0.072-0.162-0.27-0.396-0.396-0.486
		c1.026-0.414,1.296-1.117,1.35-2.485h-1.566v3.619H103.056z M100.625,152.124h-1.314v1.836h1.314V152.124z M103.056,154.68h-1.801
		v1.314c0,0.198,0.018,0.342,0.09,0.378c0.054,0.036,0.162,0.036,0.324,0.036h0.648h0.396h0.252c0.036,0,0.054-0.036,0.072-0.054
		l0.018,0.018V154.68z M111.086,165.664c0.144,0,0.27-0.018,0.36-0.09c0.072-0.072,0.126-0.234,0.162-0.504
		c0.036-0.324,0.072-1.008,0.072-1.927c0.18,0.144,0.378,0.252,0.594,0.324c-0.018,0.792-0.054,1.747-0.108,2.053
		c-0.09,0.36-0.18,0.558-0.342,0.684s-0.414,0.198-0.648,0.198h-0.667c-0.27,0-0.558-0.072-0.738-0.252
		c-0.216-0.18-0.27-0.432-0.27-1.62v-8.517h-3.331c-0.198,3.241-0.432,6.662-0.666,8.984c0.99-0.198,2.088-0.432,3.187-0.666
		l0.054,0.756c-1.854,0.414-3.727,0.828-5.221,1.134l-0.252-0.792c0.396-0.072,0.864-0.162,1.369-0.252
		c0.36-3.277,0.756-8.895,0.936-12.982h-1.242v-0.81h7.778v0.81h-5.726c-0.036,0.937-0.108,1.963-0.162,3.025h4.051v9.507
		c0,0.486,0.018,0.792,0.09,0.864c0.072,0.054,0.162,0.072,0.27,0.072H111.086z M107.917,162.404
		c-0.252-1.152-0.918-2.989-1.494-4.357l0.666-0.216c0.594,1.369,1.26,3.187,1.548,4.357L107.917,162.404z"/>
	<path id="XMLID_166_" fill="#E2E2E2" d="M129.554,161.81c-0.576,1.026-1.333,1.855-2.323,2.539c2.287,0.558,4.339,1.134,5.87,1.71
		l-0.792,0.612c-1.531-0.594-3.583-1.225-5.978-1.801c-1.962,1.026-4.627,1.566-8.21,1.801c-0.09-0.252-0.216-0.541-0.342-0.756
		c3.115-0.18,5.509-0.576,7.328-1.333c-1.531-0.342-3.133-0.684-4.79-0.99c0.522-0.486,1.116-1.116,1.71-1.783h-4.285v-0.738h4.916
		c0.612-0.756,1.206-1.531,1.621-2.233l0.846,0.252c-0.396,0.648-0.918,1.333-1.44,1.981h5.257c0.198-0.415,0.36-0.846,0.504-1.296
		l0.828,0.216c-0.108,0.378-0.234,0.738-0.378,1.081h3.637v0.738H129.554z M119.057,160.118h-0.828v-2.214h7.346
		c-0.252-0.432-0.559-0.9-0.847-1.296l0.703-0.306c0.378,0.504,0.81,1.152,1.08,1.603h6.482v2.214h-0.846v-1.494h-13.09V160.118z
		 M131.75,156.283h-12.298v-5.149h12.298V156.283z M130.886,151.835h-10.587v1.512h10.587V151.835z M130.886,154.05h-10.587v1.531
		h10.587V154.05z M123.054,161.81c-0.432,0.504-0.864,0.973-1.26,1.369c1.477,0.27,2.935,0.576,4.321,0.9
		c1.044-0.594,1.818-1.333,2.431-2.269H123.054z"/>
	<path id="XMLID_173_" fill="#E2E2E2" d="M152.123,160.892c-0.072,0.486-0.144,0.918-0.252,1.333h4.771v0.702h-4.97
		c-0.666,1.8-1.944,3.007-4.555,3.709c-0.09-0.18-0.324-0.504-0.486-0.63c2.359-0.594,3.547-1.62,4.159-3.079h-4.051v-0.702h4.286
		c0.126-0.415,0.198-0.846,0.27-1.333h-3.637v-6.986h2.719v-1.224h-3.457v-0.72h2.953c-0.271-0.432-0.612-0.882-0.918-1.278
		l0.648-0.288c0.396,0.468,0.864,1.098,1.152,1.566h2.125c0.396-0.522,0.828-1.17,1.098-1.621l0.72,0.306
		c-0.288,0.45-0.648,0.9-0.972,1.314h2.881v0.72h-3.385v1.224h2.719v6.986H152.123z M148.396,160.226h6.788v-2.755h-0.072
		c-0.144,0.018-0.45,0.018-0.648,0.018h-0.846c-0.306,0-0.648-0.036-0.811-0.198c-0.198-0.144-0.252-0.36-0.252-1.17v-1.548h-1.513
		c0,1.188-0.342,2.521-2.106,3.457c-0.072-0.144-0.288-0.414-0.432-0.522c1.584-0.828,1.873-1.926,1.873-2.935h-1.98V160.226z
		 M149.422,158.425h4.843v0.63h-4.843V158.425z M151.042,153.906h1.513v-1.224h-1.513V153.906z M152.339,163.179
		c1.278,0.774,2.898,1.909,3.745,2.575l-0.522,0.594c-0.864-0.72-2.485-1.891-3.745-2.647L152.339,163.179z M153.221,154.572v1.747
		c0,0.27,0.018,0.504,0.108,0.54c0.072,0.036,0.18,0.054,0.36,0.054h0.684h0.468h0.252c0.036-0.018,0.072-0.036,0.09-0.072v-2.269
		H153.221z M162.746,151.727c-0.648,1.603-1.548,3.655-2.358,5.384c1.729,1.747,2.196,3.151,2.196,4.429
		c0,0.918-0.216,1.765-0.756,2.125c-0.288,0.18-0.648,0.306-1.063,0.342c-0.486,0.054-1.116,0.036-1.639,0.018
		c-0.036-0.252-0.126-0.594-0.288-0.846c0.612,0.054,1.225,0.054,1.621,0.036c0.306-0.018,0.576-0.072,0.792-0.198
		c0.396-0.252,0.522-0.882,0.504-1.53c0-1.207-0.504-2.521-2.269-4.286c0.774-1.638,1.584-3.583,2.125-5.005h-3.439v14.495h-0.846
		v-15.323h4.681l0.126-0.054L162.746,151.727z"/>
	<path id="XMLID_181_" fill="#E2E2E2" d="M182.726,165.501c0.864,0,0.99-0.504,1.08-3.439c0.234,0.18,0.576,0.324,0.828,0.378
		c-0.126,3.097-0.396,3.907-1.873,3.907h-3.007c-1.404,0-1.818-0.324-1.818-1.603v-7.364l-3.187,0.27
		c-0.27,4.934-1.17,7.688-6.086,9.075c-0.108-0.216-0.36-0.558-0.522-0.72c4.717-1.224,5.492-3.745,5.726-8.282
		c-2.845,0.234-3.295,0.288-3.655,0.432c-0.054-0.18-0.198-0.63-0.306-0.882c0.36-0.072,0.829-0.558,1.405-1.225
		c0.63-0.684,2.719-3.277,4.123-5.797l0.882,0.378c-1.477,2.359-3.169,4.664-4.825,6.428l9.362-0.685
		c-0.81-1.08-1.746-2.25-2.575-3.223l0.685-0.396c1.476,1.729,3.385,4.105,4.339,5.456l-0.774,0.522
		c-0.27-0.45-0.666-1.008-1.116-1.603l-2.611,0.198v7.436c0,0.612,0.162,0.738,0.99,0.738H182.726z"/>
	<path id="XMLID_183_" fill="#E2E2E2" d="M192.028,155.922h5.33v0.847h-1.747v9.921h-0.81v-9.921h-2.773v0.198
		c0,2.773-0.216,6.716-1.692,9.471c-0.144-0.18-0.486-0.468-0.685-0.558c1.405-2.646,1.549-6.284,1.549-8.931v-4.555h0.018
		c1.818-0.396,3.997-0.972,5.167-1.548l0.54,0.738c-1.278,0.558-3.169,1.044-4.897,1.404V155.922z M200.869,163.989
		c-0.72,0.99-1.8,2.089-2.736,2.809c-0.145-0.198-0.415-0.468-0.594-0.63c0.936-0.648,1.999-1.747,2.521-2.593L200.869,163.989z
		 M200.617,153.978c0.27-0.558,0.558-1.296,0.738-1.891h-3.493v-0.792h7.652v0.792h-3.205c-0.252,0.63-0.54,1.333-0.828,1.891h3.493
		v9.002h-6.554v-9.002H200.617z M204.164,154.716h-4.952v1.999h4.952V154.716z M204.164,157.435h-4.952v2.035h4.952V157.435z
		 M204.164,160.19h-4.952v2.053h4.952V160.19z M203.191,163.575c0.882,0.792,1.981,1.945,2.503,2.701l-0.666,0.504
		c-0.468-0.756-1.549-1.944-2.467-2.773L203.191,163.575z"/>
	<path id="XMLID_191_" fill="#E2E2E2" d="M225.149,164.385c-1.44,0.9-3.691,1.8-5.492,2.305c-0.144-0.162-0.432-0.468-0.612-0.648
		c1.818-0.486,4.105-1.368,5.257-2.125L225.149,164.385z M235.178,156.769h-15.953v-0.774h15.953V156.769z M223.564,152.609h-3.493
		v-0.738h3.493v-1.549h0.846v1.549h5.618v-1.549h0.864v1.549h3.529v0.738h-3.529v2.287h-7.328V152.609z M221.313,163.629v-5.798
		h11.956v5.798H221.313z M222.16,160.37h4.574v-1.836h-4.574V160.37z M222.16,162.909h4.574v-1.854h-4.574V162.909z
		 M224.411,152.609v1.567h5.618v-1.567H224.411z M232.405,158.533h-4.825v1.836h4.825V158.533z M232.405,161.054h-4.825v1.854h4.825
		V161.054z M229.92,163.917c1.98,0.63,4.087,1.458,5.419,2.088l-0.738,0.648c-1.224-0.648-3.259-1.477-5.257-2.161L229.92,163.917z"
		/>
	<path id="XMLID_202_" fill="#E2E2E2" d="M241.437,158.965h6.104v7.508h-0.864v-0.846h-4.411v1.026h-0.829V158.965z
		 M242.266,159.793v5.006h4.411v-5.006H242.266z M253.555,156.805h-9.417v-5.671h9.417V156.805z M252.69,151.979h-7.706v3.997h7.706
		V151.979z M256.292,158.965v7.563h-0.846v-0.9h-4.825v1.026h-0.846v-7.688H256.292z M255.445,164.799v-5.006h-4.825v5.006H255.445z
		"/>
	<path id="XMLID_209_" fill="#E2E2E2" d="M265.198,157.939c-0.648-0.576-1.908-1.368-2.989-1.836l0.486-0.648
		c1.062,0.468,2.341,1.206,2.971,1.782L265.198,157.939z M262.803,165.826c0.811-1.423,1.999-3.854,2.827-5.852l0.684,0.522
		c-0.774,1.873-1.873,4.231-2.755,5.87L262.803,165.826z M263.649,150.557c1.026,0.486,2.269,1.26,2.881,1.854l-0.504,0.702
		c-0.612-0.612-1.854-1.44-2.899-1.945L263.649,150.557z M278.54,162.909h-5.492v2.611c0,0.558-0.126,0.792-0.576,0.918
		c-0.468,0.144-1.333,0.144-2.755,0.126c-0.054-0.216-0.18-0.504-0.324-0.738c1.243,0.036,2.179,0.036,2.449,0
		c0.288-0.018,0.36-0.09,0.36-0.324v-2.593h-5.564v-0.756h5.564v-1.134c0.936-0.324,2.035-0.792,2.881-1.278h-7.112v-0.738h8.174
		l0.18-0.054l0.576,0.432c-1.026,0.811-2.521,1.549-3.853,2.035v0.738h5.492V162.909z M278.378,152.826h-11.235v-0.774h5.167
		c-0.198-0.504-0.504-1.062-0.792-1.512l0.738-0.288c0.396,0.522,0.756,1.242,0.936,1.8h5.186V152.826z M268.619,157.759v-3.745
		h8.174v3.745H268.619z M269.429,157.039h6.518v-2.305h-6.518V157.039z"/>
	<path id="XMLID_217_" fill="#E2E2E2" d="M298.373,159.793c-0.414-0.684-1.621-2.196-2.431-3.169v10.011h-0.846v-9.813
		c-0.847,2.449-2.125,4.934-3.331,6.338c-0.126-0.234-0.378-0.558-0.54-0.756c1.404-1.548,2.935-4.573,3.673-7.274h-3.241v-0.828
		h3.439v-3.961h0.846v3.961h2.683v0.828h-2.683v0.432c0.558,0.594,2.593,2.899,3.061,3.475L298.373,159.793z M304.099,155.13
		c0.828,3.079,2.287,6.23,3.799,7.796c-0.198,0.162-0.504,0.468-0.685,0.684c-1.296-1.513-2.557-4.159-3.421-6.896v9.921h-0.864
		v-9.831c-0.99,2.809-2.502,5.564-4.033,7.094c-0.144-0.252-0.396-0.558-0.576-0.756c1.729-1.692,3.511-4.916,4.357-8.012h-3.133
		v-0.828h3.385v-3.961h0.864v3.961h3.565v0.828H304.099z"/>
	<path id="XMLID_220_" fill="#E2E2E2" d="M329.246,159.308h-7.581v6.032c0,0.738-0.216,1.008-0.792,1.17
		c-0.558,0.144-1.657,0.162-3.439,0.162c-0.072-0.27-0.234-0.612-0.396-0.9c1.566,0.054,2.881,0.036,3.277,0.018
		c0.36-0.018,0.468-0.108,0.468-0.45v-6.032h-7.616v-0.846h7.616v-2.683c1.693-0.774,3.746-2.07,5.132-3.259h-10.93v-0.846h11.848
		l0.216-0.054l0.63,0.468c-1.566,1.53-3.997,3.151-6.014,4.159v2.215h7.581V159.308z"/>
	<path id="XMLID_222_" fill="#E2E2E2" d="M349.819,159.074v0.756h-11.758v0.54h-0.864v-6.085c-0.611,0.756-1.278,1.422-1.944,1.98
		c-0.144-0.144-0.468-0.432-0.684-0.576c1.674-1.296,3.24-3.295,4.194-5.366l0.829,0.234c-0.343,0.738-0.757,1.44-1.188,2.106h5.041
		c-0.198-0.576-0.666-1.458-1.098-2.143l0.81-0.198c0.45,0.648,0.954,1.549,1.135,2.107l-0.738,0.234h5.689v0.738h-5.365v1.314
		h4.681v0.702h-4.681v1.404h4.699v0.702h-4.699v1.549H349.819z M349.514,165.52c0,0.522-0.108,0.774-0.54,0.918
		c-0.433,0.144-1.207,0.144-2.485,0.144c-0.036-0.234-0.162-0.54-0.288-0.774c1.116,0.036,1.891,0.036,2.143,0
		c0.271-0.018,0.324-0.09,0.324-0.288v-3.853h-3.385v2.772h-5.042v-2.772h-3.331v5.041h-0.828v-5.815h4.987v2.791h3.386v-2.791h5.06
		V165.52z M343.031,153.402h-4.97v1.314h4.97V153.402z M343.031,155.418h-4.97v1.404h4.97V155.418z M338.062,159.074h4.97v-1.549
		h-4.97V159.074z"/>
</g>
<g id="XMLID_19_">
</g>
<g id="XMLID_257_">
</g>
<g id="XMLID_258_">
</g>
<g id="XMLID_259_">
</g>
<g id="XMLID_260_">
</g>
<g id="XMLID_261_">
</g>
<g id="XMLID_262_">
</g>
<g id="XMLID_263_">
</g>
<g id="XMLID_264_">
</g>
<g id="XMLID_265_">
</g>
<g id="XMLID_266_">
</g>
<g id="XMLID_267_">
</g>
<g id="XMLID_268_">
</g>
<g id="XMLID_269_">
</g>
<g id="XMLID_270_">
</g>
</svg>
