<?xml version="1.0" encoding="iso-8859-1"?>
<!-- Generator: Adobe Illustrator 19.0.0, SVG Export Plug-In . SVG Version: 6.00 Build 0)  -->
<svg version="1.2" baseProfile="tiny" id="&#x5716;&#x5C64;_1"
	 xmlns="http://www.w3.org/2000/svg" xmlns:xlink="http://www.w3.org/1999/xlink" x="0px" y="0px" viewBox="-142 190.3 353.2 101.7"
	 xml:space="preserve">
<g id="XMLID_2_">
	<path id="XMLID_71_" fill="#E8E8E8" d="M-124.2,237.6c1.8,2.4,4,5.6,5.1,7.6l-2.8,1.5c-0.4-0.8-0.9-1.8-1.6-2.8
		c-8.4,2.1-9.7,2.4-10.4,2.9c-0.3-0.7-1-2.1-1.5-2.6c0.6-0.4,1.4-1.3,1.4-2.9V225l-0.3,0.3c-0.4-0.7-1.5-2.2-2.2-2.9
		c2.2-1.9,4.3-4.9,5.5-8l3.2,1c-0.2,0.6-0.4,1.1-0.7,1.7h8.4v2.8h-6.5c1,0.9,2.2,2.3,2.8,3.1l-2.2,1.8h5.5v12.3h-10.4v5.5l5.9-1.3
		c-0.6-0.9-1.2-1.8-1.8-2.6L-124.2,237.6z M-130,219.9c-1.1,1.9-2.4,3.6-3.8,4.9h7.5c-0.6-1-1.8-2.3-2.8-3.3l2.1-1.7h-3V219.9z
		 M-123.6,227.4h-7.3v2.5h7.3V227.4z M-123.6,234.6v-2.3h-7.3v2.2h7.3V234.6z M-103.7,219.9h-7.2c1,0.9,2.1,2.1,2.7,2.9l-2.4,2h5.6
		v15c0,1.7-0.3,2.6-1.5,3.1s-3,0.5-5.7,0.5c-0.1-0.9-0.5-2.2-1-3.1c1.9,0,3.8,0,4.3,0c0.6,0,0.7-0.2,0.7-0.6v-12h-6.7v19.8h-3.1
		v-22.7h7.4c-0.5-1-1.8-2.4-3-3.5l1.8-1.4h-3.3c-1,2.2-2.2,4.2-3.6,5.7c-0.5-0.6-1.9-1.8-2.6-2.4c2.1-2.1,3.7-5.4,4.5-8.7l3.4,0.9
		c-0.2,0.6-0.4,1.2-0.6,1.8h10.3C-103.7,217.2-103.7,219.9-103.7,219.9z"/>
	<path id="XMLID_77_" fill="#E8E8E8" d="M-54.4,216.7v30.7H-58V245h-17.7v2.4h-3.4v-30.7H-54.4z M-75.7,220v5.1H-58V220
		C-58,220-75.7,220-75.7,220z M-75.7,228.3v5.2H-58v-5.2H-75.7z M-58,241.8v-5.1h-17.7v5.1H-58z"/>
	<path id="XMLID_82_" fill="#E8E8E8" d="M2.5,242.8h-14.3v4.8h-3.4v-4.8h-14v-2.9h14v-2.3h-10.5v-12.9h25v12.9h-11.1v2.3H2.5
		L2.5,242.8L2.5,242.8z M-14.6,223h-12.2v-7.1h12.2V223z M-17.8,218.1h-6v2.8h6V218.1z M-22.4,229.8h7.2v-2.5h-7.2V229.8z
		 M-15.2,234.9v-2.6h-7.2v2.6H-15.2z M0.3,223H-12v-7.1H0.3V223z M-4.1,227.3h-7.7v2.5h7.7V227.3z M-4.1,232.3h-7.7v2.6h7.7V232.3z
		 M-2.9,218.1H-9v2.8h6.1V218.1z"/>
	<path id="XMLID_92_" fill="#E8E8E8" d="M-134.1,259.8h2c1.5,0,2.5,0.5,2.5,2c0,1.4-1.1,2.1-2.5,2.1h-0.9v2.5h-1v-6.6H-134.1z
		 M-132.1,263.1c1.1,0,1.6-0.4,1.6-1.3c0-0.9-0.5-1.2-1.6-1.2h-0.9v2.4h0.9V263.1z"/>
	<path id="XMLID_95_" fill="#E8E8E8" d="M-124,261.5h0.8l0.1,0.9l0,0c0.4-0.6,0.9-1,1.4-1c0.2,0,0.4,0,0.6,0.1l-0.2,0.8
		c-0.2,0-0.3,0-0.5,0c-0.4,0-0.9,0.3-1.2,1.1v3.1h-1V261.5z"/>
	<path id="XMLID_97_" fill="#E8E8E8" d="M-116.5,264c0-1.7,1.1-2.6,2.3-2.6c1.2,0,2.3,1,2.3,2.6s-1.1,2.6-2.3,2.6
		C-115.4,266.5-116.5,265.6-116.5,264z M-112.9,264c0-1.1-0.5-1.8-1.3-1.8c-0.8,0-1.3,0.7-1.3,1.8c0,1,0.5,1.7,1.3,1.7
		C-113.4,265.7-112.9,265-112.9,264z"/>
	<path id="XMLID_100_" fill="#E8E8E8" d="M-106.6,267.3c0-0.4,0.3-0.8,0.7-1.1l0,0c-0.3-0.2-0.5-0.4-0.5-0.8s0.3-0.7,0.5-0.9l0,0
		c-0.3-0.3-0.6-0.7-0.6-1.3c0-1.1,0.9-1.8,1.9-1.8c0.3,0,0.5,0.1,0.7,0.1h1.8v0.8h-0.9c0.2,0.2,0.3,0.5,0.3,0.9
		c0,1.1-0.8,1.7-1.9,1.7c-0.2,0-0.5-0.1-0.7-0.2c-0.2,0.1-0.3,0.3-0.3,0.5c0,0.3,0.2,0.5,0.8,0.5h0.9c1.2,0,1.8,0.4,1.8,1.2
		c0,1-1,1.7-2.6,1.7C-105.8,268.6-106.6,268.2-106.6,267.3z M-103,267.1c0-0.4-0.3-0.5-0.9-0.5h-0.7c-0.2,0-0.5,0-0.7-0.1
		c-0.3,0.2-0.4,0.5-0.4,0.7c0,0.5,0.5,0.8,1.3,0.8C-103.6,268-103,267.5-103,267.1z M-103.6,263.1c0-0.7-0.4-1.1-0.9-1.1
		s-0.9,0.4-0.9,1.1s0.4,1.1,0.9,1.1S-103.6,263.8-103.6,263.1z"/>
	<path id="XMLID_104_" fill="#E8E8E8" d="M-96.7,261.5h0.8l0.1,0.9l0,0c0.4-0.6,0.9-1,1.4-1c0.2,0,0.4,0,0.6,0.1l-0.2,0.8
		c-0.2,0-0.3,0-0.5,0c-0.4,0-0.9,0.3-1.2,1.1v3.1h-1V261.5z"/>
	<path id="XMLID_106_" fill="#E8E8E8" d="M-89.3,265.1c0-1.1,0.9-1.6,3-1.8c0-0.6-0.2-1.1-0.9-1.1c-0.5,0-1,0.2-1.4,0.5L-89,262
		c0.5-0.3,1.2-0.6,2-0.6c1.2,0,1.8,0.8,1.8,2.1v3H-86l-0.1-0.6l0,0c-0.4,0.4-1,0.7-1.6,0.7C-88.7,266.5-89.3,266-89.3,265.1z
		 M-86.3,265.1v-1.2c-1.5,0.2-2,0.5-2,1.1c0,0.5,0.3,0.7,0.8,0.7C-87.1,265.7-86.7,265.5-86.3,265.1z"/>
	<path id="XMLID_109_" fill="#E8E8E8" d="M-79.5,261.5h0.8l0.1,0.7l0,0c0.4-0.5,0.9-0.8,1.5-0.8c0.7,0,1.2,0.3,1.4,0.9
		c0.5-0.5,1-0.9,1.6-0.9c1,0,1.5,0.7,1.5,2v3.1h-1v-3c0-0.9-0.3-1.2-0.8-1.2c-0.3,0-0.7,0.2-1.1,0.7v3.5h-1v-3
		c0-0.9-0.3-1.2-0.8-1.2c-0.3,0-0.7,0.2-1.1,0.7v3.5h-1v-5H-79.5z"/>
</g>
<g id="XMLID_70_">
</g>
<g id="XMLID_111_">
</g>
<g id="XMLID_112_">
</g>
<g id="XMLID_113_">
</g>
<g id="XMLID_114_">
</g>
<g id="XMLID_115_">
</g>
<g id="XMLID_116_">
</g>
<g id="XMLID_117_">
</g>
<g id="XMLID_118_">
</g>
<g id="XMLID_119_">
</g>
<g id="XMLID_120_">
</g>
<g id="XMLID_121_">
</g>
<g id="XMLID_122_">
</g>
<g id="XMLID_123_">
</g>
<g id="XMLID_124_">
</g>
</svg>
