<?xml version="1.0" encoding="utf-8"?>
<!-- Generator: Adobe Illustrator 19.0.0, SVG Export Plug-In . SVG Version: 6.00 Build 0)  -->
<svg version="1.2" baseProfile="tiny" id="圖層_1"
	 xmlns="http://www.w3.org/2000/svg" xmlns:xlink="http://www.w3.org/1999/xlink" x="0px" y="0px" viewBox="-53 318.8 488.7 204.1"
	 xml:space="preserve">
<path id="XMLID_17_" fill="#E8E8E8" d="M-31.7,506l-9.3-26.9c-1.3-3.8-2-7.7-2-11.6V337.7h11.2L-31.7,506L-31.7,506z"/>
<g id="XMLID_16_">
	<path fill="#EFEFEF" d="M5.5,377.3h8.3V348c0-0.6,0-1.2,0.1-1.8l-8,7.1c-0.2,0.2-0.4,0.2-0.6,0.2c-0.3,0-0.5-0.1-0.7-0.3l-0.7-1
		l10.4-9.2h1.9v34.4h7.9v1.9H5.5V377.3z"/>
	<path fill="#EFEFEF" d="M41.9,363.9c-1.5,0-2.8-0.2-4.1-0.7c-1.3-0.5-2.3-1.2-3.2-2.1c-0.9-0.9-1.6-2-2.1-3.3
		c-0.5-1.3-0.8-2.7-0.8-4.3c0-1.5,0.3-3,0.9-4.3c0.6-1.3,1.4-2.5,2.4-3.4s2.2-1.7,3.6-2.3c1.4-0.6,2.9-0.8,4.6-0.8
		c1.6,0,3.1,0.3,4.4,0.8c1.3,0.5,2.5,1.3,3.4,2.3c1,1,1.7,2.2,2.2,3.6c0.5,1.4,0.8,2.9,0.8,4.6c0,0.9-0.1,1.8-0.3,2.7
		c-0.2,0.9-0.5,1.7-0.9,2.6c-0.4,0.9-0.8,1.7-1.4,2.6c-0.5,0.9-1.2,1.9-1.9,2.9l-9.5,13.9c-0.3,0.4-0.7,0.6-1.3,0.6h-2.2l10.7-14.9
		c0.5-0.7,1-1.4,1.4-2c0.4-0.6,0.8-1.3,1.2-1.9c-1,1.1-2.2,1.9-3.6,2.5C45,363.6,43.5,363.9,41.9,363.9z M51.7,353.6
		c0-1.3-0.2-2.5-0.6-3.6c-0.4-1.1-1-2-1.8-2.8c-0.8-0.8-1.7-1.4-2.7-1.8c-1-0.4-2.2-0.7-3.4-0.7c-1.3,0-2.5,0.2-3.7,0.6
		c-1.1,0.4-2.1,1-2.9,1.8c-0.8,0.8-1.4,1.7-1.9,2.7c-0.4,1.1-0.7,2.2-0.7,3.5c0,1.3,0.2,2.5,0.6,3.6c0.4,1.1,1,2,1.7,2.7
		c0.7,0.7,1.6,1.3,2.7,1.7c1,0.4,2.2,0.6,3.5,0.6c1.4,0,2.7-0.2,3.9-0.7c1.1-0.5,2.1-1.1,2.9-1.9c0.8-0.8,1.4-1.7,1.8-2.7
		C51.5,355.6,51.7,354.6,51.7,353.6z"/>
	<path fill="#EFEFEF" d="M82.4,342.7c1.4,0,2.7,0.2,3.9,0.6c1.2,0.4,2.3,1,3.2,1.7c0.9,0.8,1.7,1.7,2.2,2.9s0.8,2.5,0.8,4
		c0,1.2-0.2,2.2-0.5,3.2c-0.4,0.9-0.9,1.8-1.5,2.5c-0.6,0.7-1.4,1.3-2.3,1.8s-1.8,0.9-2.8,1.1c2.7,0.5,4.7,1.5,6,3.1s2,3.5,2,5.8
		c0,1.5-0.3,2.9-0.9,4.1c-0.6,1.3-1.4,2.4-2.5,3.3c-1,0.9-2.3,1.6-3.7,2.2c-1.4,0.5-2.9,0.8-4.6,0.8c-2.1,0-3.8-0.3-5.1-0.8
		c-1.4-0.5-2.5-1.3-3.4-2.1c-0.9-0.9-1.6-1.9-2.1-3c-0.5-1.1-0.9-2.2-1.2-3.3l1-0.4c0.2-0.1,0.4-0.1,0.6-0.1s0.4,0,0.5,0.1
		c0.2,0.1,0.3,0.2,0.4,0.5l0.2,0.5c0.1,0.3,0.2,0.7,0.4,1.1s0.4,0.9,0.7,1.4c0.3,0.5,0.7,1,1.1,1.5s1,0.9,1.6,1.3
		c0.6,0.4,1.4,0.7,2.2,0.9c0.9,0.2,1.9,0.4,3,0.4c1.5,0,2.9-0.3,4-0.8c1.1-0.5,2.1-1.2,2.9-2c0.8-0.8,1.4-1.7,1.7-2.7
		c0.4-1,0.6-1.9,0.6-2.9c0-1.1-0.2-2.1-0.5-3.1c-0.3-1-0.9-1.8-1.8-2.5s-1.9-1.2-3.2-1.6c-1.3-0.4-3-0.6-4.9-0.6v-1.8
		c1.6,0,2.9-0.2,4.1-0.6s2.2-0.9,3-1.6c0.8-0.7,1.4-1.5,1.8-2.4c0.4-0.9,0.6-1.9,0.6-3c0-1.3-0.2-2.4-0.6-3.3
		c-0.4-0.9-1-1.7-1.7-2.3c-0.7-0.6-1.5-1.1-2.5-1.4c-1-0.3-2-0.4-3-0.4c-1.1,0-2.2,0.2-3.1,0.5s-1.8,0.8-2.5,1.4
		c-0.7,0.6-1.3,1.3-1.8,2.2c-0.5,0.9-0.9,1.8-1.1,2.9c-0.1,0.6-0.5,0.9-0.9,0.9c-0.1,0-0.2,0-0.3,0l-1.3-0.2
		c0.2-1.5,0.6-2.9,1.3-4.1s1.4-2.2,2.4-3.1c1-0.8,2.1-1.5,3.4-1.9C79.6,342.9,80.9,342.7,82.4,342.7z"/>
	<path fill="#EFEFEF" d="M121.1,344.1c0,0.3-0.1,0.6-0.3,0.9c-0.2,0.2-0.6,0.3-1.1,0.3h-13.1l-2.2,12.1c1.1-0.3,2.2-0.5,3.2-0.6
		c1-0.1,2-0.2,2.9-0.2c1.9,0,3.5,0.3,5,0.8c1.4,0.5,2.6,1.3,3.6,2.2c1,1,1.7,2.1,2.2,3.4c0.5,1.3,0.7,2.8,0.7,4.3
		c0,1.9-0.3,3.6-1,5.1s-1.6,2.8-2.7,3.8c-1.1,1.1-2.5,1.9-4,2.4c-1.5,0.6-3.1,0.8-4.8,0.8c-1,0-2-0.1-2.9-0.3s-1.8-0.4-2.6-0.7
		c-0.8-0.3-1.5-0.6-2.2-1c-0.7-0.4-1.3-0.8-1.8-1.2l0.7-1c0.2-0.3,0.4-0.4,0.7-0.4c0.2,0,0.5,0.1,1,0.4c0.4,0.3,1,0.5,1.6,0.8
		c0.7,0.3,1.4,0.6,2.3,0.8c0.9,0.3,1.9,0.4,3.1,0.4c1.4,0,2.7-0.2,3.9-0.7s2.3-1.1,3.2-2c0.9-0.9,1.6-1.9,2.1-3.2
		c0.5-1.3,0.8-2.7,0.8-4.3c0-1.3-0.2-2.5-0.6-3.6s-1-2-1.7-2.8c-0.8-0.8-1.8-1.4-2.9-1.8c-1.2-0.4-2.6-0.7-4.2-0.7
		c-1,0-2,0.1-3.1,0.2s-2.2,0.4-3.5,0.7l-1.6-0.5l2.8-16h16.2V344.1z"/>
</g>
<g id="XMLID_15_">
	<path fill="#E2E2E2" d="M169.3,358.3v24.9h-5.3V342h17.7v16.3H169.3z M169.3,345.9v2.3h7.2v-2.3H169.3z M176.5,354.3v-2.5h-7.2v2.5
		H176.5z M190,372.9v9.5h-4.8v-9.5h-4.4c-0.5,3.2-2,7.6-5.9,10.3c-0.8-1-2.4-2.4-3.5-3.1c2.9-1.8,4.2-4.8,4.7-7.2h-4.6v-4.5h4.8V365
		h-4.2v-4.3h22.2v4.3H190v3.5h5.1v4.5H190z M185.2,368.4V365h-4.3v3.5H185.2z M202.7,376.8c0,2.8-0.5,4.3-2.2,5.2
		c-1.7,0.9-4,1.1-7.5,1.1c-0.2-1.5-0.9-4-1.7-5.4c2.1,0.1,4.3,0.1,5,0c0.7,0,1-0.3,1-0.9v-18.4h-12.7V342h18V376.8z M189.9,345.9
		v2.3h7.5v-2.3H189.9z M197.3,354.4v-2.6h-7.5v2.6H197.3z"/>
	<path fill="#E2E2E2" d="M255.4,363.3c-0.4,0.7-0.8,1.5-1.3,2.2h18.7c0,0,0,1.2-0.1,1.9c-0.6,9-1.4,12.7-2.6,14
		c-0.9,1.1-1.9,1.4-3,1.6c-1.1,0.1-2.8,0.2-4.6,0.1c-0.1-1.3-0.6-3.1-1.2-4.3c1.5,0.1,2.7,0.1,3.3,0.1c0.6,0,1-0.1,1.4-0.5
		c0.6-0.7,1.2-3,1.7-8.6h-1.8c-1.9,5.2-5.5,10.7-9.2,13.6c-0.9-1.1-2.5-2.3-3.9-3c3.5-2.2,6.6-6.3,8.6-10.6h-2.7
		c-2.5,4.4-6.8,9-10.8,11.5c-0.9-1.1-2.3-2.4-3.6-3.2c3.4-1.7,6.9-4.9,9.4-8.3h-2.8c-1.7,1.7-3.5,3.3-5.3,4.5
		c-0.7-0.9-2.4-2.5-3.6-3.2c-3.3,1.7-6.6,3.3-9.4,4.7l-2-5.5c1.6-0.6,3.5-1.4,5.7-2.3v-13h-4.6v-5.2h4.6v-9.1h5.1v9.1h4.3v5.2h-4.3
		v10.9l3.7-1.6l1,3.9c1.7-1.4,3.1-3.1,4.2-4.9h-5.2v-4.6h28.9v4.6H255.4z M270.5,357h-21.8v-15.5h21.8V357z M265.5,345.2h-11.9v2.2
		h11.9V345.2z M265.5,351h-11.9v2.2h11.9V351z"/>
	<path fill="#E2E2E2" d="M320.8,367.4c-2.8,8.7-9,13.7-16.6,16.2c-0.6-1.1-2.1-3-3-3.9c2.9-0.8,5.5-1.9,7.8-3.5
		c-0.8-1-2.1-2.3-3.3-3.4c-0.9,0.7-1.8,1.3-2.7,1.9c-0.7-0.8-2.3-2.5-3.3-3.3c3.6-1.8,6.9-4.7,8.8-8.1h-8.1v-4.3h7.2v-3h-4.7v-4.4
		h4.7v-3.3h5.1v3.3h2.8v-3.2h4.7v3.2h3.1v-3.2h4.7v3.2h2.9v-3.4h5.2v3.4h4.4v4.4h-4.4v3h6v4.3h-31.9l2.7,0.7
		c-0.4,0.7-0.8,1.4-1.2,2.1h5.2l0.8-0.1L320.8,367.4z M308.9,347.1c-1.5,1.4-3.1,2.7-4.9,4c-0.9-1.1-2.7-2.5-3.9-3.2
		c3.9-2.3,6.8-5.2,8.4-7.7l5.2,1c-0.4,0.6-0.8,1.2-1.3,1.8h27.1v4H308.9z M309.1,369.8l-0.5,0.5c1.3,1.1,2.6,2.3,3.6,3.3
		c1.1-1.2,1.9-2.3,2.7-3.8H309.1z M312.7,359.1h2.8v-3h-2.8V359.1z M342.5,378.3h-7.3v4.9h-5.2v-4.9h-5.7l-5,0
		c0.9-2.2,1.8-5.1,2.7-7.9h-1.2v-4.2h9.2V364h5.2v2.3h6.4v4.2h-6.4v3.8h7.3V378.3z M320.2,356.1v3h3.1v-3H320.2z M330.1,374.2v-3.8
		h-3c-0.4,1.3-0.8,2.5-1.2,3.8H330.1z M328,356.1v3h2.9v-3H328z"/>
</g>
<rect id="XMLID_19_" x="-1.2" y="409.9" fill="none" width="432.8" height="118.5"/>
<g>
	<path fill="#E2E2E2" d="M11.3,413.5c-0.5,1.4-1.3,3.2-1.9,4.7c1.4,1.5,1.8,2.8,1.8,4c0,0.8-0.2,1.6-0.7,1.9
		c-0.2,0.1-0.5,0.3-0.9,0.3c-0.4,0-0.8,0-1.2,0c0-0.2-0.1-0.5-0.3-0.8c0.5,0,0.9,0,1.2,0c0.3,0,0.5-0.1,0.6-0.2
		c0.3-0.2,0.4-0.8,0.4-1.3c0-1.1-0.4-2.3-1.8-3.9c0.6-1.4,1.3-3,1.7-4.3h-3v14.7H6.5v-15.5h4.1l0.1,0L11.3,413.5z M17.7,423
		c1.1,1.7,2.8,3.3,4.5,4.1c-0.2,0.2-0.5,0.5-0.6,0.7c-1.7-0.9-3.6-2.9-4.7-4.8v5.7h-0.8V423c-1.2,2-3.3,3.9-5.1,4.8
		c-0.1-0.2-0.4-0.5-0.6-0.7c1.7-0.8,3.7-2.5,4.8-4.2h-3.1v-6.1h3.9v-1.7h-4.7v-0.8h4.7v-2h0.8v2h4.8v0.8h-4.8v1.7h4v6.1H17.7z
		 M13,419.6h3.1v-1.9H13V419.6z M13,422.2h3.1v-2H13V422.2z M16.9,417.6v1.9h3.2v-1.9H16.9z M20.1,420.3h-3.2v2h3.2V420.3z"/>
	<path fill="#E2E2E2" d="M29.6,419.8c-0.6-0.5-1.8-1.2-2.8-1.6l0.5-0.6c1,0.4,2.2,1,2.8,1.5L29.6,419.8z M27.2,427.8
		c0.8-1.4,1.9-3.8,2.6-5.8l0.7,0.5c-0.7,1.9-1.7,4.2-2.6,5.8L27.2,427.8z M28.1,412.7c1,0.4,2.3,1.1,2.9,1.6l-0.5,0.7
		c-0.6-0.5-1.9-1.3-2.9-1.7L28.1,412.7z M31.4,413.4h4.3v4.9h-3.2c-0.1,1.1-0.3,2.2-0.4,3.2h3.4c0,0,0,0.3,0,0.4
		c-0.4,4.2-0.7,5.7-1.3,6.3c-0.3,0.3-0.6,0.4-1,0.4c-0.4,0-1.1,0-1.9-0.1c0-0.2-0.1-0.6-0.2-0.8c0.8,0.1,1.5,0.1,1.8,0.1
		s0.5,0,0.6-0.2c0.5-0.4,0.8-1.9,1.1-5.4h-3.4c0.2-1.2,0.5-3.2,0.6-4.7h3.1v-3.4h-3.5V413.4z M42.2,428.4c-0.1-0.5-0.2-1-0.4-1.6
		c-4.9,0.7-5.5,0.8-5.8,1c0-0.2-0.2-0.6-0.3-0.8c0.3-0.1,0.7-1.3,1-2.8c0.4-1.4,1.5-6.7,1.8-11.2l0.8,0.1c-0.4,4.4-1.3,9.7-2.4,13.5
		l4.6-0.6c-0.4-1.7-1-3.6-1.6-5.3l0.8-0.2c0.9,2.5,1.8,5.7,2.2,7.6L42.2,428.4z"/>
	<path fill="#E2E2E2" d="M47.9,427.5c0.9-1.2,1.6-3,1.9-4.4l0.8,0.3c-0.4,1.4-1,3.4-1.9,4.6L47.9,427.5z M63.8,415.2v0.8h-7.5v3.5
		h6.5v0.8H49.1v-0.8h6.3v-3.5h-7.5v-0.8h7.5v-2.8h0.9v2.8H63.8z M58.6,427.7c1,0,1.2-0.3,1.3-2.4c0.2,0.1,0.6,0.3,0.8,0.3
		c-0.1,2.3-0.5,2.8-2,2.8h-4.5c-1.8,0-2.3-0.3-2.3-1.4v-4.2h0.9v4.2c0,0.5,0.2,0.7,1.4,0.7H58.6z M57.8,424.8
		c-0.8-0.9-2.5-2.2-4-3.1l0.6-0.5c1.5,0.8,3.2,2.1,4.1,3L57.8,424.8z M61.2,422.9c1,1.5,2.1,3.6,2.5,4.8l-0.8,0.4
		c-0.5-1.3-1.5-3.3-2.5-4.9L61.2,422.9z"/>
	<path fill="#E2E2E2" d="M82.6,421.9c-0.4-0.7-1.6-2.2-2.4-3.2v10h-0.8v-9.8c-0.8,2.4-2.1,4.9-3.3,6.3c-0.1-0.2-0.4-0.6-0.5-0.8
		c1.4-1.5,2.9-4.6,3.7-7.3h-3.2v-0.8h3.4v-4h0.8v4h2.7v0.8h-2.7v0.4c0.6,0.6,2.6,2.9,3.1,3.5L82.6,421.9z M88.4,417.2
		c0.8,3.1,2.3,6.2,3.8,7.8c-0.2,0.2-0.5,0.5-0.7,0.7c-1.3-1.5-2.6-4.2-3.4-6.9v9.9h-0.9v-9.8c-1,2.8-2.5,5.6-4,7.1
		c-0.1-0.3-0.4-0.6-0.6-0.8c1.7-1.7,3.5-4.9,4.4-8h-3.1v-0.8h3.4v-4h0.9v4h3.6v0.8H88.4z"/>
	<path fill="#E2E2E2" d="M98.2,419.1h-0.8v-3.9h6.9v-1.5h-6.1v-0.8h13.1v0.8h-6.2v1.5h7.1v3.9h-0.8V416h-6.3v4.9h-0.8V416h-6.1
		V419.1z M112.5,425.3h-2.1v2.8h-11v-0.8h10.1v-2.1h-12v-0.8h12v-2.1H99.4v-0.8h11v2.8h2.1V425.3z M98.8,420.2
		c1.1-0.3,2.8-0.8,4.4-1.3l0.1,0.6c-1.4,0.5-2.9,1-4.1,1.4L98.8,420.2z M99.5,416.8c1.2,0.2,2.8,0.7,3.7,1.1l-0.3,0.6
		c-0.9-0.4-2.4-0.9-3.7-1.1L99.5,416.8z M110.8,421c-1.1-0.5-3-1.2-4.6-1.5l0.3-0.5c1.6,0.3,3.5,0.9,4.6,1.4L110.8,421z
		 M110.5,417.3c-1.1,0.5-2.6,0.9-3.7,1.1l-0.3-0.5c1.1-0.3,2.7-0.8,3.6-1.2L110.5,417.3z"/>
	<path fill="#E2E2E2" d="M131.9,427.8c0.8,0,1-0.4,1-3c0.2,0.1,0.5,0.3,0.8,0.3c-0.1,2.7-0.4,3.3-1.8,3.3h-3.1
		c-1.5,0-1.9-0.3-1.9-1.3v-5.4h-2.5c-0.4,3.8-1.6,5.9-6.2,7c-0.1-0.2-0.3-0.5-0.5-0.7c4.3-1,5.4-3,5.8-6.3h-3.7V414h0
		c1.7-0.4,3.6-0.9,4.6-1.5l0.8,0.6c-1.2,0.5-3,1-4.5,1.3v2.7h4.2v0.8h-4.2v2.9h10.4V418h-4.2v-0.8h4.2v-2.6h-4.5v-0.8h5.4v8h-4.1
		v5.4c0,0.5,0.2,0.6,1,0.6H131.9z"/>
	<path fill="#E2E2E2" d="M151.8,426.5c-1.4,0.9-3.7,1.8-5.5,2.3c-0.1-0.2-0.4-0.5-0.6-0.6c1.8-0.5,4.1-1.4,5.3-2.1L151.8,426.5z
		 M161.8,418.8h-16v-0.8h16V418.8z M150.2,414.7h-3.5v-0.7h3.5v-1.5h0.8v1.5h5.6v-1.5h0.9v1.5h3.5v0.7h-3.5v2.3h-7.3V414.7z
		 M147.9,425.7v-5.8h12v5.8H147.9z M148.8,422.4h4.6v-1.8h-4.6V422.4z M148.8,425h4.6v-1.9h-4.6V425z M151,414.7v1.6h5.6v-1.6H151z
		 M159,420.6h-4.8v1.8h4.8V420.6z M159,423.1h-4.8v1.9h4.8V423.1z M156.5,426c2,0.6,4.1,1.5,5.4,2.1l-0.7,0.6
		c-1.2-0.6-3.3-1.5-5.3-2.2L156.5,426z"/>
	<path fill="#E2E2E2" d="M170.7,426.5c-0.3-0.4-0.7-0.9-1.2-1.4c-0.6,1.3-1.4,2.5-2.5,3.7c-0.1-0.2-0.4-0.4-0.6-0.5
		c1.2-1.2,2-2.5,2.5-3.8c-0.7-0.7-1.4-1.5-2.1-2.1c0.3-1.3,0.7-3.1,1-5l-1.3,0.1l-0.1-0.8l1.6-0.1c0.2-1.4,0.4-2.8,0.5-4l0.7,0
		c-0.1,1.2-0.3,2.6-0.5,4l1.4-0.1V415h0.7v1.4l0.8-0.1v0.8l-0.8,0.1c0,2.1-0.2,4.6-1.1,7.1c0.6,0.6,1.1,1.2,1.4,1.6L170.7,426.5z
		 M168.7,417.3c-0.3,1.8-0.6,3.5-1,4.8c0.5,0.5,1.1,1,1.6,1.6c0.8-2.3,0.9-4.6,0.9-6.5L168.7,417.3z M173.5,421.5
		c-0.1,3.2-0.4,5.4-1.8,6.8c-0.1-0.2-0.4-0.5-0.6-0.6c1.3-1.2,1.5-3.2,1.6-6.2H173.5z M171.8,419.9h5.6v0.8h-5.6V419.9z
		 M177.1,418.5h-4.8v-4.4h0.7v3.7h1.4v-5.4h0.7v5.4h1.3v-3.7h0.7V418.5z M177.9,424.5c0.1,0.2,0.2,0.5,0.2,0.6
		c-2,1.3-2.3,1.5-2.4,1.7c-0.1-0.2-0.3-0.6-0.4-0.7c0.2-0.1,0.5-0.4,0.5-1.1v-3.6h0.7v3.8L177.9,424.5z M182.2,416.8
		c-0.3,3-0.7,5.5-1.6,7.5c0.6,1.5,1.4,2.7,2.4,3.5c-0.2,0.2-0.5,0.5-0.6,0.7c-0.9-0.8-1.7-1.9-2.3-3.3c-0.7,1.4-1.7,2.6-3,3.5
		c-0.1-0.1-0.4-0.4-0.6-0.6c1.5-1,2.5-2.3,3.2-3.9c-0.6-1.6-1-3.5-1.3-5.7c-0.2,0.5-0.5,0.9-0.7,1.3c-0.1-0.1-0.4-0.4-0.6-0.6
		c1.1-1.7,1.8-4.3,2.2-7l0.8,0.1c-0.2,1.2-0.4,2.4-0.8,3.5h3.4v0.8H182.2z M179.2,416.8c0,0.2-0.1,0.3-0.1,0.5
		c0.2,2.2,0.6,4.2,1.1,6c0.6-1.8,1-3.9,1.2-6.4H179.2z"/>
	<path fill="#E2E2E2" d="M192.8,419.5h1.5v0.8h-1.5v7.2c0,0.7-0.2,0.9-0.6,1.1c-0.5,0.1-1.3,0.2-2.7,0.2c0-0.3-0.2-0.6-0.3-0.9
		c1.1,0,2.1,0,2.4,0c0.3,0,0.4-0.1,0.4-0.4v-7c-1,2.5-2.5,5.1-3.9,6.6c-0.1-0.2-0.4-0.5-0.6-0.6c1.4-1.2,2.9-3.8,3.8-6.2h-3.4
		c0.4-1.5,0.9-4.1,1.2-6.1h-1.4v-0.8h6.6v0.8h-1.5V419.5z M189.9,414.2c-0.3,1.6-0.7,3.7-1,5.2h3.1v-5.2H189.9z M203.8,427.6h-7.1
		v1.1h-0.8v-11.1c-0.4,0.7-0.8,1.3-1.3,1.9c-0.1-0.2-0.5-0.5-0.6-0.6c1.4-1.6,2.5-3.9,3.2-6.3l0.8,0.2c-0.3,1-0.7,2.1-1.2,3h7v0.8
		h-3v2.8h2.6v0.8h-2.6v2.9h2.6v0.8h-2.6v2.9h3.1V427.6z M199.9,416.5h-3.2v2.8h3.2V416.5z M199.9,420.2h-3.2v2.9h3.2V420.2z
		 M196.7,426.8h3.2v-2.9h-3.2V426.8z M200.3,415.7c-0.1-0.8-0.5-1.9-1-2.8l0.7-0.3c0.5,0.9,0.9,2,1,2.8L200.3,415.7z"/>
	<path fill="#E2E2E2" d="M221.7,426.5c-1.4,0.9-3.7,1.8-5.5,2.3c-0.1-0.2-0.4-0.5-0.6-0.6c1.8-0.5,4.1-1.4,5.3-2.1L221.7,426.5z
		 M231.7,418.8h-16v-0.8h16V418.8z M220.1,414.7h-3.5v-0.7h3.5v-1.5h0.8v1.5h5.6v-1.5h0.9v1.5h3.5v0.7h-3.5v2.3h-7.3V414.7z
		 M217.9,425.7v-5.8h12v5.8H217.9z M218.7,422.4h4.6v-1.8h-4.6V422.4z M218.7,425h4.6v-1.9h-4.6V425z M221,414.7v1.6h5.6v-1.6H221z
		 M229,420.6h-4.8v1.8h4.8V420.6z M229,423.1h-4.8v1.9h4.8V423.1z M226.5,426c2,0.6,4.1,1.5,5.4,2.1l-0.7,0.6
		c-1.2-0.6-3.3-1.5-5.3-2.2L226.5,426z"/>
	<path fill="#E2E2E2" d="M241.7,419.5h1.5v0.8h-1.5v7.2c0,0.7-0.2,0.9-0.6,1.1c-0.5,0.1-1.3,0.2-2.7,0.2c0-0.3-0.2-0.6-0.3-0.9
		c1.1,0,2.1,0,2.4,0c0.3,0,0.4-0.1,0.4-0.4v-7c-1,2.5-2.5,5.1-3.9,6.6c-0.1-0.2-0.4-0.5-0.6-0.6c1.4-1.2,2.9-3.8,3.8-6.2h-3.4
		c0.4-1.5,0.9-4.1,1.2-6.1h-1.4v-0.8h6.6v0.8h-1.5V419.5z M238.9,414.2c-0.3,1.6-0.7,3.7-1,5.2h3.1v-5.2H238.9z M252.8,427.6h-7.1
		v1.1h-0.8v-11.1c-0.4,0.7-0.8,1.3-1.3,1.9c-0.1-0.2-0.5-0.5-0.6-0.6c1.4-1.6,2.5-3.9,3.2-6.3l0.8,0.2c-0.3,1-0.7,2.1-1.2,3h7v0.8
		h-3v2.8h2.6v0.8h-2.6v2.9h2.6v0.8h-2.6v2.9h3.1V427.6z M248.9,416.5h-3.2v2.8h3.2V416.5z M248.9,420.2h-3.2v2.9h3.2V420.2z
		 M245.7,426.8h3.2v-2.9h-3.2V426.8z M249.2,415.7c-0.1-0.8-0.5-1.9-1-2.8l0.7-0.3c0.5,0.9,0.9,2,1,2.8L249.2,415.7z"/>
	<path fill="#E2E2E2" d="M265.8,419.5h-8.2v-0.8h5.1c0.4-1,0.9-2.4,1.2-3.3l0.8,0.2c-0.4,1-0.8,2.2-1.2,3.1h2.3L265.8,419.5
		c1.1-1.8,1.7-4.4,2.1-7.1l0.9,0.1c-0.1,0.9-0.3,1.9-0.5,2.7h5l0.2-0.1l0.6,0.2c-0.3,1.5-0.8,3.3-1.2,4.4l-0.8-0.2
		c0.4-0.9,0.7-2.3,0.9-3.5h-4.9c-0.4,1.5-0.9,2.9-1.5,3.9C266.5,419.9,266,419.6,265.8,419.5L265.8,419.5z M265.7,415.2H258v-0.8
		h3.9c-0.2-0.6-0.6-1.2-0.9-1.8l0.8-0.2c0.4,0.6,0.8,1.4,1.1,2h2.9V415.2z M258.7,421h6.5v7.4h-0.8v-0.8h-4.8v1.1h-0.8V421z
		 M259.9,418.5c-0.1-0.8-0.4-2-0.7-2.9l0.7-0.2c0.4,0.9,0.7,2.1,0.8,2.9L259.9,418.5z M259.6,421.8v2.1h4.8v-2.1H259.6z
		 M264.4,426.8v-2.2h-4.8v2.2H264.4z M270,418.5c0,0.5,0,1.1,0,1.6c0.6,3.8,1.7,6,4.1,7.9c-0.2,0.2-0.5,0.5-0.6,0.7
		c-2-1.7-3.1-3.6-3.9-6.3c-0.4,2.1-1.4,4.4-3.6,6.4c-0.2-0.2-0.5-0.5-0.7-0.6c3.5-3.1,3.7-7,3.7-9.7v-1.2h0.9V418.5z"/>
	<path fill="#E2E2E2" d="M289.1,422v5.7c0,0.5-0.1,0.7-0.5,0.9c-0.4,0.1-0.9,0.2-1.8,0.2c0-0.2-0.2-0.5-0.3-0.8c0.7,0,1.4,0,1.5,0
		c0.2,0,0.3-0.1,0.3-0.3v-5.4l-2.4,1l-0.2-0.8c0.7-0.3,1.6-0.6,2.6-1V418c0.7-0.9,1.5-2.3,2-3.5h-4.1v-0.8h4.5l0.2-0.1l0.6,0.4
		c-0.6,1.4-1.6,3-2.4,4.1v3.1c0.7-0.3,1.4-0.6,2.2-0.9l0.2,0.8L289.1,422z M294.5,423.8c-0.7,1.6-1.8,3.2-2.8,4.2
		c-0.2-0.1-0.6-0.3-0.8-0.4c1.1-1,2.1-2.5,2.8-4.1L294.5,423.8z M298.7,413c-1.6,1.2-4.2,2.2-6.6,3c0-0.2-0.2-0.5-0.3-0.6
		c2.3-0.7,4.9-1.8,6.2-2.9L298.7,413z M296.8,422.2v5.5c0,0.5-0.1,0.7-0.5,0.9c-0.4,0.1-1,0.1-2,0.1c0-0.2-0.2-0.5-0.3-0.8
		c0.8,0,1.4,0,1.6,0c0.2,0,0.3-0.1,0.3-0.3v-5.4c-3,0.3-3.5,0.4-3.8,0.5c0-0.2-0.2-0.6-0.3-0.9c0.4-0.1,1-0.4,1.7-0.9
		c0.5-0.3,1.8-1.2,3.1-2.4c-3.5,0.3-4,0.4-4.3,0.5c-0.1-0.2-0.2-0.6-0.3-0.8c0.3,0,0.7-0.2,1.1-0.5c0.5-0.3,2-1.5,3.1-2.7l0.8,0.4
		c-1,1-2.1,1.9-3.1,2.6l3.7-0.3c0.5-0.4,0.9-0.9,1.4-1.3l0.7,0.5c-1.9,1.8-3.9,3.4-5.8,4.7l6-0.5c-0.4-0.6-0.8-1.3-1.3-1.9l0.6-0.3
		c0.9,1.1,1.9,2.7,2.3,3.7l-0.7,0.4c-0.1-0.3-0.3-0.8-0.6-1.2L296.8,422.2z M299,423.3c1,1.3,2.1,3,2.6,4.1l-0.7,0.4
		c-0.5-1.1-1.6-2.9-2.6-4.1L299,423.3z"/>
	<path fill="#E2E2E2" d="M311.8,423.9c-1.9,0.6-3.9,1.3-5.4,1.9l-0.2-0.8c0.7-0.2,1.5-0.5,2.5-0.8v-4.7h-2v-0.8h2v-4.2h-2.2v-0.8
		h5.1v0.8h-2.1v4.2h1.9v0.8h-1.9v4.4c0.7-0.2,1.4-0.5,2.2-0.7L311.8,423.9z M321.4,413.1c0,7.6-0.1,14.7,0.9,14.7
		c0.3,0,0.3-1.2,0.3-2.8c0.2,0.2,0.4,0.4,0.6,0.5c-0.1,2.4-0.3,3.2-1.1,3.2c-1.8,0-1.6-5.9-1.6-14.8h-7.7v5.8c0,2.8-0.3,6.5-2.6,9
		c-0.1-0.1-0.4-0.4-0.6-0.5c2.2-2.4,2.4-5.8,2.4-8.5v-6.6H321.4z M313.7,415.7h6.1v0.8h-2.7v2.4h2.4v6.4c0,0.4-0.1,0.6-0.3,0.8
		c-0.3,0.2-0.7,0.2-1.4,0.2c0-0.2-0.1-0.5-0.3-0.8c0.6,0,1,0,1.1,0c0.2,0,0.2-0.1,0.2-0.2v-5.6h-1.7v0.1H317v8.9h-0.7v-8.9h0v-0.1
		h-1.7v6.7H314v-7.5h2.4v-2.4h-2.7V415.7z"/>
	<path fill="#E2E2E2" d="M332.5,425.1c-1.8,0.6-3.6,1.2-5,1.7l-0.2-0.8c0.7-0.2,1.5-0.5,2.4-0.7v-5.4h-2V419h2v-4.4h-2.2v-0.8h5.1
		v0.8h-2.1v4.4h2v0.8h-2v5.1l1.9-0.6L332.5,425.1z M337.8,427.6c0,0.5-0.1,0.8-0.5,0.9c-0.4,0.1-1,0.2-2,0.2c0-0.2-0.1-0.6-0.3-0.8
		c0.8,0,1.5,0,1.7,0c0.2,0,0.3-0.1,0.3-0.3v-2.8h-3c-0.1,1.3-0.5,2.8-1.2,3.9c-0.1-0.2-0.5-0.5-0.6-0.5c1-1.6,1.1-3.7,1.1-5.3v-3.8
		h4.4V427.6z M338.9,412.7c-0.1,0.2-0.3,0.4-0.4,0.6c1.3,1.4,3.7,2.9,5.5,3.7c-0.2,0.2-0.4,0.5-0.6,0.6c-1.7-0.8-4-2.2-5.4-3.7
		c-1.4,1.6-3.4,3.1-5.1,3.9c-0.1-0.2-0.4-0.5-0.6-0.7c2.2-0.9,4.6-2.8,5.9-4.7L338.9,412.7z M337,424.1v-1.8h-2.9v0.6
		c0,0.4,0,0.8,0,1.2H337z M334.1,419.9v1.7h2.9v-1.7H334.1z M341.1,417.7h-6.5V417h6.5V417.7z M340,425.8h-0.7v-6.4h0.7V425.8z
		 M341.9,418.7h0.8v8.9c0,0.5-0.1,0.8-0.5,0.9c-0.4,0.1-1,0.2-2,0.2c0-0.2-0.2-0.5-0.3-0.8c0.8,0,1.5,0,1.7,0c0.2,0,0.3-0.1,0.3-0.3
		V418.7z"/>
	<path fill="#E2E2E2" d="M362.4,421.9c-0.4-0.7-1.6-2.2-2.4-3.2v10h-0.8v-9.8c-0.8,2.4-2.1,4.9-3.3,6.3c-0.1-0.2-0.4-0.6-0.5-0.8
		c1.4-1.5,2.9-4.6,3.7-7.3h-3.2v-0.8h3.4v-4h0.8v4h2.7v0.8H360v0.4c0.6,0.6,2.6,2.9,3.1,3.5L362.4,421.9z M368.2,417.2
		c0.8,3.1,2.3,6.2,3.8,7.8c-0.2,0.2-0.5,0.5-0.7,0.7c-1.3-1.5-2.6-4.2-3.4-6.9v9.9H367v-9.8c-1,2.8-2.5,5.6-4,7.1
		c-0.1-0.3-0.4-0.6-0.6-0.8c1.7-1.7,3.5-4.9,4.4-8h-3.1v-0.8h3.4v-4h0.9v4h3.6v0.8H368.2z"/>
	<path fill="#E2E2E2" d="M380,416h2.3v0.8H380v0.6c0.4,0.6,2,3.1,2.3,3.7l-0.7,0.7c-0.3-0.6-1.1-2-1.6-3v10h-0.8v-9.3
		c-0.6,2.2-1.4,4.3-2.3,5.6c-0.1-0.3-0.4-0.6-0.6-0.7c1.1-1.7,2.2-4.8,2.7-7.5h-2.6V416h2.7v-3.5h0.8V416z M391.7,415.7v12.9h-0.9
		v-0.9h-6.5v1h-0.9v-13h2.9c0.3-1,0.7-2.3,0.9-3.2l1,0.1c-0.3,1-0.6,2.2-1,3.1H391.7z M384.3,416.5v4.7h6.5v-4.7H384.3z
		 M390.8,426.9v-4.8h-6.5v4.8H390.8z"/>
	<path fill="#E2E2E2" d="M402.1,414.6h-4.3v-0.8h4.3v-1.4h0.8v1.4h2.3v0.8H403v1.6h-0.8V414.6z M399,416.9h13.2v11.9h-0.8V428h-11.5
		v0.8H399V416.9z M399.8,417.7v9.5h11.5v-9.5H399.8z M409.8,426.6c-0.8-1.1-2.5-2.8-4.1-4.2c-0.4,1.5-1.5,3-4.5,4.1
		c-0.1-0.2-0.3-0.5-0.5-0.6c3.4-1.3,4.2-3,4.4-4.5h-4.2v-0.8h4.2v0v-2.3h0.8v2.3v0h4.5v0.8h-4.5l0,0.3c1.7,1.4,3.6,3.3,4.5,4.4
		L409.8,426.6z M413.4,413.8v0.8H409v1.6h-0.9v-1.6H406v-0.8h2.2v-1.4h0.9v1.4H413.4z"/>
</g>
<g>
	<path fill="#E2E2E2" d="M12.3,452.4c-1.3,1.5-3.9,3-5.9,3.7c-0.1-0.2-0.4-0.6-0.6-0.7c2.1-0.6,4.5-1.9,5.8-3.4L12.3,452.4z
		 M9,444.9c-0.7-0.5-2.1-1.2-3.2-1.5l0.4-0.6c1.1,0.3,2.5,1,3.2,1.5L9,444.9z M14.4,450.7h7.5v0.8h-7.5v5.3h-0.9v-5.3H6v-0.8h7.6
		V449h0.9V450.7z M6.2,448.8c0.9-0.8,2.2-2.1,3.3-3.3l0.5,0.6c-1,1.1-2.1,2.3-3.2,3.3L6.2,448.8z M9.9,442.5c-0.7-0.5-2-1.2-3.1-1.5
		l0.4-0.6c1.1,0.4,2.4,1,3.1,1.5L9.9,442.5z M15.6,442c-0.5,3.8-2.2,5.8-5.2,7c-0.1-0.2-0.4-0.5-0.6-0.6c1.7-0.6,3-1.5,3.8-2.8
		c-0.7-0.7-1.9-1.6-3-2.2l0.4-0.5c1,0.6,2.1,1.4,2.9,2.1c0.4-0.8,0.6-1.8,0.8-2.9h-3.2v-0.8H19c0,0,0,0.3,0,0.4
		c0,0.8-0.1,1.5-0.1,2.2c1.1,0.9,2.4,2,3,2.7l-0.6,0.6c-0.5-0.6-1.5-1.6-2.5-2.4c-0.2,2.2-0.4,3.2-0.7,3.5c-0.3,0.3-0.5,0.4-1,0.4
		c-0.4,0-1,0-1.7,0c0-0.2-0.1-0.5-0.2-0.8c0.7,0.1,1.4,0.1,1.7,0.1s0.4,0,0.5-0.2c0.3-0.4,0.6-1.8,0.8-5.7H15.6z M16.2,451.9
		c2,0.9,4.4,2.4,5.6,3.3l-0.6,0.7c-1.2-1-3.6-2.4-5.6-3.4L16.2,451.9z"/>
	<path fill="#E2E2E2" d="M26.5,448.4c0.4-1.2,0.7-3.2,0.8-4.6l0.7,0.1c-0.1,1.4-0.4,3.4-0.8,4.7L26.5,448.4z M29,440.4h0.8v16.3H29
		V440.4z M31.4,446c-0.1-0.7-0.6-1.8-1-2.6l0.7-0.3c0.4,0.8,0.8,1.9,1,2.5L31.4,446z M42.8,455.4h-8.5v1.3h-0.8v-11.1
		c-0.5,0.9-1.1,1.7-1.7,2.4c-0.2-0.1-0.5-0.4-0.7-0.6c1.5-1.7,2.8-4.3,3.6-7l0.8,0.2c-0.3,1-0.7,2-1.2,3h8v0.8h-3.8v2.8h3.4v0.8
		h-3.4v2.8h3.4v0.8h-3.4v2.9h4.1V455.4z M37.9,444.5h-3.6v2.8h3.6V444.5z M37.9,448.1h-3.6v2.8h3.6V448.1z M34.3,454.6h3.6v-2.9
		h-3.6V454.6z M38.7,443.6c-0.3-0.7-0.8-1.9-1.4-2.7l0.7-0.3c0.6,0.8,1.2,2,1.4,2.7L38.7,443.6z"/>
	<path fill="#E2E2E2" d="M52.1,440.8c-0.4,1.2-0.9,2.4-1.4,3.6v12.4h-0.8v-10.8c-0.6,1.1-1.3,2.1-2.1,3c-0.1-0.2-0.3-0.6-0.5-0.8
		c1.6-1.9,3.1-4.7,4-7.5L52.1,440.8z M57.8,442.5c-0.8,3.8-2.8,6.2-5.1,7.3c-0.1-0.2-0.3-0.5-0.5-0.6c1.2-0.5,2.2-1.4,3.1-2.6
		c-0.5-0.5-1.3-1.2-1.9-1.8c-0.3,0.5-0.7,0.9-1.1,1.3c-0.1-0.2-0.4-0.4-0.6-0.5c1.5-1.4,2.5-3.4,3-4.9l0.8,0.1
		c-0.2,0.5-0.4,1-0.6,1.5h2.4l0.2,0L57.8,442.5z M56.2,452.3c-1,1.3-2.4,2.8-3.5,3.7c-0.1-0.2-0.5-0.5-0.7-0.6
		c1.2-0.9,2.5-2.2,3.4-3.4L56.2,452.3z M58.3,450.6h5.6v0.8h-5.6v5.4h-0.8v-5.4h-5.3v-0.8h5.3v-2.1h0.8V450.6z M54.4,443.1
		c-0.2,0.4-0.4,0.7-0.6,1.1c0.7,0.5,1.5,1.2,2,1.7c0.5-0.8,0.9-1.8,1.2-2.8H54.4z M64,446.6v0.8h-2.2v2.2h-0.8v-2.2h-3v0h-0.4
		c0.3-1,0.8-2.5,1.1-3.7h-0.6v-0.8h2.9v-2.1h0.8v2.1h1.9v0.8h-1.9v3H64z M61.1,446.6v-3h-1.5c-0.3,1-0.6,2.1-0.8,3H61.1z M60.2,452
		c1.2,1.1,2.6,2.6,3.3,3.5l-0.7,0.5c-0.7-1-2.1-2.5-3.3-3.6L60.2,452z"/>
	<path fill="#E2E2E2" d="M81.8,454.5c-1.4,0.9-3.7,1.8-5.5,2.3c-0.1-0.2-0.4-0.5-0.6-0.6c1.8-0.5,4.1-1.4,5.3-2.1L81.8,454.5z
		 M91.8,446.8h-16v-0.8h16V446.8z M80.2,442.7h-3.5v-0.7h3.5v-1.5h0.8v1.5h5.6v-1.5h0.9v1.5h3.5v0.7h-3.5v2.3h-7.3V442.7z M78,453.7
		v-5.8h12v5.8H78z M78.8,450.4h4.6v-1.8h-4.6V450.4z M78.8,453h4.6v-1.9h-4.6V453z M81.1,442.7v1.6h5.6v-1.6H81.1z M89.1,448.6h-4.8
		v1.8h4.8V448.6z M89.1,451.1h-4.8v1.9h4.8V451.1z M86.6,454c2,0.6,4.1,1.5,5.4,2.1l-0.7,0.6c-1.2-0.6-3.3-1.5-5.3-2.2L86.6,454z"/>
	<path fill="#E2E2E2" d="M104.8,452c-1,2.3-3,3.9-7.5,4.7c-0.1-0.2-0.3-0.6-0.4-0.7c4.1-0.7,6-2,7-4H97v-0.8h7.2
		c0.2-0.6,0.3-1.2,0.4-1.9h0.9c-0.1,0.7-0.3,1.3-0.5,1.9h7.7v0.8H104.8z M102.5,443h-5.6v-0.8h7.9c-0.3-0.5-0.6-1.2-1-1.7l0.8-0.2
		c0.4,0.6,0.9,1.4,1.2,1.9h7.1v0.8h-5.5v6.6h-0.8V443h-3.2v0.8c0,1.9-0.4,4.3-4.5,5.9c-0.1-0.2-0.4-0.5-0.6-0.7
		c3.9-1.5,4.2-3.6,4.2-5.3V443z M100.8,444.2c-0.7,1.1-1.9,2.4-2.8,3.2c-0.1-0.1-0.5-0.4-0.6-0.5c1-0.8,2.1-1.8,2.7-2.9L100.8,444.2
		z M105.6,452.4c2.4,1.1,5.5,2.6,7.2,3.6l-0.4,0.8c-1.6-1-4.8-2.6-7.2-3.7L105.6,452.4z M108.9,444c1.2,0.9,2.6,2.3,3.2,3.2
		l-0.7,0.5c-0.6-0.9-1.9-2.3-3.2-3.3L108.9,444z"/>
	<path fill="#E2E2E2" d="M119.4,446.9v9.8h-0.8v-15.5h6.3v5.7H119.4z M119.4,442v1.7h4.6V442H119.4z M124,446.2v-1.8h-4.6v1.8H124z
		 M129.4,455.4c-0.7-0.7-1.7-1.5-2.9-2.3c-1.4,1.2-3.2,2-5.3,2.6c-0.1-0.2-0.4-0.5-0.5-0.7c2-0.5,3.8-1.2,5.1-2.3
		c-1.1-0.7-2.2-1.4-3.3-1.9l0.4-0.6c1.1,0.6,2.3,1.3,3.5,2c0.7-0.7,1.2-1.5,1.6-2.5H121v-0.8h9.6v0.8h-1.8c-0.4,1.2-1,2.1-1.8,2.9
		c1.1,0.8,2.1,1.5,2.8,2.1L129.4,455.4z M126,448.8c-0.2-0.5-0.7-1.2-1.2-1.6l0.6-0.4c0.5,0.5,1,1.1,1.3,1.6L126,448.8z
		 M133.2,455.4c0,0.6-0.2,1-0.6,1.1c-0.5,0.2-1.4,0.2-2.7,0.2c0-0.3-0.2-0.6-0.3-0.9c1.1,0,2.1,0,2.4,0c0.3,0,0.4-0.1,0.4-0.4V447
		h-5.6v-5.7h6.5V455.4z M127.5,442v1.7h4.8V442H127.5z M132.3,446.2v-1.8h-4.8v1.8H132.3z"/>
	<path fill="#E2E2E2" d="M151.2,441.5c-0.5,1.4-1.3,3.2-1.9,4.7c1.4,1.5,1.8,2.8,1.8,4c0,0.8-0.2,1.6-0.7,1.9
		c-0.2,0.1-0.5,0.3-0.9,0.3c-0.4,0-0.8,0-1.2,0c0-0.2-0.1-0.5-0.3-0.8c0.5,0,0.9,0,1.2,0c0.3,0,0.5-0.1,0.6-0.2
		c0.3-0.2,0.4-0.8,0.4-1.3c0-1.1-0.4-2.3-1.8-3.9c0.6-1.4,1.3-3,1.7-4.3h-3v14.7h-0.8v-15.5h4.1l0.1,0L151.2,441.5z M157.6,451
		c1.1,1.7,2.8,3.3,4.5,4.1c-0.2,0.2-0.5,0.5-0.6,0.7c-1.7-0.9-3.6-2.9-4.7-4.8v5.7H156V451c-1.2,2-3.3,3.9-5.1,4.8
		c-0.1-0.2-0.4-0.5-0.6-0.7c1.7-0.8,3.7-2.5,4.8-4.2h-3.1v-6.1h3.9v-1.7h-4.7v-0.8h4.7v-2h0.8v2h4.8v0.8h-4.8v1.7h4v6.1H157.6z
		 M152.9,447.6h3.1v-1.9h-3.1V447.6z M152.9,450.2h3.1v-2h-3.1V450.2z M156.8,445.6v1.9h3.2v-1.9H156.8z M160,448.3h-3.2v2h3.2
		V448.3z"/>
	<path fill="#E2E2E2" d="M172.5,450.5c-0.3-0.5-1.1-1.8-1.6-2.6v8.9h-0.8v-8.8c-0.8,2.1-2.1,4.3-3.1,5.5c-0.1-0.2-0.4-0.6-0.5-0.8
		c1.3-1.4,2.8-4,3.5-6.2h-3.2v-0.8h3.3v-3.4c-1,0.2-2,0.4-2.9,0.5c-0.1-0.2-0.2-0.5-0.3-0.7c2-0.4,4.4-0.9,5.7-1.4l0.6,0.6
		c-0.7,0.3-1.5,0.5-2.4,0.7v3.6h2.7v0.8h-2.7v0.4c0.4,0.5,1.9,2.5,2.2,3L172.5,450.5z M178.4,440.4c0,2.2,0,4.3-0.2,6.3
		c0.6,4.4,1.9,7.7,4.8,9.2c-0.2,0.2-0.5,0.5-0.6,0.7c-2.4-1.4-3.7-3.9-4.5-7.3c-0.6,3.2-1.9,5.8-4.7,7.5c-0.2-0.2-0.5-0.5-0.7-0.6
		c5.1-2.9,5-9.1,5-15.7H178.4z M175.4,448.8c-0.3-1.1-1.2-3.2-1.9-4.6l0.7-0.3c0.7,1.5,1.5,3.5,1.9,4.5L175.4,448.8z M182.6,444.2
		c-0.6,1.5-1.4,3.5-2.1,4.7l-0.7-0.3c0.7-1.2,1.5-3.3,2-4.7L182.6,444.2z"/>
	<path fill="#E2E2E2" d="M202.9,443.7v8.1H202v-1.1h-5.8v6h-0.9v-6h-5.8v1.2h-0.8v-8.2h6.7v-3.3h0.9v3.3H202.9z M195.3,449.9v-5.3
		h-5.8v5.3H195.3z M202,449.9v-5.3h-5.8v5.3H202z"/>
	<path fill="#E2E2E2" d="M221.7,454.5c-1.4,0.9-3.7,1.8-5.5,2.3c-0.1-0.2-0.4-0.5-0.6-0.6c1.8-0.5,4.1-1.4,5.3-2.1L221.7,454.5z
		 M231.7,446.8h-16v-0.8h16V446.8z M220.1,442.7h-3.5v-0.7h3.5v-1.5h0.8v1.5h5.6v-1.5h0.9v1.5h3.5v0.7h-3.5v2.3h-7.3V442.7z
		 M217.9,453.7v-5.8h12v5.8H217.9z M218.7,450.4h4.6v-1.8h-4.6V450.4z M218.7,453h4.6v-1.9h-4.6V453z M221,442.7v1.6h5.6v-1.6H221z
		 M229,448.6h-4.8v1.8h4.8V448.6z M229,451.1h-4.8v1.9h4.8V451.1z M226.5,454c2,0.6,4.1,1.5,5.4,2.1l-0.7,0.6
		c-1.2-0.6-3.3-1.5-5.3-2.2L226.5,454z"/>
	<path fill="#E2E2E2" d="M252.7,448.4h-7.6v8.4h-0.9v-8.4h-7.5v-0.8h7.5v-4.8c-2.1,0.3-4.3,0.6-6.3,0.8c0-0.2-0.2-0.6-0.3-0.8
		c4.4-0.5,9.7-1.2,12.5-2.1l0.7,0.7c-1.5,0.5-3.5,0.9-5.7,1.2v4.9h7.6V448.4z"/>
	<path fill="#E2E2E2" d="M262.5,453.1c-1.8,0.6-3.6,1.2-5,1.7l-0.2-0.8c0.7-0.2,1.5-0.5,2.4-0.7v-5.4h-2V447h2v-4.4h-2.2v-0.8h5.1
		v0.8h-2.1v4.4h2v0.8h-2v5.1l1.9-0.6L262.5,453.1z M267.8,455.6c0,0.5-0.1,0.8-0.5,0.9c-0.4,0.1-1,0.2-2,0.2c0-0.2-0.1-0.6-0.3-0.8
		c0.8,0,1.5,0,1.7,0c0.2,0,0.3-0.1,0.3-0.3v-2.8h-3c-0.1,1.3-0.5,2.8-1.2,3.9c-0.1-0.2-0.5-0.5-0.6-0.5c1-1.6,1.1-3.7,1.1-5.3v-3.8
		h4.4V455.6z M269,440.7c-0.1,0.2-0.3,0.4-0.4,0.6c1.3,1.4,3.7,2.9,5.5,3.7c-0.2,0.2-0.4,0.5-0.6,0.6c-1.7-0.8-4-2.2-5.4-3.7
		c-1.4,1.6-3.4,3.1-5.1,3.9c-0.1-0.2-0.4-0.5-0.6-0.7c2.2-0.9,4.6-2.8,5.9-4.7L269,440.7z M267.1,452.1v-1.8h-2.9v0.6
		c0,0.4,0,0.8,0,1.2H267.1z M264.2,447.9v1.7h2.9v-1.7H264.2z M271.1,445.7h-6.5V445h6.5V445.7z M270,453.8h-0.7v-6.4h0.7V453.8z
		 M271.9,446.7h0.8v8.9c0,0.5-0.1,0.8-0.5,0.9c-0.4,0.1-1,0.2-2,0.2c0-0.2-0.2-0.5-0.3-0.8c0.8,0,1.5,0,1.7,0c0.2,0,0.3-0.1,0.3-0.3
		V446.7z"/>
	<path fill="#E2E2E2" d="M291.1,441.5c-0.5,1.4-1.3,3.2-1.9,4.7c1.4,1.5,1.8,2.8,1.8,4c0,0.8-0.2,1.6-0.7,1.9
		c-0.2,0.1-0.5,0.3-0.9,0.3c-0.4,0-0.8,0-1.2,0c0-0.2-0.1-0.5-0.3-0.8c0.5,0,0.9,0,1.2,0c0.3,0,0.5-0.1,0.6-0.2
		c0.3-0.2,0.4-0.8,0.4-1.3c0-1.1-0.4-2.3-1.8-3.9c0.6-1.4,1.3-3,1.7-4.3h-3v14.7h-0.8v-15.5h4.1l0.1,0L291.1,441.5z M297.5,451
		c1.1,1.7,2.8,3.3,4.5,4.1c-0.2,0.2-0.5,0.5-0.6,0.7c-1.7-0.9-3.6-2.9-4.7-4.8v5.7h-0.8V451c-1.2,2-3.3,3.9-5.1,4.8
		c-0.1-0.2-0.4-0.5-0.6-0.7c1.7-0.8,3.7-2.5,4.8-4.2H292v-6.1h3.9v-1.7h-4.7v-0.8h4.7v-2h0.8v2h4.8v0.8h-4.8v1.7h4v6.1H297.5z
		 M292.8,447.6h3.1v-1.9h-3.1V447.6z M292.8,450.2h3.1v-2h-3.1V450.2z M296.7,445.6v1.9h3.2v-1.9H296.7z M299.9,448.3h-3.2v2h3.2
		V448.3z"/>
	<path fill="#E2E2E2" d="M322.4,455.5v0.8h-15.5v-0.8h7.3v-2.4H309v-0.8h5.3v-2.1h-4.8c-0.6,0.8-1.3,1.5-1.9,2.1
		c-0.2-0.2-0.5-0.4-0.8-0.6c1.4-1,2.6-2.6,3.4-4.3l0.9,0.2c-0.3,0.6-0.6,1.2-1,1.7h4.2v-1.7h0.9v1.7h6.2v0.8h-6.2v2.1h5.5v0.8h-5.5
		v2.4H322.4z M320.6,447.4h-11.8v-6.2h11.8V447.4z M319.7,442h-10v2h10V442z M319.7,444.6h-10v2h10V444.6z"/>
	<path fill="#E2E2E2" d="M333.2,445.2c0,2.1-0.3,4.6-1.5,7c0.8,0.8,1.6,1.5,2.1,2.1l-0.6,0.7c-0.5-0.6-1.1-1.2-1.9-1.9
		c-0.8,1.3-1.8,2.5-3.3,3.7c-0.1-0.1-0.4-0.4-0.6-0.5c1.5-1.2,2.5-2.4,3.3-3.7c-0.9-0.8-1.8-1.5-2.7-2.1c0.4-1.3,0.8-3,1.2-4.8
		l-1.7,0.1l-0.1-0.8l2-0.1c0.3-1.4,0.5-2.9,0.7-4.1l0.8,0.1c-0.2,1.2-0.4,2.7-0.7,4.1l2.2-0.1V443h0.8v1.4l1.3-0.1v0.8L333.2,445.2z
		 M330.1,445.4c-0.4,1.7-0.8,3.3-1.1,4.6c0.7,0.5,1.4,1.1,2.1,1.7c1.1-2.2,1.3-4.5,1.3-6.4L330.1,445.4z M343,456.4
		c-0.2-0.5-0.5-1.1-0.8-1.8c-6.7,0.7-7.4,0.8-7.8,1c-0.1-0.2-0.2-0.6-0.3-0.9c0.3,0,0.6-0.6,1.1-1.3c0.4-0.6,1.8-3,2.7-5.3h-3.9
		v-0.8h9.8v0.8h-4.9c-1,2.3-2.2,4.6-3.4,6.4l6.3-0.6c-0.6-1.1-1.2-2.4-1.8-3.4l0.8-0.3c1.1,1.9,2.4,4.4,3,5.8L343,456.4z
		 M342.6,442.8h-7.4v-0.8h7.4V442.8z"/>
	<path fill="#E2E2E2" d="M364.7,449c1.7,2.3,4.6,4.7,7.2,5.7c-0.2,0.2-0.5,0.5-0.6,0.8c-2.5-1.2-5.4-3.6-7.2-6.1v7.4h-0.9v-7.4
		c-1.7,2.6-4.6,5-7.1,6.3c-0.2-0.2-0.4-0.5-0.6-0.7c2.5-1.1,5.4-3.4,7-5.9h-6.7v-0.8h7.4v-3.6h-4.3c-0.5,0.9-1.1,1.7-1.6,2.4
		c-0.2-0.1-0.6-0.3-0.8-0.4c1.3-1.4,2.4-3.5,3.1-5.6l0.9,0.2c-0.3,0.9-0.6,1.8-1,2.6h3.9v-3.2h0.9v3.2h6v0.8h-6v3.6h7.4v0.8H364.7z"
		/>
	<path fill="#E2E2E2" d="M389.6,450.5c-0.9,1.5-2.3,2.7-4.1,3.7c2.1,0.9,4.6,1.5,7.3,1.8c-0.2,0.2-0.4,0.5-0.5,0.8
		c-2.8-0.4-5.5-1-7.7-2.1c-2.2,1-4.8,1.7-7.9,2.2c-0.1-0.3-0.2-0.6-0.4-0.8c2.9-0.4,5.4-1,7.4-1.8c-1.7-1-3.2-2.2-4.2-3.7h-2.9v-0.8
		h7.7c-0.2-0.4-0.4-0.8-0.6-1.1l0.8-0.3c0.3,0.4,0.6,0.9,0.8,1.4h7.2v0.8H389.6z M378,447.3h-0.8v-3.8h7v-1.6H378v-0.7h13.3v0.7H385
		v1.6h7.1v3.8h-0.8v-3H385v4h-0.8v-4H378V447.3z M378.6,447.8c1.1-0.1,2.7-0.4,4.3-0.6l0,0.6c-1.4,0.3-2.8,0.5-4,0.7L378.6,447.8z
		 M379.3,444.9c1.2,0.2,2.8,0.7,3.7,1.1l-0.3,0.6c-0.9-0.4-2.4-0.9-3.7-1.1L379.3,444.9z M380.5,450.5c1,1.3,2.4,2.4,4.1,3.2
		c1.7-0.9,3-1.9,4-3.2H380.5z M390.2,448.7c-1-0.3-2.8-0.8-4.2-1l0.3-0.6c1.4,0.2,3.2,0.5,4.2,0.9L390.2,448.7z M390.3,445.5
		c-1.1,0.5-2.6,0.9-3.7,1.1l-0.3-0.5c1.1-0.3,2.7-0.8,3.6-1.2L390.3,445.5z"/>
	<path fill="#E2E2E2" d="M402.5,440.7c-0.6,1.4-1.2,2.7-2,4v12h-0.8V446c-0.7,1-1.4,1.9-2.2,2.7c-0.1-0.2-0.4-0.6-0.5-0.8
		c1.9-1.8,3.6-4.6,4.7-7.4L402.5,440.7z M408.1,440.6c-0.1,0.2-0.2,0.4-0.3,0.6c1.4,2.1,4,4.3,6.2,5.3c-0.2,0.2-0.5,0.5-0.7,0.7
		c-2-1.1-4.4-3.2-5.9-5.3c-1.3,2.1-3.2,4-5.4,5.5c-0.1-0.1-0.5-0.4-0.6-0.5c2.7-1.7,4.9-4.2,6-6.5L408.1,440.6z M412.1,449.1
		c-1,1.7-2.9,3.9-4.2,5.2c0.8,0.7,1.5,1.3,2,1.9l-0.8,0.5c-1-1.1-3.1-2.9-4.8-4.2l0.7-0.4c0.7,0.5,1.5,1.1,2.2,1.7
		c1.1-1,2.6-2.8,3.6-4.2h-7.7v-0.8h8.2l0.2-0.1L412.1,449.1z M410.6,445.9v0.8h-6.1v-0.8H410.6z"/>
</g>
<g>
	<path fill="#E2E2E2" d="M11.3,469.5c-0.5,1.4-1.3,3.2-1.9,4.7c1.4,1.5,1.8,2.8,1.8,4c0,0.8-0.2,1.6-0.7,1.9
		c-0.2,0.1-0.5,0.3-0.9,0.3c-0.4,0-0.8,0-1.2,0c0-0.2-0.1-0.5-0.3-0.8c0.5,0,0.9,0,1.2,0c0.3,0,0.5-0.1,0.6-0.2
		c0.3-0.2,0.4-0.8,0.4-1.3c0-1.1-0.4-2.3-1.8-3.9c0.6-1.4,1.3-3,1.7-4.3h-3v14.7H6.5v-15.5h4.1l0.1,0L11.3,469.5z M17.7,479
		c1.1,1.7,2.8,3.3,4.5,4.1c-0.2,0.2-0.5,0.5-0.6,0.7c-1.7-0.9-3.6-2.9-4.7-4.8v5.7h-0.8V479c-1.2,2-3.3,3.9-5.1,4.8
		c-0.1-0.2-0.4-0.5-0.6-0.7c1.7-0.8,3.7-2.5,4.8-4.2h-3.1v-6.1h3.9v-1.7h-4.7v-0.8h4.7v-2h0.8v2h4.8v0.8h-4.8v1.7h4v6.1H17.7z
		 M13,475.6h3.1v-1.9H13V475.6z M13,478.2h3.1v-2H13V478.2z M16.9,473.6v1.9h3.2v-1.9H16.9z M20.1,476.3h-3.2v2h3.2V476.3z"/>
	<path fill="#E2E2E2" d="M43,483.4v0.8H26.7v-0.8h9.7c0.7-1.2,1.7-2.9,2.2-4.1l0.9,0.3c-0.6,1.2-1.4,2.7-2.2,3.8H43z M41.8,478.8H28
		v-0.8h6.8c-0.3-0.6-0.6-1.3-1-1.9l0.8-0.2c0.4,0.7,0.9,1.5,1.2,2.1h5.9V478.8z M40.9,475.5H28.8v-6.4h12.1V475.5z M40,469.8H29.7
		v2.1H40V469.8z M40,472.6H29.7v2.1H40V472.6z M31.8,483.1c-0.3-1-0.9-2.5-1.4-3.7l0.8-0.2c0.5,1.2,1.1,2.6,1.4,3.6L31.8,483.1z"/>
	<path fill="#E2E2E2" d="M58.7,472.3c1.3,1.4,3.4,2.5,5.4,3c-0.2,0.2-0.4,0.5-0.6,0.7c-1.2-0.4-2.5-1-3.6-1.7v2.4h-8v-2.4
		c-1.2,0.7-2.4,1.3-3.8,1.8c-0.1-0.2-0.5-0.5-0.7-0.7c2.2-0.7,4.2-1.7,5.7-3.1h-5v-0.8h5.7c0.4-0.5,0.8-1,1.1-1.6
		c-1.9,0.1-3.8,0.2-5.5,0.2c0-0.2-0.1-0.5-0.2-0.7c4.1-0.1,9.2-0.4,11.8-0.9l0.6,0.6c-1.5,0.3-3.6,0.5-5.7,0.7
		c-0.3,0.6-0.6,1.1-1,1.7h8.6v0.8H58.7z M62.6,483.5c0,0.6-0.1,0.8-0.6,1c-0.5,0.1-1.4,0.1-2.7,0.1c-0.1-0.2-0.2-0.5-0.3-0.8
		c1.2,0,2.1,0,2.4,0c0.3,0,0.3-0.1,0.3-0.3v-4.9H50.1v6.2h-0.8v-6.9h13.4V483.5z M59.3,483.1h-6.7v-3.3h6.7V483.1z M59.1,474.3h-6.3
		v1.8h6.3V474.3z M59,473.6c-0.5-0.4-0.9-0.8-1.2-1.3h-3.3c-0.4,0.5-0.9,0.9-1.4,1.3H59z M58.4,480.5h-5.1v1.9h5.1V480.5z"/>
	<path fill="#E2E2E2" d="M85,480.9l0.1,0.8c-3.3,0.6-6.9,1.3-9.3,1.7l-0.2-0.9c0.5-0.1,1-0.2,1.6-0.3v-12.4c2.2-0.2,4.8-0.6,6.3-1.1
		l0.5,0.8c-1.5,0.5-3.9,0.8-6,1v3.5h6.6v0.8h-2v6.4L85,480.9z M78,482.1c1.2-0.2,2.5-0.4,3.8-0.7v-6.5H78V482.1z M91.9,469.8
		c-0.8,1.6-1.9,3.7-3,5.3c2.2,1.7,2.8,3.1,2.8,4.4c0,0.9-0.2,1.7-0.9,2.1c-0.3,0.2-0.8,0.3-1.2,0.4c-0.6,0.1-1.5,0-2.1,0
		c0-0.3-0.1-0.6-0.3-0.9c0.8,0.1,1.6,0.1,2.1,0.1c0.4,0,0.7-0.1,1-0.2c0.5-0.3,0.6-0.8,0.6-1.5c0-1.2-0.7-2.5-2.9-4.2
		c1-1.7,2-3.6,2.7-5h-4v14.5h-0.8v-15.3h5.3l0.2-0.1L91.9,469.8z"/>
	<path fill="#E2E2E2" d="M110.6,483.7c1.3,0,1.5-0.4,1.6-2.5c0.2,0.1,0.6,0.3,0.8,0.3c-0.2,2.4-0.5,3-2.4,3H105
		c-2.1,0-2.7-0.3-2.7-1.7v-5.7H100v1.5c0,1.9-0.5,4.4-2.8,6.2c-0.1-0.2-0.4-0.5-0.6-0.6c2.1-1.6,2.5-3.8,2.5-5.5v-1.5h-2.3v-0.8h8.2
		v0.8h-1.9v5.7c0,0.7,0.3,0.9,1.8,0.9H110.6z M98.2,472.2h-0.8v-2.8h14.9v2.8h-0.9v-2H98.2V472.2z M98.1,472.7h6.2v0.8h-6.2V472.7z
		 M110.7,481.4c0,0.5-0.1,0.8-0.5,0.9c-0.4,0.1-1.1,0.2-2.3,0.1c0-0.2-0.2-0.5-0.3-0.8c1,0,1.7,0,2,0c0.2,0,0.3-0.1,0.3-0.3v-6.2
		H105v-0.8h4.9v-2.6h0.8v2.6h2.1v0.8h-2.1V481.4z M106.5,476.4c0.8,1,1.5,2.3,1.7,3.2l-0.8,0.3c-0.3-0.9-1-2.3-1.7-3.3L106.5,476.4z
		"/>
	<path fill="#E2E2E2" d="M132.9,471.7v8.1H132v-1.1h-5.8v6h-0.9v-6h-5.8v1.2h-0.8v-8.2h6.7v-3.3h0.9v3.3H132.9z M125.3,477.9v-5.3
		h-5.8v5.3H125.3z M132,477.9v-5.3h-5.8v5.3H132z"/>
	<path fill="#E2E2E2" d="M148.9,476.1c-0.7-0.6-2.1-1.4-3.2-1.9l0.5-0.6c1.1,0.5,2.5,1.3,3.2,1.8L148.9,476.1z M146.2,483.9
		c0.9-1.3,2.3-3.7,3.3-5.6l0.6,0.6c-0.9,1.8-2.2,4.1-3.2,5.7L146.2,483.9z M150,471.6c-0.8-0.7-2.3-1.7-3.5-2.3l0.5-0.6
		c1.2,0.6,2.7,1.6,3.5,2.3L150,471.6z M161.9,478.1v0.8h-11.7v-0.8h3v-4.9h-2.5v-0.8h2.5v-3.8h0.8v3.8h4.1v-3.8h0.8v3.8h2.7v0.8H159
		v4.9H161.9z M154.4,480.5c-0.9,1.5-2.2,3.2-3.3,4.2c-0.2-0.1-0.5-0.4-0.7-0.6c1.2-1,2.5-2.4,3.3-3.9L154.4,480.5z M154.1,478.1h4.1
		v-4.9h-4.1V478.1z M158.4,480.3c1.3,1.2,2.6,2.9,3.3,4l-0.7,0.5c-0.6-1.1-2-2.8-3.2-4L158.4,480.3z"/>
	<path fill="#E2E2E2" d="M181.3,483.7c0.6,0,0.7-0.2,0.8-1.3c0.2,0.1,0.5,0.2,0.7,0.3c-0.1,1.4-0.4,1.7-1.4,1.7H178
		c-1.4,0-1.8-0.2-1.8-1.2v-3.7h-4.9v1.5h4.1v0.7h-4.1v1.9l4.2-0.6v0.7c-4.5,0.7-5,0.8-5.3,1c-0.1-0.2-0.2-0.6-0.3-0.8
		c0.3-0.1,0.7-0.1,0.7-0.8v-3.6h-1.8c-0.1,1.8-0.5,3.8-1.6,5.3c-0.1-0.1-0.5-0.4-0.7-0.5c1.3-2,1.5-4.6,1.5-6.6v-3.2h6.7
		c-0.2-0.4-0.4-0.8-0.7-1.1l0.8-0.3c0.3,0.4,0.6,0.9,0.8,1.4h6.8v0.7h-4.9v1.2h4.4v3h-4.9v1.5h4.8v0.7h-4.8v1.6c0,0.4,0.1,0.5,1,0.5
		H181.3z M174.5,469.9h-7.1v-0.7h7.1V469.9z M173.2,474v-2.5h-4.3v2.6h-0.8v-3.2h5.9v3.2H173.2z M168.8,477.7c0,0.3,0,0.7,0,1.1h3.5
		v-1.6h-3.5V477.7z M168.8,475.3v1.2h3.5v-1.2H168.8z M170.5,471.9c0.5,0.4,1.1,1.1,1.4,1.6l-0.6,0.4c-0.3-0.5-0.8-1.2-1.4-1.7
		L170.5,471.9z M176.8,475.3h-3.6v1.2h3.6V475.3z M176.8,478.8v-1.6h-3.6v1.6H176.8z M182.6,469.9h-7.1v-0.7h7.1V469.9z M181.1,474
		v-2.5h-4.4v2.6h-0.8v-3.2h6v3.2H181.1z M177.5,477.2v1.6h3.6v-1.6H177.5z M178.3,471.9c0.6,0.4,1.2,1.1,1.5,1.6l-0.5,0.5
		c-0.3-0.5-0.9-1.2-1.5-1.6L178.3,471.9z"/>
	<path fill="#E2E2E2" d="M192.7,473.2c0,2.1-0.1,4.6-1.2,7.1c0.8,0.8,1.6,1.6,2.1,2.2l-0.5,0.7c-0.5-0.6-1.2-1.4-1.9-2.1
		c-0.7,1.3-1.7,2.5-3,3.7c-0.1-0.2-0.4-0.4-0.6-0.5c1.4-1.2,2.4-2.4,3-3.7c-0.8-0.8-1.7-1.5-2.6-2.2c0.4-1.3,0.8-3.1,1.2-5l-1.5,0.1
		l-0.1-0.8c0.5,0,1.1,0,1.7-0.1c0.3-1.4,0.5-2.8,0.6-4l0.8,0c-0.1,1.2-0.4,2.6-0.6,4l1.9-0.1V471h0.8v1.3l1-0.1v0.8l-1,0.1V473.2z
		 M189.9,473.3c-0.3,1.8-0.7,3.5-1.1,4.8c0.7,0.5,1.4,1.1,2.1,1.7c1-2.3,1.1-4.6,1.1-6.5v-0.1L189.9,473.3z M193.4,476.7h10.3v2.6
		h-0.8v-1.9h-8.7v1.9h-0.8V476.7z M203.9,470.3v0.8h-10.3v-0.8h4.8c-0.2-0.5-0.6-1.2-0.9-1.7l0.8-0.3c0.4,0.6,0.9,1.4,1.1,1.9H203.9
		z M194.7,479h7.7v0.8H199v3.9c0,0.5-0.1,0.7-0.5,0.9c-0.5,0.1-1.2,0.1-2.4,0.1c0-0.2-0.2-0.5-0.3-0.8c1,0,1.8,0,2,0
		c0.3,0,0.3-0.1,0.3-0.3v-3.9h-3.5V479z M202.3,472.2v3.2H195v-3.2H202.3z M201.5,472.9h-5.7v1.8h5.7V472.9z"/>
	<path fill="#E2E2E2" d="M221.9,475.6c-0.2,6.1-0.3,8.1-0.7,8.7c-0.3,0.3-0.5,0.4-1,0.5c-0.4,0-1.2,0-2,0c0-0.3-0.1-0.6-0.2-0.8
		c0.8,0.1,1.6,0.1,1.9,0.1c0.3,0,0.4,0,0.6-0.2c0.3-0.4,0.5-2.4,0.6-7.8h-2.6c-0.2,3.5-0.7,6.8-2.3,8.8c-0.1-0.2-0.5-0.4-0.7-0.5
		c1.9-2.5,2.2-7.3,2.2-11.9h-2.1v-0.8h7v0.8h-4.1c0,0.9,0,1.9-0.1,2.8h3.4V475.6z M219.4,471.2c-0.2-0.6-0.6-1.7-1-2.4l0.7-0.3
		c0.4,0.7,0.8,1.7,1,2.4L219.4,471.2z M224.6,471.9c-0.5,1.2-1.1,2.2-1.7,3.1c-0.1-0.1-0.5-0.4-0.7-0.6c1.2-1.5,2.2-3.7,2.7-6
		l0.8,0.2c-0.2,0.9-0.5,1.7-0.8,2.5h6.9v0.8H224.6z M230.1,483.8c0.8,0,1-0.4,1-2.2c0.2,0.2,0.5,0.3,0.8,0.4
		c-0.1,2.1-0.4,2.6-1.8,2.6h-4c-1.6,0-2-0.3-2-1.6v-5l-1.3,0.6l-0.3-0.7l1.7-0.8v-3h0.8v2.6l2.1-1v-3h0.8v2.6l2.3-1.1l0.3-0.3
		l0.6,0.2l0,0.2c0,2-0.1,4.6-0.3,6.2l-0.7-0.2c0.1-1.3,0.2-3.5,0.2-5.3l-2.4,1.1v5.6h-0.8v-5.2l-2.1,1v5.4c0,0.7,0.2,0.8,1.2,0.8
		H230.1z"/>
	<path fill="#E2E2E2" d="M239.2,472.6c-0.7,0.8-1.4,1.5-2.2,2.1c-0.1-0.2-0.5-0.5-0.7-0.6c1.9-1.3,3.6-3.4,4.7-5.7l0.8,0.3
		c-0.5,1-1.1,2-1.8,2.9v6.1h-0.8V472.6z M250.1,478.9h0.8v5.8h-0.8v-1h-11.5v-4.8h0.8v3.9h4.9v-5.6h0.8v5.6h5V478.9z M246.2,472.7
		c1.2,2.6,3.2,4.3,4.9,4.2c0.6,0,0.8-0.5,0.8-2.1c0.2,0.2,0.5,0.3,0.8,0.4c-0.2,2-0.6,2.6-1.6,2.6c-2.2,0-4.4-2-5.8-5l-3.9,0.3
		l-0.1-0.8l3.7-0.3c-0.4-1.1-0.7-2.3-0.8-3.6h0.9c0.1,1.3,0.4,2.4,0.8,3.5l6.8-0.5l0.1,0.8L246.2,472.7z M250.5,470.9
		c-0.6-0.5-1.9-1.3-2.9-1.8l0.5-0.6c1,0.5,2.3,1.2,3,1.7L250.5,470.9z"/>
	<path fill="#E2E2E2" d="M262.6,468.7c-0.6,1.4-1.2,2.7-2,4v12h-0.8V474c-0.7,1-1.4,1.9-2.2,2.7c-0.1-0.2-0.4-0.6-0.5-0.8
		c1.9-1.8,3.6-4.6,4.7-7.4L262.6,468.7z M268.2,468.6c-0.1,0.2-0.2,0.4-0.3,0.6c1.4,2.1,4,4.3,6.2,5.3c-0.2,0.2-0.5,0.5-0.7,0.7
		c-2-1.1-4.4-3.2-5.9-5.3c-1.3,2.1-3.2,4-5.4,5.5c-0.1-0.1-0.5-0.4-0.6-0.5c2.7-1.7,4.9-4.2,6-6.5L268.2,468.6z M272.2,477.1
		c-1,1.7-2.9,3.9-4.2,5.2c0.8,0.7,1.5,1.3,2,1.9l-0.8,0.5c-1-1.1-3.1-2.9-4.8-4.2l0.7-0.4c0.7,0.5,1.5,1.1,2.2,1.7
		c1.1-1,2.6-2.8,3.6-4.2h-7.7v-0.8h8.2l0.2-0.1L272.2,477.1z M270.7,473.9v0.8h-6.1v-0.8H270.7z"/>
	<path fill="#E2E2E2" d="M292.5,477.9c-0.4-0.7-1.6-2.2-2.4-3.2v10h-0.8v-9.8c-0.8,2.4-2.1,4.9-3.3,6.3c-0.1-0.2-0.4-0.6-0.5-0.8
		c1.4-1.5,2.9-4.6,3.7-7.3h-3.2v-0.8h3.4v-4h0.8v4h2.7v0.8H290v0.4c0.6,0.6,2.6,2.9,3.1,3.5L292.5,477.9z M298.2,473.2
		c0.8,3.1,2.3,6.2,3.8,7.8c-0.2,0.2-0.5,0.5-0.7,0.7c-1.3-1.5-2.6-4.2-3.4-6.9v9.9H297v-9.8c-1,2.8-2.5,5.6-4,7.1
		c-0.1-0.3-0.4-0.6-0.6-0.8c1.7-1.7,3.5-4.9,4.4-8h-3.1v-0.8h3.4v-4h0.9v4h3.6v0.8H298.2z"/>
	<path fill="#E2E2E2" d="M310.4,470.6c-0.3,2.8-1.1,4.9-3.6,6.1c-0.1-0.2-0.4-0.5-0.6-0.6c2.3-1,3.1-3,3.3-5.4h-2.8v-0.8h7.6v0.4
		c-0.1,3.8-0.3,5.1-0.6,5.5c-0.2,0.3-0.5,0.4-1,0.4c-0.4,0-1.2,0-2,0c0-0.2-0.1-0.6-0.3-0.8c0.9,0.1,1.7,0.1,1.9,0.1
		c0.3,0,0.5,0,0.6-0.2c0.3-0.3,0.4-1.5,0.5-4.7H310.4z M308.2,483.3v1.3h-0.8v-7.2h6.6v5.9H308.2z M308.2,478.2v4.3h5v-4.3H308.2z
		 M322.4,472.5c0,0,0,0.4,0,0.5c-0.2,7.8-0.3,10.3-0.9,11.1c-0.3,0.4-0.6,0.5-1.1,0.5c-0.5,0-1.4,0-2.3,0c0-0.3-0.1-0.6-0.3-0.8
		c1,0.1,2,0.1,2.3,0.1c0.3,0,0.5,0,0.6-0.3c0.5-0.5,0.6-3.1,0.8-10.2h-3c-0.2,4.6-1,8.9-4,11.4c-0.1-0.2-0.5-0.5-0.7-0.6
		c2.9-2.3,3.7-6.4,3.9-10.9h-2.8v-0.8h2.8c0.1-1.4,0.1-2.7,0.1-4.1h0.8c0,1.4,0,2.7-0.1,4.1H322.4z"/>
	<path fill="#E2E2E2" d="M332,480.6h3.7v0.8H332v3.3h-0.8v-3.3h-3.7v-0.8h3.7V479h-3v-6.1h3v-1.6h-3.4v-0.8h3.4v-2.1h0.8v2.1h3.4
		v0.8H332v1.6h3.1v6.1H332V480.6z M328.9,475.5h2.3v-2h-2.3V475.5z M328.9,478.2h2.3v-2h-2.3V478.2z M334.3,473.6H332v2h2.3V473.6z
		 M334.3,476.2H332v2h2.3V476.2z M343.9,476.4h-3.8v8.3h-0.9v-8.3h-3.7v-0.8h3.7v-5.1h-3.3v-0.8h7.7v0.8h-3.5v5.1h3.8V476.4z"/>
</g>
</svg>
